<svg width="102" height="103" viewBox="0 0 102 103" fill="none" xmlns="http://www.w3.org/2000/svg">
<rect y="0.318604" width="102" height="102" rx="51" fill="#FF6D3D" fill-opacity="0.12"/>
<rect x="0.5" y="0.818604" width="101" height="101" rx="50.5" stroke="#FF6D3D" stroke-opacity="0.12"/>
<g clip-path="url(#clip0_534_8295)">
<path d="M68.984 41.6305L66.5426 38.6684C66.2082 38.2639 66.003 37.7683 65.9535 37.2459L65.5854 33.4249C65.3941 31.4398 63.8143 29.86 61.8291 29.6687L58.0082 29.301C57.4858 29.2512 56.9903 29.046 56.5855 28.7119L53.6236 26.2698C52.0847 25.0015 49.8508 25.0015 48.3119 26.2698L45.3497 28.7118C44.9451 29.046 44.4496 29.2512 43.9271 29.3009L40.1062 29.6687C38.1211 29.86 36.5419 31.4398 36.3501 33.4249L35.9824 37.2458C35.9326 37.7682 35.7274 38.2637 35.3933 38.6684L32.9512 41.6305C31.6829 43.1695 31.6829 45.4034 32.9512 46.9423L35.3931 49.9042C35.7272 50.309 35.9324 50.8045 35.9821 51.3269L36.35 55.1478C36.5412 57.133 38.121 58.7124 40.1062 58.9041L42.4418 59.1289L36.8928 72.3888C36.8188 72.5641 36.7962 72.7568 36.8276 72.9445C36.859 73.1322 36.9431 73.3071 37.0701 73.4488C37.3299 73.7413 37.7246 73.8571 38.0999 73.7504L42.9143 72.3911C42.9238 72.3882 42.934 72.3886 42.9432 72.3923C42.9525 72.396 42.9602 72.4028 42.9651 72.4114L45.3759 76.7952C45.4623 76.9541 45.59 77.0866 45.7456 77.1787C45.9011 77.2708 46.0787 77.3191 46.2595 77.3185C46.2769 77.3185 46.2944 77.3181 46.3122 77.3173C46.7022 77.2975 47.0394 77.0619 47.1938 76.6985L53.0522 62.6979C53.2535 62.5824 53.4447 62.4502 53.624 62.3028L56.5858 59.8613C56.9588 59.5537 57.4096 59.3553 57.8883 59.2881L63.1945 71.9671L59.4395 70.907C59.0948 70.8086 58.7268 70.8303 58.396 70.9687C58.0653 71.107 57.7914 71.3537 57.6193 71.6683L55.7392 75.0869L53.2482 69.134C53.1692 68.9453 53.0185 68.7957 52.8292 68.7181C52.64 68.6405 52.4276 68.6413 52.2389 68.7203C52.1455 68.7593 52.0607 68.8164 51.9894 68.8883C51.918 68.9601 51.8616 69.0453 51.8232 69.139C51.7848 69.2327 51.7652 69.333 51.7656 69.4343C51.7661 69.5355 51.7864 69.6357 51.8255 69.7291L54.7434 76.7023C54.8169 76.8776 54.9386 77.0284 55.0944 77.1372C55.2501 77.2461 55.4336 77.3085 55.6234 77.3173C55.6412 77.3181 55.6587 77.3189 55.6763 77.3189C55.857 77.3194 56.0346 77.271 56.1901 77.1788C56.3457 77.0867 56.4733 76.9541 56.5596 76.7952L58.9702 72.4121C58.9751 72.4035 58.9828 72.3967 58.992 72.3929C59.0012 72.3891 59.0114 72.3885 59.021 72.3911L63.8344 73.7503C64.0172 73.8029 64.2111 73.8025 64.3936 73.7491C64.5761 73.6957 64.7396 73.5916 64.8652 73.4488C65.125 73.1561 65.1928 72.7502 65.0421 72.388L59.4935 59.1285L61.829 58.9037C63.8142 58.7124 65.394 57.133 65.5853 55.1479L65.9534 51.3265C66.0034 50.8025 66.2073 50.3109 66.5425 49.9042L68.984 46.9423C70.2528 45.4034 70.2528 43.1694 68.984 41.6305ZM46.1966 75.0868L44.316 71.6674C44.1439 71.3529 43.87 71.1063 43.5392 70.9681C43.2085 70.8299 42.8405 70.8083 42.4958 70.9069L38.7412 71.9666L44.047 59.288C44.5258 59.3551 44.9767 59.5534 45.3498 59.8608L48.3118 62.3026C49.0815 62.937 50.0245 63.2541 50.9679 63.2541C51.0286 63.2541 51.0889 63.2525 51.1496 63.2497L46.1966 75.0868ZM67.7943 45.9615L65.3528 48.9235C64.8226 49.5648 64.497 50.3505 64.4181 51.1789L64.0505 54.9997C63.9298 56.2518 62.9336 57.248 61.6815 57.3686L58.3252 57.6919C58.3121 57.6927 58.2986 57.694 58.2856 57.6959L57.8607 57.7367C57.0322 57.8155 56.2464 58.141 55.6049 58.6711L52.6429 61.1125C51.6725 61.9127 50.2633 61.9127 49.293 61.1125L46.3309 58.671C45.6895 58.1408 44.9037 57.8154 44.0752 57.7367L43.6483 57.6955C43.6366 57.694 43.6248 57.693 43.613 57.6923L40.2544 57.3686C39.0022 57.248 38.0061 56.2518 37.8854 54.9997L37.5178 51.1793C37.439 50.3507 37.1133 49.5649 36.583 48.9235L34.1414 45.9615C33.3413 44.9907 33.3413 43.5815 34.1414 42.6112L36.583 39.6492C37.1133 39.0078 37.4389 38.222 37.5177 37.3934L37.8855 33.5726C38.0062 32.3204 39.0023 31.3243 40.2544 31.2036L44.0753 30.836C44.9038 30.7571 45.6895 30.4316 46.331 29.9016L49.2931 27.46C49.7782 27.0602 50.3733 26.8598 50.968 26.8598C51.5628 26.8598 52.1578 27.0599 52.643 27.46L55.605 29.9016C56.2464 30.4318 57.0322 30.7573 57.8607 30.836L61.6816 31.2036C62.9337 31.3243 63.9299 32.3204 64.0505 33.5726L64.4182 37.3933C64.497 38.2219 64.8226 39.0078 65.3529 39.6492L67.7944 42.6112C68.5941 43.5819 68.5941 44.9908 67.7944 45.9615H67.7943Z" fill="#FF6D3D"/>
<path d="M50.9678 32.2407C50.4529 32.2407 49.9347 32.2732 49.4269 32.3383C49.2241 32.3643 49.0399 32.4698 48.9149 32.6315C48.7898 32.7932 48.7341 32.998 48.7599 33.2008C48.814 33.6233 49.2007 33.9217 49.6225 33.8681C50.0652 33.8114 50.5179 33.7827 50.9678 33.7827C56.7596 33.7827 61.4716 38.4947 61.4716 44.2866C61.4716 50.0784 56.7592 54.79 50.9678 54.79C45.1759 54.79 40.464 50.078 40.464 44.2862C40.464 40.1551 42.8999 36.3921 46.6696 34.6992C46.762 34.6578 46.8453 34.5986 46.9148 34.5249C46.9843 34.4512 47.0386 34.3646 47.0746 34.27C47.1106 34.1753 47.1276 34.0745 47.1246 33.9733C47.1216 33.8721 47.0987 33.7724 47.0572 33.6801C47.0158 33.5877 46.9565 33.5044 46.8829 33.4349C46.8092 33.3654 46.7226 33.3111 46.6279 33.2751C46.5333 33.2392 46.4325 33.2222 46.3313 33.2251C46.2301 33.2281 46.1304 33.251 46.0381 33.2925C41.7148 35.2337 38.9219 39.5489 38.9219 44.2862C38.9219 50.9286 44.3257 56.3321 50.9678 56.3321C57.6098 56.3321 63.0136 50.9286 63.0136 44.2862C63.0136 37.6442 57.6098 32.2407 50.9678 32.2407Z" fill="#FF6D3D"/>
<path d="M43.3095 43.3931C42.3903 44.3123 42.3903 45.8084 43.3095 46.7276L46.6774 50.0958C46.8959 50.3154 47.1557 50.4894 47.4419 50.6079C47.7281 50.7264 48.035 50.787 48.3447 50.7862C48.6545 50.787 48.9613 50.7264 49.2475 50.6079C49.5337 50.4894 49.7936 50.3154 50.0122 50.0958L57.364 42.7437C58.2832 41.8241 58.2832 40.3284 57.364 39.4087C56.4448 38.4896 54.9487 38.4896 54.0291 39.4087L48.3447 45.0935L46.6439 43.3931C45.7248 42.474 44.2289 42.474 43.3095 43.3931ZM48.3448 46.9553C48.4461 46.9553 48.5463 46.9353 48.6398 46.8965C48.7334 46.8577 48.8183 46.8009 48.8899 46.7292L55.1197 40.4994C55.4378 40.1812 55.9552 40.1815 56.2734 40.4994C56.5916 40.8175 56.5916 41.3353 56.2734 41.653L48.9216 49.0052C48.846 49.0811 48.7561 49.1413 48.6571 49.1823C48.558 49.2233 48.4519 49.2443 48.3447 49.244C48.2375 49.2444 48.1314 49.2234 48.0324 49.1824C47.9333 49.1415 47.8434 49.0812 47.7678 49.0053L44.3997 45.6374C44.0818 45.3192 44.0818 44.8015 44.3997 44.4837C44.4755 44.4079 44.5654 44.3477 44.6645 44.3067C44.7635 44.2658 44.8697 44.2448 44.9769 44.2449C45.0839 44.2448 45.19 44.2657 45.2889 44.3067C45.3878 44.3476 45.4777 44.4076 45.5534 44.4833L47.7992 46.7291C47.8708 46.8008 47.9559 46.8577 48.0495 46.8965C48.1431 46.9353 48.2434 46.9553 48.3447 46.9553H48.3448Z" fill="#FF6D3D"/>
</g>
<defs>
<clipPath id="clip0_534_8295">
<rect width="52" height="52" fill="white" transform="translate(25 25.3186)"/>
</clipPath>
</defs>
</svg>
