<svg width="73" height="72" viewBox="0 0 73 72" fill="none" xmlns="http://www.w3.org/2000/svg">
<g opacity="0.92">
<rect x="0.5" width="72" height="72" rx="14" fill="#FF4C00" fill-opacity="0.1"/>
<path fill-rule="evenodd" clip-rule="evenodd" d="M46.5185 50.2222V51.4074C46.5185 51.5646 46.4561 51.7153 46.3449 51.8264C46.2338 51.9376 46.0831 52 45.9259 52H24.5926C24.4354 52 24.2847 51.9376 24.1736 51.8264C24.0624 51.7153 24 51.5646 24 51.4074V22.963C24 22.8058 24.0624 22.6551 24.1736 22.5439C24.2847 22.4328 24.4354 22.3704 24.5926 22.3704H25.7778V20.5926C25.7778 20.4354 25.8402 20.2847 25.9513 20.1736C26.0625 20.0624 26.2132 20 26.3704 20H48.2963C48.3742 19.9998 48.4513 20.0149 48.5233 20.0446C48.5954 20.0743 48.6608 20.118 48.7158 20.173C48.7709 20.2281 48.8146 20.2935 48.8443 20.3655C48.874 20.4375 48.8891 20.5147 48.8889 20.5926V30.6667C48.8889 30.8238 48.8265 30.9746 48.7153 31.0857C48.6042 31.1968 48.4535 31.2593 48.2963 31.2593C48.1391 31.2593 47.9884 31.1968 47.8773 31.0857C47.7661 30.9746 47.7037 30.8238 47.7037 30.6667V21.1852H26.963V22.3704H45.9259C46.0831 22.3704 46.2338 22.4328 46.3449 22.5439C46.4561 22.6551 46.5185 22.8058 46.5185 22.963V49.037H47.7037V33.037C47.7037 32.8799 47.7661 32.7291 47.8773 32.618C47.9884 32.5069 48.1391 32.4444 48.2963 32.4444C48.4535 32.4444 48.6042 32.5069 48.7153 32.618C48.8265 32.7291 48.8889 32.8799 48.8889 33.037V49.6296C48.8889 49.7868 48.8265 49.9375 48.7153 50.0487C48.6042 50.1598 48.4535 50.2222 48.2963 50.2222H46.5185ZM45.3333 23.5556H25.1852V50.8148H45.3333V23.5556ZM27.5556 27.1111C27.3984 27.1111 27.2477 27.0487 27.1365 26.9375C27.0254 26.8264 26.963 26.6757 26.963 26.5185C26.963 26.3614 27.0254 26.2106 27.1365 26.0995C27.2477 25.9884 27.3984 25.9259 27.5556 25.9259H42.963C43.1201 25.9259 43.2709 25.9884 43.382 26.0995C43.4931 26.2106 43.5556 26.3614 43.5556 26.5185C43.5556 26.6757 43.4931 26.8264 43.382 26.9375C43.2709 27.0487 43.1201 27.1111 42.963 27.1111H27.5556ZM39.7079 38.9849C39.6209 38.8539 39.5896 38.6937 39.6208 38.5396C39.652 38.3856 39.7431 38.2502 39.8741 38.1633C40.0051 38.0763 40.1652 38.045 40.3193 38.0762C40.4734 38.1074 40.6088 38.1985 40.6957 38.3295C41.4029 39.3955 41.7794 40.6467 41.7778 41.9259C41.7778 45.5236 38.8569 48.4444 35.2593 48.4444C31.6616 48.4444 28.7407 45.5236 28.7407 41.9259C28.7407 38.3283 31.6616 35.4074 35.2593 35.4074C36.5879 35.4074 37.8246 35.8062 38.8557 36.4895C38.9867 36.5764 39.0778 36.7118 39.109 36.8659C39.1402 37.02 39.1088 37.1801 39.0219 37.3111C38.935 37.4421 38.7996 37.5332 38.6455 37.5644C38.4915 37.5956 38.3313 37.5642 38.2003 37.4773C37.3286 36.899 36.3054 36.5912 35.2593 36.5926C32.3159 36.5926 29.9259 38.9825 29.9259 41.9259C29.9259 44.8693 32.3159 47.2593 35.2593 47.2593C38.2027 47.2593 40.5926 44.8693 40.5926 41.9259C40.5926 40.8391 40.2667 39.8281 39.7079 38.9849ZM27.5556 30.6667C27.3984 30.6667 27.2477 30.6042 27.1365 30.4931C27.0254 30.382 26.963 30.2312 26.963 30.0741C26.963 29.9169 27.0254 29.7662 27.1365 29.655C27.2477 29.5439 27.3984 29.4815 27.5556 29.4815H42.963C43.1201 29.4815 43.2709 29.5439 43.382 29.655C43.4931 29.7662 43.5556 29.9169 43.5556 30.0741C43.5556 30.2312 43.4931 30.382 43.382 30.4931C43.2709 30.6042 43.1201 30.6667 42.963 30.6667H27.5556ZM27.5556 34.2222C27.3984 34.2222 27.2477 34.1598 27.1365 34.0487C27.0254 33.9375 26.963 33.7868 26.963 33.6296C26.963 33.4725 27.0254 33.3217 27.1365 33.2106C27.2477 33.0995 27.3984 33.037 27.5556 33.037H42.963C43.1201 33.037 43.2709 33.0995 43.382 33.2106C43.4931 33.3217 43.5556 33.4725 43.5556 33.6296C43.5556 33.7868 43.4931 33.9375 43.382 34.0487C43.2709 34.1598 43.1201 34.2222 42.963 34.2222H27.5556ZM32.4699 42.6412C32.362 42.5294 32.3022 42.3797 32.3036 42.2244C32.3049 42.069 32.3673 41.9203 32.4771 41.8105C32.587 41.7006 32.7356 41.6383 32.891 41.6369C33.0464 41.6356 33.1961 41.6953 33.3079 41.8033L34.5908 43.0862L37.1473 39.5076C37.2386 39.3796 37.377 39.2932 37.532 39.2673C37.6088 39.2545 37.6873 39.2569 37.7631 39.2744C37.8389 39.292 37.9106 39.3243 37.9739 39.3695C38.0373 39.4147 38.0911 39.4719 38.1323 39.538C38.1735 39.604 38.2013 39.6775 38.2142 39.7542C38.227 39.831 38.2246 39.9095 38.207 39.9853C38.1895 40.0612 38.1572 40.1328 38.112 40.1961L35.149 44.3443C35.099 44.4144 35.0343 44.4727 34.9595 44.5152C34.8847 44.5577 34.8015 44.5834 34.7157 44.5905C34.6299 44.5976 34.5436 44.586 34.4628 44.5563C34.382 44.5267 34.3086 44.4798 34.2477 44.419L32.4699 42.6412Z" fill="#FF4C00"/>
</g>
</svg>
