<svg width="73" height="72" viewBox="0 0 73 72" fill="none" xmlns="http://www.w3.org/2000/svg">
<g opacity="0.92">
<rect x="0.5" width="72" height="72" rx="14" fill="#FF4C00" fill-opacity="0.1"/>
<path fill-rule="evenodd" clip-rule="evenodd" d="M43.1257 20.9234C42.8582 20.6323 42.5332 20.4 42.1712 20.241C41.8092 20.0821 41.4182 20 41.0229 20H26.8571C26.0994 20 25.3727 20.301 24.8368 20.8368C24.301 21.3727 24 22.0994 24 22.8571V49.1429C24 49.9006 24.301 50.6273 24.8368 51.1632C25.3727 51.699 26.0994 52 26.8571 52H46.2857C47.0435 52 47.7702 51.699 48.306 51.1632C48.8418 50.6273 49.1429 49.9006 49.1429 49.1429V28.5829C49.1429 27.8674 48.8743 27.1771 48.3897 26.6491L43.1257 20.9234ZM41.1429 21.1429C41.1029 21.1406 26.8571 21.1429 26.8571 21.1429C26.4025 21.1429 25.9665 21.3235 25.645 21.645C25.3235 21.9665 25.1429 22.4025 25.1429 22.8571V49.1429C25.1429 49.5975 25.3235 50.0336 25.645 50.355C25.9665 50.6765 26.4025 50.8571 26.8571 50.8571H46.2857C46.7404 50.8571 47.1764 50.6765 47.4979 50.355C47.8194 50.0336 48 49.5975 48 49.1429V29.1429H44C43.2422 29.1429 42.5155 28.8418 41.9797 28.306C41.4439 27.7702 41.1429 27.0435 41.1429 26.2857V21.1429ZM40.7829 43.5223L43.6126 46.1337C43.7238 46.2365 43.8713 46.2908 44.0226 46.2848C44.1739 46.2788 44.3167 46.213 44.4194 46.1017C44.5222 45.9905 44.5765 45.843 44.5705 45.6917C44.5645 45.5403 44.4987 45.3976 44.3874 45.2949L41.5577 42.6823C42.4021 41.5861 42.8591 40.2408 42.8571 38.8571C42.8571 35.3874 40.0411 32.5714 36.5714 32.5714C33.1017 32.5714 30.2857 35.3874 30.2857 38.8571C30.2857 42.3269 33.1017 45.1429 36.5714 45.1429C38.1278 45.1447 39.6292 44.567 40.7829 43.5223ZM40.3566 42.3371C41.2309 41.3893 41.7157 40.1467 41.7143 38.8571C41.7143 36.0183 39.4103 33.7143 36.5714 33.7143C33.7326 33.7143 31.4286 36.0183 31.4286 38.8571C31.4286 41.696 33.7326 44 36.5714 44C37.2801 44.0006 37.9811 43.8543 38.6304 43.5705C39.2797 43.2867 39.8632 42.8714 40.344 42.3509L40.3566 42.3371ZM42.2857 21.6983V26.2857C42.2857 26.7404 42.4663 27.1764 42.7878 27.4979C43.1093 27.8194 43.5453 28 44 28H47.8983C47.8202 27.7865 47.701 27.5904 47.5474 27.4229L42.2857 21.6983Z" fill="#FF4C00"/>
</g>
</svg>
