<svg width="73" height="72" viewBox="0 0 73 72" fill="none" xmlns="http://www.w3.org/2000/svg">
<g opacity="0.92">
<rect x="0.5" width="72" height="72" rx="14" fill="#FF4C00" fill-opacity="0.1"/>
<path d="M49 22H24C23.6023 22.0004 23.221 22.1586 22.9398 22.4398C22.6586 22.721 22.5004 23.1023 22.5 23.5V38.2725C22.5004 38.6702 22.6586 39.0515 22.9398 39.3327C23.221 39.6139 23.6023 39.7721 24 39.7725H25.51V42.2225C25.5104 42.6202 25.6686 43.0015 25.9498 43.2827C26.231 43.5639 26.6123 43.7221 27.01 43.7225H29.4955L28.1425 49.384C28.125 49.4575 28.1243 49.534 28.1406 49.6077C28.1569 49.6815 28.1897 49.7506 28.2365 49.8099C28.2833 49.8692 28.3429 49.9171 28.4109 49.95C28.4789 49.9829 28.5535 50 28.629 50H31.371C31.4835 50 31.5926 49.9622 31.6809 49.8925C31.7692 49.8228 31.8314 49.7254 31.8575 49.616L33.2655 43.7225H39.735L41.143 49.616C41.1691 49.7254 41.2313 49.8228 41.3196 49.8925C41.4079 49.9622 41.517 50 41.6295 50H44.3715C44.447 50 44.5216 49.9829 44.5896 49.95C44.6576 49.9171 44.7172 49.8692 44.764 49.8099C44.8108 49.7506 44.8436 49.6815 44.8599 49.6077C44.8762 49.534 44.8755 49.4575 44.858 49.384L43.505 43.7225H45.991C46.3887 43.7221 46.77 43.5639 47.0512 43.2827C47.3324 43.0015 47.4906 42.6202 47.491 42.2225V39.7725H49C49.3977 39.7721 49.779 39.6139 50.0602 39.3327C50.3414 39.0515 50.4996 38.6702 50.5 38.2725V23.5C50.4996 23.1023 50.3414 22.721 50.0602 22.4398C49.779 22.1586 49.3977 22.0004 49 22ZM30.9765 49H29.2625L30.5235 43.7225H32.2375L30.9765 49ZM43.7375 49H42.0235L40.7625 43.7225H42.4765L43.7375 49ZM46.49 42.2225C46.49 42.3551 46.4373 42.4823 46.3436 42.5761C46.2498 42.6698 46.1226 42.7225 45.99 42.7225H27.01C26.8774 42.7225 26.7502 42.6698 26.6564 42.5761C26.5627 42.4823 26.51 42.3551 26.51 42.2225V39.7725H46.4905L46.49 42.2225ZM49.5 38.2725C49.5 38.4051 49.4473 38.5323 49.3536 38.6261C49.2598 38.7198 49.1326 38.7725 49 38.7725H24C23.8674 38.7725 23.7402 38.7198 23.6464 38.6261C23.5527 38.5323 23.5 38.4051 23.5 38.2725V23.5C23.5 23.3674 23.5527 23.2402 23.6464 23.1464C23.7402 23.0527 23.8674 23 24 23H49C49.1326 23 49.2598 23.0527 49.3536 23.1464C49.4473 23.2402 49.5 23.3674 49.5 23.5V38.2725Z" fill="#FF4C00"/>
<path d="M44.4785 25.2461C44.1275 25.245 43.7843 25.3498 43.4938 25.5468C43.2033 25.7438 42.979 26.0238 42.8501 26.3503C42.7212 26.6768 42.6937 27.0345 42.7713 27.3768C42.8489 27.7192 43.0279 28.0301 43.285 28.2691L40.468 32.4896C40.1488 32.2564 39.759 32.1402 39.3642 32.1605C38.9694 32.1809 38.5936 32.3364 38.3 32.6011L35.56 30.4456C35.6065 30.2916 35.6312 30.1319 35.6335 29.9711C35.6335 29.507 35.4491 29.0619 35.1209 28.7337C34.7927 28.4055 34.3476 28.2211 33.8835 28.2211C33.4194 28.2211 32.9742 28.4055 32.646 28.7337C32.3179 29.0619 32.1335 29.507 32.1335 29.9711C32.136 30.1456 32.165 30.3188 32.2195 30.4846L29.37 33.2576C29.1116 33.1094 28.8193 33.0306 28.5215 33.0286C28.1754 33.0286 27.837 33.1312 27.5492 33.3235C27.2615 33.5158 27.0371 33.7891 26.9047 34.1089C26.7722 34.4287 26.7376 34.7805 26.8051 35.12C26.8726 35.4595 27.0393 35.7713 27.284 36.016C27.5288 36.2608 27.8406 36.4275 28.1801 36.495C28.5195 36.5625 28.8714 36.5278 29.1912 36.3954C29.511 36.2629 29.7843 36.0386 29.9766 35.7509C30.1688 35.4631 30.2715 35.1247 30.2715 34.7786C30.2694 34.4981 30.1991 34.2223 30.0665 33.9751L32.789 31.3251C33.1034 31.5867 33.5011 31.7271 33.9101 31.7211C34.3191 31.715 34.7124 31.5629 35.019 31.2921L37.769 33.4551C37.7266 33.6026 37.7041 33.7551 37.702 33.9086C37.702 34.3727 37.8864 34.8179 38.2145 35.146C38.5427 35.4742 38.9879 35.6586 39.452 35.6586C39.9161 35.6586 40.3612 35.4742 40.6894 35.146C41.0176 34.8179 41.202 34.3727 41.202 33.9086C41.1996 33.7162 41.1651 33.5256 41.1 33.3446L44.188 28.7171C44.2837 28.7349 44.3807 28.7446 44.478 28.7461C44.9421 28.7461 45.3872 28.5617 45.7154 28.2335C46.0436 27.9054 46.228 27.4602 46.228 26.9961C46.228 26.532 46.0436 26.0869 45.7154 25.7587C45.3872 25.4305 44.9426 25.2461 44.4785 25.2461ZM28.5215 35.5286C28.3731 35.5286 28.2281 35.4846 28.1048 35.4022C27.9815 35.3198 27.8853 35.2027 27.8286 35.0656C27.7718 34.9286 27.757 34.7778 27.7859 34.6323C27.8148 34.4868 27.8863 34.3532 27.9912 34.2483C28.096 34.1434 28.2297 34.072 28.3752 34.043C28.5207 34.0141 28.6715 34.0289 28.8085 34.0857C28.9455 34.1425 29.0627 34.2386 29.1451 34.3619C29.2275 34.4853 29.2715 34.6303 29.2715 34.7786C29.2712 34.9774 29.1921 35.168 29.0515 35.3086C28.9109 35.4492 28.7203 35.5283 28.5215 35.5286ZM33.884 30.7211C33.7356 30.7211 33.5906 30.6771 33.4673 30.5947C33.344 30.5123 33.2478 30.3952 33.1911 30.2581C33.1343 30.1211 33.1195 29.9703 33.1484 29.8248C33.1773 29.6793 33.2488 29.5457 33.3537 29.4408C33.4585 29.3359 33.5922 29.2645 33.7377 29.2355C33.8832 29.2066 34.034 29.2214 34.171 29.2782C34.308 29.335 34.4252 29.4311 34.5076 29.5544C34.59 29.6778 34.634 29.8228 34.634 29.9711C34.6337 30.1699 34.5546 30.3605 34.414 30.5011C34.2734 30.6417 34.0828 30.7208 33.884 30.7211ZM39.4515 34.6581C39.3031 34.6581 39.1581 34.6141 39.0348 34.5317C38.9115 34.4493 38.8153 34.3322 38.7586 34.1951C38.7018 34.0581 38.687 33.9073 38.7159 33.7618C38.7448 33.6163 38.8163 33.4827 38.9212 33.3778C39.026 33.2729 39.1597 33.2015 39.3052 33.1725C39.4507 33.1436 39.6015 33.1584 39.7385 33.2152C39.8755 33.272 39.9927 33.3681 40.0751 33.4914C40.1575 33.6148 40.2015 33.7598 40.2015 33.9081C40.2012 34.1069 40.1221 34.2975 39.9815 34.4381C39.8409 34.5787 39.6503 34.6578 39.4515 34.6581ZM44.4785 27.7461C44.3301 27.7461 44.1851 27.7021 44.0618 27.6197C43.9385 27.5373 43.8423 27.4202 43.7856 27.2831C43.7288 27.1461 43.714 26.9953 43.7429 26.8498C43.7718 26.7043 43.8433 26.5707 43.9482 26.4658C44.053 26.3609 44.1867 26.2895 44.3322 26.2605C44.4777 26.2316 44.6285 26.2464 44.7655 26.3032C44.9025 26.36 45.0197 26.4561 45.1021 26.5794C45.1845 26.7028 45.2285 26.8478 45.2285 26.9961C45.2282 27.1949 45.1491 27.3855 45.0085 27.5261C44.8679 27.6667 44.6773 27.7458 44.4785 27.7461Z" fill="#FF4C00"/>
</g>
</svg>
