<svg width="73" height="72" viewBox="0 0 73 72" fill="none" xmlns="http://www.w3.org/2000/svg">
<g opacity="0.92">
<rect x="0.5" width="72" height="72" rx="14" fill="#FF4C00" fill-opacity="0.1"/>
<path d="M36.2968 46.0265H26.9918C26.5936 46.0261 26.2119 45.8678 25.9303 45.5863C25.6487 45.3048 25.4903 44.9231 25.4898 44.525V24.503C25.4902 24.1049 25.6485 23.7231 25.93 23.4415C26.2115 23.16 26.5931 23.0015 26.9913 23.001H43.0093C43.4074 23.0015 43.7891 23.16 44.0706 23.4415C44.3521 23.7231 44.5104 24.1049 44.5108 24.503V37.8125C44.5108 37.9452 44.5635 38.0725 44.6574 38.1664C44.7512 38.2603 44.8785 38.313 45.0113 38.313C45.144 38.313 45.2713 38.2603 45.3652 38.1664C45.4591 38.0725 45.5118 37.9452 45.5118 37.8125V24.5025C45.511 23.839 45.2471 23.203 44.7779 22.7338C44.3088 22.2647 43.6727 22.0008 43.0093 22H26.9908C26.3272 22.0008 25.6911 22.2648 25.2219 22.734C24.7528 23.2033 24.4889 23.8395 24.4883 24.503V44.525C24.4891 45.1885 24.7531 45.8247 25.2223 46.2938C25.6915 46.763 26.3277 47.0268 26.9913 47.0275H36.2963C36.429 47.0275 36.5563 46.9748 36.6502 46.8809C36.744 46.787 36.7968 46.6597 36.7968 46.527C36.7968 46.3943 36.744 46.267 36.6502 46.1731C36.5563 46.0792 36.4295 46.0265 36.2968 46.0265Z" fill="#FF4C00"/>
<path d="M41.0084 28.0039H28.9929C28.8601 28.0039 28.7328 28.0567 28.6389 28.1506C28.5449 28.2445 28.4922 28.3718 28.4922 28.5047C28.4922 28.6375 28.5449 28.7648 28.6389 28.8587C28.7328 28.9526 28.8601 29.0054 28.9929 29.0054H41.0084C41.1412 29.0054 41.2685 28.9527 41.3623 28.8588C41.4562 28.765 41.5089 28.6376 41.5089 28.5049C41.5089 28.3722 41.4562 28.2449 41.3623 28.151C41.2685 28.0571 41.1412 28.0039 41.0084 28.0039ZM28.9929 34.0119C28.8602 34.0119 28.7329 34.0646 28.639 34.1585C28.5452 34.2524 28.4924 34.3797 28.4924 34.5124C28.4924 34.6451 28.5452 34.7725 28.639 34.8663C28.7329 34.9602 28.8602 35.0129 28.9929 35.0129H41.0084C41.1412 35.0129 41.2685 34.9602 41.3623 34.8663C41.4562 34.7725 41.5089 34.6451 41.5089 34.5124C41.5089 34.3797 41.4562 34.2524 41.3623 34.1585C41.2685 34.0646 41.1412 34.0119 41.0084 34.0119H28.9929ZM37.7694 40.5189C37.7694 40.4532 37.7565 40.3881 37.7313 40.3273C37.7061 40.2666 37.6692 40.2114 37.6226 40.165C37.5761 40.1186 37.5209 40.0817 37.4601 40.0567C37.3993 40.0316 37.3342 40.0188 37.2684 40.0189H28.9944C28.8617 40.0189 28.7344 40.0716 28.6405 40.1655C28.5467 40.2594 28.4939 40.3867 28.4939 40.5194C28.4939 40.6521 28.5467 40.7795 28.6405 40.8733C28.7344 40.9672 28.8617 41.0199 28.9944 41.0199H37.2684C37.3342 41.02 37.3994 41.0072 37.4602 40.9821C37.521 40.957 37.5763 40.9201 37.6228 40.8736C37.6694 40.8271 37.7063 40.7719 37.7314 40.7111C37.7566 40.6503 37.7695 40.5847 37.7694 40.5189ZM45.4299 44.0244H43.5114V42.1064C43.5114 41.9737 43.4587 41.8464 43.3648 41.7525C43.271 41.6586 43.1437 41.6059 43.0109 41.6059C42.8782 41.6059 42.7509 41.6586 42.657 41.7525C42.5632 41.8464 42.5104 41.9737 42.5104 42.1064V44.0244H40.5914C40.4586 44.0244 40.3313 44.0772 40.2374 44.1711C40.1434 44.265 40.0907 44.3924 40.0907 44.5252C40.0907 44.658 40.1434 44.7853 40.2374 44.8792C40.3313 44.9731 40.4586 45.0259 40.5914 45.0259H42.5099V46.9439C42.5099 47.0766 42.5627 47.204 42.6565 47.2978C42.7504 47.3917 42.8777 47.4444 43.0104 47.4444C43.1432 47.4444 43.2705 47.3917 43.3643 47.2978C43.4582 47.204 43.5109 47.0766 43.5109 46.9439V45.0259H45.4294C45.5622 45.0259 45.6896 44.9731 45.7835 44.8792C45.8774 44.7853 45.9302 44.658 45.9302 44.5252C45.9302 44.3924 45.8774 44.265 45.7835 44.1711C45.6896 44.0772 45.5627 44.0244 45.4299 44.0244Z" fill="#FF4C00"/>
<path d="M43.0103 39.0234C41.5514 39.025 40.1528 39.6053 39.1212 40.6368C38.0896 41.6684 37.5094 43.0671 37.5078 44.5259C37.8103 51.8254 48.2118 51.8229 48.5128 44.5259C48.5112 43.0671 47.931 41.6684 46.8994 40.6368C45.8678 39.6053 44.4692 39.025 43.0103 39.0234ZM43.0103 49.0269C41.817 49.0256 40.6729 48.551 39.8291 47.7072C38.9853 46.8633 38.5106 45.7193 38.5093 44.5259C38.7453 38.5584 47.2763 38.5609 47.5118 44.5259C47.5104 45.7193 47.0356 46.8634 46.1917 47.7072C45.3478 48.551 44.2037 49.0256 43.0103 49.0269Z" fill="#FF4C00"/>
</g>
</svg>
