<svg width="73" height="72" viewBox="0 0 73 72" fill="none" xmlns="http://www.w3.org/2000/svg">
<g opacity="0.92">
<rect x="0.5" width="72" height="72" rx="14" fill="#FF4C00" fill-opacity="0.1"/>
<g clip-path="url(#clip0_2534_11904)">
<path d="M32.7819 51.962H24.3301C23.3231 51.962 22.3573 51.562 21.6453 50.85C20.9332 50.1379 20.5332 49.1722 20.5332 48.1652V23.7969C20.5332 22.7899 20.9332 21.8241 21.6453 21.1121C22.3573 20.4 23.3231 20 24.3301 20H41.9096C42.9166 20 43.8823 20.4 44.5944 21.1121C45.3064 21.8241 45.7064 22.7899 45.7064 23.7969V33.3498C45.7177 33.4687 45.7039 33.5887 45.6661 33.7021C45.6283 33.8154 45.5672 33.9196 45.4868 34.008C45.4063 34.0963 45.3084 34.1669 45.1991 34.2152C45.0898 34.2636 44.9716 34.2885 44.8521 34.2885C44.7327 34.2885 44.6145 34.2636 44.5052 34.2152C44.3959 34.1669 44.2979 34.0963 44.2175 34.008C44.1371 33.9196 44.076 33.8154 44.0382 33.7021C44.0004 33.5887 43.9866 33.4687 43.9978 33.3498V23.7969C43.9978 23.526 43.9444 23.2578 43.8405 23.0076C43.7366 22.7574 43.5843 22.5302 43.3924 22.339C43.2005 22.1478 42.9728 21.9964 42.7222 21.8934C42.4717 21.7905 42.2032 21.738 41.9323 21.739H24.3301C24.0579 21.736 23.7879 21.787 23.5355 21.889C23.2832 21.9911 23.0537 22.1422 22.8602 22.3336C22.6667 22.525 22.513 22.7529 22.4082 23.004C22.3033 23.2552 22.2494 23.5247 22.2494 23.7969V48.1879C22.2494 48.4601 22.3033 48.7296 22.4082 48.9808C22.513 49.2319 22.6667 49.4598 22.8602 49.6512C23.0537 49.8426 23.2832 49.9937 23.5355 50.0958C23.7879 50.1979 24.0579 50.2489 24.3301 50.2458H32.7819C33.0095 50.2458 33.2277 50.3363 33.3887 50.4972C33.5496 50.6581 33.64 50.8764 33.64 51.1039C33.64 51.3315 33.5496 51.5498 33.3887 51.7107C33.2277 51.8716 33.0095 51.962 32.7819 51.962Z" fill="#FF4C00"/>
<path d="M40.3141 29.1733H25.886C25.767 29.1846 25.647 29.1708 25.5337 29.133C25.4204 29.0952 25.3162 29.0341 25.2278 28.9537C25.1394 28.8732 25.0688 28.7752 25.0205 28.666C24.9722 28.5567 24.9473 28.4385 24.9473 28.319C24.9473 28.1995 24.9722 28.0814 25.0205 27.9721C25.0688 27.8628 25.1394 27.7648 25.2278 27.6844C25.3162 27.604 25.4204 27.5429 25.5337 27.5051C25.647 27.4672 25.767 27.4535 25.886 27.4647H40.3141C40.5268 27.4848 40.7243 27.5835 40.8681 27.7415C41.0119 27.8995 41.0915 28.1054 41.0915 28.319C41.0915 28.5327 41.0119 28.7386 40.8681 28.8966C40.7243 29.0546 40.5268 29.1533 40.3141 29.1733Z" fill="#FF4C00"/>
<path d="M33.8443 35.8412H25.9089C25.6813 35.8412 25.463 35.7508 25.3021 35.5899C25.1412 35.4289 25.0508 35.2107 25.0508 34.9831C25.0508 34.7555 25.1412 34.5373 25.3021 34.3763C25.463 34.2154 25.6813 34.125 25.9089 34.125H33.8443C34.0719 34.125 34.2902 34.2154 34.4511 34.3763C34.612 34.5373 34.7024 34.7555 34.7024 34.9831C34.7024 35.2107 34.612 35.4289 34.4511 35.5899C34.2902 35.7508 34.0719 35.8412 33.8443 35.8412Z" fill="#FF4C00"/>
<path d="M49.6633 43.1396C49.5376 43.1398 49.4132 43.1151 49.2972 43.0669C49.1812 43.0187 49.0759 42.9479 48.9874 42.8586L45.5323 39.3959C45.354 39.2177 45.2539 38.9759 45.2539 38.7239C45.2539 38.4718 45.354 38.23 45.5323 38.0518C45.7105 37.8736 45.9523 37.7734 46.2043 37.7734C46.4564 37.7734 46.6981 37.8736 46.8764 38.0518L50.3391 41.5146C50.514 41.6945 50.6118 41.9356 50.6118 42.1866C50.6118 42.4376 50.514 42.6786 50.3391 42.8586C50.2507 42.9479 50.1454 43.0187 50.0294 43.0669C49.9133 43.1151 49.7889 43.1398 49.6633 43.1396Z" fill="#FF4C00"/>
<path d="M36.3887 52.0011L37.3531 46.2299L46.9743 36.6086C47.4128 36.1713 48.0067 35.9258 48.626 35.9258C49.2452 35.9258 49.8392 36.1713 50.2776 36.6086L51.7964 38.1274C52.2336 38.5658 52.4792 39.1598 52.4792 39.779C52.4792 40.3982 52.2336 40.9922 51.7964 41.4307L42.1599 51.0367L36.3887 52.0011ZM39.13 47.1108L38.7124 49.6471L41.2487 49.2218L50.4447 40.0334C50.5249 39.9511 50.5698 39.8408 50.5698 39.7259C50.5698 39.6109 50.5249 39.5006 50.4447 39.4183L48.9259 37.8996C48.8437 37.8193 48.7333 37.7744 48.6184 37.7744C48.5035 37.7744 48.3931 37.8193 48.3108 37.8996L39.13 47.1108Z" fill="#FF4C00"/>
</g>
</g>
<defs>
<clipPath id="clip0_2534_11904">
<rect width="32" height="32" fill="white" transform="translate(20.5 20)"/>
</clipPath>
</defs>
</svg>
