<svg width="73" height="72" viewBox="0 0 73 72" fill="none" xmlns="http://www.w3.org/2000/svg">
<g opacity="0.92">
<rect x="0.5" width="72" height="72" rx="14" fill="#FF4C00" fill-opacity="0.1"/>
<g clip-path="url(#clip0_2534_11801)">
<path d="M49.2903 52.0014H27.22C25.4445 52.0014 24 50.5569 24 48.7814V48.7161C24 46.9406 25.4445 45.4961 27.22 45.4961H49.2903C49.5759 45.4961 49.8064 45.7267 49.8064 46.0122V51.4853C49.8064 51.7708 49.5759 52.0014 49.2903 52.0014ZM27.22 46.5284C26.0134 46.5284 25.0323 47.5094 25.0323 48.7161V48.7814C25.0323 49.988 26.0134 50.9691 27.22 50.9691H48.7742V46.5284H27.22Z" fill="#FF4C00"/>
<path d="M24.5161 49.2308C24.2314 49.2308 24 49.0003 24 48.7147V23.2525C24 21.4592 25.4932 20 27.3286 20H49.2903C49.5759 20 49.8064 20.2306 49.8064 20.5161V46.0108C49.8064 46.2964 49.5759 46.527 49.2903 46.527H27.22C26.9352 46.527 26.7039 46.2964 26.7039 46.0108C26.7039 45.7253 26.9352 45.4947 27.22 45.4947H48.7742V21.0323H27.3286C26.0625 21.0323 25.0323 22.0285 25.0323 23.2525V48.7147C25.0323 49.0003 24.8009 49.2308 24.5161 49.2308Z" fill="#FF4C00"/>
<path d="M45.4175 49.2997H28.7778C28.641 49.2997 28.5097 49.2453 28.4129 49.1485C28.3161 49.0517 28.2617 48.9204 28.2617 48.7835C28.2617 48.498 28.4931 48.2674 28.7778 48.2674H45.4175C45.7028 48.2674 45.9336 48.498 45.9336 48.7835C45.9336 49.0688 45.7028 49.2997 45.4175 49.2997ZM45.1692 28.1782C45.0744 28.1781 44.9814 28.152 44.9003 28.1028L42.7604 26.7989L40.6206 28.1028C40.5423 28.1505 40.4528 28.1765 40.3612 28.1782C40.2696 28.1799 40.1792 28.1572 40.0993 28.1124C40.0193 28.0675 39.9528 28.0023 39.9064 27.9232C39.8601 27.8442 39.8356 27.7542 39.8355 27.6626V20.5161C39.8355 20.2306 40.0661 20 40.3517 20C40.6369 20 40.8678 20.2306 40.8678 20.5161V26.7427L42.4915 25.7533C42.5725 25.704 42.6654 25.6779 42.7602 25.6779C42.8549 25.6779 42.9479 25.704 43.0288 25.7533L44.6526 26.7427V20.5161C44.6526 20.2306 44.8832 20 45.1687 20C45.454 20 45.6848 20.2306 45.6848 20.5161V27.6621C45.6848 27.7537 45.6603 27.8437 45.6139 27.9228C45.5675 28.0018 45.5009 28.0671 45.4209 28.1119C45.3442 28.1553 45.2574 28.1782 45.1692 28.1782Z" fill="#FF4C00"/>
</g>
</g>
<defs>
<clipPath id="clip0_2534_11801">
<rect width="32" height="32" fill="white" transform="translate(20.5 20)"/>
</clipPath>
</defs>
</svg>
