<svg width="73" height="72" viewBox="0 0 73 72" fill="none" xmlns="http://www.w3.org/2000/svg">
<g opacity="0.92">
<rect x="0.5" width="72" height="72" rx="14" fill="#FF4C00" fill-opacity="0.1"/>
<g clip-path="url(#clip0_2534_11961)">
<path d="M37.2918 35.2108C37.2338 35.1527 37.1648 35.1066 37.0889 35.0752C37.0131 35.0437 36.9317 35.0275 36.8496 35.0275C36.7675 35.0275 36.6861 35.0437 36.6103 35.0752C36.5344 35.1066 36.4655 35.1527 36.4074 35.2108C36.1637 35.4546 36.1637 35.8502 36.4074 36.0946C36.6518 36.3383 37.0474 36.3383 37.2918 36.0946C37.5355 35.8502 37.5355 35.4546 37.2918 35.2108ZM45.2462 27.2558C44.025 26.0346 42.048 26.0345 40.8267 27.2558C39.6086 28.4738 39.6085 30.4563 40.8269 31.6754C42.0454 32.8931 44.0279 32.8936 45.2462 31.6753C46.4674 30.4541 46.4676 28.4771 45.2462 27.2558ZM44.3624 30.7913C43.6315 31.5222 42.4419 31.5222 41.7107 30.7914C40.9798 30.0601 40.9797 28.8704 41.7106 28.1396C42.4433 27.4069 43.6295 27.4068 44.3624 28.1396C45.095 28.8723 45.0952 30.0586 44.3624 30.7913Z" fill="#FF4C00"/>
<path d="M52.3177 20.1831C52.2571 20.1223 52.1845 20.0746 52.1046 20.0432C52.0247 20.0118 51.9391 19.9972 51.8533 20.0004C51.712 20.0055 48.3473 20.1407 44.3476 21.5544C41.1426 22.6861 38.4712 24.3062 36.4075 26.37C35.9397 26.8385 35.4916 27.3264 35.0645 27.8323C33.024 26.6311 31.3889 27.0078 30.3552 27.5609C27.9751 28.8347 26.502 32.2932 26.502 34.7669C26.5021 34.9327 26.568 35.0916 26.6852 35.2088C26.8024 35.326 26.9613 35.3918 27.127 35.3919C27.2091 35.392 27.2904 35.3758 27.3663 35.3444C27.4421 35.313 27.511 35.2669 27.5691 35.2089C28.8243 33.9537 30.3725 34.0322 30.8782 34.0987L31.0971 34.3176C30.6663 35.3426 30.3193 36.3618 30.0648 37.3531C29.973 37.7119 30.004 38.0915 30.1405 38.4387C29.5388 38.7161 28.9582 39.1232 28.4527 39.6287C26.8439 41.2376 26.5172 45.1585 26.5041 45.3246C26.497 45.4147 26.5095 45.5053 26.5407 45.59C26.572 45.6748 26.6213 45.7518 26.6852 45.8157C26.7491 45.8796 26.8261 45.9289 26.9108 45.9602C26.9956 45.9915 27.0862 46.004 27.1763 45.9969C27.3424 45.9838 31.2634 45.6571 32.8722 44.0483C33.3775 43.543 33.7846 42.9625 34.062 42.3609C34.4296 42.5054 34.808 42.5232 35.1482 42.4361C36.1391 42.1816 37.1582 41.8348 38.1833 41.4039L38.4022 41.6228C38.4686 42.1286 38.5471 43.6768 37.292 44.9319C37.2046 45.0193 37.1451 45.1306 37.121 45.2519C37.0969 45.3731 37.1093 45.4987 37.1566 45.6129C37.2039 45.7271 37.284 45.8247 37.3868 45.8934C37.4895 45.9621 37.6104 45.9987 37.734 45.9988C40.2077 45.9988 43.6661 44.5256 44.9399 42.1455C45.4931 41.1119 45.8697 39.4768 44.6686 37.4363C45.1745 37.0091 45.6623 36.5611 46.1308 36.0933C48.1946 34.0295 49.8147 31.3581 50.9463 28.1533C52.3601 24.1534 52.4953 20.7887 52.5003 20.6474C52.5066 20.474 52.4404 20.3058 52.3177 20.1831ZM27.8993 33.4226C28.2876 31.5437 29.4153 29.4819 30.9453 28.663C31.9677 28.1159 33.0853 28.1695 34.2735 28.8199C33.2583 30.156 32.3786 31.5899 31.6476 33.1004C31.6383 33.0946 31.5258 32.9532 31.3168 32.9061C31.2308 32.8866 29.5771 32.5309 27.8993 33.4226ZM31.9883 43.1644C31.129 44.0238 29.113 44.477 27.8388 44.6621C28.024 43.3878 28.4773 41.3719 29.3366 40.5126C29.8178 40.0314 30.3758 39.6665 30.9367 39.461L33.04 41.5643C32.8345 42.1251 32.4696 42.6831 31.9883 43.1644ZM34.8377 41.2252C34.6568 41.2715 34.4473 41.2035 34.2916 41.048L33.0675 39.8239L31.4533 38.2097C31.2975 38.0536 31.2295 37.8441 31.2756 37.6636C31.4758 36.8839 31.7376 36.0841 32.056 35.2765L37.2245 40.4449C36.4168 40.7634 35.617 41.0251 34.8377 41.2252ZM43.838 41.5557C43.0191 43.0856 40.9573 44.2134 39.0785 44.6016C39.6775 43.4743 39.8096 42.0392 39.5907 41.169C39.5399 40.9669 39.408 40.8653 39.4006 40.8533C40.911 40.1222 42.3449 39.2426 43.681 38.2274C44.3315 39.4158 44.385 40.5334 43.838 41.5557ZM45.2471 35.2094C44.6755 35.7801 44.0738 36.3198 43.4446 36.8264C41.9232 38.0514 40.2487 39.089 38.4622 39.915L32.586 34.0389C33.412 32.2522 34.4496 30.5778 35.6745 29.0566C36.1847 28.4233 36.7287 27.8167 37.2916 27.2539C39.1432 25.4022 41.5328 23.9286 44.3961 22.8679L49.6331 28.1049C48.5725 30.9681 47.0988 33.3577 45.2471 35.2094ZM50.0828 26.7867L45.7143 22.4182C48.0943 21.6789 50.1649 21.4021 51.1984 21.3026C51.0988 22.3363 50.822 24.4069 50.0828 26.7867Z" fill="#FF4C00"/>
<path d="M35.5231 45.8162C35.2789 45.5721 34.8832 45.5722 34.6392 45.8163L32.8717 47.5844C32.6277 47.8285 32.6277 48.2243 32.8718 48.4683C33.116 48.7123 33.5117 48.7123 33.7557 48.4682L35.5232 46.7C35.7672 46.4559 35.7672 46.0602 35.5231 45.8162ZM26.6845 36.9775C26.4405 36.7334 26.0449 36.7334 25.8007 36.9774L24.0325 38.7449C23.7884 38.9889 23.7884 39.3847 24.0324 39.6288C24.2763 39.8728 24.672 39.873 24.9162 39.6289L26.6844 37.8614C26.9285 37.6174 26.9285 37.2217 26.6845 36.9775ZM31.1039 46.7006C30.8599 46.4565 30.4641 46.4565 30.22 46.7005L25.9862 50.9337C25.7421 51.1777 25.7421 51.5735 25.9862 51.8175C26.2301 52.0616 26.6259 52.0617 26.87 51.8176L31.1038 47.5845C31.3479 47.3404 31.3479 46.9447 31.1039 46.7006ZM26.1039 46.7006C25.8599 46.4565 25.464 46.4565 25.22 46.7005L20.9862 50.9337C20.7421 51.1777 20.7421 51.5735 20.9862 51.8175C21.2301 52.0616 21.6259 52.0617 21.87 51.8176L26.1038 47.5845C26.3479 47.3404 26.3479 46.9447 26.1039 46.7006ZM25.8 41.3967C25.556 41.1527 25.1602 41.1527 24.9162 41.3968L20.683 45.6305C20.439 45.8747 20.439 46.2704 20.6831 46.5145C20.9272 46.7585 21.3229 46.7585 21.567 46.5144L25.8001 42.2807C26.0442 42.0365 26.0442 41.6409 25.8 41.3967ZM39.9426 32.558C39.6985 32.314 39.3029 32.314 39.0587 32.558L38.1749 33.4418C37.9309 33.6859 37.9309 34.0816 38.1749 34.3257C38.419 34.5698 38.8147 34.5698 39.0589 34.3257L39.9426 33.442C40.1867 33.1979 40.1867 32.8022 39.9426 32.558Z" fill="#FF4C00"/>
</g>
</g>
<defs>
<clipPath id="clip0_2534_11961">
<rect width="32" height="32" fill="white" transform="translate(20.5 20)"/>
</clipPath>
</defs>
</svg>
