<svg width="102" height="103" viewBox="0 0 102 103" fill="none" xmlns="http://www.w3.org/2000/svg">
<rect y="0.318604" width="102" height="102" rx="51" fill="#FFCA40" fill-opacity="0.12"/>
<rect x="0.5" y="0.818604" width="101" height="101" rx="50.5" stroke="#FFCA40" stroke-opacity="0.12"/>
<g clip-path="url(#clip0_534_8340)">
<path d="M65.2182 46.955V28.8472C65.2182 26.9015 63.6352 25.3186 61.6895 25.3186H32.9984C31.0526 25.3186 29.4697 26.9015 29.4697 28.8472V66.4755C29.4697 68.4213 31.0526 70.0042 32.9984 70.0042H54.6561V75.6914C54.6561 76.9341 56.0018 77.7224 57.0872 77.1023L61.9683 74.3131C67.3594 77.3938 67.0776 77.3164 67.6556 77.3164C68.553 77.3164 69.2805 76.5878 69.2805 75.6914V64.619C75.064 59.0627 72.7732 49.4039 65.2182 46.955ZM32.9984 66.7543C32.9245 66.7542 32.8536 66.7248 32.8013 66.6726C32.7491 66.6203 32.7197 66.5495 32.7196 66.4755V28.8472C32.7197 28.7733 32.7491 28.7025 32.8013 28.6502C32.8536 28.5979 32.9245 28.5685 32.9984 28.5685H61.6896C61.7635 28.5685 61.8343 28.5979 61.8866 28.6502C61.9389 28.7025 61.9683 28.7733 61.9683 28.8472V46.4427C56.1444 46.4427 51.4063 51.1808 51.4063 57.0047C51.4063 59.9934 52.6542 62.6958 54.6561 64.619V66.7543H32.9984ZM66.0307 72.8914L62.7745 71.0307C62.529 70.8904 62.2511 70.8166 61.9683 70.8166C61.6855 70.8166 61.4076 70.8904 61.1621 71.0307L57.9059 72.8914V66.7538C60.497 67.8375 63.4361 67.839 66.0306 66.7538L66.0307 72.8914ZM61.9683 64.3169C57.9364 64.3169 54.6561 61.0367 54.6561 57.0047C54.6561 52.9728 57.9364 49.6926 61.9683 49.6926C66.0003 49.6926 69.2805 52.9728 69.2805 57.0047C69.2805 61.0367 66.0003 64.3169 61.9683 64.3169Z" fill="#FFCA40"/>
<path d="M61.1547 61.1688C60.52 61.1688 60.4391 61.0186 57.8175 59.2708C57.0707 58.773 56.8689 57.7641 57.3668 57.0174C57.8646 56.2707 58.8735 56.069 59.6201 56.5667L60.7056 57.2903L63.0541 53.7676C63.5519 53.0208 64.5609 52.8191 65.3075 53.3168C66.0543 53.8147 66.2561 54.8236 65.7582 55.5702L62.5084 60.445C62.1951 60.9147 61.6797 61.1688 61.1547 61.1688ZM53.0316 36.6931H39.2197C38.3223 36.6931 37.5947 35.9655 37.5947 35.0682C37.5947 34.1708 38.3223 33.4432 39.2197 33.4432H53.0316C53.929 33.4432 54.6565 34.1708 54.6565 35.0682C54.6565 35.9655 53.9289 36.6931 53.0316 36.6931ZM53.0316 43.1928H39.2197C38.3223 43.1928 37.5947 42.4653 37.5947 41.5679C37.5947 40.6705 38.3223 39.943 39.2197 39.943H53.0316C53.929 39.943 54.6565 40.6705 54.6565 41.5679C54.6565 42.4653 53.9289 43.1928 53.0316 43.1928ZM47.3443 49.6925H39.2197C38.3223 49.6925 37.5947 48.965 37.5947 48.0676C37.5947 47.1702 38.3223 46.4427 39.2197 46.4427H47.3443C48.2417 46.4427 48.9692 47.1702 48.9692 48.0676C48.9692 48.965 48.2417 49.6925 47.3443 49.6925Z" fill="#FFCA40"/>
</g>
<defs>
<clipPath id="clip0_534_8340">
<rect width="52" height="52" fill="white" transform="translate(25 25.3186)"/>
</clipPath>
</defs>
</svg>
