<svg width="92" height="93" viewBox="0 0 92 93" fill="none" xmlns="http://www.w3.org/2000/svg">
<g opacity="0.92">
<rect y="0.318359" width="92" height="92" rx="46" fill="#FF2661" fill-opacity="0.1"/>
<path d="M65.6048 39.0598L48.8625 30.8811C47.4192 30.1594 44.9656 30.1594 43.5223 30.8811L26.3952 39.0598C25.1924 39.6371 25 40.455 25 40.888C25 41.3209 25.1924 42.0907 26.3952 42.7161L27.7904 43.3897V51.0873C26.9244 51.424 26.299 52.29 26.299 53.2522C26.299 54.2144 26.9244 55.0804 27.7423 55.4172L25.5773 62.2969H31.6392L29.4742 55.4172C30.3402 55.0804 30.9175 54.2144 30.9175 53.2522C30.9175 52.2419 30.2921 51.424 29.4261 51.0873V44.2075L31.9759 45.4584V55.4653C31.9759 55.6096 32.0241 55.7539 32.1203 55.8983C32.3608 56.1869 36.8351 62.2969 45.9759 62.2969C55.1168 62.2969 59.5911 56.1388 59.7835 55.8983C59.8797 55.7539 59.9278 55.6096 59.9278 55.4653V45.5065L65.6048 42.7161C66.8076 42.1388 67 41.3209 67 40.888C66.9519 40.455 66.8076 39.6371 65.6048 39.0598ZM58.3883 55.2247C57.6186 56.1869 53.4811 60.8055 45.9759 60.8055C38.4708 60.8055 34.3333 56.1869 33.5636 55.2247V46.1319L43.5223 50.8948C44.244 51.2316 45.2062 51.424 46.1684 51.424C47.1787 51.424 48.1409 51.2316 48.8625 50.8467L58.3883 46.18V55.2247ZM64.9313 41.3691L59.1581 44.2075C58.9175 44.2075 58.7251 44.3038 58.6289 44.4962L48.189 49.5477C47.1787 50.077 45.2062 50.077 44.1478 49.5477L31.3024 43.3897L46.0722 41.6577C46.5052 41.6096 46.7938 41.2247 46.7457 40.8398C46.6976 40.4069 46.3127 40.1182 45.9278 40.1663L28.8007 42.1869L27.0687 41.3691C26.6357 41.1766 26.5395 40.9361 26.5395 40.9361C26.5395 40.888 26.6357 40.6955 27.0687 40.5031L44.1959 32.2763C44.7251 32.0357 45.4467 31.8914 46.1684 31.8914C46.9381 31.8914 47.7079 32.0357 48.189 32.2763L64.9313 40.455C65.3643 40.6474 65.4605 40.8398 65.4605 40.9361C65.4605 40.9361 65.3162 41.1766 64.9313 41.3691Z" fill="#FF2661"/>
</g>
</svg>
