<svg width="92" height="93" viewBox="0 0 92 93" fill="none" xmlns="http://www.w3.org/2000/svg">
<g opacity="0.92">
<rect y="0.318359" width="92" height="92" rx="46" fill="#FF2661" fill-opacity="0.1"/>
<g clip-path="url(#clip0_534_8667)">
<path d="M57.1289 42.6326C57.1998 41.8302 57.0235 41.0362 56.6195 40.3363C56.2155 39.6365 55.6159 39.0869 54.8856 38.7471C54.2707 38.4608 53.8327 38.0228 53.5465 37.4079C53.2066 36.6777 52.657 36.0781 51.9573 35.6741C51.2575 35.2701 50.4635 35.0937 49.661 35.1647C48.986 35.2242 48.3871 35.064 47.8317 34.6745C47.1721 34.2121 46.3965 33.9676 45.5885 33.9676C44.7805 33.9676 44.0048 34.2121 43.3452 34.6745C42.79 35.0638 42.1917 35.2241 41.516 35.1647C40.7134 35.0938 39.9195 35.2701 39.2197 35.674C38.52 36.078 37.9704 36.6776 37.6305 37.4079C37.3442 38.0227 36.9063 38.4608 36.2914 38.747C35.5611 39.0869 34.9616 39.6364 34.5575 40.3363C34.1535 41.036 33.9773 41.83 34.0481 42.6325C34.1077 43.3081 33.9474 43.9065 33.558 44.4617C33.0955 45.1212 32.851 45.8968 32.851 46.7051C32.851 47.5133 33.0955 48.2887 33.558 48.9483C33.9474 49.5037 34.1077 50.102 34.0481 50.7777C33.9773 51.5802 34.1535 52.3742 34.5575 53.0738C34.9616 53.7737 35.5611 54.3232 36.2914 54.6631C36.4444 54.734 36.5911 54.8179 36.7296 54.9141L34.106 64.706C34.0808 64.7998 34.0836 64.899 34.1139 64.9913C34.1441 65.0836 34.2007 65.1651 34.2765 65.2258C34.3524 65.2865 34.4443 65.3238 34.541 65.3331C34.6377 65.3424 34.735 65.3233 34.821 65.2782L39.0267 63.0742L41.5667 67.0858C41.6187 67.1679 41.6934 67.2331 41.7819 67.2734C41.8703 67.3136 41.9685 67.3273 42.0645 67.3126C42.1606 67.298 42.2503 67.2557 42.3227 67.1909C42.3951 67.1261 42.447 67.0416 42.4721 66.9477L44.5226 59.2953C44.8663 59.3924 45.224 59.4426 45.5885 59.4426C45.953 59.4426 46.3108 59.3924 46.6545 59.2953L48.7049 66.9477C48.7333 67.0541 48.7961 67.1481 48.8835 67.2151C48.9708 67.2821 49.0779 67.3184 49.188 67.3183C49.2723 67.3183 49.3552 67.297 49.429 67.2563C49.5028 67.2157 49.5652 67.157 49.6103 67.0858L52.1504 63.0742L56.356 65.2782C56.4421 65.3233 56.5394 65.3424 56.6361 65.3331C56.7328 65.3238 56.8247 65.2865 56.9006 65.2258C56.9764 65.1651 57.033 65.0836 57.0632 64.9913C57.0935 64.899 57.0963 64.7998 57.0711 64.706L54.4475 54.9141C54.5861 54.818 54.7327 54.734 54.8858 54.6631C55.616 54.3232 56.2155 53.7737 56.6196 53.0738C57.0237 52.374 57.1999 51.58 57.129 50.7777C57.0694 50.102 57.2297 49.5037 57.6191 48.9484C58.0817 48.2889 58.3261 47.5132 58.3261 46.7051C58.3261 45.897 58.0816 45.1212 57.6191 44.4618C57.2297 43.9065 57.0694 43.3082 57.129 42.6326H57.1289ZM41.8013 65.5872L39.625 62.15C39.5578 62.0439 39.4532 61.967 39.3319 61.9346C39.2107 61.9021 39.0816 61.9164 38.9705 61.9747L35.367 63.8632L37.527 55.8017C37.5632 55.8667 37.5981 55.933 37.6304 56.0024C37.9703 56.7327 38.5199 57.3322 39.2196 57.7362C39.9194 58.1402 40.7125 58.3166 41.516 58.2456C42.1919 58.1862 42.7899 58.3463 43.3452 58.7357C43.4261 58.7925 43.5092 58.8461 43.5941 58.8966L41.8013 65.5872ZM52.2064 61.9747C52.0952 61.9164 51.9662 61.9021 51.8449 61.9346C51.7236 61.967 51.619 62.0439 51.5519 62.15L49.3755 65.5872L47.5828 58.8966C47.6677 58.8461 47.7508 58.7924 47.8317 58.7357C48.3871 58.3462 48.9857 58.1861 49.661 58.2455C50.4637 58.3163 51.2575 58.1401 51.9573 57.7361C52.657 57.3321 53.2065 56.7325 53.5465 56.0022C53.5788 55.9328 53.6137 55.8664 53.6499 55.8016L55.8099 63.8631L52.2065 61.9746L52.2064 61.9747ZM56.8003 48.3742C56.27 49.1305 56.0516 49.9454 56.1327 50.8656C56.1854 51.4622 56.0543 52.0529 55.7534 52.5739C55.4526 53.0948 55.0065 53.5038 54.4635 53.7566C53.626 54.1464 53.0295 54.7429 52.6398 55.5802C52.387 56.1233 51.978 56.5694 51.4571 56.8702C50.9361 57.1708 50.3452 57.3019 49.7488 57.2495C48.8286 57.1682 48.0138 57.3867 47.2575 57.917C46.767 58.2609 46.1898 58.4427 45.5883 58.4427C44.9868 58.4427 44.4095 58.2609 43.9192 57.9171C43.2651 57.4583 42.5671 57.2331 41.7952 57.2331C41.6747 57.2331 41.5523 57.2386 41.428 57.2496C40.8315 57.3021 40.2405 57.171 39.7195 56.8703C39.1986 56.5695 38.7896 56.1235 38.5369 55.5805C38.1471 54.7431 37.5506 54.1465 36.7132 53.7567C36.1701 53.504 35.7241 53.095 35.4233 52.5741C35.1225 52.0532 34.9914 51.4625 35.044 50.8657C35.1251 49.9456 34.9068 49.1307 34.3765 48.3745C34.0325 47.884 33.8507 47.3068 33.8507 46.7053C33.8507 46.1038 34.0325 45.5265 34.3764 45.0362C34.9067 44.2799 35.125 43.465 35.044 42.5449C34.9914 41.9482 35.1225 41.3574 35.4233 40.8366C35.724 40.3156 36.1701 39.9066 36.7131 39.6538C37.5505 39.2641 38.1471 38.6676 38.5369 37.8302C38.7897 37.287 39.1986 36.841 39.7195 36.5402C40.2405 36.2396 40.8315 36.1084 41.428 36.1609C42.3484 36.2424 43.163 36.0237 43.9192 35.4933C44.4097 35.1494 44.9869 34.9677 45.5884 34.9677C46.1899 34.9677 46.7671 35.1494 47.2575 35.4933C48.0137 36.0237 48.8281 36.2423 49.7488 36.1609C50.3451 36.1082 50.9361 36.2394 51.4571 36.5402C51.978 36.841 52.387 37.287 52.6398 37.8301C53.0295 38.6674 53.626 39.2641 54.4635 39.6538C55.0065 39.9066 55.4525 40.3156 55.7534 40.8365C56.0542 41.3574 56.1854 41.9482 56.1327 42.5448C56.0515 43.4649 56.2699 44.2798 56.8003 45.0362C57.1442 45.5266 57.326 46.1037 57.326 46.7052C57.326 47.3067 57.1442 47.884 56.8003 48.3744V48.3742ZM45.5884 38.3167C40.963 38.3167 37.1999 42.0797 37.1999 46.7052C37.1999 51.3306 40.963 55.0937 45.5884 55.0937C50.2138 55.0937 53.9769 51.3306 53.9769 46.7052C53.9769 42.0797 50.2138 38.3167 45.5884 38.3167ZM45.5884 54.0937C43.3606 54.0937 41.36 53.1026 40.0042 51.5382C40.3349 50.0883 41.828 49.029 44.0637 48.668C44.53 48.8761 45.0457 48.9927 45.5884 48.9927C46.131 48.9927 46.6468 48.8761 47.113 48.668C49.3487 49.029 50.8418 50.0883 51.1725 51.5382C49.8167 53.1026 47.8161 54.0937 45.5884 54.0937ZM45.5884 47.9928C44.0695 47.9928 42.8337 46.7572 42.8337 45.2382C42.8337 43.7193 44.0695 42.4837 45.5884 42.4837C47.1073 42.4837 48.343 43.7193 48.343 45.2382C48.343 46.7572 47.1073 47.9928 45.5884 47.9928ZM51.8891 50.56C51.3049 49.3097 50.0246 48.3684 48.245 47.8887C48.923 47.2091 49.3429 46.2718 49.3429 45.2383C49.3429 43.1681 47.6585 41.4837 45.5883 41.4837C43.518 41.4837 41.8336 43.168 41.8336 45.2383C41.8336 46.2718 42.2535 47.2091 42.9315 47.8887C41.1519 48.3684 39.8716 49.3097 39.2875 50.56C38.598 49.4371 38.1998 48.1168 38.1998 46.7052C38.1998 42.6312 41.5142 39.3167 45.5883 39.3167C49.6624 39.3167 52.9768 42.6312 52.9768 46.7052C52.9768 48.1168 52.5786 49.4371 51.889 50.5601L51.8891 50.56ZM41.7354 28.7651L43.4584 30.2225L42.9211 32.4143C42.8974 32.5108 42.903 32.6121 42.9372 32.7054C42.9713 32.7986 43.0324 32.8796 43.1128 32.938C43.1931 32.9963 43.2891 33.0295 43.3883 33.0331C43.4876 33.0367 43.5856 33.0107 43.67 32.9584L45.5885 31.7702L47.507 32.9584C47.5914 33.0108 47.6895 33.0368 47.7887 33.0331C47.888 33.0294 47.9838 32.9963 48.0641 32.9378C48.1445 32.8795 48.2056 32.7985 48.2397 32.7053C48.2739 32.6121 48.2795 32.5108 48.2559 32.4143L47.7186 30.2225L49.4417 28.7651C49.5175 28.7009 49.5724 28.6157 49.5996 28.5202C49.6267 28.4247 49.6248 28.3233 49.5941 28.2289C49.5635 28.1345 49.5054 28.0513 49.4273 27.9901C49.3492 27.9288 49.2546 27.8921 49.1556 27.8847L46.905 27.7183L46.0513 25.6293C46.0138 25.5374 45.9497 25.4587 45.8673 25.4033C45.7848 25.3479 45.6878 25.3184 45.5885 25.3184C45.4892 25.3184 45.3921 25.3479 45.3097 25.4033C45.2272 25.4587 45.1632 25.5374 45.1256 25.6293L44.272 27.7183L42.0214 27.8847C41.9223 27.892 41.8277 27.9286 41.7496 27.9899C41.6714 28.0512 41.6133 28.1344 41.5826 28.2288C41.5519 28.3233 41.5501 28.4247 41.5772 28.5202C41.6044 28.6157 41.6595 28.701 41.7353 28.7651H41.7354ZM44.6545 28.6927C44.7473 28.6859 44.8363 28.6533 44.9116 28.5987C44.9868 28.544 45.0453 28.4694 45.0805 28.3832L45.5885 27.1402L46.0965 28.3832C46.1317 28.4693 46.1902 28.5439 46.2655 28.5986C46.3407 28.6533 46.4297 28.6859 46.5225 28.6927L47.8616 28.7917L46.8363 29.659C46.7653 29.7191 46.7124 29.7978 46.6837 29.8862C46.655 29.9747 46.6515 30.0694 46.6736 30.1597L46.9933 31.464L45.8517 30.757C45.7726 30.708 45.6815 30.6821 45.5885 30.6821C45.4954 30.6821 45.4043 30.708 45.3252 30.757L44.1836 31.464L44.5033 30.1597C44.5254 30.0694 44.5219 29.9747 44.4932 29.8862C44.4645 29.7978 44.4116 29.7191 44.3406 29.659L43.3154 28.7917L44.6545 28.6927ZM33.2815 33.0952L35.5023 33.4958L36.133 35.6627C36.1607 35.758 36.2163 35.8428 36.2924 35.9065C36.3686 35.9701 36.462 36.0097 36.5608 36.0201C36.6595 36.0304 36.7591 36.0112 36.8468 35.9648C36.9346 35.9184 37.0065 35.8469 37.0535 35.7595L38.121 33.7711L40.3766 33.8409C40.4759 33.844 40.5738 33.8174 40.6579 33.7646C40.742 33.7119 40.8085 33.6352 40.8489 33.5445C40.8893 33.4538 40.9017 33.3531 40.8847 33.2553C40.8676 33.1575 40.8218 33.0669 40.7531 32.9952L39.192 31.3657L39.9554 29.2421C39.989 29.1486 39.994 29.0473 39.9698 28.951C39.9456 28.8547 39.8932 28.7678 39.8194 28.7014C39.7456 28.6349 39.6537 28.5919 39.5554 28.5779C39.4571 28.5639 39.3569 28.5795 39.2675 28.6227L37.2351 29.6039L35.4513 28.2217C35.3728 28.1609 35.278 28.1248 35.1789 28.1181C35.0799 28.1114 34.9811 28.1343 34.8951 28.184C34.8091 28.2336 34.7399 28.3077 34.6962 28.3969C34.6525 28.486 34.6363 28.5861 34.6497 28.6845L34.955 30.9205L33.089 32.1898C33.0069 32.2457 32.9433 32.3247 32.9063 32.4169C32.8693 32.509 32.8605 32.6101 32.8812 32.7072C32.9018 32.8043 32.9509 32.8931 33.0222 32.9622C33.0935 33.0313 33.1838 33.0775 33.2815 33.0952ZM35.7735 31.5729C35.8504 31.5206 35.9112 31.4479 35.949 31.3629C35.9868 31.2779 36.0002 31.1841 35.9875 31.0919L35.8059 29.7614L36.8674 30.5839C36.9409 30.6409 37.0288 30.6762 37.1213 30.6859C37.2138 30.6956 37.3072 30.6794 37.391 30.639L38.6003 30.0551L38.146 31.3188C38.1146 31.4064 38.1082 31.501 38.1275 31.5919C38.1469 31.6829 38.1912 31.7667 38.2555 31.8339L39.1845 32.8036L37.8423 32.762C37.7494 32.7594 37.6575 32.7826 37.577 32.8291C37.4965 32.8756 37.4305 32.9435 37.3863 33.0252L36.7511 34.2085L36.3758 32.9191C36.3498 32.8298 36.2994 32.7495 36.2303 32.6872C36.1612 32.625 36.0761 32.5833 35.9845 32.5667L34.663 32.3283L35.7734 31.573L35.7735 31.5729ZM34.6428 38.1702C34.7303 38.1233 34.8018 38.0513 34.8483 37.9636C34.8947 37.8758 34.914 37.7762 34.9036 37.6774C34.8933 37.5787 34.8537 37.4852 34.79 37.409C34.7263 37.3328 34.6414 37.2773 34.546 37.2496L32.3792 36.6189L31.9785 34.3981C31.9609 34.3003 31.9146 34.21 31.8455 34.1387C31.7764 34.0674 31.6876 34.0182 31.5904 33.9976C31.4933 33.9769 31.3922 33.9857 31.3 34.0228C31.2079 34.0598 31.1289 34.1235 31.073 34.2057L29.8038 36.0716L27.5677 35.7663C27.4693 35.7529 27.3691 35.769 27.28 35.8127C27.1908 35.8564 27.1166 35.9257 27.067 36.0117C27.0173 36.0977 26.9944 36.1965 27.0012 36.2956C27.0079 36.3947 27.044 36.4895 27.1049 36.568L28.4872 38.3518L27.506 40.3841C27.4628 40.4735 27.4472 40.5737 27.4612 40.672C27.4753 40.7703 27.5182 40.8622 27.5847 40.936C27.6511 41.0098 27.738 41.0621 27.8343 41.0863C27.9305 41.1106 28.0319 41.1056 28.1253 41.072L30.249 40.3086L31.8786 41.8698C31.9503 41.9386 32.0408 41.9844 32.1387 42.0015C32.2365 42.0186 32.3372 42.0061 32.428 41.9657C32.5187 41.9253 32.5953 41.8588 32.6481 41.7746C32.7009 41.6905 32.7274 41.5925 32.7242 41.4932L32.6544 39.2376L34.6428 38.1702ZM31.9085 38.503C31.8266 38.547 31.7586 38.613 31.712 38.6935C31.6655 38.7741 31.6424 38.866 31.6453 38.959L31.6869 40.3012L30.7171 39.3722C30.65 39.3078 30.5662 39.2635 30.4752 39.2442C30.3843 39.2249 30.2897 39.2313 30.2022 39.2627L28.9385 39.717L29.5224 38.5077C29.5628 38.424 29.5791 38.3306 29.5693 38.2381C29.5596 38.1456 29.5243 38.0576 29.4673 37.9841L28.6448 36.9227L29.9754 37.1042C30.0675 37.1168 30.1614 37.1034 30.2463 37.0656C30.3313 37.0277 30.404 36.967 30.4564 36.8901L31.2116 35.7798L31.45 37.1013C31.4666 37.1929 31.5083 37.278 31.5705 37.3471C31.6328 37.4162 31.7131 37.4666 31.8024 37.4926L33.0918 37.8678L31.9085 38.503ZM50.8002 33.8408L53.0558 33.771L54.1232 35.7594C54.1702 35.8469 54.2421 35.9184 54.3299 35.9648C54.4177 36.0113 54.5173 36.0305 54.616 36.0201C54.7148 36.0097 54.8082 35.9702 54.8844 35.9065C54.9606 35.8428 55.0161 35.7579 55.0438 35.6626L55.6745 33.4957L57.8953 33.0951C57.993 33.0774 58.0832 33.0311 58.1545 32.9619C58.2257 32.8928 58.2748 32.8041 58.2954 32.707C58.3161 32.6099 58.3074 32.5088 58.2704 32.4167C58.2334 32.3246 58.1698 32.2455 58.0878 32.1897L56.2219 30.9203L56.527 28.6843C56.5405 28.586 56.5243 28.4858 56.4806 28.3967C56.4369 28.3075 56.3676 28.2334 56.2816 28.1838C56.1957 28.1341 56.0969 28.1112 55.9978 28.1179C55.8988 28.1247 55.804 28.1607 55.7255 28.2215L53.9416 29.6037L51.9093 28.6225C51.8199 28.5793 51.7196 28.5637 51.6213 28.5778C51.523 28.5918 51.4311 28.6347 51.3573 28.7012C51.2835 28.7676 51.2312 28.8545 51.207 28.9508C51.1828 29.0471 51.1878 29.1485 51.2214 29.2419L51.9849 31.3656L50.4237 32.9951C50.355 33.0668 50.3092 33.1573 50.2921 33.2551C50.2751 33.3529 50.2875 33.4536 50.328 33.5443C50.4105 33.7298 50.595 33.846 50.8002 33.8408ZM53.0308 31.3187L52.5765 30.055L53.7858 30.6389C53.8696 30.6793 53.9629 30.6956 54.0554 30.6859C54.1479 30.6761 54.2359 30.6408 54.3094 30.5838L55.3709 29.7612L55.1892 31.0917C55.1766 31.1839 55.19 31.2777 55.2279 31.3627C55.2657 31.4477 55.3265 31.5204 55.4034 31.5727L56.5136 32.3281L55.1921 32.5665C55.1006 32.583 55.0155 32.6247 54.9464 32.687C54.8772 32.7492 54.8269 32.8295 54.8009 32.9188L54.4255 34.2082L53.7905 33.0251C53.7477 32.9455 53.6842 32.8789 53.6066 32.8325C53.5291 32.7861 53.4404 32.7616 53.35 32.7616C53.3449 32.7616 53.3397 32.7616 53.3345 32.7618L51.9923 32.8034L52.9212 31.8337C52.9856 31.7666 53.0299 31.6828 53.0493 31.5918C53.0686 31.5008 53.0622 31.4062 53.0307 31.3187L53.0308 31.3187ZM64.1098 36.0117C64.0601 35.9257 63.986 35.8564 63.8968 35.8127C63.8077 35.769 63.7075 35.7529 63.6091 35.7662L61.3731 36.0715L60.1038 34.2056C60.0479 34.1235 59.9689 34.0599 59.8768 34.0229C59.7846 33.9859 59.6836 33.9771 59.5865 33.9977C59.4893 34.0184 59.4006 34.0675 59.3314 34.1387C59.2623 34.21 59.216 34.3003 59.1984 34.398L58.7976 36.6188L56.6308 37.2495C56.5354 37.2772 56.4505 37.3327 56.3868 37.4089C56.3231 37.4851 56.2836 37.5786 56.2732 37.6773C56.2628 37.7761 56.2821 37.8757 56.3286 37.9635C56.375 38.0513 56.4465 38.1232 56.534 38.1702L58.5224 39.2375L58.4525 41.4932C58.4495 41.5924 58.476 41.6903 58.5288 41.7744C58.5816 41.8585 58.6582 41.925 58.7489 41.9654C58.8396 42.0058 58.9403 42.0182 59.0381 42.0012C59.1359 41.9842 59.2264 41.9384 59.2981 41.8697L60.9278 40.3085L63.0515 41.0719C63.1449 41.1055 63.2462 41.1105 63.3425 41.0863C63.4389 41.0621 63.5258 41.0098 63.5922 40.936C63.6586 40.8622 63.7016 40.7703 63.7156 40.672C63.7296 40.5737 63.714 40.4734 63.6708 40.384L62.6895 38.3517L64.0719 36.5679C64.1327 36.4894 64.1688 36.3946 64.1755 36.2955C64.1823 36.1965 64.1594 36.0977 64.1097 36.0117H64.1098ZM61.6545 38.5077L62.2384 39.7169L60.9746 39.2627C60.8871 39.2312 60.7925 39.2247 60.7016 39.2441C60.6106 39.2634 60.5268 39.3077 60.4596 39.3721L59.4899 40.3011L59.5315 38.9589C59.5343 38.8659 59.5112 38.774 59.4647 38.6935C59.4182 38.6129 59.3502 38.5469 59.2682 38.5029L58.085 37.8677L59.3745 37.4925C59.4638 37.4665 59.544 37.4161 59.6063 37.347C59.6685 37.2779 59.7103 37.1928 59.7268 37.1012L59.9652 35.7797L60.7205 36.8901C60.7729 36.9669 60.8456 37.0277 60.9306 37.0655C61.0156 37.1034 61.1094 37.1168 61.2015 37.1042L62.532 36.9227L61.7095 37.9841C61.6526 38.0576 61.6172 38.1456 61.6075 38.2381C61.5978 38.3306 61.614 38.424 61.6545 38.5077V38.5077Z" fill="#FF2661"/>
</g>
</g>
<defs>
<clipPath id="clip0_534_8667">
<rect width="42" height="42" fill="white" transform="translate(25 25.3184)"/>
</clipPath>
</defs>
</svg>
