<svg width="92" height="93" viewBox="0 0 92 93" fill="none" xmlns="http://www.w3.org/2000/svg">
<g opacity="0.92">
<rect y="0.318359" width="92" height="92" rx="46" fill="#FF2661" fill-opacity="0.1"/>
<path d="M36.1563 41.8283C35.9822 41.8283 35.8153 41.7592 35.6922 41.6361C35.5691 41.513 35.5 41.3461 35.5 41.1721V38.7951C35.5 38.5891 35.5958 38.3961 35.7599 38.2728C36.4293 37.7661 36.8125 37.0049 36.8125 36.1846V34.2158C36.8125 32.7681 35.6352 31.5908 34.1875 31.5908C32.7398 31.5908 31.5625 32.7681 31.5625 34.2158V36.1846C31.5625 37.0049 31.9458 37.7661 32.6151 38.2728C32.696 38.334 32.7616 38.4131 32.8067 38.504C32.8518 38.5949 32.8752 38.695 32.875 38.7964V41.1734C32.8749 41.2596 32.8579 41.3449 32.8248 41.4245C32.7917 41.5041 32.7433 41.5764 32.6823 41.6372C32.6213 41.6981 32.5489 41.7464 32.4693 41.7793C32.3896 41.8122 32.3043 41.8291 32.2181 41.829C32.1319 41.8289 32.0466 41.8118 31.967 41.7788C31.8874 41.7457 31.8151 41.6973 31.7543 41.6363C31.6934 41.5753 31.6451 41.5029 31.6122 41.4233C31.5793 41.3436 31.5624 41.2583 31.5625 41.1721V39.1049C31.1492 38.739 30.8184 38.2894 30.5921 37.7859C30.3658 37.2824 30.2492 36.7366 30.25 36.1846V34.2158C30.25 32.0449 32.0166 30.2783 34.1875 30.2783C36.3584 30.2783 38.125 32.0449 38.125 34.2158V36.1846C38.125 37.3081 37.6512 38.3541 36.8125 39.1049V41.1721C36.8125 41.3461 36.7434 41.513 36.6203 41.6361C36.4972 41.7592 36.3303 41.8283 36.1563 41.8283Z" fill="#FF2661"/>
<path d="M34.8477 40.0564C34.6861 40.0548 34.5309 39.9936 34.4116 39.8845C34.2924 39.7755 34.2176 39.6264 34.2015 39.4656C34.1854 39.3048 34.2292 39.1438 34.3244 39.0133C34.4197 38.8828 34.5597 38.792 34.7177 38.7584C35.3088 38.634 35.8392 38.3105 36.2205 37.8421C36.6018 37.3736 36.8107 36.7886 36.8125 36.1846C36.8125 36.0105 36.8816 35.8436 37.0047 35.7205C37.1278 35.5975 37.2947 35.5283 37.4688 35.5283C37.6428 35.5283 37.8097 35.5975 37.9328 35.7205C38.0559 35.8436 38.125 36.0105 38.125 36.1846C38.1224 37.0906 37.8086 37.9683 37.2361 38.6705C36.6636 39.3727 35.8672 39.857 34.9803 40.042C34.9367 40.0513 34.8923 40.0562 34.8477 40.0564ZM38.6159 42.8573C38.5269 42.8575 38.4388 42.8391 38.3573 42.8035L35.8977 41.7469C35.7402 41.6768 35.6167 41.5474 35.5538 41.3868C35.4909 41.2263 35.4937 41.0474 35.5617 40.8889C35.6296 40.7305 35.7572 40.6051 35.9169 40.5399C36.0765 40.4748 36.2554 40.4751 36.4148 40.5408L38.8744 41.5973C39.0137 41.6566 39.1282 41.7623 39.1985 41.8964C39.2688 42.0304 39.2905 42.1847 39.2601 42.333C39.2297 42.4813 39.1489 42.6145 39.0315 42.71C38.9141 42.8056 38.7673 42.8576 38.6159 42.8573ZM30.25 50.8019C30.1562 50.8021 30.0635 50.782 29.9783 50.7428L27.4662 49.6009C27.1226 49.4436 26.8314 49.1911 26.6269 48.8734C26.4224 48.5556 26.3133 48.1859 26.3125 47.8081V45.9889C26.3125 44.1488 27.4019 42.4951 29.0871 41.7758L31.9576 40.5303C32.037 40.4932 32.1231 40.4725 32.2107 40.4693C32.2982 40.4661 32.3856 40.4804 32.4675 40.5115C32.5495 40.5426 32.6244 40.5898 32.6878 40.6503C32.7512 40.7108 32.8019 40.7834 32.8368 40.8638C32.8716 40.9442 32.8901 41.0308 32.891 41.1184C32.8919 41.2061 32.8752 41.293 32.8419 41.3741C32.8087 41.4552 32.7595 41.5288 32.6973 41.5906C32.6352 41.6524 32.5612 41.7011 32.4799 41.7338L29.6069 42.9807C29.0179 43.2325 28.516 43.6519 28.1636 44.1868C27.8112 44.7217 27.6239 45.3484 27.625 45.9889V47.8081C27.625 48.064 27.7759 48.3003 28.0096 48.4066L30.5217 49.5484C30.658 49.6106 30.769 49.7175 30.8362 49.8514C30.9034 49.9853 30.9227 50.1382 30.891 50.2846C30.8592 50.4311 30.7783 50.5622 30.6617 50.6563C30.5451 50.7504 30.3998 50.8018 30.25 50.8019ZM36.7324 35.4102C35.4138 35.4062 34.1372 34.9462 33.1191 34.1082C32.9839 33.9991 32.8975 33.8408 32.8788 33.6681C32.8601 33.4954 32.9107 33.3223 33.0194 33.1868C33.1287 33.0514 33.2873 32.965 33.4603 32.9466C33.6334 32.9281 33.8066 32.9791 33.9421 33.0884C34.7847 33.7669 35.7848 34.1331 36.8099 34.0977C36.7785 33.423 36.4886 32.7862 36.0004 32.3194C35.5121 31.8527 34.863 31.5918 34.1875 31.5908C32.7398 31.5908 31.5625 32.7681 31.5625 34.2158V34.7014C31.5625 34.8755 31.4934 35.0424 31.3703 35.1655C31.2472 35.2886 31.0803 35.3577 30.9062 35.3577C30.7322 35.3577 30.5653 35.2886 30.4422 35.1655C30.3191 35.0424 30.25 34.8755 30.25 34.7014V34.2158C30.25 32.0449 32.0166 30.2783 34.1875 30.2783C36.3584 30.2783 38.125 32.0449 38.125 34.2158V34.6752C38.1251 34.8313 38.0695 34.9824 37.9682 35.1012C37.8669 35.2201 37.7266 35.2989 37.5724 35.3236C37.2952 35.375 37.0143 35.4039 36.7324 35.4102ZM59.7812 41.8283C59.6072 41.8283 59.4403 41.7592 59.3172 41.6361C59.1941 41.513 59.125 41.3461 59.125 41.1721V38.7951C59.125 38.5891 59.2208 38.3961 59.3849 38.2728C60.0542 37.7661 60.4375 37.0049 60.4375 36.1846V34.2158C60.4375 32.7681 59.2602 31.5908 57.8125 31.5908C56.3648 31.5908 55.1875 32.7681 55.1875 34.2158V36.1846C55.1875 37.0049 55.5707 37.7661 56.2401 38.2728C56.321 38.334 56.3866 38.4131 56.4317 38.504C56.4768 38.5949 56.5002 38.695 56.5 38.7964V41.1734C56.5 41.3474 56.4309 41.5144 56.3078 41.6374C56.1847 41.7605 56.0178 41.8296 55.8438 41.8296C55.6697 41.8296 55.5028 41.7605 55.3797 41.6374C55.2566 41.5144 55.1875 41.3474 55.1875 41.1734V39.1062C54.7742 38.7403 54.4434 38.2907 54.2171 37.7872C53.9908 37.2837 53.8742 36.7379 53.875 36.1859V34.2171C53.875 32.0463 55.6416 30.2796 57.8125 30.2796C59.9834 30.2796 61.75 32.0463 61.75 34.2171V36.1859C61.75 37.3094 61.2762 38.3554 60.4375 39.1062V41.1734C60.4372 41.3472 60.3679 41.5138 60.2448 41.6366C60.1218 41.7594 59.9551 41.8283 59.7812 41.8283Z" fill="#FF2661"/>
<path d="M58.473 40.0569C58.3114 40.0552 58.1562 39.994 58.0369 39.885C57.9177 39.776 57.8429 39.6268 57.8268 39.466C57.8107 39.3053 57.8545 39.1442 57.9497 39.0137C58.045 38.8833 58.185 38.7925 58.343 38.7588C58.9341 38.6344 59.4645 38.311 59.8458 37.8425C60.227 37.3741 60.436 36.789 60.4378 36.185C60.4378 36.011 60.5069 35.844 60.63 35.721C60.7531 35.5979 60.92 35.5288 61.094 35.5288C61.2681 35.5288 61.435 35.5979 61.5581 35.721C61.6811 35.844 61.7503 36.011 61.7503 36.185C61.7477 37.091 61.4339 37.9687 60.8614 38.6709C60.2889 39.3732 59.4925 39.8574 58.6055 40.0424C58.562 40.0518 58.5175 40.0566 58.473 40.0569ZM53.5773 42.7751C53.4251 42.7769 53.277 42.7257 53.1585 42.6302C53.04 42.5347 52.9584 42.4009 52.9278 42.2518C52.8972 42.1027 52.9195 41.9476 52.9908 41.8132C53.0622 41.6787 53.1781 41.5733 53.3188 41.5151L55.5855 40.5412C55.7449 40.4755 55.9238 40.4752 56.0834 40.5404C56.2431 40.6055 56.3706 40.7309 56.4386 40.8894C56.5065 41.0479 56.5094 41.2267 56.4465 41.3873C56.3836 41.5478 56.2601 41.6772 56.1026 41.7474L53.8359 42.7213C53.7544 42.757 53.6663 42.7753 53.5773 42.7751ZM61.7503 50.8023C61.6012 50.8009 61.457 50.7488 61.3414 50.6547C61.2257 50.5605 61.1455 50.4298 61.114 50.2841C61.0824 50.1384 61.1013 49.9862 61.1675 49.8526C61.2338 49.719 61.3435 49.6119 61.4786 49.5489L63.9907 48.407C64.1054 48.3545 64.2026 48.2702 64.2707 48.1641C64.3389 48.058 64.3752 47.9346 64.3753 47.8085V45.9894C64.3753 44.6769 63.5983 43.4969 62.3973 42.9838L59.5203 41.7343C59.3607 41.6648 59.2352 41.5349 59.1712 41.373C59.1073 41.2111 59.1101 41.0304 59.1791 40.8706C59.3235 40.5373 59.7041 40.385 60.0427 40.5307L62.9158 41.7776C63.7401 42.1302 64.4425 42.7175 64.9354 43.4665C65.4283 44.2154 65.69 45.0928 65.6878 45.9894V47.8085C65.6878 48.5776 65.235 49.2811 64.5341 49.6014L62.022 50.7433C61.9366 50.7818 61.844 50.8019 61.7503 50.8023ZM47.7197 33.4498C45.8533 33.4498 43.9108 32.7922 42.8398 31.8288C42.7758 31.7713 42.7237 31.7016 42.6866 31.6239C42.6494 31.5463 42.628 31.462 42.6234 31.376C42.6188 31.29 42.6312 31.204 42.6599 31.1228C42.6886 31.0416 42.733 30.9669 42.7906 30.9029C42.8481 30.8388 42.9177 30.7868 42.9954 30.7496C43.0731 30.7125 43.1574 30.691 43.2434 30.6865C43.3293 30.6819 43.4154 30.6943 43.4966 30.723C43.5778 30.7517 43.6525 30.7961 43.7165 30.8536C45.0107 32.0165 48.1108 32.6242 49.8866 31.6713C49.9625 31.6306 50.0457 31.6052 50.1315 31.5965C50.2172 31.5879 50.3038 31.5963 50.3863 31.6212C50.4688 31.646 50.5456 31.6869 50.6124 31.7415C50.6791 31.796 50.7344 31.8631 50.7752 31.9391C50.8159 32.015 50.8413 32.0982 50.8499 32.184C50.8585 32.2697 50.8502 32.3563 50.8253 32.4388C50.8004 32.5213 50.7596 32.5981 50.705 32.6648C50.6505 32.7316 50.5833 32.7869 50.5074 32.8276C49.6976 33.2594 48.7198 33.4498 47.7197 33.4498ZM45.9911 45.3725C43.8137 45.3725 42.6783 43.6741 42.3817 42.7751C42.3342 42.6121 42.3517 42.4371 42.4304 42.2868C42.5092 42.1364 42.6432 42.0224 42.8042 41.9688C42.9652 41.9151 43.1408 41.9259 43.294 41.9989C43.4472 42.0719 43.5662 42.2015 43.626 42.3603C43.6535 42.4391 44.235 44.0587 45.9911 44.0587C47.7617 44.0587 48.3851 42.3892 48.4127 42.3183C48.4706 42.1542 48.5914 42.0198 48.7484 41.9447C48.8262 41.9076 48.9105 41.8861 48.9966 41.8815C49.0826 41.8769 49.1688 41.8893 49.25 41.918C49.3313 41.9467 49.4061 41.9911 49.4702 42.0487C49.5343 42.1064 49.5864 42.176 49.6236 42.2538C49.6608 42.3315 49.6823 42.4159 49.6869 42.5019C49.6915 42.588 49.679 42.6741 49.6503 42.7554C49.6123 42.863 48.7053 45.3725 45.9911 45.3725Z" fill="#FF2661"/>
<path d="M58.4688 50.6219C58.2947 50.6219 58.1278 50.5527 58.0047 50.4297C57.8816 50.3066 57.8125 50.1397 57.8125 49.9656V49.5994C57.8135 48.6509 57.5204 47.7253 56.9737 46.9501C56.427 46.175 55.6535 45.5883 54.7596 45.2708L49.2852 43.3283C48.9008 43.1939 48.5676 42.9434 48.3317 42.6114C48.0959 42.2794 47.9691 41.8823 47.9688 41.4751V39.8607C47.9688 39.6866 48.0379 39.5197 48.161 39.3966C48.284 39.2736 48.451 39.2044 48.625 39.2044C48.799 39.2044 48.966 39.2736 49.089 39.3966C49.2121 39.5197 49.2812 39.6866 49.2812 39.8607V41.4751C49.2812 41.7507 49.4584 41.9974 49.7209 42.0893L55.1967 44.0331C56.3466 44.441 57.3418 45.1953 58.0453 46.1921C58.7488 47.189 59.126 48.3794 59.125 49.5994V49.9669C59.1247 50.1408 59.0554 50.3073 58.9323 50.4301C58.8093 50.5529 58.6426 50.6219 58.4688 50.6219ZM33.5312 50.6219C33.3572 50.6219 33.1903 50.5527 33.0672 50.4297C32.9441 50.3066 32.875 50.1397 32.875 49.9656V49.6112C32.875 49.2018 32.9183 48.7909 33.0036 48.3854C33.2175 47.396 33.6795 46.4773 34.3463 45.7156C35.0131 44.954 35.8627 44.3746 36.8151 44.0318L42.2777 42.1156C42.406 42.0713 42.5172 41.9882 42.5962 41.878C42.6752 41.7677 42.718 41.6356 42.7188 41.5V39.8594C42.7188 39.6853 42.7879 39.5184 42.911 39.3953C43.034 39.2723 43.201 39.2031 43.375 39.2031C43.549 39.2031 43.716 39.2723 43.839 39.3953C43.9621 39.5184 44.0312 39.6853 44.0312 39.8594V41.5C44.0304 41.9076 43.9031 42.305 43.6668 42.6372C43.4306 42.9694 43.097 43.22 42.7122 43.3546L37.2535 45.2695C36.5122 45.536 35.851 45.9868 35.332 46.5795C34.8131 47.1721 34.4535 47.8871 34.2873 48.6571C34.2203 48.9721 34.1875 49.2936 34.1875 49.6112V49.9656C34.1875 50.1397 34.1184 50.3066 33.9953 50.4297C33.8722 50.5527 33.7053 50.6219 33.5312 50.6219Z" fill="#FF2661"/>
<path d="M45.9999 41.4346C45.8259 41.4346 45.659 41.3654 45.5359 41.2424C45.4128 41.1193 45.3437 40.9524 45.3437 40.7783C45.3437 40.6043 45.4128 40.4374 45.5359 40.3143C45.659 40.1912 45.8259 40.1221 45.9999 40.1221C47.3623 40.1221 49.9374 38.8883 49.9374 34.2158V32.2471C49.9374 30.0762 48.1708 28.3096 45.9999 28.3096C43.829 28.3096 42.0624 30.0762 42.0624 32.2471V34.2158C42.0624 36.4786 42.6675 38.2098 43.8107 39.2217C43.878 39.2779 43.9333 39.3471 43.9734 39.4251C44.0135 39.5031 44.0375 39.5883 44.0441 39.6758C44.0507 39.7632 44.0397 39.8511 44.0118 39.9342C43.9839 40.0174 43.9395 40.0941 43.8815 40.1598C43.8234 40.2255 43.7527 40.2789 43.6737 40.3168C43.5946 40.3548 43.5087 40.3765 43.4211 40.3807C43.3335 40.3849 43.246 40.3715 43.1637 40.3412C43.0813 40.311 43.0059 40.2646 42.9418 40.2048C41.9417 39.3201 40.7499 37.564 40.7499 34.2158V32.2471C40.7499 29.3517 43.1045 26.9971 45.9999 26.9971C48.8953 26.9971 51.2499 29.3517 51.2499 32.2471V34.2158C51.2499 39.9265 47.8164 41.4346 45.9999 41.4346ZM55.9985 62.4346C55.8506 62.4343 55.7072 62.384 55.5914 62.2919C55.4756 62.1999 55.3944 62.0714 55.3608 61.9273C55.3272 61.7833 55.3433 61.6321 55.4064 61.4983C55.4695 61.3645 55.5759 61.256 55.7085 61.1903L58.9543 59.5825C59.0447 59.5378 59.1442 59.5146 59.245 59.5146C59.3459 59.5146 59.4453 59.5378 59.5357 59.5825L61.6567 60.6338L61.3115 58.2923C61.297 58.1923 61.3058 58.0903 61.3373 57.9942C61.3687 57.8981 61.4219 57.8106 61.4927 57.7384L63.1504 56.044L60.8141 55.6463C60.7146 55.6291 60.6204 55.5892 60.5387 55.5298C60.457 55.4704 60.39 55.3931 60.3429 55.3038L59.2457 53.2064L58.1471 55.3038C58.1 55.3931 58.033 55.4704 57.9513 55.5298C57.8697 55.5892 57.7754 55.6291 57.6759 55.6463L55.341 56.044L56.9974 57.7384C57.1163 57.8634 57.1813 58.0302 57.1782 58.2027C57.1751 58.3752 57.1042 58.5396 56.9808 58.6602C56.8575 58.7809 56.6915 58.848 56.519 58.8472C56.3464 58.8464 56.1812 58.7777 56.0589 58.6559L53.5271 56.0663C53.4431 55.9808 53.3841 55.8739 53.3567 55.7572C53.3292 55.6405 53.3343 55.5186 53.3714 55.4046C53.4085 55.2906 53.4762 55.189 53.5671 55.1108C53.6579 55.0326 53.7685 54.9809 53.8867 54.9612L57.1365 54.4073L58.6655 51.4883C58.7217 51.3829 58.8055 51.2948 58.9079 51.2333C59.0103 51.1718 59.1275 51.1394 59.247 51.1394C59.3664 51.1394 59.4836 51.1718 59.586 51.2333C59.6885 51.2948 59.7722 51.3829 59.8284 51.4883L61.3562 54.4073L64.6072 54.9612C64.7252 54.9813 64.8355 55.0333 64.926 55.1115C65.0166 55.1897 65.084 55.2913 65.1211 55.4051C65.1581 55.5189 65.1633 55.6406 65.1361 55.7572C65.109 55.8737 65.0504 55.9806 64.9669 56.0663L62.6608 58.4223L63.1412 61.6825C63.1581 61.801 63.1424 61.9218 63.096 62.0321C63.0495 62.1424 62.9739 62.2379 62.8774 62.3086C62.7806 62.3794 62.6662 62.4222 62.5467 62.4322C62.4272 62.4421 62.3072 62.4189 62.2001 62.365L59.247 60.9016L56.2925 62.365C56.2015 62.4112 56.1007 62.4351 55.9985 62.4346ZM42.1622 66.0059C42.0679 66.006 41.9746 65.9857 41.8888 65.9465C41.8031 65.9073 41.7268 65.85 41.6651 65.7786C41.6034 65.7073 41.5579 65.6234 41.5316 65.5329C41.5052 65.4423 41.4987 65.3471 41.5125 65.2538L42.0874 61.3386L39.3206 58.5089C39.2366 58.4234 39.1776 58.3165 39.1502 58.1998C39.1227 58.0831 39.1278 57.9611 39.1649 57.8471C39.202 57.7332 39.2697 57.6315 39.3606 57.5534C39.4514 57.4752 39.562 57.4234 39.6802 57.4038L43.5836 56.7396L45.4185 53.2339C45.6469 52.8008 46.3543 52.8008 46.5827 53.2339L48.4175 56.7396L52.3209 57.4038C52.4389 57.4239 52.5491 57.4758 52.6397 57.5541C52.7303 57.6323 52.7977 57.7338 52.8348 57.8476C52.8718 57.9614 52.877 58.0832 52.8498 58.1997C52.8226 58.3163 52.7641 58.4232 52.6805 58.5089L49.9125 61.3386L50.4887 65.2538C50.5056 65.3723 50.4899 65.4931 50.4435 65.6034C50.397 65.7137 50.3214 65.8092 50.2249 65.8799C50.1281 65.9508 50.0137 65.9935 49.8942 66.0035C49.7747 66.0135 49.6547 65.9902 49.5476 65.9363L45.9999 64.1789L42.4535 65.9363C42.3631 65.9818 42.2634 66.0056 42.1622 66.0059ZM41.1345 58.4866L43.2529 60.6535C43.3959 60.8005 43.4629 61.0053 43.434 61.2074L42.993 64.2038L45.7085 62.8585C45.7988 62.8132 45.8983 62.7897 45.9993 62.7897C46.1002 62.7897 46.1998 62.8132 46.29 62.8585L49.0042 64.2038L48.5632 61.2074C48.5487 61.1073 48.5575 61.0053 48.5889 60.9092C48.6204 60.8132 48.6735 60.7256 48.7444 60.6535L50.864 58.4866L47.8755 57.9773C47.776 57.9601 47.6817 57.9202 47.6001 57.8608C47.5184 57.8014 47.4514 57.7241 47.4043 57.6348L45.9999 54.9507L44.5955 57.6348C44.5484 57.7241 44.4815 57.8014 44.3998 57.8608C44.3181 57.9202 44.2239 57.9601 44.1244 57.9773L41.1345 58.4866ZM36.1076 62.4346C36.0066 62.4343 35.9069 62.411 35.8162 62.3663L32.8631 60.9029L29.9087 62.3676C29.8013 62.421 29.6814 62.4438 29.5619 62.4338C29.4424 62.4238 29.328 62.3812 29.231 62.3108C29.134 62.2403 29.0582 62.1446 29.0118 62.0341C28.9653 61.9235 28.9501 61.8024 28.9676 61.6838L29.448 58.4236L27.1419 56.0676C27.0579 55.9821 26.999 55.8752 26.9715 55.7585C26.9441 55.6419 26.9492 55.5199 26.9862 55.4059C27.0233 55.2919 27.091 55.1903 27.1819 55.1121C27.2727 55.0339 27.3833 54.9822 27.5015 54.9625L30.7526 54.4086L32.2817 51.4896C32.3379 51.3842 32.4216 51.2961 32.524 51.2346C32.6265 51.1731 32.7437 51.1407 32.8631 51.1407C32.9826 51.1407 33.0998 51.1731 33.2022 51.2346C33.3046 51.2961 33.3884 51.3842 33.4445 51.4896L34.9723 54.4086L38.222 54.9625C38.34 54.9826 38.4503 55.0346 38.5408 55.1128C38.6314 55.191 38.6989 55.2926 38.7359 55.4064C38.7729 55.5202 38.7781 55.6419 38.751 55.7585C38.7238 55.8751 38.6652 55.982 38.5817 56.0676L36.0499 58.6559C35.9276 58.7777 35.7623 58.8464 35.5898 58.8472C35.4172 58.848 35.2513 58.7809 35.1279 58.6602C35.0045 58.5396 34.9336 58.3752 34.9305 58.2027C34.9275 58.0302 34.9924 57.8634 35.1114 57.7384L36.7678 56.044L34.4329 55.6463C34.3333 55.6293 34.239 55.5895 34.1573 55.5301C34.0755 55.4707 34.0086 55.3932 33.9617 55.3038L32.8644 53.2064L31.7659 55.3038C31.7188 55.3931 31.6518 55.4704 31.5701 55.5298C31.4884 55.5892 31.3942 55.6291 31.2947 55.6463L28.9584 56.044L30.6161 57.7384C30.7592 57.8854 30.8261 58.0902 30.7972 58.2923L30.452 60.6338L32.5744 59.5825C32.6648 59.5378 32.7642 59.5146 32.8651 59.5146C32.9659 59.5146 33.0654 59.5378 33.1558 59.5825L36.4003 61.1903C36.533 61.2561 36.6396 61.3649 36.7027 61.4989C36.7658 61.6329 36.7816 61.7844 36.7477 61.9286C36.7138 62.0728 36.6321 62.2013 36.5158 62.2932C36.3996 62.385 36.2558 62.4349 36.1076 62.4346Z" fill="#FF2661"/>
</g>
</svg>
