<svg width="82" height="82" viewBox="0 0 82 82" fill="none" xmlns="http://www.w3.org/2000/svg">
<g opacity="0.92">
<rect width="82" height="82" rx="41" fill="white" fill-opacity="0.2"/>
<path d="M43.0619 24.7841C42.8477 24.7841 42.6423 24.699 42.4908 24.5475C42.3393 24.396 42.2542 24.1906 42.2542 23.9764V22.0021C42.2542 21.8996 42.2135 21.8013 42.1411 21.7288C42.0687 21.6563 41.9705 21.6155 41.868 21.6154H34.4201C34.3178 21.6157 34.2197 21.6565 34.1475 21.729C34.0753 21.8015 34.0348 21.8997 34.0349 22.0021V23.9764C34.0349 24.1906 33.9498 24.396 33.7984 24.5475C33.6469 24.699 33.4415 24.7841 33.2272 24.7841C33.013 24.7841 32.8076 24.699 32.6561 24.5475C32.5046 24.396 32.4195 24.1906 32.4195 23.9764V22.0021C32.4199 21.4715 32.6308 20.9627 33.0058 20.5874C33.3809 20.212 33.8895 20.0008 34.4201 20H41.868C42.3988 20.0007 42.9076 20.2118 43.2828 20.5872C43.658 20.9625 43.8691 21.4713 43.8696 22.0021V23.9764C43.8696 24.1906 43.7845 24.396 43.633 24.5475C43.4816 24.699 43.2761 24.7841 43.0619 24.7841ZM50.5275 62H25.7616C25.1177 61.9993 24.5004 61.7432 24.0451 61.2879C23.5898 60.8326 23.3337 60.2153 23.333 59.5714V28.5817C23.3337 27.9378 23.5898 27.3205 24.0451 26.8652C24.5004 26.4099 25.1177 26.1538 25.7616 26.1531H29.9606C30.1748 26.1531 30.3803 26.2382 30.5318 26.3897C30.6832 26.5411 30.7683 26.7466 30.7683 26.9608C30.7683 27.175 30.6832 27.3804 30.5318 27.5319C30.3803 27.6834 30.1748 27.7685 29.9606 27.7685H25.7616C25.546 27.7688 25.3393 27.8545 25.1869 28.007C25.0344 28.1594 24.9487 28.3661 24.9484 28.5817V59.5714C24.9487 59.787 25.0344 59.9937 25.1869 60.1461C25.3393 60.2986 25.546 60.3843 25.7616 60.3846H50.5275C50.7431 60.3843 50.9498 60.2986 51.1023 60.1461C51.2547 59.9937 51.3405 59.787 51.3407 59.5714V54.5258C51.3407 54.3116 51.4258 54.1062 51.5773 53.9547C51.7288 53.8032 51.9342 53.7181 52.1484 53.7181C52.3627 53.7181 52.5681 53.8032 52.7196 53.9547C52.871 54.1062 52.9561 54.3116 52.9561 54.5258V59.5714C52.9555 60.2153 52.6994 60.8326 52.2441 61.2879C51.7888 61.7432 51.1714 61.9993 50.5275 62ZM52.1484 37.6652C51.9342 37.6652 51.7288 37.5801 51.5773 37.4287C51.4258 37.2772 51.3407 37.0718 51.3407 36.8575V28.5817C51.3405 28.3661 51.2547 28.1594 51.1023 28.007C50.9498 27.8545 50.7431 27.7688 50.5275 27.7685H46.329C46.1148 27.7685 45.9094 27.6834 45.7579 27.5319C45.6064 27.3804 45.5213 27.175 45.5213 26.9608C45.5213 26.7466 45.6064 26.5411 45.7579 26.3897C45.9094 26.2382 46.1148 26.1531 46.329 26.1531H50.5275C51.1714 26.1538 51.7888 26.4099 52.2441 26.8652C52.6994 27.3205 52.9555 27.9378 52.9561 28.5817V36.8575C52.9561 37.0718 52.871 37.2772 52.7196 37.4287C52.5681 37.5801 52.3627 37.6652 52.1484 37.6652Z" fill="white"/>
<path d="M45.2286 30.9632H31.048C30.5442 30.9541 30.0639 30.7484 29.7097 30.39C29.3556 30.0315 29.1556 29.5488 29.1525 29.0449V25.0746C29.1531 24.569 29.3544 24.0842 29.712 23.7268C30.0697 23.3693 30.5545 23.1684 31.0601 23.168H33.2419C33.4561 23.168 33.6616 23.2531 33.8131 23.4045C33.9645 23.556 34.0496 23.7614 34.0496 23.9757C34.0496 24.1899 33.9645 24.3953 33.8131 24.5468C33.6616 24.6983 33.4561 24.7834 33.2419 24.7834H31.0607C30.9833 24.7834 30.9091 24.814 30.8543 24.8686C30.7995 24.9232 30.7686 24.9973 30.7684 25.0746V29.0459C30.7695 29.1259 30.8018 29.2023 30.8584 29.2588C30.9149 29.3154 30.9913 29.3477 31.0713 29.3488H45.22C45.3 29.3477 45.3763 29.3154 45.4329 29.2588C45.4894 29.2023 45.5217 29.1259 45.5229 29.0459V25.0746C45.5226 24.9973 45.4917 24.9232 45.4369 24.8686C45.3821 24.814 45.3079 24.7834 45.2306 24.7834H43.0468C42.8326 24.7834 42.6272 24.6983 42.4757 24.5468C42.3242 24.3953 42.2391 24.1899 42.2391 23.9757C42.2391 23.7614 42.3242 23.556 42.4757 23.4045C42.6272 23.2531 42.8326 23.168 43.0468 23.168H45.2286C45.7342 23.1684 46.2191 23.3693 46.5767 23.7268C46.9344 24.0842 47.1356 24.569 47.1363 25.0746V29.0459C47.1332 29.5498 46.9333 30.0324 46.5792 30.3908C46.2251 30.7492 45.7449 30.955 45.2412 30.9642L45.2286 30.9632ZM40.7757 41.3087H34.663C34.4487 41.3087 34.2433 41.2236 34.0918 41.0722C33.9404 40.9207 33.8553 40.7153 33.8553 40.501C33.8553 40.2868 33.9404 40.0814 34.0918 39.9299C34.2433 39.7785 34.4487 39.6934 34.663 39.6934H40.7757C40.9899 39.6934 41.1953 39.7785 41.3468 39.9299C41.4983 40.0814 41.5834 40.2868 41.5834 40.501C41.5834 40.7153 41.4983 40.9207 41.3468 41.0722C41.1953 41.2236 40.9899 41.3087 40.7757 41.3087ZM40.7757 46.4987H34.663C34.4487 46.4987 34.2433 46.4136 34.0918 46.2621C33.9404 46.1106 33.8553 45.9052 33.8553 45.691C33.8553 45.4768 33.9404 45.2713 34.0918 45.1199C34.2433 44.9684 34.4487 44.8833 34.663 44.8833H40.7757C40.9899 44.8833 41.1953 44.9684 41.3468 45.1199C41.4983 45.2713 41.5834 45.4768 41.5834 45.691C41.5834 45.9052 41.4983 46.1106 41.3468 46.2621C41.1953 46.4136 40.9899 46.4987 40.7757 46.4987ZM40.7757 51.6881H34.663C34.4487 51.6881 34.2433 51.603 34.0918 51.4515C33.9404 51.3001 33.8553 51.0946 33.8553 50.8804C33.8553 50.6662 33.9404 50.4607 34.0918 50.3093C34.2433 50.1578 34.4487 50.0727 34.663 50.0727H40.7757C40.9899 50.0727 41.1953 50.1578 41.3468 50.3093C41.4983 50.4607 41.5834 50.6662 41.5834 50.8804C41.5834 51.0946 41.4983 51.3001 41.3468 51.4515C41.1953 51.603 40.9899 51.6881 40.7757 51.6881ZM46.3286 36.136H34.663C34.4487 36.136 34.2433 36.0509 34.0918 35.8994C33.9404 35.7479 33.8553 35.5425 33.8553 35.3283C33.8553 35.1141 33.9404 34.9086 34.0918 34.7572C34.2433 34.6057 34.4487 34.5206 34.663 34.5206H46.3286C46.5428 34.5206 46.7482 34.6057 46.8997 34.7572C47.0512 34.9086 47.1363 35.1141 47.1363 35.3283C47.1363 35.5425 47.0512 35.7479 46.8997 35.8994C46.7482 36.0509 46.5428 36.136 46.3286 36.136ZM46.3286 56.8609H34.663C34.4487 56.8609 34.2433 56.7758 34.0918 56.6243C33.9404 56.4728 33.8553 56.2674 33.8553 56.0532C33.8553 55.839 33.9404 55.6335 34.0918 55.482C34.2433 55.3306 34.4487 55.2455 34.663 55.2455H46.3286C46.5428 55.2455 46.7482 55.3306 46.8997 55.482C47.0512 55.6335 47.1363 55.839 47.1363 56.0532C47.1363 56.2674 47.0512 56.4728 46.8997 56.6243C46.7482 56.7758 46.5428 56.8609 46.3286 56.8609ZM29.2464 37.5636C29.0323 37.5636 28.8269 37.4786 28.6754 37.3273L27.2473 35.9007C27.0996 35.7485 27.0176 35.5442 27.0192 35.3321C27.0208 35.1199 27.1058 34.9169 27.2559 34.7669C27.4059 34.6169 27.609 34.532 27.8211 34.5305C28.0333 34.529 28.2375 34.611 28.3897 34.7589L29.2479 35.617L31.5326 33.3323C31.6849 33.1845 31.8892 33.1025 32.1013 33.1041C32.3135 33.1057 32.5165 33.1907 32.6665 33.3408C32.8165 33.4909 32.9014 33.6939 32.9029 33.9061C32.9044 34.1182 32.8224 34.3225 32.6745 34.4747L29.8193 37.3303C29.7438 37.405 29.6544 37.464 29.5561 37.504C29.4578 37.544 29.3525 37.5643 29.2464 37.5636ZM29.2464 42.7363C29.0323 42.7364 28.8269 42.6514 28.6754 42.5001L27.2473 41.072C27.0958 40.9205 27.0107 40.715 27.0107 40.5008C27.0107 40.2866 27.0958 40.0811 27.2473 39.9296C27.3988 39.7781 27.6043 39.693 27.8185 39.693C28.0328 39.693 28.2382 39.7781 28.3897 39.9296L29.2479 40.7878L31.5326 38.503C31.6849 38.3552 31.8892 38.2733 32.1013 38.2749C32.3135 38.2765 32.5165 38.3615 32.6665 38.5116C32.8165 38.6616 32.9014 38.8647 32.9029 39.0768C32.9044 39.289 32.8224 39.4932 32.6745 39.6454L29.8193 42.5011C29.744 42.5761 29.6546 42.6355 29.5563 42.6758C29.458 42.7162 29.3527 42.7367 29.2464 42.7363ZM29.2464 47.9263C29.1403 47.9264 29.0352 47.9056 28.9372 47.865C28.8392 47.8243 28.7503 47.7647 28.6754 47.6895L27.2473 46.2619C27.0958 46.1104 27.0107 45.905 27.0107 45.6907C27.0107 45.4765 27.0958 45.271 27.2473 45.1195C27.3988 44.968 27.6043 44.8829 27.8185 44.8829C28.0328 44.8829 28.2382 44.968 28.3897 45.1195L29.2479 45.9777L31.5326 43.6935C31.6065 43.6137 31.6958 43.5496 31.795 43.5052C31.8942 43.4607 32.0014 43.4367 32.1101 43.4347C32.2188 43.4327 32.3268 43.4526 32.4277 43.4933C32.5285 43.534 32.6201 43.5947 32.6969 43.6716C32.7737 43.7486 32.8342 43.8403 32.8747 43.9412C32.9153 44.0421 32.935 44.1501 32.9328 44.2588C32.9305 44.3675 32.9064 44.4747 32.8617 44.5738C32.8171 44.673 32.7529 44.7621 32.673 44.8358L29.8178 47.691C29.7428 47.766 29.6536 47.8253 29.5556 47.8657C29.4575 47.9061 29.3524 47.9266 29.2464 47.9263ZM29.2464 53.1147C29.0322 53.1146 28.8268 53.0294 28.6754 52.8779L27.2473 51.4503C27.1723 51.3753 27.1128 51.2863 27.0722 51.1883C27.0316 51.0903 27.0107 50.9852 27.0107 50.8791C27.0107 50.7731 27.0316 50.668 27.0722 50.57C27.1128 50.472 27.1723 50.383 27.2473 50.3079C27.3223 50.2329 27.4114 50.1734 27.5094 50.1328C27.6074 50.0922 27.7124 50.0714 27.8185 50.0714C27.9246 50.0714 28.0296 50.0922 28.1277 50.1328C28.2257 50.1734 28.3147 50.2329 28.3897 50.3079L29.2479 51.1661L31.5326 48.8819C31.6854 48.7368 31.8887 48.6571 32.0993 48.6598C32.3099 48.6625 32.5111 48.7474 32.6601 48.8963C32.809 49.0452 32.8939 49.2465 32.8966 49.4571C32.8993 49.6677 32.8196 49.871 32.6745 50.0237L29.8193 52.8794C29.744 52.9544 29.6546 53.0138 29.5563 53.0542C29.458 53.0945 29.3527 53.1151 29.2464 53.1147ZM29.2464 58.289C29.0322 58.2889 28.8268 58.2037 28.6754 58.0522L27.2473 56.6241C27.0996 56.4719 27.0176 56.2676 27.0192 56.0554C27.0208 55.8433 27.1058 55.6403 27.2559 55.4903C27.4059 55.3403 27.609 55.2553 27.8211 55.2538C28.0333 55.2523 28.2375 55.3344 28.3897 55.4822L29.2479 56.3404L31.5326 54.0556C31.6073 53.9789 31.6964 53.9177 31.7948 53.8756C31.8933 53.8336 31.9992 53.8116 32.1062 53.8108C32.2133 53.8101 32.3194 53.8306 32.4185 53.8712C32.5175 53.9118 32.6075 53.9718 32.6832 54.0475C32.7589 54.1232 32.8187 54.2132 32.8593 54.3123C32.8999 54.4114 32.9204 54.5175 32.9196 54.6246C32.9188 54.7316 32.8967 54.8375 32.8546 54.9359C32.8126 55.0343 32.7513 55.1234 32.6745 55.198L29.8193 58.0537C29.744 58.1287 29.6546 58.1881 29.5563 58.2284C29.458 58.2688 29.3527 58.2894 29.2464 58.289ZM52.1485 55.3328C46.8319 55.3328 42.5067 51.0071 42.5067 45.691C42.5067 40.3748 46.8319 36.0491 52.1485 36.0491C57.4651 36.0491 61.7903 40.3743 61.7903 45.691C61.7903 51.0076 57.4651 55.3328 52.1485 55.3328ZM52.1485 37.6645C47.7228 37.6645 44.122 41.2648 44.122 45.691C44.122 50.1171 47.7228 53.7174 52.1485 53.7174C56.5741 53.7174 60.1749 50.1166 60.1749 45.691C60.1749 41.2653 56.5741 37.6645 52.1485 37.6645Z" fill="white"/>
<path d="M50.3639 50.0691C50.1498 50.0697 49.9443 49.9852 49.7924 49.8344L46.2229 46.2649C46.1479 46.1899 46.0884 46.1008 46.0478 46.0028C46.0072 45.9048 45.9863 45.7998 45.9863 45.6937C45.9863 45.5876 46.0072 45.4826 46.0478 45.3846C46.0884 45.2866 46.1479 45.1975 46.2229 45.1225C46.2979 45.0475 46.387 44.988 46.485 44.9474C46.583 44.9068 46.688 44.8859 46.7941 44.8859C46.9002 44.8859 47.0052 44.9068 47.1032 44.9474C47.2012 44.988 47.2903 45.0475 47.3653 45.1225L50.3639 48.1211L56.9314 41.553C57.0829 41.4015 57.2884 41.3164 57.5026 41.3164C57.7168 41.3164 57.9223 41.4015 58.0738 41.553C58.2253 41.7045 58.3104 41.91 58.3104 42.1242C58.3104 42.3384 58.2253 42.5439 58.0738 42.6954L50.9348 49.8344C50.7831 49.9851 50.5777 50.0695 50.3639 50.0691Z" fill="white"/>
</g>
</svg>
