<svg width="82" height="82" viewBox="0 0 82 82" fill="none" xmlns="http://www.w3.org/2000/svg">
<g opacity="0.92">
<rect width="82" height="82" rx="41" fill="white"/>
<g clip-path="url(#clip0_1994_5662)">
<path d="M61.3 20.3907H20.7C20.5143 20.3907 20.3363 20.4644 20.205 20.5957C20.0737 20.727 20 20.905 20 21.0907V49.0907C20 49.2763 20.0737 49.4544 20.205 49.5857C20.3363 49.7169 20.5143 49.7907 20.7 49.7907H33.3399C33.3609 50.0238 33.3952 50.2534 33.4365 50.4809L29.597 55.0568C29.5202 55.1482 29.4681 55.2577 29.4455 55.375C29.423 55.4922 29.4309 55.6133 29.4683 55.7267C29.5058 55.84 29.5716 55.9419 29.6596 56.0227C29.7475 56.1034 29.8547 56.1603 29.9708 56.188L34.1974 57.1974L35.9257 61.1874C35.9731 61.2969 36.0478 61.3925 36.1426 61.4651C36.2374 61.5376 36.3491 61.5847 36.4673 61.6019C36.5854 61.6191 36.7059 61.6058 36.8175 61.5633C36.929 61.5207 37.0278 61.4504 37.1045 61.3589L40.9377 56.7907H41.0623L44.8955 61.3589C44.9722 61.4504 45.071 61.5207 45.1825 61.5633C45.2941 61.6058 45.4146 61.6191 45.5327 61.6019C45.6509 61.5847 45.7626 61.5376 45.8574 61.4651C45.9522 61.3925 46.0269 61.2969 46.0743 61.1874L47.8026 57.1974L52.0292 56.188C52.1453 56.1603 52.2525 56.1034 52.3404 56.0227C52.4284 55.9419 52.4942 55.84 52.5317 55.7267C52.5691 55.6133 52.577 55.4922 52.5545 55.375C52.5319 55.2577 52.4798 55.1482 52.403 55.0568L48.5635 50.4809C48.6048 50.2534 48.6391 50.0238 48.6601 49.7907H61.3C61.4856 49.7907 61.6637 49.7169 61.795 49.5857C61.9263 49.4544 62 49.2763 62 49.0907V21.0907C62 20.905 61.9263 20.727 61.795 20.5957C61.6637 20.4644 61.4856 20.3907 61.3 20.3907ZM36.7601 59.5907L35.3426 56.3217C35.2994 56.222 35.2336 56.1337 35.1503 56.0639C35.0671 55.994 34.9688 55.9445 34.8631 55.9192L31.3981 55.0911L33.9111 52.0958C33.9244 52.1266 33.9419 52.1546 33.9552 52.1854C34.0462 52.3954 34.1449 52.5949 34.2541 52.793C34.2993 52.8753 34.3459 52.9567 34.3941 53.0373C34.4904 53.1976 34.5922 53.3545 34.6993 53.5077C34.7742 53.6148 34.8526 53.7177 34.9331 53.8227C35.1282 54.071 35.3381 54.3074 35.5617 54.5304C35.6478 54.6165 35.7367 54.6998 35.8277 54.7817C35.9033 54.8517 35.9712 54.9252 36.0503 54.9917C36.1294 55.0582 36.2036 55.103 36.2792 55.1618C36.3135 55.1884 36.3429 55.2192 36.3779 55.2451C36.4409 55.2927 36.5074 55.334 36.5718 55.3795C36.6726 55.4495 36.772 55.5251 36.8763 55.5895C37.0745 55.716 37.2786 55.8328 37.4881 55.9395C37.5679 55.9801 37.6491 56.0172 37.7303 56.055C37.915 56.1419 38.103 56.2218 38.2938 56.2944C38.3484 56.3147 38.4023 56.3378 38.4569 56.3567C38.722 56.4499 38.9922 56.5282 39.2661 56.5912L39.2738 56.5933L36.7601 59.5907ZM42.3146 55.2423C41.9936 55.3101 41.6678 55.3529 41.3402 55.3704H41.3311C41.2205 55.376 41.1099 55.3837 40.9986 55.3837C40.8873 55.3837 40.7767 55.376 40.6661 55.3704H40.657C40.3301 55.3529 40.0051 55.3103 39.6847 55.243L39.6259 55.2311C39.5013 55.2038 39.3781 55.1702 39.2563 55.1352C39.2052 55.1205 39.1534 55.1072 39.103 55.0911C39.0155 55.0638 38.9294 55.0316 38.8433 55.0008C38.759 54.9712 38.6754 54.9394 38.5927 54.9056C38.5414 54.8838 38.4907 54.8605 38.4408 54.8356C38.326 54.7838 38.2119 54.7313 38.1006 54.6732L38.0446 54.6424C37.7561 54.488 37.4799 54.3116 37.2186 54.1146C37.073 54.0061 36.9386 53.8864 36.8063 53.7681C36.6498 53.6285 36.5005 53.4811 36.359 53.3264C36.303 53.2662 36.2428 53.2088 36.1896 53.1465C35.9941 52.9165 35.8158 52.6725 35.6562 52.4164C35.6324 52.3786 35.6121 52.3387 35.5862 52.2995C35.4374 52.0508 35.3064 51.7918 35.1942 51.5246C35.1844 51.5008 35.1732 51.477 35.1641 51.4546C35.0401 51.1484 34.9404 50.8329 34.8659 50.511C34.8659 50.4984 34.8561 50.4886 34.8526 50.476C34.7509 50.0212 34.6997 49.5567 34.7 49.0907C34.6979 45.6112 37.5168 42.789 40.9961 42.7868C44.4756 42.7847 47.2978 45.6036 47.3 49.083C47.3003 49.5543 47.2477 50.0241 47.1432 50.4836C47.1397 50.4955 47.1327 50.506 47.1299 50.5179C47.0555 50.8395 46.956 51.1548 46.8324 51.4608C46.8226 51.4853 46.8114 51.5098 46.8009 51.5308C46.6891 51.7964 46.5585 52.0537 46.4103 52.3008C46.3872 52.34 46.3662 52.3813 46.3403 52.4205C46.1807 52.6763 46.0027 52.92 45.8076 53.1499C45.7551 53.2115 45.6956 53.2675 45.6403 53.3277C45.4969 53.4838 45.3457 53.6326 45.1874 53.7736C45.0544 53.8919 44.9221 54.0116 44.7772 54.1194C44.6422 54.2208 44.5035 54.3172 44.3614 54.4085L44.353 54.4134C44.2267 54.4933 44.0973 54.5682 43.9652 54.6381C43.9393 54.6521 43.9141 54.6668 43.8882 54.6801C43.7825 54.7354 43.6782 54.7851 43.5669 54.8334C43.5109 54.8586 43.4556 54.8845 43.3989 54.9076C43.3205 54.9405 43.2407 54.9692 43.1609 54.9979C43.0811 55.0266 42.9824 55.0637 42.8914 55.0917C42.8431 55.1071 42.7941 55.1204 42.7451 55.1344C42.6212 55.1694 42.4966 55.2044 42.3706 55.231L42.3146 55.2423ZM50.6019 55.089L47.1369 55.9171C47.0312 55.9424 46.9329 55.9919 46.8497 56.0618C46.7664 56.1316 46.7006 56.2199 46.6574 56.3196L45.2399 59.5907L42.7262 56.5954H42.7325C43.0074 56.5326 43.2786 56.4541 43.5445 56.3602C43.597 56.342 43.6474 56.3203 43.6999 56.3014C43.8955 56.2275 44.0879 56.1455 44.2767 56.0557C44.3537 56.02 44.4307 55.9857 44.5063 55.9465C44.7163 55.8373 44.9263 55.719 45.1279 55.5895C45.2252 55.5279 45.3183 55.4586 45.4128 55.3921C45.4828 55.3438 45.5528 55.2997 45.6228 55.2486C45.6599 55.2206 45.6928 55.1877 45.7292 55.159C45.7992 55.1016 45.8804 55.0533 45.9518 54.9931C46.0232 54.9329 46.096 54.8531 46.1702 54.7873C46.2626 54.7039 46.3531 54.6185 46.4418 54.5311C46.6645 54.3084 46.874 54.0728 47.069 53.8255C47.1495 53.7226 47.2279 53.6155 47.3028 53.5105C47.4105 53.3583 47.5121 53.2018 47.6073 53.0415C47.6565 52.9608 47.7032 52.8787 47.7473 52.7951C47.8559 52.598 47.9552 52.396 48.0448 52.1896C48.0574 52.1539 48.0756 52.1252 48.0889 52.0937L50.6019 55.089ZM60.6 48.3907H48.6643C48.2845 44.1574 44.5447 41.0336 40.3115 41.4135C36.6046 41.7462 33.667 44.6838 33.3343 48.3907H21.4V21.7907H60.6V48.3907Z" fill="#0063CB"/>
<path d="M32.6004 28.0907H49.4004V29.4907H32.6004V28.0907ZM28.4004 32.2907H53.6004V33.6907H28.4004V32.2907ZM41.0004 44.1907C38.2942 44.1907 36.1004 46.3845 36.1004 49.0907C36.1035 51.7956 38.2955 53.9876 41.0004 53.9907C43.7066 53.9907 45.9004 51.7969 45.9004 49.0907C45.9004 46.3845 43.7066 44.1907 41.0004 44.1907ZM41.0004 52.5907C39.0674 52.5907 37.5004 51.0237 37.5004 49.0907C37.5027 47.1587 39.0684 45.593 41.0004 45.5907C42.9334 45.5907 44.5004 47.1577 44.5004 49.0907C44.5004 51.0237 42.9334 52.5907 41.0004 52.5907Z" fill="#0063CB"/>
</g>
</g>
<defs>
<clipPath id="clip0_1994_5662">
<rect width="42" height="42" fill="white" transform="translate(20 20)"/>
</clipPath>
</defs>
</svg>
