<svg width="82" height="82" viewBox="0 0 82 82" fill="none" xmlns="http://www.w3.org/2000/svg">
<g opacity="0.92">
<rect width="82" height="82" rx="41" fill="white"/>
<g clip-path="url(#clip0_1994_5691)">
<path d="M59.4882 25.25H40.4023C39.8058 25.2506 39.2338 25.4878 38.812 25.9097C38.3902 26.3315 38.1529 26.9034 38.1523 27.5V37.1209C38.1529 37.7174 38.3902 38.2894 38.812 38.7112C39.2338 39.133 39.8058 39.3703 40.4023 39.3709H59.4882C60.0847 39.3703 60.6567 39.133 61.0785 38.7112C61.5003 38.2894 61.7375 37.7174 61.7381 37.1209V27.5C61.7375 26.9034 61.5003 26.3315 61.0785 25.9097C60.6567 25.4878 60.0847 25.2506 59.4882 25.25ZM60.2382 37.1209C60.238 37.3197 60.1589 37.5104 60.0183 37.651C59.8777 37.7916 59.687 37.8707 59.4882 37.8709H40.4023C40.2035 37.8707 40.0128 37.7916 39.8722 37.651C39.7316 37.5104 39.6525 37.3197 39.6523 37.1209V27.5C39.6525 27.3011 39.7316 27.1105 39.8722 26.9699C40.0128 26.8293 40.2035 26.7502 40.4023 26.75H59.4882C59.687 26.7502 59.8777 26.8293 60.0183 26.9699C60.1589 27.1105 60.238 27.3011 60.2382 27.5V37.1209Z" fill="#0063CB"/>
<path d="M57.8329 29.5889H42.0576C41.8586 29.5889 41.6679 29.6679 41.5272 29.8085C41.3866 29.9492 41.3076 30.14 41.3076 30.3389C41.3076 30.5378 41.3866 30.7285 41.5272 30.8692C41.6679 31.0098 41.8586 31.0889 42.0576 31.0889H57.8329C58.0318 31.0889 58.2226 31.0098 58.3633 30.8692C58.5039 30.7285 58.5829 30.5378 58.5829 30.3389C58.5829 30.14 58.5039 29.9492 58.3633 29.8085C58.2226 29.6679 58.0318 29.5889 57.8329 29.5889ZM57.8329 33.5338H42.0576C41.8586 33.5338 41.6679 33.6129 41.5272 33.7535C41.3866 33.8942 41.3076 34.0849 41.3076 34.2838C41.3076 34.4827 41.3866 34.6735 41.5272 34.8142C41.6679 34.9548 41.8586 35.0338 42.0576 35.0338H57.8329C58.0318 35.0338 58.2226 34.9548 58.3633 34.8142C58.5039 34.6735 58.5829 34.4827 58.5829 34.2838C58.5829 34.0849 58.5039 33.8942 58.3633 33.7535C58.2226 33.6129 58.0318 33.5338 57.8329 33.5338ZM59.4882 41.8153H40.4023C39.8058 41.8159 39.2338 42.0531 38.812 42.4749C38.3902 42.8968 38.1529 43.4687 38.1523 44.0652V53.6854C38.1529 54.282 38.3902 54.8539 38.812 55.2757C39.2338 55.6976 39.8058 55.9348 40.4023 55.9354H59.4882C60.0847 55.9348 60.6567 55.6976 61.0785 55.2757C61.5003 54.8539 61.7375 54.282 61.7381 53.6854V44.0652C61.7375 43.4687 61.5003 42.8968 61.0785 42.4749C60.6567 42.0531 60.0847 41.8159 59.4882 41.8153ZM60.2382 53.6854C60.238 53.8843 60.1589 54.0749 60.0183 54.2155C59.8777 54.3561 59.687 54.4352 59.4882 54.4354H40.4023C40.2035 54.4352 40.0128 54.3561 39.8722 54.2155C39.7316 54.0749 39.6525 53.8843 39.6523 53.6854V44.0652C39.6525 43.8664 39.7316 43.6757 39.8722 43.5351C40.0128 43.3945 40.2035 43.3154 40.4023 43.3153H59.4882C59.687 43.3154 59.8777 43.3945 60.0183 43.5351C60.1589 43.6757 60.238 43.8664 60.2382 44.0652V53.6854Z" fill="#0063CB"/>
<path d="M57.8331 46.153H42.0577C41.8588 46.153 41.668 46.232 41.5274 46.3726C41.3867 46.5133 41.3077 46.704 41.3077 46.9029C41.3077 47.1019 41.3867 47.2926 41.5274 47.4333C41.668 47.5739 41.8588 47.6529 42.0577 47.6529H57.8331C58.032 47.6529 58.2227 47.5739 58.3634 47.4333C58.504 47.2926 58.5831 47.1019 58.5831 46.9029C58.5831 46.704 58.504 46.5133 58.3634 46.3726C58.2227 46.232 58.032 46.153 57.8331 46.153ZM57.8331 50.0972H42.0577C41.8588 50.0972 41.668 50.1762 41.5274 50.3168C41.3867 50.4575 41.3077 50.6483 41.3077 50.8472C41.3077 51.0461 41.3867 51.2368 41.5274 51.3775C41.668 51.5181 41.8588 51.5972 42.0577 51.5972H57.8331C58.032 51.5972 58.2227 51.5181 58.3634 51.3775C58.504 51.2368 58.5831 51.0461 58.5831 50.8472C58.5831 50.6483 58.504 50.4575 58.3634 50.3168C58.2227 50.1762 58.032 50.0972 57.8331 50.0972ZM35.4585 26.3719C35.0288 26.0081 34.4723 25.8295 33.9112 25.8752C33.35 25.9209 32.8298 26.1871 32.4645 26.6156L26.3333 33.9281L24.0196 30.1661C23.7241 29.6873 23.251 29.3451 22.7038 29.2144C22.1566 29.0837 21.5799 29.1751 21.0999 29.4686C20.7834 29.6112 20.5026 29.8222 20.2774 30.0863C20.0523 30.3505 19.8885 30.6613 19.7979 30.9963C19.732 31.2678 19.7206 31.5496 19.7644 31.8255C19.8081 32.1014 19.9062 32.3658 20.0529 32.6036L22.5639 36.6918C22.9249 37.2707 23.4169 37.7567 24.0004 38.1104C24.5838 38.4641 25.2422 38.6757 25.9225 38.728C26.6027 38.7803 27.2858 38.672 27.9165 38.4117C28.5471 38.1514 29.1077 37.7464 29.5531 37.2295L36.012 29.6298C36.2098 29.3873 36.3534 29.1053 36.4332 28.8027C36.5131 28.5001 36.5273 28.184 36.4749 27.8754C36.4226 27.5669 36.3049 27.2731 36.1297 27.0138C35.9545 26.7545 35.7259 26.5356 35.4593 26.3719H35.4585ZM26.0363 37.2468C25.5908 37.215 25.1593 37.0768 24.7781 36.8439C24.397 36.611 24.0772 36.29 23.8456 35.908L21.4396 31.9878C21.3697 31.9181 21.316 31.8339 21.2825 31.741C21.249 31.6481 21.2364 31.549 21.2457 31.4507C21.2551 31.3524 21.286 31.2574 21.3364 31.1725C21.3868 31.0876 21.4553 31.0149 21.5371 30.9596C21.9196 30.6791 22.4176 30.4593 22.7424 30.9521L25.0561 34.7141C25.1779 34.9079 25.3435 35.0704 25.5395 35.1887C25.7354 35.3069 25.9564 35.3776 26.1847 35.3951C26.4129 35.4125 26.6421 35.3762 26.8538 35.289C27.0654 35.2019 27.2537 35.0664 27.4036 34.8933L33.6075 27.5869C33.9975 27.1534 34.464 27.4376 34.7978 27.7781C34.8704 27.8453 34.9272 27.9278 34.964 28.0197C35.0008 28.1116 35.0168 28.2105 35.0107 28.3092C35.0046 28.408 34.9766 28.5042 34.9287 28.5908C34.8809 28.6774 34.8144 28.7523 34.734 28.8101L28.4086 36.256C28.1208 36.5984 27.7553 36.867 27.3427 37.0394C26.93 37.2119 26.4821 37.2825 26.0363 37.2468ZM31.788 48.7659L34.4295 45.973C34.6618 45.7119 34.8352 45.4038 34.9379 45.0698C35.0405 44.7357 35.0701 44.3835 35.0246 44.037C34.979 43.6905 34.8595 43.3578 34.674 43.0617C34.4885 42.7655 34.2414 42.5127 33.9495 42.3205C33.5007 41.8983 32.903 41.6711 32.2871 41.6886C31.6712 41.706 31.0873 41.9666 30.663 42.4135L28.0231 45.2117L25.2226 42.5702C24.7729 42.1488 24.1746 41.9226 23.5585 41.9412C22.9425 41.9598 22.3589 42.2215 21.9354 42.6692C21.6544 42.8777 21.4219 43.1444 21.2535 43.451C21.0851 43.7577 20.9849 44.0971 20.9598 44.446C20.9347 44.7949 20.9852 45.1451 21.1078 45.4727C21.2305 45.8004 21.4225 46.0976 21.6706 46.3442L24.4696 48.9849L21.8304 51.7817C21.5955 52.0409 21.4198 52.3482 21.3154 52.6821C21.211 53.016 21.1804 53.3686 21.2258 53.7155C21.2712 54.0624 21.3914 54.3953 21.5781 54.6912C21.7649 54.987 22.0137 55.2387 22.3074 55.4289C22.7564 55.8506 23.3539 56.0775 23.9696 56.0602C24.5853 56.043 25.1692 55.7828 25.5938 55.3366L28.2338 52.5384L31.0313 55.1769C31.482 55.5989 32.0811 55.8258 32.6983 55.8083C33.3155 55.7907 33.9008 55.5301 34.3268 55.0831C34.6073 54.8739 34.8394 54.6066 35.0072 54.2995C35.1751 53.9924 35.2747 53.6527 35.2993 53.3036C35.324 52.9545 35.273 52.6042 35.15 52.2766C35.0269 51.949 34.8346 51.6517 34.5863 51.4052L31.788 48.7659ZM33.5955 53.6701L33.2355 54.0526C33.0844 54.2125 32.876 54.3059 32.6562 54.3123C32.4363 54.3188 32.2228 54.2378 32.0625 54.0871L28.7176 50.9319C28.5728 50.7956 28.3799 50.7224 28.1812 50.7283C27.9825 50.7342 27.7942 50.8188 27.6578 50.9634L24.5011 54.3084C24.3505 54.4663 24.1435 54.5581 23.9253 54.5638C23.7071 54.5694 23.4956 54.4884 23.3371 54.3384L22.9509 53.9754C22.7934 53.8248 22.7018 53.6181 22.6962 53.4003C22.6906 53.1825 22.7714 52.9714 22.9209 52.8129L26.0753 49.4679C26.2117 49.3233 26.2851 49.1304 26.2793 48.9317C26.2735 48.733 26.1891 48.5447 26.0446 48.4082L22.6989 45.2522C22.6193 45.1786 22.555 45.0899 22.5098 44.9914C22.4645 44.8928 22.4392 44.7863 22.4352 44.678C22.4313 44.5696 22.4487 44.4615 22.4866 44.3599C22.5245 44.2584 22.5821 44.1652 22.6561 44.086L23.0236 43.7012C23.098 43.6218 23.1873 43.5578 23.2865 43.5129C23.3856 43.4679 23.4926 43.443 23.6014 43.4394C23.7102 43.4359 23.8186 43.4538 23.9205 43.4922C24.0224 43.5305 24.1157 43.5886 24.1951 43.663L27.5393 46.8174C27.684 46.9538 27.8768 47.0272 28.0756 47.0214C28.2743 47.0156 28.4626 46.9312 28.5991 46.7867L31.7565 43.441C31.9071 43.2833 32.114 43.1916 32.332 43.186C32.5499 43.1803 32.7613 43.2612 32.9198 43.411L33.3023 43.771C33.4614 43.9226 33.5543 44.1309 33.5609 44.3506C33.5675 44.5703 33.4872 44.7838 33.3375 44.9447L30.1823 48.2807C30.0513 48.4282 29.9816 48.6202 29.9873 48.8174C29.993 49.0146 30.0738 49.2022 30.213 49.3419L33.558 52.4979C33.638 52.5721 33.7024 52.6614 33.7476 52.7607C33.7928 52.8599 33.8179 52.9672 33.8214 53.0762C33.8248 53.1852 33.8067 53.2938 33.7679 53.3958C33.7292 53.4977 33.6706 53.591 33.5955 53.6701Z" fill="#0063CB"/>
</g>
</g>
<defs>
<clipPath id="clip0_1994_5691">
<rect width="42" height="42" fill="white" transform="translate(20 20)"/>
</clipPath>
</defs>
</svg>
