<svg width="213" height="135" viewBox="0 0 213 135" fill="none" xmlns="http://www.w3.org/2000/svg">
<g clip-path="url(#clip0_2601_10710)">
<path d="M29.8738 92.5H24.1367V120.208H29.8738V92.5Z" fill="#FF5583"/>
<path d="M74.1766 81.1523H68.4395V120.207H74.1766V81.1523Z" fill="#FF5583"/>
<path d="M52.5024 83.6016H46.7656V120.209H52.5024V83.6016Z" fill="#FF5583"/>
<path d="M34.8164 78.8945V119.87V120.206H35.3355H40.5535H41.0726V119.87V78.8945H34.8164ZM35.3358 119.87V79.3061H40.5539V119.87H35.3358Z" fill="white"/>
<path d="M57.5547 68.0156V119.782V120.207H58.0738H63.2918H63.8109V119.782V68.0156H57.5547ZM58.0738 119.782V68.5359H63.2918V119.782H58.0738Z" fill="white"/>
<path d="M115.1 20.3945H106.545V81.3328H115.1V20.3945Z" fill="#FF5583"/>
<path d="M181.167 23.0938H172.611V81.3342H181.167V23.0938Z" fill="#FF5583"/>
<path d="M148.846 26.7422H140.291V81.3325H148.846V26.7422Z" fill="#FF5583"/>
<path d="M122.471 3.50391V80.7009V81.3343H123.245H131.026H131.801V80.7009V3.50391H122.471ZM123.245 80.7009V4.27961H131.026V80.7009H123.245Z" fill="white"/>
<path d="M156.379 3.50391V80.7009V81.3343H157.153H164.935H165.709V80.7009V3.50391H156.379ZM157.153 80.7009V4.27961H164.935V80.7009H157.153Z" fill="white"/>
<path d="M185.947 52.3047V79.8596V80.6492H186.721H194.503H195.277V79.8596V52.3047H185.947ZM186.722 79.8596V53.08H194.503V79.8596H186.722Z" fill="white"/>
<path d="M196.239 35.78C196.239 36.2602 195.85 36.6498 195.37 36.6498C194.891 36.6498 194.502 36.2605 194.502 35.78C194.502 35.2998 194.891 34.9102 195.37 34.9102C195.85 34.9102 196.239 35.2998 196.239 35.78Z" fill="#FF5583"/>
<path d="M205.536 6.68624C205.536 7.1664 205.147 7.55608 204.667 7.55608C204.188 7.55608 203.799 7.16677 203.799 6.68624C203.799 6.20608 204.188 5.81641 204.667 5.81641C205.147 5.81641 205.536 6.20572 205.536 6.68624Z" fill="#FF5583"/>
<path d="M183.859 13.4467C183.051 13.4467 182.395 12.7885 182.395 11.9792C182.395 11.1699 183.052 10.5117 183.859 10.5117C184.667 10.5117 185.325 11.1699 185.325 11.9792C185.325 12.7881 184.667 13.4467 183.859 13.4467ZM183.859 10.8766C183.252 10.8766 182.759 11.371 182.759 11.9792C182.759 12.5874 183.252 13.0818 183.859 13.0818C184.466 13.0818 184.96 12.5874 184.96 11.9792C184.96 11.371 184.466 10.8766 183.859 10.8766Z" fill="white"/>
<path d="M210.768 26.935C209.96 26.935 209.303 26.2768 209.303 25.4675C209.303 24.6582 209.96 24 210.768 24C211.576 24 212.232 24.6582 212.232 25.4675C212.233 26.2768 211.576 26.935 210.768 26.935ZM210.768 24.3649C210.161 24.3649 209.667 24.8593 209.667 25.4675C209.667 26.0757 210.161 26.5701 210.768 26.5701C211.375 26.5701 211.868 26.0757 211.868 25.4675C211.869 24.8596 211.375 24.3649 210.768 24.3649Z" fill="white"/>
<path d="M14.6177 110.839C14.6177 111.319 14.229 111.708 13.7493 111.708C13.2699 111.708 12.8809 111.319 12.8809 110.839C12.8809 110.358 13.2695 109.969 13.7493 109.969C14.229 109.969 14.6177 110.358 14.6177 110.839Z" fill="#FF5583"/>
<path d="M23.0461 82.6147C23.5257 82.6147 23.9145 82.2252 23.9145 81.7448C23.9145 81.2644 23.5257 80.875 23.0461 80.875C22.5665 80.875 22.1777 81.2644 22.1777 81.7448C22.1777 82.2252 22.5665 82.6147 23.0461 82.6147Z" fill="#FF5583"/>
<path d="M2.23813 88.5053C1.4302 88.5053 0.773438 87.8471 0.773438 87.0378C0.773438 86.2285 1.43056 85.5703 2.23813 85.5703C3.04606 85.5703 3.70319 86.2289 3.70319 87.0378C3.70319 87.8467 3.0457 88.5053 2.23813 88.5053ZM2.23813 85.9352C1.63127 85.9352 1.1377 86.4296 1.1377 87.0378C1.1377 87.6457 1.63127 88.1404 2.23813 88.1404C2.84535 88.1404 3.33893 87.646 3.33893 87.0378C3.33893 86.4299 2.84499 85.9352 2.23813 85.9352Z" fill="white"/>
<path d="M3.52093 62.4647C3.52093 63.1744 2.94649 63.7498 2.238 63.7498C1.52952 63.7498 0.955078 63.1744 0.955078 62.4647C0.955078 61.7551 1.52952 61.1797 2.238 61.1797C2.94649 61.1797 3.52093 61.7551 3.52093 62.4647Z" fill="white"/>
<path d="M184.726 81.1693C186.51 79.6047 186.661 76.7249 184.03 73.7147L153.6 38.9048C150.968 35.8946 147.389 34.7227 145.605 36.2872C143.822 37.8518 144.509 41.5603 147.14 44.5708L177.57 79.3803C180.202 82.3905 182.942 82.7338 184.726 81.1693Z" fill="#576184"/>
<path d="M182.337 82.2672C182.041 82.2672 181.737 82.234 181.428 82.1676C180.088 81.8786 178.707 80.9563 177.433 79.4994L147.003 44.6902C144.31 41.6089 143.629 37.7774 145.485 36.1494C147.342 34.521 151.044 35.7035 153.736 38.7841L184.167 73.594C185.432 75.0418 186.14 76.556 186.215 77.9739C186.285 79.2874 185.798 80.4706 184.846 81.3058C184.121 81.9418 183.266 82.2672 182.337 82.2672ZM147.632 35.7718C146.888 35.7718 146.229 35.9812 145.725 36.4234C144.02 37.9194 144.716 41.5195 147.277 44.4493L177.707 79.2589C178.929 80.6563 180.242 81.5386 181.505 81.8108C182.668 82.0607 183.74 81.7911 184.607 81.0307C185.473 80.2707 185.916 79.1918 185.852 77.9925C185.782 76.6574 185.104 75.2191 183.893 73.8337L153.463 39.0242C151.659 36.9605 149.403 35.7718 147.632 35.7718Z" fill="#353148"/>
<path d="M148.985 45.9906L155.013 40.7037C155.826 39.9904 155.908 38.7516 155.196 37.9373L152.973 35.3956C152.26 34.5809 151.024 34.4988 150.21 35.2124L144.184 40.4982C143.37 41.2116 143.288 42.4503 144 43.265L146.222 45.8074C146.935 46.6218 148.172 46.7039 148.985 45.9906Z" fill="#9DD3FF"/>
<path d="M147.698 46.6575C147.65 46.6575 147.601 46.656 147.553 46.6528C146.983 46.6148 146.461 46.3569 146.085 45.926L143.863 43.3836C143.086 42.494 143.176 41.1378 144.063 40.3596L150.09 35.0738C150.52 34.6965 151.072 34.5104 151.641 34.5476C152.211 34.5856 152.733 34.8435 153.109 35.2741L155.332 37.8157C155.709 38.2463 155.896 38.798 155.857 39.3693C155.82 39.9403 155.562 40.4625 155.132 40.8397L149.104 46.1266C148.711 46.4718 148.216 46.6575 147.698 46.6575ZM151.497 34.9074C151.067 34.9074 150.656 35.0614 150.33 35.3482L144.303 40.634C143.566 41.2798 143.492 42.4054 144.137 43.1435L146.359 45.6859C146.671 46.0434 147.104 46.2576 147.577 46.289C148.053 46.3207 148.508 46.1653 148.865 45.8526L154.892 40.5657C155.249 40.2527 155.463 39.8196 155.494 39.3456C155.526 38.8717 155.37 38.4141 155.058 38.0569L152.835 35.5153C152.523 35.1577 152.09 34.9439 151.617 34.9125C151.577 34.9089 151.537 34.9074 151.497 34.9074Z" fill="#121936"/>
<path d="M154.353 41.1929C154.302 41.1929 154.251 41.1714 154.215 41.1298L150.3 36.6025C150.234 36.5267 150.243 36.4114 150.319 36.3453C150.395 36.2793 150.51 36.2877 150.576 36.3639L154.491 40.8912C154.557 40.9671 154.548 41.0824 154.472 41.1484C154.438 41.1783 154.395 41.1929 154.353 41.1929Z" fill="#121936"/>
<path d="M152.761 42.8824C152.71 42.8824 152.659 42.8609 152.623 42.8193L150.666 40.5557C150.6 40.4798 150.608 40.3645 150.684 40.2984C150.76 40.2324 150.875 40.2408 150.941 40.3171L152.898 42.5807C152.964 42.6566 152.956 42.7719 152.88 42.8379C152.845 42.8678 152.803 42.8824 152.761 42.8824Z" fill="#121936"/>
<path d="M116.758 37.6661C124.985 47.0767 139.27 48.0254 148.664 39.7853C158.059 31.5452 159.006 17.2366 150.78 7.82604C142.553 -1.58419 128.268 -2.5332 118.874 5.70691C109.479 13.9474 108.532 28.2556 116.758 37.6661ZM122.062 9.14795C129.515 2.61103 140.847 3.36374 147.373 10.8289C153.899 18.2944 153.148 29.6453 145.695 36.1826C138.242 42.7195 126.91 41.9668 120.384 34.5013C113.857 27.0362 114.609 15.6849 122.062 9.14795Z" fill="#121936"/>
<path opacity="0.47" d="M119.914 34.8531C126.696 42.6119 138.473 43.3935 146.219 36.6001C153.965 29.8063 154.746 18.0095 147.964 10.251C141.181 2.49214 129.404 1.70986 121.658 8.50365C113.913 15.2971 113.131 27.0942 119.914 34.8531Z" fill="white"/>
<path opacity="0.69" d="M128.024 14.7745C129.796 16.8013 132.873 17.0053 134.896 15.231C136.919 13.4563 137.123 10.3746 135.352 8.34814C133.58 6.32132 130.504 6.117 128.48 7.8917C126.457 9.66604 126.253 12.7477 128.024 14.7745Z" fill="white"/>
<path d="M177.015 68.7946C176.961 68.5826 155.994 66.4883 155.994 66.4883L149.061 90.8988C148.5 92.8728 148.161 94.9032 148.05 96.9523L146.014 126.699C145.98 127.188 146.371 127.602 146.861 127.596L156.306 127.479C156.809 127.473 157.228 127.092 157.284 126.591L159.825 103.601L163.023 95.7402L164.033 126.686C164.05 127.207 164.48 127.618 165 127.61L174.974 127.607C175.301 127.607 175.574 127.357 175.602 127.031C176.171 115.662 176.738 104.294 177.307 92.9249C177.567 87.7209 178.245 82.535 178.184 77.3171C178.149 74.3011 177.711 71.5515 177.015 68.7946Z" fill="#121936"/>
<path d="M162.565 97.6173C162.543 97.6173 162.52 97.6133 162.498 97.6045C162.404 97.5673 162.359 97.4615 162.396 97.3681L167.091 85.4596C167.128 85.3659 167.234 85.3188 167.327 85.3571C167.421 85.3943 167.467 85.5001 167.429 85.5935L162.734 97.502C162.706 97.5735 162.638 97.6173 162.565 97.6173Z" fill="white"/>
<path d="M165.756 127.539L165.296 127.936L158.802 133.815C158.372 134.205 158.653 134.92 159.232 134.912L173.777 134.71C174.165 134.705 174.474 134.381 174.461 133.992L174.435 127.542L165.756 127.539Z" fill="#FF5583"/>
<path d="M158.802 133.816L159.028 133.611C159.137 133.711 159.279 133.779 159.453 133.776L173.998 133.574C174.177 133.572 174.337 133.499 174.459 133.387L174.461 133.992C174.474 134.381 174.165 134.705 173.777 134.71L159.232 134.912C158.653 134.92 158.372 134.205 158.802 133.816Z" fill="#121936"/>
<path d="M160.913 133.89C160.813 133.89 160.731 133.809 160.73 133.709C160.73 133.608 160.811 133.526 160.911 133.525L174.446 133.406H174.448C174.548 133.406 174.629 133.487 174.63 133.587C174.631 133.688 174.55 133.77 174.449 133.771L160.914 133.89H160.913Z" fill="white"/>
<path d="M166.514 129.45C166.464 129.45 166.415 129.43 166.379 129.391L165.161 128.059C165.093 127.985 165.098 127.87 165.172 127.802C165.246 127.734 165.362 127.739 165.43 127.813L166.648 129.144C166.716 129.219 166.711 129.334 166.637 129.402C166.602 129.434 166.558 129.45 166.514 129.45Z" fill="white"/>
<path d="M165.515 130.392C165.466 130.392 165.416 130.371 165.381 130.332L164.163 129.001C164.095 128.927 164.1 128.811 164.174 128.743C164.248 128.675 164.364 128.68 164.432 128.754L165.649 130.086C165.718 130.16 165.712 130.276 165.638 130.344C165.603 130.376 165.559 130.392 165.515 130.392Z" fill="white"/>
<path d="M164.574 131.321C164.525 131.321 164.475 131.301 164.439 131.262L163.222 129.931C163.154 129.856 163.159 129.741 163.233 129.673C163.307 129.605 163.422 129.61 163.49 129.684L164.708 131.015C164.776 131.09 164.771 131.206 164.697 131.273C164.662 131.306 164.618 131.321 164.574 131.321Z" fill="white"/>
<path d="M166.491 127.806L166.377 127.767C165.89 127.52 166.046 125.486 166.071 125.351C166.11 125.139 166.229 124.955 166.406 124.833C166.583 124.712 166.797 124.666 167.008 124.705C167.22 124.744 167.403 124.863 167.525 125.041C167.647 125.218 167.692 125.433 167.654 125.644C167.605 125.907 166.891 127.609 166.573 127.765L166.491 127.806ZM166.861 125.056C166.773 125.056 166.687 125.083 166.612 125.134C166.515 125.201 166.45 125.302 166.428 125.417C166.362 125.777 166.374 126.931 166.494 127.329C166.742 126.951 167.246 125.844 167.295 125.578C167.317 125.462 167.292 125.345 167.225 125.248C167.158 125.151 167.058 125.086 166.942 125.064C166.916 125.059 166.888 125.056 166.861 125.056Z" fill="white"/>
<path d="M166.275 127.795C165.651 127.795 164.347 127.31 164.28 127.271C163.897 127.045 163.769 126.55 163.994 126.167C164.218 125.784 164.714 125.655 165.095 125.881H165.096C165.303 126.003 166.489 126.94 166.613 127.435C166.643 127.558 166.613 127.644 166.582 127.695C166.539 127.766 166.427 127.795 166.275 127.795ZM164.688 126.134C164.651 126.134 164.614 126.139 164.576 126.148C164.462 126.178 164.367 126.25 164.307 126.352C164.184 126.562 164.255 126.833 164.464 126.957C164.708 127.1 165.86 127.405 166.248 127.44C166.093 127.157 165.229 126.383 164.91 126.195C164.842 126.155 164.766 126.134 164.688 126.134Z" fill="white"/>
<path d="M147.133 127.539L146.673 127.936L140.179 133.815C139.749 134.205 140.03 134.92 140.609 134.912L155.154 134.71C155.542 134.705 155.851 134.381 155.837 133.992L155.812 127.542L147.133 127.539Z" fill="#FF5583"/>
<path d="M140.179 133.816L140.405 133.611C140.514 133.711 140.656 133.779 140.83 133.776L155.375 133.574C155.554 133.572 155.714 133.499 155.835 133.387L155.837 133.992C155.85 134.381 155.542 134.705 155.153 134.71L140.608 134.912C140.03 134.92 139.749 134.205 140.179 133.816Z" fill="#121936"/>
<path d="M142.29 133.89C142.19 133.89 142.108 133.809 142.107 133.709C142.107 133.608 142.188 133.526 142.288 133.525L155.823 133.406H155.825C155.925 133.406 156.006 133.487 156.007 133.587C156.008 133.688 155.927 133.77 155.826 133.771L142.291 133.89H142.29Z" fill="white"/>
<path d="M152.747 131.672C152.472 131.672 152.204 131.59 151.972 131.432C151.667 131.224 151.461 130.909 151.392 130.546C151.249 129.796 151.743 129.069 152.492 128.927C152.855 128.859 153.222 128.934 153.528 129.143C153.833 129.351 154.039 129.665 154.108 130.029C154.176 130.392 154.1 130.761 153.892 131.067C153.685 131.372 153.37 131.578 153.007 131.647C152.921 131.664 152.833 131.672 152.747 131.672ZM151.75 130.477C151.801 130.745 151.952 130.976 152.177 131.13C152.402 131.283 152.673 131.339 152.94 131.288C153.492 131.184 153.855 130.649 153.751 130.096C153.7 129.829 153.548 129.597 153.323 129.444C153.098 129.29 152.827 129.235 152.56 129.285C152.009 129.39 151.645 129.925 151.75 130.477Z" fill="white"/>
<path d="M147.892 129.45C147.843 129.45 147.794 129.43 147.758 129.391L146.54 128.059C146.472 127.985 146.477 127.87 146.551 127.802C146.625 127.734 146.741 127.739 146.809 127.813L148.027 129.144C148.095 129.219 148.09 129.334 148.016 129.402C147.981 129.434 147.937 129.45 147.892 129.45Z" fill="white"/>
<path d="M146.892 130.392C146.843 130.392 146.794 130.372 146.758 130.333L145.54 129.001C145.472 128.927 145.477 128.811 145.551 128.744C145.625 128.675 145.741 128.68 145.809 128.754L147.027 130.086C147.095 130.16 147.089 130.276 147.015 130.344C146.981 130.376 146.936 130.392 146.892 130.392Z" fill="white"/>
<path d="M145.951 131.321C145.902 131.321 145.852 131.301 145.816 131.262L144.599 129.931C144.53 129.856 144.536 129.741 144.61 129.673C144.683 129.605 144.8 129.61 144.867 129.684L146.085 131.015C146.153 131.09 146.148 131.206 146.074 131.273C146.039 131.306 145.995 131.321 145.951 131.321Z" fill="white"/>
<path d="M147.868 127.807L147.754 127.768C147.267 127.52 147.423 125.487 147.448 125.351C147.528 124.914 147.948 124.622 148.386 124.706C148.597 124.745 148.781 124.864 148.902 125.042C149.024 125.219 149.069 125.433 149.03 125.645C148.982 125.908 148.268 127.609 147.95 127.766L147.868 127.807ZM148.239 125.057C148.031 125.057 147.845 125.206 147.806 125.418C147.739 125.777 147.752 126.932 147.871 127.33C148.12 126.952 148.623 125.845 148.673 125.579C148.694 125.463 148.669 125.345 148.602 125.248C148.536 125.151 148.436 125.086 148.32 125.064C148.292 125.059 148.265 125.057 148.239 125.057Z" fill="white"/>
<path d="M147.65 127.795C147.026 127.795 145.722 127.31 145.655 127.271C145.272 127.045 145.144 126.55 145.369 126.167C145.594 125.784 146.088 125.655 146.47 125.881C146.678 126.003 147.864 126.939 147.988 127.435C148.019 127.558 147.988 127.644 147.957 127.695C147.914 127.766 147.802 127.795 147.65 127.795ZM146.063 126.134C145.912 126.134 145.765 126.212 145.682 126.352C145.559 126.562 145.63 126.833 145.84 126.957C146.083 127.1 147.236 127.405 147.623 127.441C147.469 127.156 146.605 126.383 146.286 126.195H146.286C146.216 126.154 146.139 126.134 146.063 126.134Z" fill="white"/>
<path d="M135.079 38.9372C134.492 38.5968 133.821 38.4162 133.445 39.1736C133.007 39.8085 133.486 40.2993 134.054 40.6904C133.665 40.5018 133.27 40.4558 132.994 40.8911C132.411 41.6113 132.956 42.2896 133.588 42.7015C132.877 42.4925 132.682 43.7257 133.332 44.4463L136.66 48.5328C137.357 49.434 139.653 49.8032 140.381 49.9386C140.534 49.9671 140.691 49.9445 140.826 49.8686C142.362 49.006 142.974 46.0087 142.449 43.4853C142.449 43.4853 141.286 39.71 140.655 38.518C140.587 38.3903 140.515 38.2611 140.408 38.1633C140.302 38.0655 140.154 38.0024 140.012 38.0316C139.829 38.0692 139.708 38.2451 139.627 38.4151C139.377 38.9431 139.324 39.5356 139.275 40.1219C138.92 39.7567 138.542 39.3637 138.135 38.9281C137.211 38.0721 135.86 36.4733 134.812 37.7499C134.487 38.2243 134.721 38.6249 135.079 38.9372Z" fill="#FFA386"/>
<path opacity="0.36" d="M139.275 40.1202L141.091 42.3361C141.091 42.3361 139.777 39.4328 139.413 39.0625L139.275 40.1202Z" fill="#FF6A48"/>
<path d="M136.282 40.3079C136.234 40.3079 136.186 40.2889 136.15 40.2517C135.708 39.7883 134.947 39.0185 134.789 38.9254C134.702 38.8743 134.673 38.7627 134.724 38.6759C134.775 38.5887 134.887 38.5602 134.974 38.6113C135.222 38.7572 136.217 39.7934 136.414 39.9996C136.483 40.0726 136.481 40.1879 136.408 40.2575C136.373 40.2911 136.327 40.3079 136.282 40.3079Z" fill="#FF6A48"/>
<path d="M135.03 41.8912C134.983 41.8912 134.936 41.8734 134.901 41.8372L133.808 40.7328C133.738 40.6613 133.738 40.5456 133.81 40.4748C133.881 40.4037 133.997 40.4044 134.067 40.4759L135.16 41.5804C135.23 41.6519 135.23 41.7675 135.158 41.8383C135.123 41.8737 135.076 41.8912 135.03 41.8912Z" fill="#FF6A48"/>
<path d="M134.19 43.4662C134.145 43.4662 134.099 43.4494 134.063 43.4151L133.462 42.8331C133.39 42.7631 133.387 42.6478 133.457 42.5752C133.527 42.5029 133.642 42.5007 133.715 42.5704L134.317 43.1524C134.389 43.2224 134.391 43.3377 134.321 43.4103C134.285 43.4476 134.238 43.4662 134.19 43.4662Z" fill="#FF6A48"/>
<path d="M168.958 29.8629C168.344 29.6611 167.819 29.2784 167.424 28.7884L169.33 28.8497C169.487 28.8548 169.64 28.8424 169.789 28.8157C169.908 28.7942 170.024 28.7617 170.136 28.722C170.145 28.7187 170.154 28.7161 170.163 28.7128C170.269 28.6734 170.372 28.6249 170.47 28.5702C170.484 28.5622 170.499 28.5545 170.512 28.5461C170.608 28.4899 170.699 28.4275 170.785 28.3582C170.796 28.3491 170.807 28.3396 170.818 28.3305C170.906 28.2568 170.989 28.178 171.065 28.0919L171.066 28.0908C171.141 28.005 171.207 27.9123 171.269 27.8156C171.276 27.8032 171.285 27.7916 171.292 27.7792C171.349 27.6858 171.398 27.5876 171.44 27.4858C171.448 27.4672 171.456 27.4486 171.463 27.43C171.503 27.3275 171.536 27.2216 171.56 27.1126C171.564 27.0958 171.566 27.0783 171.569 27.0611C171.592 26.9454 171.608 26.8272 171.612 26.7061L171.614 26.6554C171.617 26.5671 171.613 26.4802 171.606 26.3941C171.604 26.3682 171.6 26.3427 171.596 26.3168C171.589 26.2555 171.579 26.1949 171.567 26.1354C171.561 26.1092 171.556 26.0825 171.549 26.0566C171.533 25.9928 171.514 25.93 171.493 25.8684C171.487 25.8508 171.482 25.833 171.476 25.8158C171.446 25.7352 171.412 25.656 171.372 25.5801C171.371 25.5779 171.37 25.5757 171.369 25.5736C171.331 25.5006 171.289 25.4302 171.243 25.3623C171.234 25.3484 171.224 25.3349 171.215 25.3214C171.174 25.2631 171.131 25.2069 171.085 25.1529C171.075 25.1416 171.066 25.1299 171.056 25.1189C170.941 24.9887 170.811 24.8708 170.668 24.7705C170.328 24.5311 169.918 24.3834 169.474 24.3691L166.675 24.279C166.747 23.7795 166.858 23.2775 166.989 22.8079C167.273 21.7895 166.357 20.8383 165.33 21.0813C162.33 21.7921 161.161 21.826 160.465 21.7071C160.373 21.6914 160.289 21.6731 160.21 21.6534L158.789 29.0613C158.244 31.5672 159.872 32.8066 162.309 33.4284L162.341 36.4327C162.362 38.4909 163.834 40.1539 165.61 40.1287L165.684 40.1276C167.461 40.1025 169.168 38.905 169.146 36.8468L168.954 32.3319C168.867 32.352 168.78 32.3703 168.689 32.3768L168.958 29.8629Z" fill="#FFA386"/>
<path d="M169.632 27.4001C169.598 27.4001 169.563 27.3907 169.533 27.3706L168.631 26.785L169.542 25.7637C169.61 25.6886 169.726 25.6827 169.799 25.7495C169.874 25.8166 169.881 25.9319 169.814 26.0071L169.186 26.7106L169.731 27.0645C169.815 27.1192 169.839 27.2323 169.784 27.3166C169.75 27.3706 169.691 27.4001 169.632 27.4001Z" fill="#FF6A48"/>
<path d="M160.752 25.3327C160.743 25.5921 160.946 25.8096 161.205 25.8183C161.464 25.8271 161.681 25.6239 161.69 25.3648C161.699 25.1054 161.496 24.8879 161.237 24.8792C160.978 24.8704 160.761 25.0737 160.752 25.3327Z" fill="#121936"/>
<path d="M161.934 28.4988C161.698 28.4988 161.437 28.4259 161.154 28.2806C161.065 28.2347 161.029 28.1248 161.075 28.0351C161.121 27.9453 161.231 27.9103 161.32 27.9559C161.676 28.1391 161.982 28.181 162.203 28.0774C162.364 28.0015 162.431 27.8753 162.433 27.8698C162.479 27.7808 162.588 27.7439 162.677 27.7884C162.766 27.833 162.804 27.9399 162.76 28.03C162.746 28.0603 162.608 28.3295 162.26 28.4467C162.158 28.4817 162.048 28.4988 161.934 28.4988Z" fill="#FF6A48"/>
<path d="M163.912 24.3275C163.753 24.3191 163.599 24.2122 163.444 24.1184C163.29 24.0203 163.133 23.9261 162.993 23.8499C162.853 23.7733 162.689 23.6912 162.524 23.6145C162.361 23.5343 162.188 23.4617 162.097 23.3332C162.007 23.211 162.046 23.0227 162.296 22.902C162.534 22.7816 162.997 22.7626 163.461 23.0151C163.923 23.2697 164.152 23.6682 164.176 23.932C164.205 24.2053 164.064 24.3377 163.912 24.3275Z" fill="#121936"/>
<path d="M161.649 26.075C161.606 26.075 161.563 26.0596 161.528 26.029C161.499 26.0035 161.238 25.7889 160.927 26.0089C160.846 26.0669 160.731 26.0472 160.674 25.9651C160.616 25.8827 160.636 25.7688 160.718 25.7108C161.162 25.3967 161.601 25.6036 161.771 25.7568C161.846 25.8243 161.852 25.9396 161.785 26.0144C161.748 26.0549 161.699 26.075 161.649 26.075Z" fill="#FF6A48"/>
<path d="M162.303 33.61C162.303 33.61 165.258 34.0343 165.846 32.9478C165.846 32.9478 166.005 34.7283 162.321 35.357L162.303 33.61Z" fill="#FF6A48"/>
<path d="M159.949 24.2227L159.693 24.9995C159.596 25.2957 159.276 25.4566 158.981 25.3588C158.833 25.31 158.673 25.3902 158.624 25.5384C158.466 26.0174 158.726 26.5341 159.204 26.6924L159.518 26.7964" fill="#FFA386"/>
<path d="M159.519 26.978C159.5 26.978 159.481 26.975 159.462 26.9688L159.147 26.8648C158.575 26.6751 158.262 26.0541 158.452 25.4805C158.49 25.3627 158.573 25.2671 158.684 25.2109C158.795 25.1551 158.92 25.146 159.038 25.185C159.135 25.2168 159.239 25.2091 159.33 25.1631C159.421 25.1171 159.489 25.0387 159.521 24.9416L159.777 24.1648C159.808 24.0689 159.909 24.016 160.007 24.0488C160.102 24.0806 160.154 24.1835 160.122 24.279L159.866 25.0558C159.804 25.2456 159.672 25.3992 159.494 25.4893C159.316 25.5791 159.114 25.5944 158.924 25.5313C158.898 25.5229 158.872 25.5247 158.847 25.5371C158.824 25.5491 158.806 25.5696 158.798 25.5948C158.671 25.9779 158.88 26.3923 159.262 26.5186L159.576 26.6226C159.671 26.6543 159.723 26.7572 159.691 26.8528C159.666 26.9294 159.595 26.978 159.519 26.978Z" fill="#FF6A48"/>
<path d="M161.728 27.103C160.763 27.103 159.977 26.316 159.977 25.3484C159.977 24.3811 160.762 23.5938 161.728 23.5938C162.694 23.5938 163.48 24.3808 163.48 25.3484C163.48 26.316 162.694 27.103 161.728 27.103ZM161.728 23.9586C160.963 23.9586 160.341 24.5822 160.341 25.3484C160.341 26.1146 160.963 26.7382 161.728 26.7382C162.493 26.7382 163.116 26.1146 163.116 25.3484C163.116 24.5822 162.493 23.9586 161.728 23.9586Z" fill="white"/>
<path d="M163.297 25.1084C163.209 25.1084 163.131 25.0439 163.117 24.9537C163.102 24.8541 163.17 24.7611 163.27 24.7458L167.821 24.0412C167.918 24.0259 168.013 24.0945 168.029 24.1937C168.044 24.2933 167.976 24.3864 167.876 24.4017L163.325 25.1062C163.316 25.1077 163.306 25.1084 163.297 25.1084Z" fill="white"/>
<path d="M160.216 25.1091C160.187 25.1091 160.159 25.1022 160.131 25.088C159.926 24.98 159.607 25.0077 159.501 25.027C159.403 25.0445 159.307 24.9807 159.288 24.8814C159.27 24.7826 159.335 24.6873 159.433 24.6687C159.454 24.6651 159.94 24.5757 160.301 24.7654C160.39 24.8121 160.424 24.9227 160.377 25.0117C160.345 25.0737 160.282 25.1091 160.216 25.1091Z" fill="white"/>
<path d="M168.623 15.6955L165.883 15.3343C165.465 14.5925 164.652 14.1131 163.748 14.1777C162.848 14.2419 162.116 14.8257 161.803 15.612C161.716 15.6503 161.632 15.6941 161.547 15.7368C161.254 15.5802 160.917 15.4974 160.562 15.5229C159.557 15.5945 158.8 16.4683 158.872 17.475C158.887 17.6829 158.943 17.8767 159.02 18.0584C158.797 18.424 158.606 18.8137 158.462 19.2307C158.323 20.287 158.971 21.286 159.989 21.5932C160.059 21.6144 160.131 21.6348 160.209 21.6538C160.288 21.6735 160.371 21.6917 160.463 21.7074C161.159 21.8263 162.328 21.7924 165.328 21.0817C166.356 20.8383 167.271 21.7899 166.988 22.8082C166.857 23.2778 166.745 23.7798 166.673 24.2793L169.472 24.3695C169.917 24.3837 170.326 24.5311 170.667 24.7708C170.809 24.8715 170.939 24.9886 171.055 25.1193C171.064 25.1306 171.074 25.1419 171.083 25.1532C171.129 25.2072 171.173 25.2634 171.213 25.3218C171.222 25.3353 171.232 25.3488 171.242 25.3626C171.287 25.4308 171.33 25.5009 171.367 25.5739C171.368 25.5761 171.37 25.5782 171.371 25.5804C171.41 25.6567 171.444 25.7355 171.474 25.8161C171.481 25.8333 171.485 25.8512 171.492 25.8687C171.513 25.9303 171.532 25.9931 171.547 26.057C171.554 26.0832 171.559 26.1095 171.565 26.1358C171.578 26.1956 171.587 26.2558 171.595 26.3171C171.598 26.343 171.602 26.3682 171.604 26.3945C171.611 26.4806 171.615 26.5674 171.613 26.6557L171.611 26.7064C171.607 26.8279 171.591 26.9458 171.568 27.0614C171.565 27.0786 171.562 27.0957 171.558 27.1129C171.534 27.2223 171.501 27.3278 171.461 27.4303C171.454 27.4493 171.446 27.4679 171.439 27.4861C171.396 27.5879 171.347 27.6861 171.291 27.7795C171.283 27.7919 171.275 27.8036 171.267 27.816C171.206 27.9127 171.139 28.0053 171.064 28.0911L171.063 28.0922C170.988 28.1783 170.904 28.2571 170.816 28.3308C170.805 28.3399 170.795 28.3498 170.784 28.3585C170.698 28.4278 170.606 28.4906 170.511 28.5464C170.496 28.5548 170.482 28.5625 170.468 28.5705C170.37 28.6252 170.268 28.6738 170.161 28.7132C170.152 28.7165 170.143 28.719 170.134 28.7223C170.022 28.7624 169.906 28.7949 169.787 28.8161C169.638 28.8427 169.485 28.8551 169.328 28.85L167.422 28.7887C167.818 29.2787 168.342 29.6615 168.957 29.8632L168.686 32.3771C168.778 32.3706 168.865 32.3527 168.952 32.3323C169.076 32.3034 169.198 32.2659 169.312 32.2133C169.718 32.0283 170.051 31.7014 170.235 31.2782L170.822 29.9231C172.191 29.5655 173.228 28.3472 173.29 26.8567C173.308 26.4302 173.242 26.0201 173.11 25.6392C173.69 25.2502 174.087 24.6044 174.118 23.8532C176.722 19.4416 171.118 16.0243 168.623 15.6955Z" fill="#121936"/>
<path d="M189.408 58.729C189.408 58.729 179.813 41.168 179.253 40.439C177.515 38.1747 174.81 36.7685 171.86 36.7273L166.368 36.6506L160.104 36.4883C159.131 36.4883 156.296 37.0013 155.57 37.6496C153.3 39.6765 151.741 43.2372 150.852 45.9791L148.996 51.7021L143.494 45.2968C143.275 45.0425 142.903 44.9882 142.621 45.1691L136.144 49.3286C135.843 49.5216 135.768 49.9295 135.981 50.2174L144.923 62.3058C147.054 65.6359 151.658 65.8847 154.186 63.1559L152.579 76.0535H179.169L180.029 65.0514L186.502 64.7131C189.482 64.557 191.125 61.1747 189.408 58.729Z" fill="#FF2661"/>
<path d="M150.012 53.4146C149.958 53.4146 149.903 53.3897 149.868 53.3427L148.17 51.1093C148.109 51.0291 148.125 50.9149 148.205 50.8536C148.285 50.7926 148.399 50.8083 148.46 50.8882L150.157 53.1216C150.218 53.2018 150.203 53.316 150.123 53.3773C150.089 53.4025 150.051 53.4146 150.012 53.4146Z" fill="#121936"/>
<path d="M179.917 66.6649C179.91 66.6649 179.904 66.6646 179.897 66.6638C179.797 66.6529 179.725 66.5631 179.735 66.4628L181.357 51.4632C181.367 51.3629 181.46 51.2925 181.558 51.3016C181.657 51.3125 181.73 51.4023 181.719 51.5026L180.098 66.5022C180.088 66.5956 180.009 66.6649 179.917 66.6649Z" fill="#121936"/>
<path d="M154.184 63.3423C154.149 63.3423 154.115 63.3324 154.084 63.312C154 63.2565 153.977 63.1434 154.032 63.0591L159.738 54.4023C159.793 54.3181 159.906 54.2951 159.99 54.3505C160.074 54.406 160.097 54.5191 160.042 54.6034L154.336 63.2602C154.301 63.3134 154.243 63.3423 154.184 63.3423Z" fill="#121936"/>
<path d="M97.1661 74.0262H14.2657C13.0058 74.0262 11.9844 73.0031 11.9844 71.741V15.1406C11.9844 13.8785 13.0058 12.8555 14.2657 12.8555H97.1665C98.4265 12.8555 99.4479 13.8785 99.4479 15.1406V71.7414C99.4475 73.0031 98.4261 74.0262 97.1661 74.0262Z" fill="white"/>
<path d="M97.1661 12.8555H14.2657C13.0058 12.8555 11.9844 13.8785 11.9844 15.1406V21.9063H99.4475V15.1406C99.4475 13.8785 98.4261 12.8555 97.1661 12.8555Z" fill="#FF5583"/>
<path d="M99.4476 22.0876H11.9849C11.8843 22.0876 11.8027 22.0058 11.8027 21.9051V15.1395C11.8027 13.7789 12.9079 12.6719 14.2662 12.6719H97.1666C98.5246 12.6719 99.6301 13.7789 99.6301 15.1395V21.9051C99.6298 22.0062 99.5482 22.0876 99.4476 22.0876ZM12.1666 21.7227H99.2651V15.1395C99.2651 13.9799 98.3235 13.0367 97.1659 13.0367H14.2659C13.1082 13.0367 12.1666 13.9799 12.1666 15.1395V21.7227Z" fill="#353148"/>
<path d="M84.4177 18.6057C83.6327 18.6057 82.9941 17.9661 82.9941 17.1798C82.9941 16.3935 83.6327 15.7539 84.4177 15.7539C85.2023 15.7539 85.8408 16.3935 85.8408 17.1798C85.8408 17.9661 85.2023 18.6057 84.4177 18.6057ZM84.4177 16.1191C83.8334 16.1191 83.3584 16.5949 83.3584 17.1802C83.3584 17.7654 83.8338 18.2412 84.4177 18.2412C85.0016 18.2412 85.4766 17.7654 85.4766 17.1802C85.4766 16.5949 85.0016 16.1191 84.4177 16.1191Z" fill="white"/>
<path d="M89.4821 18.6057C88.6972 18.6057 88.0586 17.9661 88.0586 17.1798C88.0586 16.3935 88.6972 15.7539 89.4821 15.7539C90.2668 15.7539 90.9053 16.3935 90.9053 17.1798C90.9053 17.9661 90.2668 18.6057 89.4821 18.6057ZM89.4821 16.1191C88.8979 16.1191 88.4229 16.5949 88.4229 17.1802C88.4229 17.7654 88.8982 18.2412 89.4821 18.2412C90.066 18.2412 90.541 17.7654 90.541 17.1802C90.541 16.5949 90.0664 16.1191 89.4821 16.1191Z" fill="white"/>
<path d="M94.6989 18.6057C93.9139 18.6057 93.2754 17.9661 93.2754 17.1798C93.2754 16.3935 93.9139 15.7539 94.6989 15.7539C95.4839 15.7539 96.1224 16.3935 96.1224 17.1798C96.1224 17.9661 95.4839 18.6057 94.6989 18.6057ZM94.6989 16.1191C94.1146 16.1191 93.6397 16.5949 93.6397 17.1802C93.6397 17.7654 94.115 18.2412 94.6989 18.2412C95.2832 18.2412 95.7582 17.7654 95.7582 17.1802C95.7582 16.5949 95.2828 16.1191 94.6989 16.1191Z" fill="white"/>
<path d="M93.5622 69.8509H17.8691C16.8433 69.8509 16.0117 69.0179 16.0117 67.9904V27.0519C16.0117 26.0244 16.8433 25.1914 17.8691 25.1914H93.5618C94.5876 25.1914 95.4192 26.0244 95.4192 27.0519V67.9904C95.4196 69.0179 94.588 69.8509 93.5622 69.8509Z" fill="white"/>
<path d="M93.562 70.0321H17.8696C16.7451 70.0321 15.8301 69.1156 15.8301 67.9889V27.0507C15.8301 25.9244 16.7451 25.0078 17.8696 25.0078H93.5623C94.6868 25.0078 95.6018 25.9244 95.6018 27.0507V67.9893C95.6014 69.116 94.6864 70.0321 93.562 70.0321ZM17.8696 25.3727C16.9458 25.3727 16.1943 26.1254 16.1943 27.0507V67.9893C16.1943 68.9146 16.9458 69.6676 17.8696 69.6676H93.5623C94.4861 69.6676 95.2376 68.9146 95.2376 67.9893V27.0507C95.2376 26.1254 94.4861 25.3727 93.5623 25.3727H17.8696Z" fill="#353148"/>
<path d="M38.4406 65.9163C28.6842 65.9163 20.7754 57.9944 20.7754 48.2218C20.7754 38.4493 28.6842 30.5273 38.4406 30.5273C38.6624 30.5273 38.5426 65.9163 38.4406 65.9163Z" fill="#9DD3FF"/>
<path d="M57.5894 48.2218C57.5894 38.4493 49.6802 30.5273 39.9242 30.5273C39.8098 30.5273 39.7861 39.1655 39.8043 48.2948C39.8043 48.3612 57.5894 48.2977 57.5894 48.2218Z" fill="#FF2661"/>
<path d="M40.2103 62.9725C39.979 62.9725 39.979 62.9725 39.9611 56.2283C39.9568 54.5897 39.956 52.9511 39.9582 51.7223C39.9626 49.494 39.9626 49.494 40.1557 49.4929C53.178 49.4674 53.2614 49.5513 53.3426 49.6331C53.3772 49.6674 53.3969 49.7152 53.3969 49.7637C53.3973 57.0471 47.4817 62.9725 40.2103 62.9725ZM40.3309 49.8574C40.2977 51.3045 40.3356 61.2609 40.3789 62.6066C47.3199 62.5168 52.9481 56.8756 53.0319 49.922C52.1661 49.8684 47.4219 49.8436 40.3309 49.8574Z" fill="#121936"/>
<path d="M87.0248 39.6031H63.0571C62.9566 39.6031 62.875 39.5214 62.875 39.4207C62.875 39.32 62.9566 39.2383 63.0571 39.2383H87.0248C87.1253 39.2383 87.2069 39.32 87.2069 39.4207C87.2069 39.5218 87.1253 39.6031 87.0248 39.6031Z" fill="#121936"/>
<path d="M74.606 44.986H63.0571C62.9566 44.986 62.875 44.9042 62.875 44.8035C62.875 44.7028 62.9566 44.6211 63.0571 44.6211H74.606C74.7066 44.6211 74.7882 44.7028 74.7882 44.8035C74.7882 44.9042 74.7069 44.986 74.606 44.986Z" fill="#121936"/>
<path d="M86.9881 44.986H76.563C76.4625 44.986 76.3809 44.9042 76.3809 44.8035C76.3809 44.7028 76.4625 44.6211 76.563 44.6211H86.9881C87.0887 44.6211 87.1703 44.7028 87.1703 44.8035C87.1703 44.9042 87.0887 44.986 86.9881 44.986Z" fill="#121936"/>
<path d="M105.318 51.3515C104.515 51.3325 103.877 51.3497 103.877 51.3497L61.4357 51.3008C56.7437 51.33 52.8727 54.7747 52.1525 59.2665H52.1139L52.1154 59.5197C52.0582 59.9514 52.0276 60.3914 52.0305 60.8391L52.0527 64.4636C52.0702 67.2768 50.9479 70.0191 48.833 71.8697C47.5974 72.9504 46.0886 73.7195 44.4345 74.0446C44.3274 74.0658 44.9186 74.0756 45.4869 74.0891C46.2901 74.1081 46.9283 74.091 46.9283 74.091L89.3694 74.1399C94.0611 74.1107 97.9321 70.666 98.6526 66.1741H98.6912L98.6898 65.9206C98.747 65.4889 98.7776 65.0493 98.7747 64.6016L98.7437 59.5832C99.2671 55.5128 102.401 52.1765 106.371 51.3956C106.478 51.3748 105.887 51.365 105.318 51.3515Z" fill="#121936"/>
<path d="M115.882 51.3008H61.6035C68.1285 51.3008 73.4176 56.8215 73.4176 63.6318V114.97C73.4176 119.369 76.8344 122.935 81.0489 122.935H132.873V69.0343C133.536 59.7605 128.36 51.3008 115.882 51.3008Z" fill="white"/>
<path d="M132.871 70.1719C132.796 70.1719 132.735 70.1106 132.735 70.035V66.1179C132.735 58.1222 126.241 51.6174 118.258 51.6174H61.455C61.3796 51.6174 61.3184 51.5561 61.3184 51.4806C61.3184 51.405 61.3796 51.3438 61.455 51.3438H118.259C126.391 51.3438 133.008 57.9715 133.008 66.1179V70.035C133.008 70.1106 132.947 70.1719 132.871 70.1719Z" fill="#121936"/>
<path d="M145.158 107.742L88.6257 107.813L88.6599 113.325C88.6894 118.104 85.2089 122.191 80.6928 123.079C80.5821 123.101 81.1926 123.111 81.7798 123.125C82.6092 123.144 83.2685 123.127 83.2685 123.127L127.11 123.177C127.209 123.176 127.307 123.171 127.405 123.168L135.477 123.177C140.876 123.144 145.226 118.732 145.192 113.324L145.158 107.742Z" fill="#121936"/>
<path d="M124.856 73.8414H83.1294C83.0289 73.8414 82.9473 73.7597 82.9473 73.659C82.9473 73.5583 83.0289 73.4766 83.1294 73.4766H124.856C124.957 73.4766 125.038 73.5583 125.038 73.659C125.038 73.7601 124.957 73.8414 124.856 73.8414Z" fill="#121936"/>
<path d="M105.982 65.1321H83.958C83.7566 65.1321 83.5938 64.9686 83.5938 64.7672C83.5938 64.5658 83.7566 64.4023 83.958 64.4023H105.982C106.184 64.4023 106.347 64.5658 106.347 64.7672C106.347 64.9686 106.184 65.1321 105.982 65.1321Z" fill="#FF2661"/>
<path d="M103.194 91.2828H83.1294C83.0289 91.2828 82.9473 91.2011 82.9473 91.1004C82.9473 90.9997 83.0289 90.918 83.1294 90.918H103.194C103.295 90.918 103.376 90.9997 103.376 91.1004C103.376 91.2011 103.295 91.2828 103.194 91.2828Z" fill="#121936"/>
<path d="M96.7611 82.0211H83.1294C83.0289 82.0211 82.9473 81.9394 82.9473 81.8387C82.9473 81.738 83.0289 81.6562 83.1294 81.6562H96.7611C96.8617 81.6562 96.9433 81.738 96.9433 81.8387C96.9433 81.9394 96.8617 82.0211 96.7611 82.0211Z" fill="#121936"/>
<path d="M124.856 82.0211H101.52C101.419 82.0211 101.338 81.9394 101.338 81.8387C101.338 81.738 101.419 81.6562 101.52 81.6562H124.856C124.957 81.6562 125.038 81.738 125.038 81.8387C125.039 81.9394 124.957 82.0211 124.856 82.0211Z" fill="#121936"/>
<path d="M96.7611 101.189H83.1294C83.0289 101.189 82.9473 101.107 82.9473 101.007C82.9473 100.906 83.0289 100.824 83.1294 100.824H96.7611C96.8617 100.824 96.9433 100.906 96.9433 101.007C96.9433 101.107 96.8617 101.189 96.7611 101.189Z" fill="#121936"/>
<path d="M103.194 101.189H99.8462C99.7457 101.189 99.6641 101.107 99.6641 101.007C99.6641 100.906 99.7457 100.824 99.8462 100.824H103.194C103.295 100.824 103.377 100.906 103.377 101.007C103.377 101.107 103.295 101.189 103.194 101.189Z" fill="#121936"/>
<path d="M112.03 88.5508H107.652V102.482H112.03V88.5508Z" fill="#9DD3FF"/>
<path d="M118.486 102.664H114.108C114.007 102.664 113.926 102.582 113.926 102.482V94.1434C113.926 94.0427 114.007 93.9609 114.108 93.9609H118.486C118.586 93.9609 118.668 94.0427 118.668 94.1434V102.482C118.668 102.583 118.587 102.664 118.486 102.664ZM114.29 102.299H118.303V94.3258H114.29V102.299Z" fill="#FF5583"/>
<path d="M124.855 87.1172H120.477V102.481H124.855V87.1172Z" fill="#FF2661"/>
<path d="M95.8729 43.7945L85.2171 32.7843C85.1475 32.712 85.149 32.5964 85.2215 32.5263C85.2936 32.4559 85.4091 32.4585 85.479 32.5303L95.8849 43.2829L107.447 32.418L121.15 43.0618C121.229 43.1235 121.244 43.238 121.182 43.3176C121.12 43.3975 121.007 43.4113 120.927 43.3501L107.469 32.897L95.8729 43.7945Z" fill="#121936"/>
<path d="M85.3483 35.5461C86.9408 35.5461 88.2318 34.2529 88.2318 32.6578C88.2318 31.0627 86.9408 29.7695 85.3483 29.7695C83.7558 29.7695 82.4648 31.0627 82.4648 32.6578C82.4648 34.2529 83.7558 35.5461 85.3483 35.5461Z" fill="#FF2661"/>
<path d="M110.341 32.6578C110.341 34.253 109.05 35.5461 107.458 35.5461C105.865 35.5461 104.574 34.253 104.574 32.6578C104.574 31.0626 105.865 29.7695 107.458 29.7695C109.05 29.7695 110.341 31.0626 110.341 32.6578Z" fill="#FF2661"/>
<path d="M98.7287 43.6681C98.9839 42.0936 97.9163 40.61 96.3444 40.3544C94.7724 40.0989 93.2913 41.1682 93.0362 42.7427C92.781 44.3173 93.8485 45.8009 95.4205 46.0565C96.9925 46.312 98.4736 45.2427 98.7287 43.6681Z" fill="#FF5583"/>
<path d="M123.902 43.5619C124.097 41.9788 122.973 40.5373 121.393 40.3424C119.812 40.1475 118.373 41.2729 118.179 42.8561C117.984 44.4392 119.107 45.8807 120.688 46.0756C122.269 46.2705 123.708 45.1451 123.902 43.5619Z" fill="#FF5583"/>
</g>
<defs>
<clipPath id="clip0_2601_10710">
<rect width="212" height="135" fill="white" transform="translate(0.5)"/>
</clipPath>
</defs>
</svg>
