<svg width="177" height="135" viewBox="0 0 177 135" fill="none" xmlns="http://www.w3.org/2000/svg">
<g clip-path="url(#clip0_2601_11434)">
<path d="M157.038 96.7298H93.415C92.2773 96.7298 91.3516 95.8052 91.3516 94.6689V2.11164C91.3516 0.97539 92.2773 0.0507812 93.415 0.0507812H157.038C158.175 0.0507812 159.101 0.975039 159.101 2.11164V94.6686C159.101 95.8052 158.175 96.7298 157.038 96.7298ZM93.415 0.138672C92.3255 0.138672 91.4396 1.02391 91.4396 2.11164V94.6686C91.4396 95.7566 92.3259 96.6415 93.415 96.6415H157.038C158.127 96.6415 159.013 95.7563 159.013 94.6686V2.11164C159.013 1.02391 158.127 0.138672 157.038 0.138672H93.415Z" fill="#F0F0F0"/>
<path d="M83.6704 96.7298H20.0478C18.9101 96.7298 17.9844 95.8052 17.9844 94.6689V2.11164C17.9844 0.97539 18.9098 0.0507812 20.0478 0.0507812H83.6704C84.8081 0.0507812 85.7338 0.975039 85.7338 2.11164V94.6686C85.7342 95.8052 84.8084 96.7298 83.6704 96.7298ZM20.0478 0.138672C18.9587 0.138672 18.0724 1.02391 18.0724 2.11164V94.6686C18.0724 95.7566 18.9587 96.6415 20.0478 96.6415H83.6704C84.7598 96.6415 85.6458 95.7563 85.9038 94.4731V1.91652C85.6462 1.02391 84.7598 0.139023 83.6704 0.139023L20.0478 0.138672Z" fill="#F0F0F0"/>
<path d="M176.5 118.199H0.5V118.287H176.5V118.199Z" fill="#F0F0F0"/>
<path d="M150.398 48.4725C150.975 48.4725 151.471 48.6823 151.471 49.3215C151.471 50.1346 150.684 51.1985 148.908 51.1985C147.982 51.1985 147.064 50.9169 147.064 50.3582C147.064 49.9114 147.633 49.5046 148.214 49.241H148.183C147.861 49.241 147.266 49.1559 147.266 48.5438C147.266 48.1508 147.539 47.7795 148.411 47.3865C147.897 47.1854 147.561 46.7653 147.561 46.0815C147.561 45.076 148.29 44.638 149.252 44.638C149.485 44.638 149.704 44.6647 149.901 44.7185C149.964 44.3743 150.085 44.0885 150.223 43.9053C150.371 43.7221 150.581 43.6016 150.85 43.6016C151.167 43.6016 151.333 43.8118 151.333 44.0797C151.333 44.3254 151.15 44.5174 150.895 44.5174C150.564 44.5174 150.465 44.2984 150.407 43.9408C150.318 44.0213 150.237 44.1686 150.161 44.3877C150.13 44.4903 150.09 44.6155 150.067 44.7673C150.6 44.9639 150.948 45.3886 150.948 46.0811C150.948 47.0866 150.214 47.5289 149.253 47.5289C149.007 47.5289 148.779 47.5021 148.577 47.4438C148.166 47.6628 147.808 47.8861 147.808 48.1677C147.808 48.3687 147.933 48.4714 148.246 48.4714H150.398V48.4725ZM150.84 49.7504C150.84 49.4153 150.702 49.241 150.142 49.241H148.438C148.035 49.4466 147.816 49.8263 147.816 50.1659C147.816 50.7871 148.54 51.0417 149.153 51.0417C149.923 51.042 150.84 50.6307 150.84 49.7504ZM148.42 46.0818C148.42 47.0602 148.742 47.3643 149.252 47.3643C149.767 47.3643 150.089 47.0606 150.089 46.0818C150.089 45.1031 149.767 44.7993 149.252 44.7993C148.742 44.7993 148.42 45.1031 148.42 46.0818Z" fill="#E6E6E6"/>
<path d="M152.926 61.079C152.926 61.5259 153.061 61.7333 153.494 61.7333V61.8894C153.337 61.875 153.181 61.8676 153.031 61.8676C152.74 61.8676 152.471 61.8964 152.256 61.973V61.0938C152.002 61.7407 151.511 61.9878 151.034 61.9878C150.685 61.9878 150.43 61.8823 150.259 61.7045C150.073 61.5048 150.011 61.1996 150.011 60.7306V58.8631C150.011 58.4163 149.88 58.2053 149.447 58.2053V58.0493C149.604 58.0637 149.76 58.0711 149.909 58.0711C150.201 58.0711 150.466 58.0419 150.685 57.9691V60.8941C150.685 61.3557 150.713 61.748 151.248 61.748C151.83 61.748 152.256 61.1595 152.256 60.3998V58.8628C152.256 58.4159 152.122 58.205 151.689 58.205V58.0489C151.845 58.0633 152.002 58.0707 152.151 58.0707C152.442 58.0707 152.711 58.0415 152.926 57.9688V61.079Z" fill="#E6E6E6"/>
<path d="M144.306 59.8887C144.306 62.3718 142.801 64.0143 140.176 64.0143C139.83 64.0143 139.067 63.9809 138.576 63.9809C138.041 63.9809 137.478 63.9918 137.16 64.0143V63.7862C137.935 63.7528 138.086 63.6357 138.086 62.8064V57.1497C138.086 56.32 137.935 56.2033 137.16 56.1699V55.9414C137.422 55.9583 137.851 55.9804 138.275 55.9804C138.37 55.9804 138.459 55.9748 138.554 55.9748C139.078 55.9639 139.841 55.9414 140.276 55.9414C142.997 55.9418 144.306 57.3448 144.306 59.8887ZM139.145 57.1276V62.8285C139.145 63.6248 139.295 63.8083 140.003 63.8083C142.489 63.8083 143.164 62.4165 143.164 59.9334C143.164 57.3779 142.356 56.1474 139.992 56.1474C139.295 56.1478 139.145 56.3425 139.145 57.1276Z" fill="#E6E6E6"/>
<path d="M128.5 7.07594C127.885 7.10231 127.766 7.19512 127.766 7.8536V12.3423C127.766 13.0008 127.885 13.0933 128.5 13.0933H129.164C130.296 13.0933 130.522 12.6605 130.65 11.4012H130.858C130.84 11.5911 130.832 11.8519 130.832 12.1434C130.832 12.3687 130.849 12.8412 130.894 13.3007C130.279 13.2743 129.425 13.2743 128.819 13.2743C128.275 13.2743 127.081 13.2743 126.191 13.3007V13.1196C126.806 13.0929 126.926 13.0005 126.926 12.342V7.8536C126.926 7.19512 126.806 7.10231 126.191 7.07594V6.89453C126.444 6.91246 126.882 6.92125 127.351 6.92125C127.767 6.92125 128.222 6.91246 128.501 6.89453V7.07594H128.5Z" fill="#E6E6E6"/>
<path d="M119.082 12.7617V12.9294C118.861 12.9783 118.612 13.1541 118.419 13.6568L116.451 18.7288H116.382C116.357 18.7288 116.341 18.7288 116.316 18.7288L114.27 13.4648C114.102 13.0398 113.869 12.9375 113.693 12.9294V12.7617C113.918 12.7782 114.27 12.7863 114.59 12.7863C115.023 12.7863 115.428 12.7782 115.662 12.7617V12.9294C115.261 12.9456 115.069 13.0071 115.069 13.2398C115.069 13.3379 115.101 13.4648 115.166 13.6322L116.685 17.6537L118.051 14.1188C118.162 13.8326 118.219 13.6079 118.219 13.436C118.219 13.0683 117.965 12.9417 117.486 12.9294V12.7617C117.805 12.7782 118.157 12.7863 118.452 12.7863C118.739 12.7863 118.914 12.7782 119.082 12.7617Z" fill="#E6E6E6"/>
<path d="M104.042 6.83434C104.503 7.30121 104.623 7.8391 104.623 8.86496V12.8911C104.623 13.3579 104.736 13.5773 105.069 13.5773C105.331 13.5773 105.523 13.443 105.721 13.2729L105.884 13.5204C105.48 13.8248 105.175 14.0512 104.559 14.0512C103.546 14.0512 103.312 13.4427 103.312 12.7634C102.689 13.7893 101.775 14.0512 101.08 14.0512C100.11 14.0512 99.2383 13.5629 99.2383 12.4309C99.2383 11.2848 100.124 10.7754 101.576 10.1668C102.547 9.76355 103.312 9.51605 103.312 8.93563V8.03703C103.312 6.82027 102.717 6.57945 101.966 6.57945C101.47 6.57945 100.861 6.6786 100.528 7.0959C100.889 7.18801 101.208 7.50617 101.208 7.98008C101.208 8.47543 100.875 8.76547 100.358 8.76547C99.862 8.76547 99.5716 8.39035 99.5716 7.86687C99.5716 7.44219 99.8479 7.10961 100.252 6.83399C100.662 6.56504 101.357 6.28906 102.285 6.28906C103.1 6.28977 103.709 6.50176 104.042 6.83434ZM103.312 9.53012C103.156 9.76356 102.838 9.91227 101.924 10.358C101.287 10.6622 100.514 11.0798 100.514 12.1974C100.514 13.0675 101.01 13.4711 101.676 13.4711C102.257 13.4711 102.824 13.167 103.312 12.3746V9.53012Z" fill="#E6E6E6"/>
<path d="M42.1757 72.9648C43.9301 73.1971 44.4394 74.0627 44.4394 74.9606C44.4394 76.2206 43.4373 77.1076 41.7751 77.1076C41.445 77.1076 40.7786 77.0752 39.8694 77.0752C39.3491 77.0752 38.8025 77.0861 38.4941 77.1076V76.8861C39.2464 76.8537 39.3928 76.7399 39.3928 75.9341V70.4391C39.3928 69.6334 39.2464 69.5198 38.4941 69.4875V69.2656C38.8025 69.2871 39.3604 69.298 39.8479 69.298C40.5463 69.298 41.2559 69.2765 41.521 69.2765C43.0751 69.2765 43.8604 69.9958 43.8604 71.0178C43.8604 71.8018 43.4158 72.5647 42.1761 72.9433L42.1757 72.9648ZM40.4213 70.4391V72.9433H41.1686C42.4742 72.9433 42.7991 72.0996 42.7991 71.1366C42.7991 70.0496 42.3545 69.4871 41.245 69.4871C40.5674 69.4875 40.4213 69.6766 40.4213 70.4391ZM43.3292 74.9117C43.3292 73.7871 42.7607 73.1325 41.3527 73.1325H40.4213V75.9341C40.4213 76.7075 40.5678 76.8538 41.2556 76.8538C42.7065 76.8534 43.3292 76.1559 43.3292 74.9117Z" fill="#E6E6E6"/>
<path d="M31.3833 76.3082C31.5526 76.4158 31.6452 76.4569 31.7427 76.4569C31.8765 76.4569 31.9328 76.298 31.974 75.9953H32.2151C32.1845 76.3645 32.1637 76.8162 32.1637 78.1395H31.9226C31.8455 77.1393 31.3629 76.1184 30.1967 76.1184C29.447 76.1184 28.913 76.6158 28.913 77.3393C28.913 78.2935 29.7349 78.6732 30.6797 79.2627C31.7737 79.9451 32.5749 80.4992 32.5749 81.6273C32.5749 82.9612 31.5632 83.6228 30.3407 83.6228C29.5959 83.6228 29.2055 83.4228 28.9024 83.2329C28.7331 83.1254 28.6303 83.0842 28.543 83.0842C28.4093 83.0842 28.353 83.2431 28.3118 83.5458H28.0703C28.1009 83.1148 28.1115 82.5098 28.1115 81.0272H28.353C28.4403 82.2992 28.9229 83.4122 30.2686 83.4122C30.9518 83.4122 31.6347 83.002 31.6347 82.012C31.6347 81.1605 30.9722 80.6781 29.9965 80.0935C28.9947 79.4934 28.1221 78.9238 28.1221 77.7391C28.1221 76.4977 29.0619 75.918 30.0992 75.918C30.7927 75.9183 31.1007 76.1184 31.3833 76.3082Z" fill="#E6E6E6"/>
<path d="M32.5152 67.6878C32.2839 68.3906 31.5905 69.0983 30.5479 69.0983C29.0226 69.0983 28.1289 67.9852 28.1289 66.3747C28.1289 64.528 29.0638 63.3945 30.507 63.3945C31.7397 63.3945 32.474 64.1177 32.474 65.7029H29.187C29.1613 65.9029 29.1511 66.1441 29.1511 66.3747C29.1511 67.8161 29.9523 68.6574 30.7587 68.6574C31.3905 68.6574 31.94 68.3906 32.3047 67.6059L32.5152 67.6878ZM29.1715 65.5025H31.462C31.4983 64.4766 31.1695 63.5942 30.4658 63.5942C29.8393 63.5946 29.2845 64.1792 29.1715 65.5025Z" fill="#E6E6E6"/>
<path d="M51.6781 21.1758H23.5723V23.0781H51.6781V21.1758Z" fill="#E6E6E6"/>
<path d="M26.4805 23.0781L27.5527 25.4178H28.6252V23.0781H26.4805Z" fill="#E0E0E0"/>
<path d="M48.7697 23.0781L47.6975 25.4178H46.625V23.0781H48.7697Z" fill="#E0E0E0"/>
<path d="M28.2995 11.3594H26.3047V21.1768H28.2995V11.3594Z" fill="#F0F0F0"/>
<path d="M28.2995 18.9609H26.3047V19.3417H28.2995V18.9609Z" fill="#E6E6E6"/>
<path d="M28.2995 17.9727H26.3047V18.3534H28.2995V17.9727Z" fill="#E6E6E6"/>
<path d="M34.2533 11.3594H28.2988V21.1768H34.2533V11.3594Z" fill="#F5F5F5"/>
<path d="M32.5241 11.3594H30.5293V21.1768H32.5241V11.3594Z" fill="#F0F0F0"/>
<path d="M32.5241 18.9609H30.5293V19.3417H32.5241V18.9609Z" fill="#E6E6E6"/>
<path d="M38.4779 11.3594H32.5234V21.1768H38.4779V11.3594Z" fill="#F5F5F5"/>
<path d="M37.4001 13.4414H34.0293V14.2398H37.4001V13.4414Z" fill="#E6E6E6"/>
<path d="M49.0535 19.2852H39.1602V21.1752H49.0535V19.2852Z" fill="#F5F5F5"/>
<path d="M46.6335 19.2852H36.7402V21.1752H46.6335V19.2852Z" fill="#F0F0F0"/>
<g opacity="0.8">
<path d="M139.619 106.336L139.814 107.442L139.855 107.674L140.407 110.8L140.453 111.057L141.452 116.716C141.469 116.81 141.492 116.901 141.523 116.989C141.553 117.078 141.592 117.163 141.635 117.244C141.937 117.812 142.534 118.186 143.207 118.186H151.189C152.054 118.186 152.794 117.567 152.944 116.715L153.33 114.534L153.37 114.301V114.3L153.939 111.079L154.018 110.635V110.634L154.263 109.247L154.309 108.983L154.776 106.336H139.619V106.336Z" fill="#F0F0F0"/>
</g>
<path d="M147.171 93.4958C147.171 93.4958 149.284 90.5093 149.267 88.6513C149.247 86.5574 148.142 86.8576 148.142 86.8576C148.142 86.8576 148.576 80.4947 147.056 80.1871C147.056 80.1871 146.787 74.9495 144.592 75.6505C142.397 76.3515 143.39 80.8621 143.39 80.8621C143.39 80.8621 142.784 81.5416 142.666 82.4677C142.438 84.2515 144.102 87.2275 144.102 87.2275C144.102 87.2275 143.107 87.7854 143.416 89.32C143.725 90.8552 147.171 93.4958 147.171 93.4958Z" fill="#F5F5F5"/>
<path d="M147.332 104.843C147.332 104.843 142.676 103.712 142.206 102.094C141.736 100.477 142.202 99.8013 142.202 99.8013C142.202 99.8013 138.763 95.0598 139.91 94.0163C139.91 94.0163 137.455 89.3827 139.7 88.8593C141.945 88.3393 143.406 92.7226 143.406 92.7226C143.406 92.7226 144.275 92.9961 144.85 93.7291C145.959 95.1441 146.057 98.5518 146.057 98.5518C146.057 98.5518 146.689 98.2006 147.213 99.6765C147.734 101.152 147.332 104.843 147.332 104.843Z" fill="#F5F5F5"/>
<path d="M148.3 100.856C148.3 100.856 152.686 98.9969 153.006 97.3435C153.326 95.6901 152.801 95.0604 152.801 95.0604C152.801 95.0604 155.793 90.0257 154.556 89.0923C154.556 89.0923 156.579 84.2527 154.296 83.9377C152.014 83.6227 150.958 88.1195 150.958 88.1195C150.958 88.1195 150.118 88.4707 149.611 89.2551C148.634 90.7657 148.847 94.1678 148.847 94.1678C148.847 94.1678 148.185 93.8739 147.8 95.3916C147.415 96.9093 148.3 100.856 148.3 100.856Z" fill="#F5F5F5"/>
<path d="M148.012 106.338C147.711 95.0135 145.829 83.1627 145.809 83.0421C145.799 82.9764 145.738 82.9335 145.672 82.9426C145.606 82.9528 145.561 83.0147 145.572 83.0804C145.591 83.2007 147.47 95.0318 147.771 106.339H148.012V106.338Z" fill="#E0E0E0"/>
<path d="M147.789 103.661C147.784 103.661 147.778 103.661 147.773 103.66C147.708 103.652 147.661 103.592 147.669 103.526C148.079 100.263 151.444 92.2708 151.478 92.1907C151.504 92.1291 151.575 92.1014 151.636 92.1263C151.698 92.1523 151.726 92.2226 151.7 92.2838C151.667 92.364 148.313 100.325 147.908 103.556C147.901 103.617 147.848 103.661 147.789 103.661Z" fill="#E0E0E0"/>
<path d="M147.812 106.335C146.718 103.819 145.024 100.369 143.383 97.025C143 96.2442 142.616 95.463 142.24 94.6931C142.211 94.633 142.139 94.6077 142.079 94.6376C142.019 94.6668 141.995 94.7388 142.024 94.7982C142.4 95.5685 142.784 96.3493 143.167 97.1308C144.787 100.43 146.456 103.833 147.548 106.335H147.812V106.335Z" fill="#E0E0E0"/>
<path d="M159.012 132.499C159.012 133.691 126.811 134.658 87.0891 134.658C47.3673 134.658 15.166 133.691 15.166 132.499C15.166 131.306 47.367 130.34 87.0891 130.34C126.811 130.34 159.012 131.306 159.012 132.499Z" fill="#F0F0F0"/>
<path d="M36.0274 42.8164C36.0274 42.8164 24.0489 44.0511 24.5755 58.8969H53.7232C53.7232 58.8969 45.9809 44.5405 36.0274 42.8164Z" fill="#263238"/>
<path opacity="0.7" d="M36.0274 42.8164C36.0274 42.8164 24.0489 44.0511 24.5755 58.8969H53.7232C53.7232 58.8969 45.9809 44.5405 36.0274 42.8164Z" fill="white"/>
<path d="M132.608 118.198H71.1765C71.1765 118.198 49.0005 115.931 50.7288 86.498C52.2776 60.1027 44.4632 45.0312 36.0293 42.8164H92.5922C92.5922 42.8164 109.259 46.9297 109.661 80.8238C109.763 89.4934 112.586 97.8781 116.782 104.558C121.094 111.424 126.856 116.483 132.608 118.198Z" fill="#263238"/>
<g opacity="0.9">
<path d="M132.608 118.198H71.1765C71.1765 118.198 49.0005 115.931 50.7288 86.498C52.2776 60.1027 44.4632 45.0312 36.0293 42.8164H92.5922C92.5922 42.8164 109.259 46.9297 109.661 80.8238C109.763 89.4934 112.586 97.8781 116.782 104.558C121.094 111.424 126.856 116.483 132.608 118.198Z" fill="white"/>
</g>
<g opacity="0.2">
<path d="M95.1125 53.6914H55.219C55.1218 53.6914 55.043 53.6127 55.043 53.5156C55.043 53.4186 55.1218 53.3398 55.219 53.3398H95.1122C95.2093 53.3398 95.2882 53.4186 95.2882 53.5156C95.2885 53.6127 95.2097 53.6914 95.1125 53.6914Z" fill="black"/>
</g>
<g opacity="0.2">
<path d="M96.6965 58.9648H56.803C56.7058 58.9648 56.627 58.8861 56.627 58.7891C56.627 58.692 56.7058 58.6133 56.803 58.6133H96.6962C96.7933 58.6133 96.8722 58.692 96.8722 58.7891C96.8725 58.8861 96.7937 58.9648 96.6965 58.9648Z" fill="black"/>
</g>
<g opacity="0.2">
<path d="M98.2805 64.2383H58.3869C58.2898 64.2383 58.2109 64.1595 58.2109 64.0625C58.2109 63.9655 58.2898 63.8867 58.3869 63.8867H98.2802C98.3773 63.8867 98.4562 63.9655 98.4562 64.0625C98.4565 64.1599 98.3777 64.2383 98.2805 64.2383Z" fill="black"/>
</g>
<path opacity="0.2" d="M81.2081 69.5117H59.9709C59.8738 69.5117 59.7949 69.433 59.7949 69.3359C59.7949 69.2389 59.8738 69.1602 59.9709 69.1602H81.2081C81.3053 69.1602 81.3841 69.2389 81.3841 69.3359C81.3841 69.4333 81.3053 69.5117 81.2081 69.5117Z" fill="black"/>
<path d="M134.078 118.199H71.1895C75.0791 116.986 79.5072 113.615 79.5072 104.559H137.645C137.645 104.559 139.815 114.261 134.078 118.199Z" fill="#263238"/>
<path opacity="0.7" d="M134.078 118.199H71.1895C75.0791 116.986 79.5072 113.615 79.5072 104.559H137.645C137.645 104.559 139.815 114.261 134.078 118.199Z" fill="white"/>
<path d="M39.9198 122.62C39.4858 122.62 39.1306 122.265 39.131 121.831C39.1313 121.397 39.4869 121.043 39.9209 121.043L73.9248 121.064C73.9526 121.064 73.98 121.066 74.0068 121.069C76.9928 121.161 79.3931 123.616 79.3913 126.619C79.3896 129.623 76.9861 132.074 73.9998 132.163C73.973 132.166 73.9455 132.167 73.9177 132.167H73.8297H73.8294L39.9138 132.146C39.4798 132.145 39.1246 131.79 39.125 131.357C39.1254 130.923 39.4809 130.569 39.9149 130.569L39.9198 122.62Z" fill="#FF2661"/>
<path d="M58.0625 130.591L23.8633 130.57L23.8682 122.621L58.0675 122.643C59.5519 122.644 60.9123 123.47 61.5966 124.785C62.1943 125.935 62.1936 127.304 61.5942 128.453C60.9085 129.768 59.5469 130.592 58.0625 130.591Z" fill="white"/>
<path d="M63.3402 126.619C63.3423 123.616 60.9417 121.161 57.9557 121.069C57.9289 121.066 57.9015 121.064 57.8736 121.064L23.8697 121.043C23.4357 121.043 23.0802 121.397 23.0802 121.831C23.0799 122.265 23.435 122.62 23.869 122.62L57.7846 122.642C59.9786 122.643 61.7625 124.427 61.7615 126.618C61.7601 128.81 59.974 130.591 57.78 130.59L23.8641 130.569C23.4301 130.568 23.0746 130.923 23.0742 131.356C23.0739 131.79 23.429 132.145 23.8631 132.145L57.7786 132.167H57.779H57.867C57.8948 132.167 57.9222 132.165 57.949 132.163C60.935 132.074 63.3384 129.623 63.3402 126.619Z" fill="#FF2661"/>
<g opacity="0.2">
<path d="M63.3402 126.619C63.3423 123.616 60.9417 121.161 57.9557 121.069C57.9289 121.066 57.9015 121.064 57.8736 121.064L23.8697 121.043C23.4357 121.043 23.0802 121.397 23.0802 121.831C23.0799 122.265 23.435 122.62 23.869 122.62L57.7846 122.642C59.9786 122.643 61.7625 124.427 61.7615 126.618C61.7601 128.81 59.974 130.591 57.78 130.59L23.8641 130.569C23.4301 130.568 23.0746 130.923 23.0742 131.356C23.0739 131.79 23.429 132.145 23.8631 132.145L57.7786 132.167H57.779H57.867C57.8948 132.167 57.9222 132.165 57.949 132.163C60.935 132.074 63.3384 129.623 63.3402 126.619Z" fill="white"/>
</g>
<path opacity="0.2" d="M23.8672 125.022L57.6384 125.044C57.7852 125.044 57.9038 124.925 57.9038 124.779C57.9038 124.632 57.7852 124.514 57.6388 124.514L23.8675 124.492L23.8672 125.022Z" fill="black"/>
<path opacity="0.2" d="M23.8672 126.859L57.6384 126.88C57.7852 126.88 57.9038 126.761 57.9038 126.615C57.9038 126.469 57.7852 126.35 57.6388 126.35L23.8675 126.328L23.8672 126.859Z" fill="black"/>
<path opacity="0.2" d="M23.8652 128.695L57.6365 128.716C57.7832 128.716 57.9019 128.597 57.9019 128.451C57.9019 128.305 57.7832 128.186 57.6368 128.186L23.8652 128.164V128.695Z" fill="black"/>
<path d="M33.9257 111.495C33.4917 111.495 33.1365 111.14 33.1368 110.706C33.1372 110.272 33.4927 109.918 33.9267 109.918L67.9306 109.939C67.9584 109.939 67.9859 109.941 68.0127 109.944C70.9987 110.036 73.399 112.491 73.3972 115.494C73.3954 118.498 70.992 120.949 68.0056 121.038C67.9789 121.041 67.9514 121.042 67.9236 121.042H67.8356L33.9197 121.021C33.4857 121.02 33.1305 120.665 33.1309 120.232C33.1312 119.798 33.4867 119.444 33.9207 119.444L33.9257 111.495Z" fill="#FF2661"/>
<g opacity="0.5">
<path d="M33.9257 111.495C33.4917 111.495 33.1365 111.14 33.1368 110.706C33.1372 110.272 33.4927 109.918 33.9267 109.918L67.9306 109.939C67.9584 109.939 67.9859 109.941 68.0127 109.944C70.9987 110.036 73.399 112.491 73.3972 115.494C73.3954 118.498 70.992 120.949 68.0056 121.038C67.9789 121.041 67.9514 121.042 67.9236 121.042H67.8356L33.9197 121.021C33.4857 121.02 33.1305 120.665 33.1309 120.232C33.1312 119.798 33.4867 119.444 33.9207 119.444L33.9257 111.495Z" fill="white"/>
</g>
<path d="M52.0684 119.466L17.8691 119.445L17.8741 111.496L52.0733 111.518C53.5581 111.519 54.9182 112.345 55.6025 113.66C56.2002 114.81 56.1995 116.179 55.6 117.328C54.9143 118.643 53.5528 119.467 52.0684 119.466Z" fill="white"/>
<path d="M57.3464 115.494C57.3485 112.491 54.9479 110.036 51.9619 109.944C51.9351 109.941 51.9077 109.939 51.8799 109.939L17.876 109.918C17.4419 109.918 17.0864 110.272 17.0861 110.706C17.0857 111.14 17.4409 111.495 17.8749 111.495L51.7904 111.517C53.9848 111.518 55.7688 113.302 55.7673 115.493C55.7659 117.685 53.9799 119.466 51.7859 119.465L17.87 119.444C17.436 119.443 17.0804 119.798 17.0801 120.231C17.0797 120.665 17.4349 121.02 17.8689 121.02L51.7845 121.042H51.8728C51.9006 121.042 51.9281 121.04 51.9548 121.038C54.9412 120.949 57.3447 118.498 57.3464 115.494Z" fill="#FF2661"/>
<g opacity="0.4">
<path d="M57.3464 115.494C57.3485 112.491 54.9479 110.036 51.9619 109.944C51.9351 109.941 51.9077 109.939 51.8799 109.939L17.876 109.918C17.4419 109.918 17.0864 110.272 17.0861 110.706C17.0857 111.14 17.4409 111.495 17.8749 111.495L51.7904 111.517C53.9848 111.518 55.7688 113.302 55.7673 115.493C55.7659 117.685 53.9799 119.466 51.7859 119.465L17.87 119.444C17.436 119.443 17.0804 119.798 17.0801 120.231C17.0797 120.665 17.4349 121.02 17.8689 121.02L51.7845 121.042H51.8728C51.9006 121.042 51.9281 121.04 51.9548 121.038C54.9412 120.949 57.3447 118.498 57.3464 115.494Z" fill="white"/>
</g>
<g opacity="0.2">
<path d="M17.873 113.897L51.6443 113.919C51.7911 113.919 51.9097 113.8 51.91 113.654C51.91 113.507 51.7914 113.389 51.645 113.389L17.8734 113.367L17.873 113.897Z" fill="black"/>
<path d="M17.873 115.734L51.6446 115.755C51.7914 115.755 51.91 115.636 51.91 115.49C51.91 115.344 51.7914 115.225 51.6446 115.225L17.873 115.203V115.734Z" fill="black"/>
<path d="M17.8711 117.57L51.6427 117.591C51.7895 117.591 51.9081 117.472 51.9081 117.326C51.9081 117.18 51.7895 117.061 51.643 117.061L17.8718 117.039L17.8711 117.57Z" fill="black"/>
</g>
<path d="M45.9519 113.918V119.446L44.0258 117.705L42.1035 119.446V113.918L44.0258 113.932L45.9519 113.918Z" fill="#FF2661"/>
<path d="M66.1393 90.2201V105.205C66.1393 107.807 64.0276 109.916 61.4228 109.916H37.484C34.8792 109.916 32.7676 107.807 32.7676 105.205V90.2201C32.7676 89.7719 33.1315 89.4084 33.5803 89.4084H43.1181V86.4173H41.4958V83.9219H57.4115V86.4173H55.7891V89.4084H65.3269C65.7757 89.4087 66.1393 89.7719 66.1393 90.2201Z" fill="#FF2661"/>
<g opacity="0.1">
<path d="M66.1393 90.2201V105.205C66.1393 107.807 64.0276 109.916 61.4228 109.916H37.484C34.8792 109.916 32.7676 107.807 32.7676 105.205V90.2201C32.7676 89.7719 33.1315 89.4084 33.5803 89.4084H43.1181V86.4173H41.4958V83.9219H57.4115V86.4173H55.7891V89.4084H65.3269C65.7757 89.4087 66.1393 89.7719 66.1393 90.2201Z" fill="white"/>
</g>
<path opacity="0.2" d="M63.7021 92.8925V105.206C63.7021 106.461 62.6792 107.486 61.4229 107.486H37.4823C36.226 107.486 35.2031 106.461 35.2031 105.206V92.8925H45.3988V88.4023H53.5099V92.8925H63.7021Z" fill="black"/>
<path opacity="0.5" d="M63.6419 98.8652V105.205C63.6419 106.427 62.6461 107.422 61.4218 107.422H37.4837C36.2598 107.422 35.2637 106.428 35.2637 105.205V96.1803C37.1465 95.4818 40.9523 94.9579 46.816 98.0858C52.9703 101.369 60.2201 101.413 63.6419 98.8652Z" fill="black"/>
<path d="M109.932 21.0549V25.1886C109.932 25.7778 109.55 26.2833 109.02 26.4637L109.113 28.4732L107.354 26.5396H99.9472C99.2013 26.5396 98.5977 25.9332 98.5977 25.1882V21.0545C98.5977 20.3096 99.2013 19.7031 99.9472 19.7031H108.579C109.325 19.7035 109.932 20.3099 109.932 21.0549Z" fill="#FF2661"/>
<path opacity="0.5" d="M109.932 21.0549V25.1886C109.932 25.7778 109.55 26.2833 109.02 26.4637L109.113 28.4732L107.354 26.5396H99.9472C99.2013 26.5396 98.5977 25.9332 98.5977 25.1882V21.0545C98.5977 20.3096 99.2013 19.7031 99.9472 19.7031H108.579C109.325 19.7035 109.932 20.3099 109.932 21.0549Z" fill="white"/>
<path d="M102.235 23.1695C102.235 23.5137 101.956 23.7925 101.612 23.7925C101.267 23.7925 100.988 23.5137 100.988 23.1695C100.988 22.8257 101.267 22.5469 101.612 22.5469C101.956 22.5469 102.235 22.8257 102.235 23.1695Z" fill="#FF2661"/>
<path d="M107.54 23.1695C107.54 23.5137 107.261 23.7925 106.917 23.7925C106.572 23.7925 106.293 23.5137 106.293 23.1695C106.293 22.8257 106.572 22.5469 106.917 22.5469C107.261 22.5465 107.54 22.8257 107.54 23.1695Z" fill="#FF2661"/>
<path d="M104.915 23.1695C104.915 23.5137 104.636 23.7925 104.292 23.7925C103.947 23.7925 103.668 23.5137 103.668 23.1695C103.668 22.8257 103.947 22.5469 104.292 22.5469C104.636 22.5465 104.915 22.8257 104.915 23.1695Z" fill="#FF2661"/>
<path d="M123.889 53.6556C121.572 52.9377 119.229 52.5303 116.831 52.8147C118.574 53.2608 119.962 53.8609 120.733 54.7296C108.289 58.587 99.5153 56.9157 97.8926 56.5437C98.1777 55.2338 99.6804 49.3673 104.855 42.1166C105.32 43.2687 105.292 44.7375 104.926 46.425C106.353 44.3146 107.082 41.6311 107.503 38.6952C109.981 35.7358 113.075 32.6364 116.93 29.5891C117.282 30.9964 117.315 32.5373 117.005 34.2223C118.156 32.4473 118.752 30.2813 119.1 27.9406L119.103 27.9388C120.43 26.9675 121.834 26.0084 123.328 25.0616C130.644 20.427 136.77 18.447 141.644 17.8384C141.72 19.7274 141.282 21.7605 140.497 23.8906C142.073 21.9637 143.223 19.8821 143.944 17.6437C148.948 17.4204 152.364 18.6576 154.105 19.5221C154.887 19.9119 155.363 20.6601 155.382 21.5327C155.457 25.1172 154.252 34.3728 141.612 43.9578C139.617 42.6619 137.193 42.3634 134.618 42.4144C136.629 43.3007 138.418 44.2686 139.479 45.5025C138.77 45.9951 138.025 46.4873 137.248 46.9795C132.528 49.9698 128.038 52.1232 123.889 53.6556Z" fill="#FF2661"/>
<g opacity="0.4">
<path d="M123.889 53.6556C121.572 52.9377 119.229 52.5303 116.831 52.8147C118.574 53.2608 119.962 53.8609 120.733 54.7296C108.289 58.587 99.5153 56.9157 97.8926 56.5437C98.1777 55.2338 99.6804 49.3673 104.855 42.1166C105.32 43.2687 105.292 44.7375 104.926 46.425C106.353 44.3146 107.082 41.6311 107.503 38.6952C109.981 35.7358 113.075 32.6364 116.93 29.5891C117.282 30.9964 117.315 32.5373 117.005 34.2223C118.156 32.4473 118.752 30.2813 119.1 27.9406L119.103 27.9388C120.43 26.9675 121.834 26.0084 123.328 25.0616C130.644 20.427 136.77 18.447 141.644 17.8384C141.72 19.7274 141.282 21.7605 140.497 23.8906C142.073 21.9637 143.223 19.8821 143.944 17.6437C148.948 17.4204 152.364 18.6576 154.105 19.5221C154.887 19.9119 155.363 20.6601 155.382 21.5327C155.457 25.1172 154.252 34.3728 141.612 43.9578C139.617 42.6619 137.193 42.3634 134.618 42.4144C136.629 43.3007 138.418 44.2686 139.479 45.5025C138.77 45.9951 138.025 46.4873 137.248 46.9795C132.528 49.9698 128.038 52.1232 123.889 53.6556Z" fill="white"/>
</g>
<path d="M141.856 34.1795C141.811 34.2557 141.713 34.2941 141.635 34.2631C141.602 34.2519 138.305 32.9947 133.596 34.8966C129.67 37.5105 125.41 40.3096 121.068 43.1081C123.249 42.5182 126.922 41.9216 131.045 42.9052C131.129 42.9232 131.166 43.0037 131.131 43.0849C131.1 43.1629 131.004 43.2118 130.924 43.1946C126.212 42.0706 122.104 43.0445 120.204 43.6653C120.2 43.665 120.2 43.6681 120.2 43.6681C118.753 44.5966 117.3 45.524 115.851 46.4448C94.3708 60.0527 82.9287 66.0627 82.5742 66.2451C82.91 65.9948 93.7647 57.8857 114.693 44.623C115.204 44.3002 115.718 43.9743 116.232 43.6488C119.234 40.4689 119.463 37.45 119.467 37.4198C119.472 37.3379 119.547 37.2658 119.637 37.257C119.724 37.2482 119.792 37.3087 119.787 37.3903C119.787 37.4212 119.585 40.104 117.098 43.106C121.272 40.484 125.472 37.9 129.454 35.482C130.89 33.8353 133.082 30.7563 133.964 26.5316C133.982 26.4482 134.067 26.3839 134.155 26.3888C134.241 26.3899 134.297 26.4591 134.279 26.5425C133.484 30.3436 131.647 33.2366 130.217 35.0144C142.909 27.3156 153.223 21.3945 153.223 21.3945L153.308 21.5295C153.308 21.5295 145.304 27.1007 134.598 34.2315C138.859 32.8597 141.767 33.972 141.795 33.9861C141.874 34.0174 141.9 34.1032 141.856 34.1795Z" fill="#FF2661"/>
<g opacity="0.2">
<path d="M141.856 34.1795C141.811 34.2557 141.713 34.2941 141.635 34.2631C141.602 34.2519 138.305 32.9947 133.596 34.8966C129.67 37.5105 125.41 40.3096 121.068 43.1081C123.249 42.5182 126.922 41.9216 131.045 42.9052C131.129 42.9232 131.166 43.0037 131.131 43.0849C131.1 43.1629 131.004 43.2118 130.924 43.1946C126.212 42.0706 122.104 43.0445 120.204 43.6653C120.2 43.665 120.2 43.6681 120.2 43.6681C118.753 44.5966 117.3 45.524 115.851 46.4448C94.3708 60.0527 82.9287 66.0627 82.5742 66.2451C82.91 65.9948 93.7647 57.8857 114.693 44.623C115.204 44.3002 115.718 43.9743 116.232 43.6488C119.234 40.4689 119.463 37.45 119.467 37.4198C119.472 37.3379 119.547 37.2658 119.637 37.257C119.724 37.2482 119.792 37.3087 119.787 37.3903C119.787 37.4212 119.585 40.104 117.098 43.106C121.272 40.484 125.472 37.9 129.454 35.482C130.89 33.8353 133.082 30.7563 133.964 26.5316C133.982 26.4482 134.067 26.3839 134.155 26.3888C134.241 26.3899 134.297 26.4591 134.279 26.5425C133.484 30.3436 131.647 33.2366 130.217 35.0144C142.909 27.3156 153.223 21.3945 153.223 21.3945L153.308 21.5295C153.308 21.5295 145.304 27.1007 134.598 34.2315C138.859 32.8597 141.767 33.972 141.795 33.9861C141.874 34.0174 141.9 34.1032 141.856 34.1795Z" fill="black"/>
</g>
<path d="M128.521 126.478L128.229 129.996L126.458 129.991L125.979 126.473L128.521 126.478Z" fill="#FFC3BD"/>
<path d="M120.975 132.501C121.041 131.347 121.541 131.003 122.17 130.964C122.825 130.922 125.142 130.144 125.142 130.144C125.142 130.144 125.608 129.412 126.034 129.263C126.461 129.114 126.891 129.55 126.891 129.55L128.066 129.407C128.066 129.407 128.403 128.88 128.66 129.342C129.059 130.057 129.075 132.037 129.054 132.501H120.975Z" fill="#263238"/>
<path d="M121.119 132.198C121.608 132.195 122.095 132.193 122.584 132.191C124.72 132.181 126.855 132.168 128.991 132.158C129.073 132.158 129.052 132.034 128.971 132.036C128.827 132.038 128.681 132.037 128.537 132.038C128.536 132.034 128.533 132.027 128.53 132.022C128.113 131.357 128.356 130.682 128.914 130.345C128.98 130.308 128.897 130.2 128.834 130.239C128.23 130.604 127.985 131.326 128.407 132.038C128.105 132.041 127.806 132.041 127.504 132.042C125.37 132.053 123.234 132.065 121.098 132.076C121.017 132.076 121.038 132.2 121.119 132.198Z" fill="#FF2661"/>
<path d="M130.584 80.0625C130.659 83.6312 130.499 88.248 129.9 94.1894C129.726 95.9159 129.515 97.7549 129.26 99.7128C131.534 111.379 128.782 127.426 128.782 127.426L125.875 127.362C125.875 127.362 123.167 109.06 122.28 99.4779C120.828 83.7789 120.838 68.8248 120.838 68.8248L128.764 68.1484C128.764 68.1484 130.395 71.1539 130.584 80.0625Z" fill="#FF2661"/>
<path opacity="0.2" d="M121.581 90.4383C123.51 85.5062 122.316 76.8086 122.316 76.8086L121.232 83.9281L121.581 90.4383Z" fill="black"/>
<path d="M125.63 128.037L125.381 126.805L129.157 126.808L129.096 128.04L125.63 128.037Z" fill="#263238"/>
<path d="M115.904 127L115.748 129.977H113.869L113.268 127.044L115.904 127Z" fill="#FFC3BD"/>
<path d="M108.334 132.497C108.397 131.336 108.895 130.989 109.524 130.949C110.179 130.908 112.494 130.124 112.494 130.124C112.494 130.124 112.958 129.387 113.384 129.237C113.81 129.087 114.242 129.526 114.242 129.526L115.649 129.415C115.649 129.415 115.752 128.852 116.01 129.317C116.411 130.037 116.433 132.03 116.414 132.497H108.334V132.497Z" fill="#263238"/>
<path d="M108.477 132.195C108.966 132.193 109.452 132.19 109.941 132.188C112.077 132.178 114.213 132.165 116.349 132.155C116.43 132.155 116.41 132.03 116.328 132.032C116.185 132.034 116.038 132.033 115.894 132.034C115.894 132.029 115.89 132.022 115.887 132.018C115.468 131.349 115.709 130.669 116.267 130.33C116.333 130.293 116.25 130.184 116.187 130.223C115.583 130.59 115.34 131.317 115.765 132.034C115.463 132.037 115.163 132.038 114.861 132.039C112.727 132.049 110.592 132.062 108.456 132.072C108.375 132.072 108.395 132.196 108.477 132.195Z" fill="#FF2661"/>
<path d="M112.796 128.008L112.553 126.777H116.419L116.353 128.008H112.796Z" fill="#263238"/>
<path d="M112.561 69.1602C112.561 69.1602 108.126 96.8559 108.566 102.92C109.006 108.985 113.073 127.002 113.073 127.002H115.904C115.904 127.002 116.459 107.382 115.769 102.866C115.769 102.866 122.281 81.7317 123.086 76.8084C123.527 73.5343 122.986 71.1943 121.753 69.5121L112.561 69.1602Z" fill="#FF2661"/>
<path d="M126.864 44.0586C126.864 44.0586 133.302 51.1239 132.951 53.1321C132.271 57.0369 123.93 55.6767 123.93 55.6767L126.864 44.0586Z" fill="#263238"/>
<path d="M111.379 34.6058C111.33 34.6202 111.275 34.6093 111.235 34.5724C111.175 34.5165 111.171 34.4226 111.227 34.3621C111.786 33.7582 112.465 33.8647 112.494 33.8696C112.575 33.8833 112.629 33.9603 112.615 34.0412C112.602 34.1217 112.525 34.1765 112.444 34.1632C112.422 34.1596 111.892 34.0816 111.446 34.5639C111.427 34.5847 111.403 34.5987 111.379 34.6058Z" fill="#263238"/>
<path d="M111.631 35.2617C111.631 35.2617 111.359 36.3727 110.971 36.9439C111.336 37.2016 111.867 36.9886 111.867 36.9886L111.631 35.2617Z" fill="#ED847E"/>
<path d="M112.003 35.3378C112.063 35.5839 111.981 35.8149 111.819 35.8539C111.658 35.8929 111.479 35.7249 111.42 35.4788C111.36 35.2327 111.442 35.0017 111.604 34.9627C111.764 34.9236 111.944 35.0913 112.003 35.3378Z" fill="#263238"/>
<path d="M111.678 34.9571L111.045 34.9297C111.045 34.9297 111.461 35.3182 111.678 34.9571Z" fill="#263238"/>
<path d="M111.869 31.3008C111.869 31.3008 110.459 31.5957 111.511 33.7371L112.646 31.6443L111.869 31.3008Z" fill="#263238"/>
<path d="M118.941 43.1886C117.929 43.042 117.17 43.2209 116.624 43.485C117.135 42.617 116.785 41.5911 116.295 40.6486L119.085 36.8281C119.162 38.7459 119.605 42.1898 121.18 43.1081C121.18 43.1081 121.691 43.589 118.941 43.1886Z" fill="#FFC3BD"/>
<g opacity="0.2">
<path d="M117.946 38.3867L116.295 40.6469C116.461 40.9637 116.609 41.2899 116.712 41.6165C117.467 41.3173 118.337 40.2043 118.225 39.3665C118.169 38.9489 118.058 38.5607 117.946 38.3867Z" fill="black"/>
</g>
<path d="M119.943 33.1823C120.169 36.2149 120.33 37.4939 119.02 39.245C117.05 41.8789 113.271 41.4936 112.142 38.5897C111.126 35.9759 110.926 31.4555 113.71 29.8566C116.452 28.2812 119.716 30.1498 119.943 33.1823Z" fill="#FFC3BD"/>
<path d="M115.405 28.6118C115.405 28.6118 118.188 27.9667 120.018 29.7758C121.848 31.585 122.156 36.1338 119.162 39.0483C119.212 39.9683 115.214 40.2566 114.086 37.629C113.677 36.6752 113.067 36.0421 112.909 32.7993C112.909 32.7993 112.909 32.7993 111.768 32.4755C110.829 32.0216 111.093 28.1555 115.405 28.6118Z" fill="#263238"/>
<path d="M117.686 28.5416C117.686 28.5416 120.096 23.4355 124.228 26.0962C126.905 27.8199 123.843 34.7896 125.292 36.797C127.717 40.1569 129.643 36.8287 129.643 36.8287C129.643 36.8287 128.637 40.5215 124.959 39.7677C120.92 38.9394 120.535 34.888 121.146 32.6732C121.146 32.6732 117.654 31.7099 117.686 28.5416Z" fill="#263238"/>
<path d="M115.59 35.4021C115.456 36.018 115.05 36.5151 114.61 36.7883C113.947 37.1992 113.398 36.6596 113.4 35.921C113.403 35.2562 113.75 34.2415 114.503 34.129C115.245 34.0187 115.743 34.6975 115.59 35.4021Z" fill="#FFC3BD"/>
<path d="M113.627 36.896C113.682 37.1689 113.948 37.3453 114.221 37.2905C114.494 37.2357 114.671 36.9699 114.616 36.6974C114.561 36.4246 114.295 36.2481 114.022 36.303C113.749 36.3578 113.572 36.6232 113.627 36.896Z" fill="white"/>
<path d="M121.131 32.8412C121.128 32.8412 121.126 32.8408 121.123 32.8405C117.484 32.3444 117.684 28.5813 117.686 28.5433C117.689 28.4973 117.726 28.4604 117.775 28.4653C117.821 28.4681 117.856 28.5078 117.853 28.5539C117.843 28.7026 117.662 32.1999 121.146 32.6749C121.191 32.6812 121.224 32.7234 121.217 32.7691C121.211 32.812 121.173 32.8429 121.131 32.8412Z" fill="#FF2661"/>
<path d="M129.594 67.2626C130.701 71.8558 112.588 70.3254 111.857 69.4135C111.128 68.5015 113.224 57.5799 113.332 54.9407L113.332 54.9305C113.43 52.3078 110.904 49.2014 111.965 47.3023C112.355 46.6034 113.108 45.8623 113.904 45.2017C114.612 44.616 115.355 44.0971 115.902 43.7339C115.949 43.7016 115.991 43.6763 116.029 43.6506L116.037 43.6439C116.164 43.5606 116.28 43.4868 116.379 43.426C116.618 43.2755 116.759 43.1925 116.759 43.1925C116.759 43.1925 119.156 42.7183 121.621 42.6574C121.768 42.6536 121.912 42.6529 122.06 42.6525C123.061 42.6483 124.046 42.7218 124.866 42.9324C127.83 43.6882 128.204 46.3618 128.188 49.3304C128.172 52.299 129.121 65.2984 129.594 67.2626Z" fill="#263238"/>
<g opacity="0.2">
<path d="M122.06 42.6562C122.056 42.6664 122.056 42.6731 122.052 42.6833C121.888 43.224 119.996 44.6109 118.318 44.4798C116.808 44.3627 116.042 43.8431 115.902 43.7377C115.948 43.7053 115.991 43.68 116.029 43.6543L116.036 43.6477C116.164 43.5643 116.28 43.4905 116.379 43.4297C116.75 43.5689 117.619 43.8364 118.86 43.8459C120.543 43.8646 121.617 42.6647 121.617 42.6647C121.617 42.6647 121.617 42.6647 121.621 42.6615C121.768 42.6573 121.912 42.6566 122.06 42.6562Z" fill="black"/>
</g>
<path d="M116.4 43.4767C116.4 43.4767 116.303 42.7328 116.741 42.5162C117.18 42.3 119.041 41.0316 119.758 40.9778C120.475 40.9237 121.124 42.6685 121.618 42.6621C122.112 42.6558 117.602 43.9049 116.4 43.4767Z" fill="#263238"/>
<path d="M116.426 49.0954C115.704 51.1316 114.874 53.0568 113.924 54.9939C113.446 55.9582 112.942 56.917 112.371 57.8764C112.083 58.3552 111.781 58.8347 111.441 59.3227C111.097 59.8138 110.736 60.3011 110.189 60.8467C110.045 60.9859 109.894 61.1266 109.696 61.2805C109.508 61.4278 109.264 61.5991 108.917 61.7604C108.747 61.8395 108.524 61.9207 108.267 61.9745C108.197 61.9882 108.127 61.9995 108.056 62.009C107.996 62.0171 107.883 62.0283 107.89 62.0259L107.781 62.0276L107.346 62.0336C107.053 62.0413 106.773 62.0332 106.492 62.0213C106.21 62.0132 105.932 61.9995 105.658 61.978C104.556 61.9088 103.485 61.7882 102.425 61.6311C100.303 61.3234 98.2418 60.903 96.1699 60.3693L96.5371 57.9604C98.5815 58.0226 100.656 58.0673 102.682 58.0641C103.696 58.0592 104.703 58.0381 105.681 57.9815C105.927 57.9699 106.169 57.9513 106.406 57.9277C106.645 57.9059 106.885 57.8894 107.111 57.8581L107.455 57.8173L107.541 57.8071C107.58 57.8039 107.499 57.8071 107.471 57.811C107.433 57.8148 107.394 57.8212 107.356 57.8293C107.225 57.8525 107.126 57.8915 107.072 57.9119C106.957 57.9579 106.931 57.9832 106.94 57.9614C106.943 57.9509 106.977 57.908 107.013 57.8598C107.175 57.6436 107.409 57.2734 107.625 56.8906C107.844 56.5032 108.06 56.0813 108.269 55.6478C108.691 54.7819 109.096 53.8714 109.49 52.9506C110.278 51.113 111.046 49.2009 111.815 47.3594L116.426 49.0954Z" fill="#263238"/>
<path d="M96.5531 58.0029C96.5531 58.0029 96.0708 56.5861 95.9005 56.3878C95.7301 56.1895 95.0778 56.8694 95.0778 56.8694C95.0778 56.8694 94 56.501 92.8933 57.4928C91.787 58.4845 91.793 59.7087 91.793 59.7087C91.793 59.7087 92.9785 60.5246 96.2127 60.3264L96.5531 58.0029Z" fill="#FFC3BD"/>
<path d="M66.1723 31.3544C65.4475 31.3857 65.3067 31.495 65.3067 32.2709V37.5616C65.3067 38.3375 65.4475 38.4468 66.1723 38.4781V38.6915C65.8386 38.6707 65.3067 38.6602 64.8167 38.6602C64.2588 38.6602 63.7481 38.6707 63.4506 38.6915V38.4781C64.1754 38.4468 64.3109 38.3375 64.3109 37.5616V31.8543L61.7406 38.7435H61.5685L58.8781 31.823V37.4519C58.8781 38.233 59.0189 38.4464 59.8479 38.4777V38.6911C59.5923 38.6704 59.1231 38.6598 58.7581 38.6598C58.3984 38.6598 58.002 38.6704 57.7676 38.6911V38.4777C58.4923 38.4464 58.6331 38.233 58.6331 37.4519V32.2705C58.6331 31.4947 58.4923 31.3853 57.7676 31.354V31.1406C58.0024 31.1614 58.3984 31.1719 58.7581 31.1719C59.071 31.1719 59.4361 31.1614 59.6705 31.1406L62.0166 37.3267L64.3106 31.1719H64.8164C65.3064 31.1719 65.8382 31.1614 66.1719 31.1406V31.3544H66.1723Z" fill="#263238"/>
<path d="M45.2014 34.3559C45.2014 38.0002 42.9926 40.4109 39.1389 40.4109C38.6317 40.4109 37.5109 40.362 36.7907 40.362C36.0054 40.362 35.1793 40.3782 34.7129 40.4109V40.0758C35.8502 40.0266 36.0713 39.855 36.0713 38.6376V30.3358C36.0713 29.1183 35.8502 28.9468 34.7129 28.8975V28.5625C35.0976 28.5871 35.7274 28.6198 36.349 28.6198C36.488 28.6198 36.619 28.6117 36.758 28.6117C37.5271 28.5955 38.6479 28.5628 39.2861 28.5628C43.2788 28.5625 45.2014 30.6216 45.2014 34.3559ZM37.6257 30.3031V38.6703C37.6257 39.8389 37.8464 40.1085 38.8855 40.1085C42.5343 40.1085 43.5242 38.0656 43.5242 34.4213C43.5242 30.6708 42.3379 28.8648 38.869 28.8648C37.8464 28.8648 37.6257 29.1507 37.6257 30.3031Z" fill="#263238"/>
<path d="M59.4789 21.5857C59.0294 21.605 58.9424 21.6729 58.9424 22.1541V25.4349C58.9424 25.9162 59.0297 25.9837 59.4789 25.9837H59.9639C60.7915 25.9837 60.9566 25.6673 61.0502 24.7473H61.2023C61.1892 24.8861 61.1829 25.0767 61.1829 25.2897C61.1829 25.4543 61.1956 25.7998 61.2279 26.1356C60.7784 26.1162 60.1543 26.1163 59.7115 26.1163C59.3138 26.1163 58.4412 26.1162 57.791 26.1356V26.0034C58.2405 25.9841 58.3278 25.9162 58.3278 25.4349V22.1541C58.3278 21.6729 58.2405 21.605 57.791 21.5857V21.4531C57.9755 21.4661 58.2954 21.4728 58.6383 21.4728C58.9421 21.4728 59.275 21.4661 59.4789 21.4531V21.5857Z" fill="#263238"/>
<path d="M52.3878 31.0156V31.1383C52.2262 31.1742 52.0438 31.3025 51.9034 31.6699L50.4648 35.3768H50.4141C50.3961 35.3768 50.3842 35.3768 50.3662 35.3768L48.8709 31.5296C48.7484 31.2188 48.5781 31.1443 48.4492 31.1383V31.0156C48.6136 31.0276 48.8709 31.0336 49.1043 31.0336C49.4211 31.0336 49.7171 31.0276 49.8878 31.0156V31.1383C49.5946 31.1503 49.4542 31.1949 49.4542 31.3651C49.4542 31.4368 49.4781 31.5293 49.5256 31.652L50.6351 34.591L51.6341 32.0074C51.7147 31.7982 51.7566 31.634 51.7566 31.5085C51.7566 31.2396 51.5711 31.1471 51.2212 31.1383V31.0156C51.4542 31.0276 51.7116 31.0336 51.927 31.0336C52.1364 31.0336 52.2649 31.0276 52.3878 31.0156Z" fill="#263238"/>
<path d="M73.9788 35.4775C73.9788 35.9243 74.1133 36.1317 74.5462 36.1317V36.2878C74.3896 36.2734 74.2333 36.266 74.0841 36.266C73.793 36.266 73.5237 36.2952 73.309 36.3715V35.4922C73.0545 36.1391 72.5634 36.3863 72.0865 36.3863C71.7373 36.3863 71.4824 36.2808 71.3114 36.1029C71.1259 35.9032 71.0639 35.598 71.0639 35.1291V33.2616C71.0639 32.8147 70.933 32.6038 70.5 32.6038V32.4477C70.6563 32.4621 70.8129 32.4695 70.9622 32.4695C71.2533 32.4695 71.5187 32.4403 71.7373 32.3675V35.2925C71.7373 35.7541 71.7665 36.1465 72.3012 36.1465C72.883 36.1465 73.309 35.558 73.309 34.7982V33.2612C73.309 32.8144 73.1745 32.6034 72.7415 32.6034V32.4473C72.8982 32.4618 73.0545 32.4691 73.2037 32.4691C73.4948 32.4691 73.7641 32.44 73.9788 32.3672V35.4775Z" fill="#263238"/>
<path d="M71.2876 21.1773C73.0188 21.4065 73.5214 22.2604 73.5214 23.1467C73.5214 24.3902 72.5327 25.2652 70.8923 25.2652C70.5667 25.2652 69.9092 25.2332 69.0116 25.2332C68.4984 25.2332 67.9588 25.2438 67.6543 25.2652V25.0466C68.3967 25.0146 68.541 24.9024 68.541 24.1072V18.685C68.541 17.8902 68.3967 17.778 67.6543 17.746V17.5273C67.9588 17.5488 68.509 17.5593 68.9901 17.5593C69.6794 17.5593 70.3795 17.5379 70.641 17.5379C72.1747 17.5379 72.9494 18.2477 72.9494 19.2563C72.9494 20.0301 72.5108 20.7828 71.2873 21.1562V21.1773H71.2876ZM69.5565 18.685V21.1562H70.2939C71.5823 21.1562 71.9026 20.3237 71.9026 19.3734C71.9026 18.3008 71.464 17.7457 70.3689 17.7457C69.7008 17.7457 69.5565 17.9327 69.5565 18.685ZM72.4257 23.0986C72.4257 21.9887 71.8649 21.3429 70.4756 21.3429H69.5565V24.1072C69.5565 24.8704 69.7008 25.0146 70.3798 25.0146C71.8114 25.0146 72.4257 24.3262 72.4257 23.0986Z" fill="#263238"/>
<path d="M82.4292 32.1108C82.5964 32.217 82.6876 32.2578 82.7836 32.2578C82.9156 32.2578 82.9713 32.101 83.0117 31.8021H83.2497C83.2194 32.1664 83.199 32.6121 83.199 33.9179H82.9611C82.885 32.9307 82.4088 31.9234 81.2581 31.9234C80.5182 31.9234 79.9912 32.4146 79.9912 33.1282C79.9912 34.0697 80.8022 34.4441 81.7347 35.0263C82.8139 35.6996 83.6049 36.2462 83.6049 37.3596C83.6049 38.6759 82.6066 39.3288 81.4003 39.3288C80.6657 39.3288 80.2802 39.1312 79.981 38.9441C79.8138 38.838 79.7124 38.7972 79.6266 38.7972C79.4946 38.7972 79.4389 38.9543 79.3985 39.2528H79.1602C79.1904 38.8278 79.2006 38.2305 79.2006 36.7676H79.4389C79.5252 38.0227 80.0014 39.1213 81.3292 39.1213C82.0033 39.1213 82.6773 38.7163 82.6773 37.7397C82.6773 36.8995 82.0237 36.4234 81.0606 35.8465C80.0722 35.2541 79.2108 34.6923 79.2108 33.5234C79.2108 32.2986 80.1384 31.7266 81.162 31.7266C81.8463 31.7262 82.1504 31.9234 82.4292 32.1108Z" fill="#263238"/>
<path d="M83.4708 24.6937C83.2427 25.387 82.5584 26.0856 81.5295 26.0856C80.0243 26.0856 79.1426 24.9873 79.1426 23.3979C79.1426 21.5757 80.0652 20.457 81.489 20.457C82.7055 20.457 83.4299 21.1707 83.4299 22.7348H80.1866C80.1613 22.932 80.1514 23.17 80.1514 23.3979C80.1514 24.8203 80.942 25.6503 81.7375 25.6503C82.3609 25.6503 82.9033 25.387 83.2631 24.6129L83.4708 24.6937ZM80.1715 22.5376H82.4317C82.4672 21.5251 82.143 20.6546 81.4485 20.6546C80.8304 20.6546 80.2831 21.2315 80.1715 22.5376Z" fill="#263238"/>
</g>
<defs>
<clipPath id="clip0_2601_11434">
<rect width="176" height="135" fill="white" transform="translate(0.5)"/>
</clipPath>
</defs>
</svg>
