<svg width="204" height="135" viewBox="0 0 204 135" fill="none" xmlns="http://www.w3.org/2000/svg">
<path d="M47.2628 20.375H14.8965V78.3759H47.2628V20.375Z" fill="#EBEBEB"/>
<path d="M45.6358 22.0586H16.1895V76.6496H45.6358V22.0586Z" fill="#FAFAFA"/>
<path d="M45.6358 22.7015L16.1895 60.0662V22.0586H45.6358V22.7015Z" fill="#F5F5F5"/>
<path d="M46.2754 37.7617H16.1895V38.343H46.2754V37.7617Z" fill="#EBEBEB"/>
<path d="M46.2754 50.7617H16.1895V51.343H46.2754V50.7617Z" fill="#EBEBEB"/>
<path d="M46.2754 63.7617H16.1895V64.343H46.2754V63.7617Z" fill="#EBEBEB"/>
<path d="M30.1699 38.0551L30.1699 78.1992H31.6578L31.6578 38.0551H30.1699Z" fill="#EBEBEB"/>
<path d="M22.5333 22.0586H21.8594V38.0534H22.5333V22.0586Z" fill="#EBEBEB"/>
<path d="M28.3478 22.0586H27.6738V38.0534H28.3478V22.0586Z" fill="#EBEBEB"/>
<path d="M34.1603 22.0586H33.4863V38.0534H34.1603V22.0586Z" fill="#EBEBEB"/>
<path d="M39.9728 22.0586H39.2988V38.0534H39.9728V22.0586Z" fill="#EBEBEB"/>
<path d="M14.8964 19.3906H13.5273V78.7342H14.8964V19.3906Z" fill="#F5F5F5"/>
<path d="M48.6327 78.8978L47.2637 78.3751V19.3906H48.6327V78.8978Z" fill="#E0E0E0"/>
<path d="M48.6317 18.793H13.5273V20.3754H48.6317V18.793Z" fill="#E0E0E0"/>
<path d="M49.5589 79.0938H12.5566V80.5682H49.5589V79.0938Z" fill="#E0E0E0"/>
<path d="M47.2631 78.375L49.5589 79.0929H12.5566L14.8968 78.375H47.2631Z" fill="#EBEBEB"/>
<path d="M186.49 56.5314C186.49 56.5314 184.202 56.3673 184.412 61.4864C184.623 66.6056 185.147 69.3324 185.147 69.3324C185.147 69.3324 185.08 70.4675 184.198 70.2447C183.317 70.022 181.659 68.9171 180.84 69.7431C179.991 70.5995 180.293 71.913 181.42 73.4601C182.546 75.0072 184.889 78.4875 185.1 78.8029C185.307 79.1126 185.39 79.6934 184.765 79.6375C184.14 79.5816 179.924 78.156 179.365 80.1926C178.807 82.2289 182.655 86.0251 183.068 86.448C183.48 86.871 183.503 87.1381 183.335 87.394C183.167 87.65 181.795 87.0376 180.58 86.681C179.364 86.3246 177.891 86.1237 177.667 87.3257C177.444 88.5275 179.139 92.0448 185.486 95.7413L188.539 97.2623L191.429 95.4233C197.374 91.1119 198.707 87.4434 198.365 86.2698C198.022 85.0963 196.577 85.4427 195.402 85.9187C194.228 86.3948 192.924 87.141 192.732 86.9032C192.54 86.6653 192.535 86.3972 192.904 85.9352C193.272 85.4732 196.72 81.3123 195.96 79.3418C195.2 77.3714 191.147 79.2106 190.532 79.3283C189.916 79.4463 189.94 78.8601 190.115 78.5313C190.293 78.1965 192.275 74.4999 193.241 72.8481C194.206 71.1962 194.375 69.8591 193.444 69.0918C192.547 68.3517 191.008 69.6164 190.154 69.9261C189.299 70.2358 189.118 69.1131 189.118 69.1131C189.118 69.1131 189.366 66.3478 189.062 61.2332C188.758 56.1186 186.444 56.5314 186.444 56.5314" fill="#EBEBEB"/>
<path d="M186.671 61.1172C186.671 61.1172 186.677 61.1534 186.683 61.2241C186.689 61.3 186.697 61.4042 186.707 61.5384C186.727 61.8203 186.754 62.2266 186.79 62.7474C186.86 63.7975 186.95 65.3173 187.054 67.196C187.263 70.953 187.508 76.1457 187.759 81.881C188.01 87.6185 188.242 92.8114 188.43 96.5693C188.525 98.4441 188.603 99.9632 188.657 101.019C188.683 101.54 188.703 101.947 188.717 102.229C188.722 102.363 188.727 102.468 188.73 102.544C188.732 102.615 188.73 102.651 188.73 102.651C188.73 102.651 188.724 102.615 188.718 102.544C188.712 102.469 188.704 102.364 188.693 102.23C188.674 101.948 188.647 101.542 188.611 101.021C188.541 99.9715 188.451 98.4517 188.347 96.573C188.138 92.816 187.893 87.6231 187.642 81.8856C187.391 76.1502 187.159 70.9576 186.971 67.1998C186.875 65.3249 186.798 63.8058 186.744 62.7496C186.718 62.2282 186.698 61.8216 186.683 61.5395C186.678 61.405 186.674 61.3005 186.671 61.2247C186.669 61.1539 186.671 61.1172 186.671 61.1172Z" fill="#E0E0E0"/>
<path d="M183.096 71.3832C183.102 71.3775 183.169 71.434 183.286 71.5409C183.404 71.6473 183.569 71.8066 183.771 72.0053C184.174 72.4035 184.715 72.9681 185.302 73.6021C185.875 74.2282 186.394 74.7941 186.795 75.232C186.974 75.4248 187.125 75.589 187.25 75.7237C187.357 75.8395 187.415 75.9065 187.409 75.9122C187.403 75.9178 187.336 75.862 187.218 75.7558C187.101 75.6489 186.936 75.4896 186.736 75.289C186.337 74.8867 185.802 74.3154 185.216 73.6814C184.638 73.0599 184.116 72.4978 183.712 72.0628C183.532 71.8708 183.38 71.7075 183.254 71.5733C183.147 71.4561 183.09 71.3889 183.096 71.3832Z" fill="#E0E0E0"/>
<path d="M187.713 75.8087C187.69 75.786 188.807 74.6196 190.207 73.2034C191.608 71.787 192.761 70.6573 192.784 70.68C192.807 70.7027 191.691 71.8688 190.29 73.2855C188.89 74.7014 187.736 75.8314 187.713 75.8087Z" fill="#E0E0E0"/>
<path d="M187.699 84.6355C187.696 84.6284 187.772 84.5807 187.912 84.5005C188.075 84.4092 188.275 84.2977 188.509 84.1662C189.013 83.8838 189.708 83.4912 190.459 83.0309C191.211 82.5719 191.877 82.1336 192.358 81.8126C192.582 81.6636 192.772 81.5369 192.928 81.4335C193.063 81.345 193.14 81.2988 193.145 81.3053C193.149 81.3118 193.081 81.3701 192.954 81.4703C192.827 81.5702 192.64 81.7114 192.405 81.8801C191.936 82.219 191.274 82.6696 190.52 83.1299C189.766 83.5919 189.063 83.9742 188.548 84.2386C188.29 84.3698 188.08 84.4735 187.933 84.5407C187.786 84.6085 187.703 84.6425 187.699 84.6355Z" fill="#E0E0E0"/>
<path d="M182.641 81.5477C182.645 81.5407 182.72 81.5764 182.852 81.6466C182.984 81.7168 183.173 81.8218 183.405 81.9536C183.87 82.2171 184.508 82.588 185.209 83.0038C185.91 83.4199 186.542 83.802 186.996 84.0836C187.223 84.2245 187.406 84.3401 187.53 84.4222C187.655 84.5045 187.722 84.5531 187.718 84.5601C187.714 84.5672 187.639 84.5315 187.507 84.4613C187.375 84.3911 187.186 84.2864 186.954 84.1546C186.489 83.8911 185.851 83.5201 185.15 83.1043C184.449 82.6885 183.817 82.3064 183.363 82.0246C183.136 81.8836 182.953 81.7681 182.829 81.6857C182.704 81.6034 182.637 81.5548 182.641 81.5477Z" fill="#E0E0E0"/>
<path d="M181.639 89.3366C181.643 89.3296 181.738 89.3761 181.907 89.4662C182.095 89.5696 182.334 89.7009 182.618 89.8572C183.215 90.1917 184.037 90.661 184.94 91.1853C185.844 91.7099 186.659 92.1905 187.246 92.5432C187.523 92.7124 187.755 92.8542 187.938 92.9662C188.1 93.0683 188.188 93.1282 188.184 93.1353C188.179 93.1423 188.084 93.0956 187.915 93.0057C187.727 92.9023 187.489 92.771 187.205 92.6147C186.607 92.2802 185.786 91.8109 184.882 91.2863C183.978 90.762 183.164 90.2814 182.577 89.9287C182.3 89.7594 182.068 89.6177 181.885 89.5057C181.722 89.4033 181.635 89.3434 181.639 89.3366Z" fill="#E0E0E0"/>
<path d="M188.051 93.0024C188.047 92.9954 188.142 92.9324 188.316 92.825C188.511 92.707 188.76 92.5555 189.059 92.3741C189.685 91.9934 190.548 91.4647 191.485 90.8548C192.424 90.2462 193.259 89.6736 193.86 89.2553C194.147 89.0563 194.387 88.8903 194.574 88.7609C194.743 88.6448 194.839 88.5838 194.844 88.5903C194.849 88.5968 194.762 88.6702 194.601 88.7974C194.44 88.9246 194.204 89.1049 193.909 89.3223C193.318 89.7583 192.489 90.3429 191.549 90.9525C190.611 91.5635 189.739 92.082 189.101 92.4451C188.781 92.6257 188.521 92.7694 188.339 92.8641C188.157 92.9597 188.055 93.0094 188.051 93.0024Z" fill="#E0E0E0"/>
<path d="M192.641 98.2578H184.193L186.95 119.077H189.884L192.641 98.2578Z" fill="#E0E0E0"/>
<path d="M184.631 100.815C184.628 100.817 184.641 100.845 184.677 100.89C184.713 100.934 184.779 100.991 184.88 101.035C185.081 101.122 185.432 101.129 185.772 100.926C186.114 100.738 186.411 100.369 186.868 100.206C187.321 100.034 187.883 100.065 188.421 100.237C188.966 100.405 189.439 100.68 189.868 100.936C190.297 101.191 190.691 101.418 191.044 101.566C191.394 101.719 191.7 101.789 191.911 101.816C192.018 101.83 192.1 101.834 192.157 101.832C192.213 101.832 192.242 101.83 192.243 101.825C192.247 101.798 191.765 101.802 191.084 101.477C190.743 101.321 190.36 101.088 189.933 100.827C189.509 100.566 189.025 100.279 188.462 100.106C187.907 99.9275 187.309 99.8951 186.823 100.088C186.58 100.18 186.376 100.325 186.206 100.469C186.033 100.611 185.879 100.745 185.722 100.842C185.414 101.041 185.089 101.05 184.9 100.985C184.705 100.917 184.642 100.803 184.631 100.815Z" fill="#F5F5F5"/>
<path d="M184.94 104.653C184.952 104.66 185.007 104.567 185.139 104.43C185.274 104.296 185.494 104.121 185.814 104.003C186.131 103.882 186.538 103.81 186.988 103.826C187.441 103.842 187.934 103.941 188.458 104.026C188.982 104.114 189.5 104.153 189.963 104.088C190.426 104.029 190.828 103.896 191.147 103.751C191.467 103.605 191.704 103.446 191.86 103.329C192.016 103.211 192.09 103.132 192.085 103.126C192.069 103.104 191.743 103.395 191.109 103.662C190.792 103.792 190.398 103.912 189.948 103.962C189.498 104.018 189 103.977 188.48 103.89C187.96 103.806 187.459 103.709 186.992 103.7C186.525 103.689 186.103 103.774 185.777 103.913C185.448 104.048 185.226 104.244 185.099 104.394C185.038 104.472 184.994 104.534 184.971 104.581C184.947 104.626 184.936 104.651 184.94 104.653Z" fill="#F5F5F5"/>
<path d="M191.684 106.706C191.687 106.7 191.609 106.647 191.451 106.585C191.294 106.523 191.054 106.46 190.751 106.435C190.448 106.411 190.086 106.431 189.693 106.496C189.298 106.56 188.876 106.668 188.433 106.762C187.99 106.855 187.562 106.918 187.175 106.904C186.788 106.89 186.443 106.806 186.176 106.688C185.633 106.451 185.439 106.104 185.418 106.126C185.413 106.129 185.451 106.216 185.561 106.346C185.67 106.476 185.86 106.641 186.135 106.777C186.409 106.911 186.766 107.009 187.169 107.031C187.573 107.052 188.013 106.991 188.461 106.897C188.909 106.802 189.328 106.69 189.714 106.621C190.099 106.55 190.451 106.522 190.745 106.533C191.338 106.552 191.675 106.731 191.684 106.706Z" fill="#F5F5F5"/>
<path d="M185.686 109.591C185.69 109.614 185.987 109.404 186.506 109.509C186.76 109.554 187.044 109.683 187.364 109.828C187.682 109.976 188.066 110.103 188.478 110.134C189.308 110.214 190.046 109.946 190.498 109.667C190.73 109.53 190.892 109.382 191.001 109.281C191.104 109.172 191.157 109.109 191.15 109.103C191.132 109.082 190.91 109.332 190.45 109.583C189.997 109.833 189.285 110.074 188.49 109.997C187.69 109.952 187.076 109.476 186.522 109.413C186.252 109.373 186.026 109.411 185.885 109.468C185.742 109.524 185.681 109.587 185.686 109.591Z" fill="#F5F5F5"/>
<path d="M186.156 113.586C186.156 113.602 186.44 113.6 186.861 113.447C187.285 113.305 187.811 112.98 188.424 112.737C188.732 112.62 189.041 112.548 189.322 112.55C189.603 112.551 189.854 112.619 190.044 112.714C190.432 112.906 190.544 113.18 190.566 113.163C190.572 113.16 190.555 113.092 190.486 112.985C190.417 112.879 190.288 112.741 190.09 112.628C189.892 112.515 189.626 112.431 189.324 112.423C189.021 112.414 188.695 112.487 188.375 112.608C187.739 112.861 187.231 113.195 186.825 113.356C186.425 113.529 186.153 113.564 186.156 113.586Z" fill="#F5F5F5"/>
<path d="M186.57 115.447C186.566 115.464 186.768 115.537 187.105 115.62C187.442 115.703 187.915 115.793 188.442 115.845C188.97 115.896 189.451 115.901 189.798 115.884C190.144 115.868 190.357 115.836 190.356 115.818C190.354 115.777 189.5 115.813 188.456 115.708C187.411 115.608 186.581 115.406 186.57 115.447Z" fill="#F5F5F5"/>
<path d="M187.846 22.7617H161.764V39.8678H187.846V22.7617Z" fill="#E0E0E0"/>
<path d="M186.926 23.4609H162.672V39.1026H186.926V23.4609Z" fill="#FAFAFA"/>
<path d="M178.754 29.1641H170.842V33.4681H178.754V29.1641Z" fill="#E0E0E0"/>
<path d="M195.177 119.355C195.177 119.394 153.457 119.426 102.005 119.426C50.5353 119.426 8.82422 119.394 8.82422 119.355C8.82422 119.316 50.535 119.285 102.005 119.285C153.458 119.285 195.177 119.316 195.177 119.355Z" fill="#263238"/>
<path d="M130.484 67.7725H79.0195V10.3281H134.874V63.3928C134.873 65.8118 132.908 67.7725 130.484 67.7725Z" fill="#EBEBEB"/>
<path d="M130.261 27.4257C130.261 27.5421 120.166 27.6366 107.716 27.6366C95.2611 27.6366 85.168 27.5421 85.168 27.4257C85.168 27.3093 95.2611 27.2148 107.716 27.2148C120.166 27.2148 130.261 27.3093 130.261 27.4257Z" fill="#455A64"/>
<path d="M107.982 31.3163C107.982 31.433 102.994 31.5272 96.843 31.5272C90.6896 31.5272 85.7031 31.4327 85.7031 31.3163C85.7031 31.2 90.6896 31.1055 96.843 31.1055C102.994 31.1055 107.982 31.2 107.982 31.3163Z" fill="#455A64"/>
<path d="M116.893 30.957C116.893 31.0736 115.572 31.1678 113.943 31.1678C112.313 31.1678 110.992 31.0733 110.992 30.957C110.992 30.8406 112.313 30.7461 113.943 30.7461C115.572 30.7461 116.893 30.8406 116.893 30.957Z" fill="#455A64"/>
<path d="M131.465 30.7148C131.465 30.8314 128.849 30.9256 125.624 30.9256C122.398 30.9256 119.783 30.8311 119.783 30.7148C119.783 30.5984 122.398 30.5039 125.624 30.5039C128.849 30.5039 131.465 30.5981 131.465 30.7148Z" fill="#455A64"/>
<path d="M106.122 35.0429C106.122 35.1595 101.431 35.2538 95.6455 35.2538C89.8581 35.2538 85.168 35.1593 85.168 35.0429C85.168 34.9265 89.8581 34.832 95.6455 34.832C101.431 34.832 106.122 34.9263 106.122 35.0429Z" fill="#455A64"/>
<path d="M131.465 34.9335C131.465 35.0502 126.342 35.1444 120.025 35.1444C113.705 35.1444 108.584 35.0499 108.584 34.9335C108.584 34.8172 113.705 34.7227 120.025 34.7227C126.342 34.7227 131.465 34.8172 131.465 34.9335Z" fill="#455A64"/>
<path d="M131.465 38.6796C131.465 38.7963 129.184 38.8905 126.371 38.8905C123.557 38.8905 121.277 38.796 121.277 38.6796C121.277 38.5633 123.558 38.4688 126.371 38.4688C129.184 38.4688 131.465 38.5633 131.465 38.6796Z" fill="#455A64"/>
<path d="M110.392 23.2538C110.392 23.3705 104.865 23.4647 98.0488 23.4647C91.2305 23.4647 85.7051 23.3702 85.7051 23.2538C85.7051 23.1375 91.2305 23.043 98.0488 23.043C104.865 23.043 110.392 23.1375 110.392 23.2538Z" fill="#FF2661"/>
<path d="M144.729 119.041H36.5893C34.4118 119.041 32.6465 117.28 32.6465 115.108V46.437C32.6465 44.2648 34.4118 42.5039 36.5893 42.5039H144.729C146.907 42.5039 148.672 44.2648 148.672 46.437V115.108C148.672 117.28 146.907 119.041 144.729 119.041Z" fill="#263238"/>
<path d="M148.844 120.076H32.7744C30.114 120.076 27.957 117.925 27.957 115.271V113.379H153.662V115.271C153.662 117.925 151.505 120.076 148.844 120.076Z" fill="#263238"/>
<path d="M145.396 45.543H35.9238V110.178H145.396V45.543Z" fill="#455A64"/>
<path d="M79.3848 113.38C79.3827 113.379 79.4235 113.378 79.5056 113.377C79.5949 113.376 79.7167 113.374 79.8734 113.373C80.2069 113.371 80.687 113.368 81.3031 113.365C82.5595 113.359 84.3681 113.352 86.6073 113.343C91.122 113.333 97.3715 113.32 104.342 113.305L104.473 113.305L104.407 113.418C104.184 113.799 103.944 114.209 103.703 114.621C103.45 115.053 103.199 115.482 102.959 115.893L102.937 115.93H102.894C93.2476 115.912 85.0101 115.896 80.9439 115.889H80.9249L80.9152 115.873C80.415 115.062 80.0298 114.437 79.7657 114.008C79.6409 113.804 79.5451 113.648 79.4766 113.536C79.4135 113.431 79.3848 113.38 79.3848 113.38C79.3848 113.38 79.4241 113.437 79.4937 113.544C79.5662 113.656 79.6682 113.813 79.8009 114.017C80.0702 114.435 80.4632 115.045 80.9734 115.837L80.9447 115.821C85.0107 115.814 93.2484 115.798 102.894 115.78L102.83 115.817C103.07 115.406 103.321 114.977 103.574 114.545C103.815 114.133 104.055 113.723 104.278 113.342L104.343 113.455C97.4004 113.44 91.1764 113.426 86.6801 113.416C84.4303 113.407 82.6131 113.4 81.351 113.395C80.7255 113.391 80.238 113.389 79.8991 113.387C79.737 113.385 79.6111 113.384 79.5188 113.383C79.4325 113.382 79.3848 113.38 79.3848 113.38Z" fill="#455A64"/>
<path d="M148.672 113.379C148.672 113.418 122.696 113.449 90.662 113.449C58.6161 113.449 32.6465 113.417 32.6465 113.379C32.6465 113.34 58.6161 113.309 90.662 113.309C122.696 113.309 148.672 113.34 148.672 113.379Z" fill="#455A64"/>
<path d="M119.062 32.637C120.852 32.637 122.303 34.0845 122.303 35.87V42.5041H112.611V36.3838C112.611 34.3145 114.293 32.6367 116.368 32.6367L119.062 32.637Z" fill="#263238"/>
<path d="M119.061 32.6375C119.061 32.6763 109.917 32.6998 98.6399 32.6898C87.3588 32.6799 78.2165 32.6404 78.2168 32.6016C78.2168 32.5627 87.3591 32.5392 98.6402 32.5492C109.917 32.5592 119.061 32.5986 119.061 32.6375Z" fill="#263238"/>
<path d="M118.976 32.6294L114.935 32.6016L109.064 32.6372H65.9358C62.2734 32.6372 59.3047 35.5988 59.3047 39.2519V109.114V110.335H115.159V36.2641C115.322 32.6375 118.976 32.6294 118.976 32.6294Z" fill="#FAFAFA"/>
<path d="M118.977 32.6278L85.2987 32.7012L68.4595 32.7139L66.3545 32.7153C66.0018 32.7085 65.6564 32.729 65.3105 32.7474C64.9681 32.7957 64.622 32.8335 64.2893 32.9331C62.9409 33.2663 61.7318 34.0731 60.8524 35.138C60.4139 35.6742 60.0734 36.2852 59.8241 36.9283C59.7697 37.092 59.6945 37.2494 59.6566 37.4184L59.5275 37.9203C59.4747 38.2616 59.4095 38.6018 59.407 38.9482C59.3773 40.3392 59.4003 41.7454 59.3943 43.1432L59.4395 110.334L59.305 110.2L115.159 110.236L115.061 110.334L115.088 70.3727L115.12 50.3927L115.139 40.403L115.144 37.9055L115.147 36.6567C115.148 36.4485 115.14 36.2404 115.173 36.033C115.199 35.8262 115.207 35.6161 115.271 35.4161C115.456 34.6066 115.921 33.8439 116.624 33.3819C116.965 33.1429 117.347 32.9604 117.747 32.8408C118.146 32.7196 118.56 32.641 118.977 32.6278ZM118.977 32.6278C118.559 32.6424 118.146 32.7228 117.748 32.8457C117.349 32.9666 116.969 33.1505 116.629 33.3903C115.93 33.8538 115.471 34.6147 115.29 35.4209C115.227 35.6202 115.22 35.8292 115.195 36.0352C115.163 36.2409 115.171 36.4496 115.171 36.6575L115.174 37.9063L115.178 40.4038L115.198 50.394L115.23 70.3743L115.257 110.334V110.432H115.159L59.3047 110.468H59.1699V110.334L59.2151 43.1429C59.223 41.7416 59.2013 40.3468 59.2335 38.9398C59.237 38.5845 59.3039 38.2351 59.3588 37.8852L59.492 37.3703C59.5313 37.197 59.6081 37.0355 59.6644 36.8676C59.921 36.208 60.2715 35.5816 60.7219 35.0324C61.6249 33.9416 62.8659 33.1167 64.2482 32.7765C64.5892 32.675 64.9441 32.6364 65.2948 32.5878C65.6497 32.5689 66.0048 32.5489 66.354 32.5562L68.4589 32.5576L85.2979 32.5703L118.977 32.6278Z" fill="#263238"/>
<path d="M67.7174 45.4258H77.4641L77.4798 48.6825H77.0135C76.8605 47.5175 76.4231 46.7293 75.7013 46.3179C75.2953 46.0911 74.6895 45.9674 73.8829 45.9461V54.4532C73.8829 55.0478 73.9871 55.4422 74.1953 55.6369C74.4034 55.8319 74.8368 55.9291 75.4956 55.9291V56.3389H69.7252V55.9291C70.3575 55.9291 70.7778 55.8305 70.986 55.6331C71.1939 55.4358 71.2981 55.0424 71.2981 54.4532V45.9461C70.5077 45.9674 69.9017 46.0911 69.48 46.3179C68.7053 46.7399 68.2677 47.5277 68.1678 48.6825H67.7012L67.7174 45.4258Z" fill="#FF2661"/>
<path d="M107.494 46.1601C107.494 46.2765 102.118 46.371 95.4869 46.371C88.854 46.371 83.4785 46.2765 83.4785 46.1601C83.4785 46.0437 88.854 45.9492 95.4869 45.9492C102.118 45.9492 107.494 46.0437 107.494 46.1601Z" fill="#FF2661"/>
<path d="M93.2464 49.9882C93.2464 50.1049 91.1677 50.1991 88.604 50.1991C86.0394 50.1991 83.9609 50.1046 83.9609 49.9882C83.9609 49.8718 86.0394 49.7773 88.604 49.7773C91.1677 49.7773 93.2464 49.8718 93.2464 49.9882Z" fill="#455A64"/>
<path d="M81.5427 61.664C81.5427 61.7806 77.5947 61.8749 72.726 61.8749C67.8553 61.8749 63.9082 61.7804 63.9082 61.664C63.9082 61.5476 67.8553 61.4531 72.726 61.4531C77.5947 61.4531 81.5427 61.5474 81.5427 61.664Z" fill="#455A64"/>
<path d="M101.511 61.664C101.511 61.7806 97.5635 61.8749 92.6947 61.8749C87.8241 61.8749 83.877 61.7804 83.877 61.664C83.877 61.5476 87.8241 61.4531 92.6947 61.4531C97.5638 61.4531 101.511 61.5474 101.511 61.664Z" fill="#FF2661"/>
<path d="M81.5427 64.7812C81.5427 64.8978 77.5947 64.9921 72.726 64.9921C67.8553 64.9921 63.9082 64.8976 63.9082 64.7812C63.9082 64.6648 67.8553 64.5703 72.726 64.5703C77.5947 64.5703 81.5427 64.6648 81.5427 64.7812Z" fill="#455A64"/>
<path d="M81.5427 67.9023C81.5427 68.0189 77.5947 68.1131 72.726 68.1131C67.8553 68.1131 63.9082 68.0186 63.9082 67.9023C63.9082 67.7859 67.8553 67.6914 72.726 67.6914C77.5947 67.6914 81.5427 67.7856 81.5427 67.9023Z" fill="#FF2661"/>
<path d="M93.2464 56.3398C93.2464 56.4564 91.1677 56.5506 88.604 56.5506C86.0394 56.5506 83.9609 56.4561 83.9609 56.3398C83.9609 56.2234 86.0394 56.1289 88.604 56.1289C91.1677 56.1289 93.2464 56.2234 93.2464 56.3398Z" fill="#455A64"/>
<path d="M109.351 61.664C109.351 61.7806 107.965 61.8749 106.256 61.8749C104.546 61.8749 103.16 61.7804 103.16 61.664C103.16 61.5476 104.546 61.4531 106.256 61.4531C107.965 61.4531 109.351 61.5474 109.351 61.664Z" fill="#455A64"/>
<path d="M111.007 49.9882C111.007 50.1049 107.44 50.1991 103.041 50.1991C98.6405 50.1991 95.0742 50.1046 95.0742 49.9882C95.0742 49.8718 98.6402 49.7773 103.041 49.7773C107.44 49.7773 111.007 49.8718 111.007 49.9882Z" fill="#455A64"/>
<path d="M110.288 53.0273C110.288 53.1439 104.394 53.2381 97.1251 53.2381C89.8536 53.2381 83.9609 53.1436 83.9609 53.0273C83.9609 52.9109 89.8536 52.8164 97.1251 52.8164C104.394 52.8164 110.288 52.9109 110.288 53.0273Z" fill="#455A64"/>
<path d="M109.35 64.7812C109.35 64.8978 103.647 64.9921 96.614 64.9921C89.5785 64.9921 83.877 64.8976 83.877 64.7812C83.877 64.6648 89.5785 64.5703 96.614 64.5703C103.647 64.5703 109.35 64.6648 109.35 64.7812Z" fill="#455A64"/>
<path d="M109.35 73.8085C109.35 73.9249 103.999 74.0194 97.3994 74.0194C90.7975 74.0194 85.4473 73.9249 85.4473 73.8085C85.4473 73.6922 90.7973 73.5977 97.3994 73.5977C103.999 73.5974 109.35 73.6919 109.35 73.8085Z" fill="#FF2661"/>
<path d="M109.35 76.8437C109.35 76.9603 103.999 77.0546 97.3994 77.0546C90.7975 77.0546 85.4473 76.9601 85.4473 76.8437C85.4473 76.7273 90.7973 76.6328 97.3994 76.6328C103.999 76.6328 109.35 76.7273 109.35 76.8437Z" fill="#455A64"/>
<path d="M109.35 79.8788C109.35 79.9955 103.999 80.0897 97.3994 80.0897C90.7975 80.0897 85.4473 79.9952 85.4473 79.8788C85.4473 79.7625 90.7973 79.668 97.3994 79.668C103.999 79.668 109.35 79.7625 109.35 79.8788Z" fill="#455A64"/>
<path d="M109.35 82.914C109.35 83.0304 103.999 83.1249 97.3994 83.1249C90.7975 83.1249 85.4473 83.0304 85.4473 82.914C85.4473 82.7976 90.7973 82.7031 97.3994 82.7031C103.999 82.7031 109.35 82.7976 109.35 82.914Z" fill="#455A64"/>
<path d="M99.2077 85.9492C99.2077 86.0075 98.4376 86.0601 97.1926 86.0985C95.9475 86.1365 94.2274 86.1603 92.3279 86.1603C90.4275 86.1603 88.7074 86.1368 87.4624 86.0985C86.2173 86.0604 85.4473 86.0075 85.4473 85.9492C85.4473 85.8908 86.2173 85.8382 87.4624 85.8001C88.7074 85.762 90.4275 85.7383 92.3279 85.7383C94.2274 85.7383 95.9475 85.7618 97.1926 85.8001C98.4376 85.8382 99.2077 85.8908 99.2077 85.9492Z" fill="#455A64"/>
<path d="M105.02 68.0624C105.02 68.1788 100.411 68.2733 94.7262 68.2733C89.0397 68.2733 84.4316 68.1788 84.4316 68.0624C84.4316 67.9461 89.0397 67.8516 94.7262 67.8516C100.411 67.8516 105.02 67.9461 105.02 68.0624Z" fill="#455A64"/>
<path d="M81.1242 74.1518L82.3926 97.5765L59.4319 100.445L59.4141 73.9531L81.1242 74.1518Z" fill="#E0E0E0"/>
<path d="M51.3938 72.525L51.2344 97.375L82.3941 97.5739L82.5535 72.7239L51.3938 72.525Z" fill="#F5F5F5"/>
<path d="M52.4577 74.0952L52.3184 95.8164L81.2889 96.0014L81.4283 74.2801L52.4577 74.0952Z" fill="#FF2661"/>
<g opacity="0.2">
<path d="M52.3184 95.8194L62.5238 82.3828L68.7373 90.87L73.0176 86.3815L81.2884 96.0049L52.3184 95.8194Z" fill="black"/>
</g>
<g opacity="0.2">
<path d="M71.4625 80.7863C71.4544 82.0429 70.4267 83.0551 69.1667 83.047C67.907 83.0389 66.8923 82.0137 66.9004 80.7569C66.9086 79.5003 67.9363 78.488 69.1962 78.4961C70.4562 78.5042 71.4706 79.5294 71.4625 80.7863Z" fill="black"/>
</g>
<path d="M85.3952 103.442C85.3952 103.707 85.1795 103.922 84.9134 103.922C84.6474 103.922 84.4316 103.707 84.4316 103.442C84.4316 103.176 84.6474 102.961 84.9134 102.961C85.1798 102.961 85.3952 103.176 85.3952 103.442Z" fill="#263238"/>
<path d="M88.2546 103.442C88.2546 103.707 88.0389 103.922 87.7728 103.922C87.5067 103.922 87.291 103.707 87.291 103.442C87.291 103.176 87.5067 102.961 87.7728 102.961C88.0389 102.961 88.2546 103.176 88.2546 103.442Z" fill="#263238"/>
<path d="M91.114 103.442C91.114 103.707 90.8982 103.922 90.6322 103.922C90.3661 103.922 90.1504 103.707 90.1504 103.442C90.1504 103.176 90.3661 102.961 90.6322 102.961C90.8982 102.961 91.114 103.176 91.114 103.442Z" fill="#263238"/>
<path d="M101.646 92.2734C101.646 92.3897 97.6983 92.4842 92.8295 92.4842C87.9589 92.4842 84.0117 92.3897 84.0117 92.2734C84.0117 92.157 87.9589 92.0625 92.8295 92.0625C97.6983 92.0625 101.646 92.157 101.646 92.2734Z" fill="#FF2661"/>
<path d="M109.485 95.3906C109.485 95.5072 103.782 95.6014 96.7488 95.6014C89.7133 95.6014 84.0117 95.5069 84.0117 95.3906C84.0117 95.2742 89.7133 95.1797 96.7488 95.1797C103.782 95.1797 109.485 95.2739 109.485 95.3906Z" fill="#455A64"/>
<path d="M165.522 100.578L165.426 115.547L184.195 115.667L184.291 100.698L165.522 100.578Z" fill="#F5F5F5"/>
<path d="M166.162 101.525L166.078 114.609L183.529 114.721L183.613 101.637L166.162 101.525Z" fill="#FF2661"/>
<path opacity="0.2" d="M166.08 114.613L172.227 106.52L175.97 111.632L178.548 108.928L183.53 114.725L166.08 114.613Z" fill="black"/>
<g opacity="0.2">
<path d="M177.613 105.559C177.608 106.316 176.989 106.926 176.231 106.921C175.472 106.916 174.86 106.299 174.865 105.542C174.87 104.785 175.489 104.175 176.248 104.18C177.007 104.185 177.618 104.802 177.613 105.559Z" fill="black"/>
</g>
<path d="M162.77 99.0159L162.674 113.984L181.443 114.104L181.539 99.1357L162.77 99.0159Z" fill="#F5F5F5"/>
<path d="M163.41 99.9629L163.326 113.047L180.777 113.158L180.861 100.074L163.41 99.9629Z" fill="#FF2661"/>
<path opacity="0.2" d="M163.328 113.051L169.475 104.957L173.218 110.069L175.796 107.366L180.778 113.162L163.328 113.051Z" fill="black"/>
<g opacity="0.2">
<path d="M174.861 103.997C174.857 104.754 174.238 105.363 173.479 105.359C172.72 105.354 172.108 104.736 172.113 103.979C172.118 103.222 172.737 102.612 173.496 102.617C174.255 102.622 174.866 103.24 174.861 103.997Z" fill="black"/>
</g>
<path d="M160.319 97.7229L160.223 112.691L178.992 112.811L179.088 97.8427L160.319 97.7229Z" fill="#F5F5F5"/>
<path d="M160.959 98.67L160.875 111.754L178.326 111.865L178.41 98.7814L160.959 98.67Z" fill="#FF2661"/>
<path opacity="0.2" d="M160.877 111.758L167.024 103.664L170.767 108.776L173.345 106.073L178.327 111.869L160.877 111.758Z" fill="black"/>
<g opacity="0.2">
<path d="M172.41 102.704C172.405 103.461 171.786 104.07 171.027 104.066C170.268 104.061 169.657 103.443 169.662 102.686C169.667 101.929 170.286 101.319 171.045 101.324C171.804 101.329 172.415 101.947 172.41 102.704Z" fill="black"/>
</g>
<path d="M157.567 99.3322L157.471 114.301L176.24 114.421L176.336 99.4521L157.567 99.3322Z" fill="#F5F5F5"/>
<path d="M158.207 100.279L158.123 113.363L175.574 113.475L175.658 100.391L158.207 100.279Z" fill="#455A64"/>
<path opacity="0.2" d="M158.125 113.367L164.272 105.273L168.015 110.386L170.594 107.682L175.575 113.479L158.125 113.367Z" fill="black"/>
<g opacity="0.2">
<path d="M169.656 104.313C169.651 105.07 169.032 105.68 168.273 105.675C167.515 105.67 166.903 105.053 166.908 104.296C166.913 103.538 167.532 102.929 168.291 102.934C169.05 102.938 169.661 103.556 169.656 104.313Z" fill="black"/>
</g>
<path d="M187.174 104.902H176.338V119.355H187.174V104.902Z" fill="#263238"/>
<path d="M155.584 104.902V119.355H177.256V104.902H155.584ZM168.724 108.323H164.116C163.566 108.323 163.119 107.877 163.119 107.328C163.119 106.779 163.566 106.333 164.116 106.333H168.724C169.275 106.333 169.721 106.779 169.721 107.328C169.721 107.877 169.275 108.323 168.724 108.323Z" fill="#FF2661"/>
<path d="M141.532 117.842L121.379 116.611C121.252 116.324 121.168 116.156 121.168 116.156L115.706 116.265L113.929 116.156C113.929 116.156 113.901 116.21 113.858 116.302L95.5232 116.666C91.8678 116.666 88.0243 118.891 88.0246 121.733C87.9783 124.439 89.2919 127.376 92.5672 127.309L117.548 127.225L142.53 127.309C145.805 127.376 146.671 125.405 146.676 123.068C147.058 118.715 144.325 117.879 141.532 117.842Z" fill="#455A64"/>
<path d="M94.8594 127.312C94.8594 127.312 94.9 127.307 94.9796 127.305C95.0651 127.303 95.1823 127.301 95.3328 127.298C95.65 127.295 96.1071 127.291 96.6937 127.285C97.8833 127.28 99.5966 127.273 101.72 127.263C105.982 127.258 111.888 127.25 118.494 127.241L118.424 127.316C118.39 126.769 118.353 126.185 118.316 125.596C118.241 124.39 118.167 123.204 118.097 122.076L118.159 122.141C112.023 121.46 106.601 120.859 102.707 120.426C100.767 120.205 99.2084 120.027 98.1277 119.903C97.5958 119.84 97.1817 119.79 96.894 119.756C96.7581 119.738 96.6523 119.725 96.5746 119.715C96.5029 119.705 96.4663 119.698 96.4666 119.696C96.4669 119.694 96.5039 119.696 96.5762 119.702C96.6542 119.709 96.7605 119.718 96.8969 119.73C97.1852 119.759 97.6001 119.8 98.1334 119.853C99.2152 119.967 100.776 120.13 102.717 120.334C106.613 120.755 112.036 121.34 118.174 122.003L118.233 122.009L118.236 122.068C118.307 123.195 118.382 124.381 118.457 125.587C118.494 126.176 118.531 126.76 118.565 127.307L118.569 127.381H118.494C111.888 127.373 105.982 127.365 101.72 127.359C99.5969 127.35 97.8833 127.343 96.6937 127.337C96.1071 127.332 95.65 127.328 95.3328 127.325C95.1823 127.322 95.0651 127.32 94.9796 127.318C94.9 127.316 94.8594 127.312 94.8594 127.312Z" fill="#263238"/>
<path d="M100.01 120.161C99.9949 120.18 99.7443 119.978 99.3042 119.71C98.8652 119.442 98.224 119.124 97.4696 118.906C96.7139 118.691 96.0015 118.62 95.4864 118.615C94.9708 118.608 94.6514 118.646 94.6485 118.622C94.6471 118.613 94.7259 118.595 94.8699 118.571C95.0136 118.545 95.2244 118.525 95.4856 118.516C96.0075 118.495 96.7377 118.551 97.5086 118.771C98.2784 118.993 98.9266 119.333 99.3581 119.626C99.5743 119.773 99.7421 119.902 99.8501 120C99.9592 120.097 100.017 120.153 100.01 120.161Z" fill="#263238"/>
<path d="M139.969 119.091C139.978 119.129 136.003 120.088 131.092 121.232C126.179 122.377 122.191 123.275 122.182 123.237C122.173 123.199 126.147 122.241 131.06 121.095C135.971 119.951 139.96 119.053 139.969 119.091Z" fill="#263238"/>
<path d="M136.608 118.705C136.621 118.748 135.84 118.906 135.05 119.449C134.254 119.982 133.821 120.649 133.785 120.621C133.771 120.612 133.859 120.434 134.056 120.181C134.251 119.929 134.565 119.609 134.971 119.332C135.378 119.057 135.791 118.883 136.098 118.795C136.406 118.705 136.605 118.689 136.608 118.705Z" fill="#263238"/>
<path d="M129.105 95.8828L135.488 106.967C136.276 108.336 136.325 110.008 135.617 111.42C134.796 113.058 133.097 114.073 131.261 114.021L121.459 113.745L121.201 110.19L129.834 108.541L124.014 98.4918L129.105 95.8828Z" fill="#FFBE9D"/>
<path d="M105.315 114.851L114.329 117.233L114.525 114.537L106.218 109.724L112.285 98.4918L107.193 95.8828L100.81 106.967C99.2646 109.83 100.708 113.39 103.815 114.375L105.315 114.851Z" fill="#FFBE9D"/>
<path d="M126.396 102.999L132.556 99.7632C132.556 99.7632 131.531 97.5986 129.917 95.3727C128.008 92.7405 125.05 90.8999 121.69 90.1995L121.69 90.1992L114.604 90.2827C113.593 90.3912 112.767 90.5834 112.077 90.8629L112.082 90.8356C108.236 91.6815 103.969 100.048 103.969 100.048L109.575 102.992L109.699 103.872C109.862 105.03 110.369 106.118 111.16 107.006L109.527 117.717L127.722 118.092L125.405 110.422L126.396 102.999Z" fill="#FF2661"/>
<path d="M111.324 107.065C111.319 107.071 111.218 107.004 111.053 106.86C110.887 106.718 110.663 106.49 110.434 106.17C109.977 105.536 109.569 104.462 109.675 103.25C109.761 102.653 109.931 102.111 110.091 101.622C110.254 101.133 110.42 100.701 110.564 100.34C110.708 99.9788 110.833 99.6899 110.923 99.4923C111.014 99.2946 111.069 99.1877 111.078 99.1915C111.087 99.1953 111.049 99.3092 110.974 99.5131C110.889 99.7436 110.783 100.032 110.657 100.375C110.526 100.74 110.37 101.174 110.215 101.662C110.063 102.149 109.898 102.691 109.816 103.267C109.761 103.84 109.837 104.408 109.969 104.893C110.099 105.382 110.31 105.792 110.517 106.114C110.946 106.754 111.347 107.042 111.324 107.065Z" fill="#263238"/>
<path d="M108.597 120.302L107.57 108.355H129.733L128.264 120.451L108.597 120.302Z" fill="#263238"/>
<path d="M120.063 114.728C120.063 115.505 119.431 116.136 118.651 116.136C117.872 116.136 117.24 115.506 117.24 114.728C117.24 113.95 117.872 113.32 118.651 113.32C119.431 113.32 120.063 113.951 120.063 114.728Z" fill="#FAFAFA"/>
<path d="M118.264 122.637L122.026 123.161V127.241L118.566 127.152L118.264 122.637Z" fill="#FFBE9D"/>
<path d="M122.027 123.16H123.719C124.048 123.16 124.372 123.247 124.657 123.411L125.549 123.925C125.841 124.093 126.786 124.563 127.108 124.666C128.137 124.996 129.867 125.44 130.232 125.72C131.273 126.521 130.956 127.467 130.384 127.566C129.882 127.653 122.027 127.24 122.027 127.24V123.16Z" fill="#FF2661"/>
<path d="M124.806 126.904C124.77 126.912 124.64 126.441 124.624 125.843C124.604 125.245 124.705 124.767 124.742 124.773C124.782 124.779 124.745 125.254 124.765 125.839C124.781 126.423 124.846 126.896 124.806 126.904Z" fill="#263238"/>
<path d="M125.608 126.881C125.569 126.881 125.541 126.444 125.545 125.907C125.55 125.369 125.585 124.933 125.624 124.934C125.663 124.934 125.691 125.37 125.686 125.908C125.682 126.445 125.647 126.881 125.608 126.881Z" fill="#263238"/>
<path d="M126.557 127.043C126.518 127.046 126.452 126.599 126.408 126.045C126.365 125.49 126.361 125.038 126.4 125.035C126.439 125.032 126.505 125.479 126.549 126.034C126.592 126.588 126.596 127.04 126.557 127.043Z" fill="#263238"/>
<path d="M124.074 125.815C124.072 125.823 123.944 125.797 123.727 125.707C123.512 125.616 123.205 125.459 122.882 125.186C122.802 125.117 122.721 125.042 122.641 124.959C122.561 124.876 122.476 124.782 122.425 124.655C122.374 124.529 122.373 124.364 122.472 124.236C122.522 124.172 122.603 124.13 122.682 124.121C122.763 124.11 122.839 124.125 122.91 124.146C123.459 124.333 123.93 124.87 124.016 125.532C124.099 126.201 123.739 126.824 123.264 127.136C123.146 127.213 123.021 127.283 122.877 127.309C122.806 127.322 122.73 127.323 122.656 127.299C122.581 127.274 122.518 127.218 122.485 127.149C122.42 127.001 122.478 126.862 122.535 126.76C122.596 126.653 122.678 126.572 122.752 126.5C123.058 126.204 123.367 126.043 123.584 125.956C123.803 125.869 123.932 125.85 123.934 125.857C123.938 125.868 123.814 125.906 123.606 126.006C123.401 126.106 123.108 126.277 122.823 126.57C122.752 126.644 122.679 126.72 122.63 126.813C122.58 126.903 122.548 127.016 122.59 127.097C122.631 127.184 122.739 127.213 122.854 127.188C122.968 127.166 123.082 127.102 123.192 127.028C123.625 126.737 123.953 126.157 123.876 125.55C123.801 124.946 123.361 124.442 122.871 124.27C122.752 124.229 122.63 124.235 122.568 124.314C122.504 124.393 122.495 124.516 122.534 124.613C122.618 124.815 122.805 124.971 122.948 125.111C123.568 125.657 124.09 125.788 124.074 125.815Z" fill="#263238"/>
<path d="M130.384 127.566C130.372 127.553 130.496 127.499 130.59 127.31C130.686 127.122 130.667 126.789 130.479 126.458C130.295 126.127 129.912 125.84 129.434 125.673C128.956 125.501 128.385 125.418 127.809 125.239C126.654 124.895 125.677 124.391 125.014 123.969C124.682 123.757 124.426 123.568 124.253 123.433C124.081 123.296 123.99 123.215 123.996 123.208C124.003 123.2 124.104 123.266 124.285 123.389C124.468 123.51 124.731 123.685 125.067 123.884C125.737 124.281 126.709 124.765 127.85 125.104C128.417 125.281 128.982 125.366 129.48 125.551C129.975 125.732 130.38 126.046 130.567 126.411C130.757 126.768 130.761 127.135 130.639 127.335C130.583 127.435 130.513 127.493 130.465 127.527C130.414 127.558 130.386 127.569 130.384 127.566Z" fill="#263238"/>
<path d="M127.82 93.1306C127.822 93.1309 127.822 93.1504 127.82 93.1882C127.816 93.233 127.812 93.2881 127.807 93.3566C127.793 93.5143 127.773 93.7317 127.747 94.0092C127.689 94.5889 127.606 95.4184 127.501 96.4603L127.495 96.5235L127.438 96.4938C126.531 96.0175 125.423 95.4356 124.171 94.7779L124.248 94.7563C123.709 95.6627 123.11 96.6717 122.473 97.7433L122.435 97.8073L122.376 97.762C121.442 97.0475 120.434 96.2761 119.387 95.4759L119.473 95.4753C119.058 95.8001 118.617 96.1447 118.171 96.4932C117.569 96.9638 116.976 97.4269 116.397 97.8794L116.331 97.9302L116.292 97.8578C115.703 96.7705 115.136 95.7251 114.602 94.738L114.686 94.7666C113.383 95.3457 112.179 95.8809 111.101 96.3601L111.035 96.3893L111.023 96.3188C110.815 95.093 110.633 94.0262 110.482 93.1379L110.538 93.169C109.664 93.5014 108.97 93.7654 108.485 93.9498C108.253 94.0354 108.071 94.1026 107.939 94.1515C107.882 94.1715 107.835 94.1874 107.797 94.2007C107.765 94.2112 107.749 94.2155 107.748 94.2139C107.747 94.212 107.763 94.2042 107.793 94.1901C107.83 94.1742 107.875 94.1545 107.931 94.1305C108.062 94.0767 108.241 94.003 108.469 93.9091C108.951 93.716 109.64 93.4403 110.508 93.0928L110.554 93.0742L110.563 93.1236C110.723 94.0106 110.914 95.0755 111.134 96.2994L111.056 96.2583C112.132 95.7737 113.333 95.2323 114.633 94.6467L114.689 94.6219L114.718 94.6753C115.255 95.6611 115.824 96.7054 116.416 97.7911L116.311 97.7695C116.89 97.3167 117.483 96.8534 118.085 96.3823C118.531 96.0337 118.972 95.6894 119.387 95.3649L119.43 95.3314L119.473 95.3646C120.518 96.1671 121.524 96.9403 122.457 97.6569L122.36 97.6756C123.001 96.6069 123.605 95.6006 124.148 94.6966L124.177 94.6489L124.225 94.675C125.473 95.3433 126.576 95.9341 127.478 96.4179L127.415 96.4511C127.537 95.4111 127.634 94.583 127.702 94.0044C127.737 93.7276 127.764 93.5111 127.784 93.3542C127.793 93.2864 127.801 93.2316 127.808 93.1871C127.814 93.1495 127.818 93.1306 127.82 93.1306Z" fill="#F5F5F5"/>
<path d="M130.451 96.1393C130.453 96.1398 130.448 96.1665 130.436 96.2184C130.421 96.2767 130.403 96.3523 130.379 96.4476C130.324 96.6569 130.246 96.9522 130.147 97.331C129.938 98.1076 129.636 99.2235 129.26 100.616L129.246 100.669L129.196 100.645C128.11 100.126 126.816 99.5059 125.378 98.8171L125.453 98.7977C124.477 100.185 123.393 101.727 122.237 103.373L122.189 103.44L122.132 103.381C121.15 102.389 120.11 101.338 119.041 100.256C118.823 100.036 118.607 99.8172 118.392 99.6001L118.48 99.6104C117.03 100.517 115.633 101.391 114.314 102.216L114.255 102.253L114.22 102.192C113.416 100.775 112.662 99.4473 111.975 98.2364L112.045 98.2628C110.398 98.8285 108.951 99.3253 107.762 99.7335L107.722 99.7475L107.708 99.7073C107.302 98.5339 106.981 97.6035 106.758 96.9579C106.652 96.6444 106.57 96.4006 106.511 96.227C106.486 96.149 106.466 96.0866 106.451 96.038C106.438 95.9954 106.432 95.9735 106.434 95.9727C106.436 95.9719 106.445 95.9927 106.462 96.034C106.481 96.0818 106.504 96.1425 106.534 96.2192C106.597 96.3912 106.686 96.6326 106.801 96.9428C107.033 97.5851 107.367 98.5112 107.789 99.679L107.734 99.6528C108.919 99.2364 110.363 98.7291 112.006 98.1521L112.052 98.1359L112.077 98.1786C112.769 99.3874 113.527 100.712 114.337 102.127L114.243 102.103C115.56 101.277 116.956 100.4 118.404 99.4919L118.452 99.4619L118.492 99.5021C118.707 99.7192 118.923 99.9382 119.141 100.158C120.209 101.24 121.248 102.293 122.229 103.286L122.124 103.295C123.286 101.653 124.375 100.114 125.355 98.7294L125.384 98.6878L125.429 98.7099C126.863 99.4079 128.153 100.036 129.235 100.562L129.171 100.592C129.564 99.2038 129.879 98.0916 130.098 97.3175C130.208 96.9417 130.293 96.6482 130.353 96.4406C130.382 96.3466 130.405 96.2721 130.422 96.2146C130.439 96.1644 130.449 96.1387 130.451 96.1393Z" fill="#F5F5F5"/>
<path d="M127.72 77.3025C126.638 77.4226 125.512 77.0681 124.695 76.3499C125.681 76.8465 126.995 76.165 127.342 75.119C127.689 74.073 127.404 72.1266 126.543 71.4362C125.724 70.7796 124.588 70.5279 123.573 70.799C122.558 71.0701 121.483 72.6093 121.151 73.604L121.169 73.6343C121.013 73.5722 120.856 73.5141 120.697 73.4612C119.573 73.0845 118.372 72.9023 117.194 73.0384C116.016 73.1745 114.863 73.6415 113.992 74.4448L120.875 85.48C122.125 85.3701 123.232 84.529 123.887 83.4615C124.542 82.3936 124.794 81.1232 124.855 79.8729C124.871 79.5594 124.87 79.2422 124.857 78.9254C125.595 79.0437 126.333 79.162 127.071 79.2805C126.675 78.7502 126.171 78.3009 125.599 77.9683C126.346 78.2523 127.271 77.9621 127.72 77.3025Z" fill="#263238"/>
<path d="M119.02 94.4301C120.887 94.3902 122.386 92.8803 122.407 91.0179L122.567 77.2889C122.579 76.7216 122.153 76.2402 121.587 76.1805L115.774 74.715C113.912 74.5184 112.674 76.8053 112.557 78.6691C112.426 80.7398 112.348 83.2729 112.594 84.8181C113.088 87.9247 115.475 88.32 115.475 88.32C115.476 88.3119 115.477 89.5223 115.484 90.9944C115.494 92.9238 117.087 94.4717 119.02 94.4301Z" fill="#FFBE9D"/>
<path d="M113.764 80.6764C113.757 80.8867 113.929 81.0665 114.149 81.0784C114.369 81.09 114.553 80.9297 114.561 80.7193C114.568 80.509 114.396 80.3289 114.176 80.317C113.956 80.3051 113.771 80.4661 113.764 80.6764Z" fill="#263238"/>
<path d="M113.108 79.9852C113.157 80.0373 113.46 79.8137 113.89 79.8148C114.319 79.8097 114.634 80.0303 114.681 79.9779C114.704 79.9547 114.654 79.861 114.516 79.7611C114.381 79.6617 114.151 79.5651 113.883 79.5664C113.615 79.5678 113.39 79.6663 113.261 79.7668C113.128 79.868 113.084 79.962 113.108 79.9852Z" fill="#263238"/>
<path d="M117.854 80.6803C117.846 80.8906 118.019 81.0704 118.239 81.0823C118.459 81.0939 118.643 80.9336 118.651 80.7232C118.658 80.5129 118.485 80.3328 118.266 80.3209C118.046 80.3091 117.861 80.47 117.854 80.6803Z" fill="#263238"/>
<path d="M117.332 80.0675C117.382 80.1193 117.685 79.896 118.114 79.8971C118.544 79.892 118.859 80.1126 118.906 80.0602C118.929 80.037 118.879 79.9433 118.741 79.8434C118.606 79.744 118.375 79.6474 118.108 79.6484C117.84 79.6501 117.615 79.7483 117.485 79.8488C117.353 79.9503 117.308 80.0443 117.332 80.0675Z" fill="#263238"/>
<path d="M115.773 83.2478C115.775 83.2235 115.508 83.1774 115.075 83.1223C114.965 83.111 114.861 83.0894 114.843 83.0146C114.817 82.9355 114.863 82.8175 114.916 82.69C115.019 82.4252 115.127 82.1473 115.24 81.8565C115.691 80.6696 116.018 79.6936 115.969 79.676C115.921 79.6585 115.517 80.6059 115.066 81.7931C114.958 82.0858 114.854 82.3647 114.755 82.6317C114.714 82.7562 114.642 82.8974 114.698 83.0613C114.728 83.1431 114.809 83.2025 114.879 83.2214C114.949 83.2427 115.011 83.2441 115.065 83.2473C115.501 83.2703 115.771 83.2721 115.773 83.2478Z" fill="#263238"/>
<path d="M115.475 88.3209C115.475 88.3209 117.57 88.4556 119.646 87.2109C119.646 87.2109 118.634 89.345 115.517 89.0542L115.475 88.3209Z" fill="#EB996E"/>
<path d="M115.953 84.2798C116.108 84.0759 116.379 83.9639 116.647 83.9928C116.834 84.0128 117.022 84.1024 117.136 84.2539C117.249 84.4053 117.273 84.6205 117.17 84.765C117.054 84.9278 116.811 84.9653 116.606 84.907C116.401 84.849 116.225 84.7142 116.057 84.58C116.011 84.5428 115.963 84.5042 115.934 84.4534C115.905 84.4026 115.899 84.336 115.935 84.2938" fill="#EB996E"/>
<path d="M117.038 83.543C116.968 83.539 116.967 84.0044 116.568 84.3346C116.169 84.6659 115.672 84.6138 115.668 84.6789C115.662 84.7081 115.779 84.7694 115.989 84.775C116.195 84.782 116.496 84.7162 116.74 84.5139C116.983 84.3114 117.088 84.0412 117.104 83.8503C117.122 83.6556 117.07 83.5403 117.038 83.543Z" fill="#263238"/>
<path d="M117.139 79.3175C117.181 79.4341 117.61 79.3787 118.115 79.4395C118.62 79.49 119.027 79.6374 119.094 79.5326C119.123 79.4827 119.053 79.3731 118.888 79.2602C118.725 79.1474 118.465 79.0404 118.163 79.0067C117.86 78.9737 117.583 79.0215 117.399 79.0961C117.214 79.1706 117.121 79.2621 117.139 79.3175Z" fill="#263238"/>
<path d="M113.167 79.1941C113.243 79.2916 113.539 79.1903 113.895 79.1857C114.251 79.1684 114.553 79.2511 114.622 79.1493C114.652 79.0999 114.605 79.0024 114.473 78.9101C114.344 78.8183 114.126 78.7432 113.882 78.7505C113.637 78.7583 113.425 78.8466 113.301 78.9462C113.175 79.0464 113.134 79.1466 113.167 79.1941Z" fill="#263238"/>
<path d="M122.222 81.1484C122.458 80.9853 122.788 81.0458 123.037 81.1891C123.609 81.5194 123.893 82.2743 123.681 82.8988C123.469 83.5233 122.782 83.9494 122.127 83.864" fill="#FFBE9D"/>
<path d="M122.439 82.9398C122.448 82.9176 122.56 82.9662 122.71 82.8974C122.858 82.8388 122.993 82.6206 122.977 82.3665C122.969 82.109 122.802 81.9246 122.645 81.8684C122.489 81.8047 122.374 81.8357 122.368 81.8117C122.357 81.7963 122.474 81.714 122.679 81.7599C122.778 81.7831 122.894 81.8419 122.984 81.9494C123.073 82.0552 123.131 82.2021 123.138 82.3582C123.161 82.6714 122.964 82.9557 122.749 83.0046C122.537 83.0599 122.423 82.9522 122.439 82.9398Z" fill="#EB996E"/>
<path d="M123.292 83.5667C123.296 83.5618 123.346 83.5969 123.435 83.6671C123.539 83.7519 123.665 83.8548 123.816 83.9779C124.161 84.2698 124.618 84.6572 125.16 85.1165L125.205 85.1548L125.167 85.2007C124.666 85.8001 124.109 86.5507 123.482 87.3348C123.34 87.5117 123.199 87.6847 123.061 87.8467L122.946 87.982L122.938 87.8049C122.881 86.5399 122.838 85.4202 122.813 84.6164C122.803 84.2341 122.796 83.9169 122.79 83.6693C122.787 83.4468 122.79 83.3245 122.799 83.3242C122.808 83.3239 122.823 83.4452 122.841 83.6669C122.858 83.9139 122.88 84.2306 122.906 84.6121C122.956 85.4148 123.016 86.5337 123.078 87.7987L122.954 87.7568C123.088 87.5937 123.229 87.422 123.372 87.2473C123.997 86.4659 124.561 85.7189 125.076 85.1238L125.083 85.2077C124.554 84.7331 124.108 84.3324 123.772 84.0308C123.629 83.8977 123.51 83.7867 123.411 83.6949C123.33 83.6158 123.288 83.5715 123.292 83.5667Z" fill="#455A64"/>
<path d="M116.993 73.3555C116.231 73.3871 115.463 73.4195 114.723 73.6031C113.982 73.7867 113.263 74.1342 112.759 74.7057C112.255 75.2773 111.999 76.0952 112.217 76.8244C112.434 77.5537 113.185 78.125 113.941 78.024C114.515 77.9474 115.065 77.5235 115.62 77.6919C116.143 77.851 116.431 78.4882 116.969 78.5875C117.501 78.6855 117.974 78.2098 118.512 78.1631C119.106 78.1118 119.621 78.5978 119.886 79.1308C120.15 79.6638 120.25 80.2659 120.516 80.7983C120.685 81.1385 120.949 81.4647 121.318 81.5597C121.656 81.6469 122.025 81.5162 122.289 81.2873C122.553 81.0583 122.725 80.7421 122.857 80.4192C123.418 79.046 123.297 77.4144 122.539 76.1389C121.781 74.8634 120.404 73.9738 118.928 73.8053" fill="#263238"/>
<path d="M124.582 76.654C124.558 76.6611 124.485 76.4035 124.294 76.0233C124.105 75.6432 123.773 75.1496 123.292 74.7141C122.809 74.2805 122.283 74.0016 121.885 73.852C121.486 73.7005 121.222 73.6549 121.227 73.63C121.228 73.6206 121.295 73.6246 121.416 73.6403C121.537 73.6535 121.71 73.6927 121.918 73.7583C122.334 73.8871 122.887 74.1619 123.387 74.6099C123.884 75.0597 124.214 75.5808 124.384 75.9809C124.471 76.181 124.527 76.3484 124.553 76.4672C124.581 76.5855 124.592 76.6516 124.582 76.654Z" fill="#FF2661"/>
<path d="M126.964 72.1059C126.952 72.1307 126.691 71.9596 126.214 71.874C125.744 71.7841 125.047 71.8202 124.388 72.1483C123.727 72.4785 123.262 72.9858 122.976 73.3736C122.687 73.7648 122.552 74.0383 122.531 74.0275C122.523 74.0234 122.547 73.9508 122.605 73.8255C122.663 73.7 122.757 73.5231 122.894 73.3166C123.165 72.9067 123.634 72.3681 124.325 72.0225C125.017 71.6782 125.751 71.6577 126.234 71.7768C126.478 71.834 126.666 71.9139 126.787 71.9825C126.909 72.0503 126.969 72.0989 126.964 72.1059Z" fill="#455A64"/>
<path d="M123.97 75.7539C123.985 75.7537 124.011 75.9983 123.975 76.393C123.939 76.787 123.825 77.3294 123.585 77.8872C123.344 78.4445 123.026 78.8994 122.763 79.1956C122.501 79.4932 122.305 79.6425 122.294 79.6309C122.257 79.6009 122.99 78.9297 123.456 77.8316C123.936 76.7397 123.923 75.7477 123.97 75.7539Z" fill="#455A64"/>
<path d="M124.059 75.8204C124.068 75.8177 124.095 75.8806 124.135 75.9983C124.178 76.1152 124.221 76.2907 124.257 76.5105C124.331 76.949 124.339 77.5781 124.173 78.242C124.003 78.9054 123.696 79.4549 123.422 79.8059C123.286 79.9822 123.164 80.1161 123.071 80.1987C122.979 80.2832 122.926 80.3262 122.919 80.3191C122.901 80.3016 123.094 80.1072 123.341 79.7475C123.588 79.3895 123.871 78.8509 124.036 78.2075C124.197 77.5635 124.205 76.9555 124.158 76.5232C124.112 76.0901 124.035 75.8274 124.059 75.8204Z" fill="#455A64"/>
<path d="M132.25 76.5276C131.463 76.7752 131.122 77.8935 131.638 78.5361C132.153 79.1784 133.322 79.0918 133.736 78.3803C134.151 77.6689 133.648 76.6129 132.833 76.4844" fill="#EBEBEB"/>
<path d="M135.909 71.2216C135.007 71.5056 134.616 72.7886 135.207 73.5255C135.799 74.2626 137.139 74.1629 137.615 73.3467C138.09 72.5305 137.513 71.3193 136.578 71.1719" fill="#EBEBEB"/>
<path d="M143.725 47.8402C141.277 47.6339 138.8 48.1793 137.121 49.9689C135.442 51.7587 134.642 54.3329 135.01 56.7562C132.406 57.8356 130.986 61.1393 131.998 63.7654C133.01 66.3914 136.282 67.8961 138.941 66.9578C140.136 69.9786 143.005 72.2763 146.22 72.7866C149.435 73.2972 152.877 72.0017 154.953 69.5004C157.508 70.0763 160.374 70.0388 162.52 68.5417C164.666 67.0445 165.637 63.7502 164.002 61.7098C166.944 60.9952 168.44 57.3294 167.567 54.4366C166.695 51.5438 164.083 49.4678 161.293 48.2925C159.449 47.5154 157.15 47.1099 155.577 48.3443C154.318 46.4119 152.09 45.1437 149.782 45.0452C147.473 44.9477 145.145 46.022 143.725 47.8402Z" fill="#F5F5F5"/>
<path d="M143.725 47.8396C143.725 47.8396 143.773 47.7745 143.873 47.6509C143.97 47.5251 144.129 47.349 144.348 47.1279C144.79 46.6953 145.51 46.0895 146.609 45.6143C147.157 45.3794 147.797 45.1771 148.52 45.0751C149.242 44.979 150.049 44.9717 150.889 45.1474C151.728 45.3116 152.597 45.651 153.422 46.1699C154.241 46.6953 155.018 47.4084 155.617 48.3183L155.547 48.307C156.18 47.8164 157.005 47.5353 157.864 47.514C158.723 47.4827 159.608 47.6436 160.473 47.9292C161.34 48.2171 162.196 48.6129 163.03 49.0986C163.862 49.5857 164.674 50.1681 165.4 50.882C166.131 51.5869 166.767 52.4337 167.23 53.3935C167.452 53.8782 167.637 54.3858 167.752 54.9204C167.848 55.4558 167.906 56.0076 167.861 56.5622C167.79 57.6673 167.448 58.7876 166.803 59.7458C166.477 60.218 166.093 60.6687 165.614 61.0132C165.14 61.3612 164.598 61.6234 164.018 61.7751L164.055 61.6671C164.407 62.1142 164.657 62.6453 164.782 63.2088C164.908 63.7723 164.915 64.3636 164.824 64.9417C164.64 66.0994 164.062 67.204 163.207 68.0542C162.34 68.9053 161.185 69.4323 159.985 69.6961C158.778 69.9594 157.516 69.9648 156.276 69.8052C155.823 69.7501 155.376 69.6618 154.938 69.5687L155.008 69.5449C152.76 72.2333 149.083 73.4405 145.862 72.7865C144.249 72.4636 142.77 71.7044 141.57 70.6857C140.368 69.6664 139.437 68.3807 138.88 66.981L138.962 67.018C137.422 67.5485 135.739 67.2769 134.419 66.5441C133.085 65.8186 132.085 64.5707 131.76 63.1832C131.429 61.7964 131.699 60.3692 132.31 59.2215C132.924 58.0672 133.893 57.173 134.992 56.7107L134.962 56.7628C134.796 55.6386 134.886 54.544 135.131 53.5563C135.387 52.5697 135.796 51.6868 136.299 50.9446C136.545 50.5698 136.827 50.2394 137.107 49.9318C137.4 49.6362 137.696 49.3638 138.013 49.1459C138.634 48.6931 139.284 48.4077 139.879 48.2103C141.08 47.8231 142.07 47.7899 142.724 47.7859C143.382 47.7926 143.725 47.8396 143.725 47.8396C143.725 47.8396 143.638 47.8388 143.47 47.8302C143.303 47.8191 143.052 47.8129 142.724 47.8137C142.071 47.8266 141.086 47.8688 139.896 48.2613C139.306 48.4611 138.663 48.7479 138.051 49.1993C137.738 49.4167 137.447 49.6875 137.158 49.9812C136.882 50.2872 136.605 50.6157 136.362 50.9881C135.867 51.7252 135.465 52.6011 135.215 53.5782C134.976 54.5564 134.891 55.6391 135.058 56.7488L135.063 56.7861L135.028 56.8009C133.953 57.2567 133.004 58.1363 132.404 59.2717C131.805 60.4005 131.545 61.8029 131.872 63.1564C132.191 64.5094 133.169 65.7279 134.478 66.4372C135.773 67.1538 137.421 67.4149 138.918 66.8967L138.977 66.8765L139 66.934C139.55 68.3124 140.469 69.5797 141.656 70.5841C142.841 71.588 144.301 72.3356 145.888 72.6523C149.059 73.2955 152.688 72.1023 154.898 69.4558L154.926 69.4231L154.968 69.432C155.403 69.5244 155.845 69.6119 156.293 69.6664C157.522 69.8244 158.768 69.8184 159.954 69.5598C161.133 69.3019 162.268 68.7816 163.109 67.9554C163.942 67.1281 164.508 66.0476 164.688 64.9203C164.874 63.7985 164.638 62.6148 163.948 61.7522L163.884 61.6709L163.986 61.6442C164.547 61.4973 165.073 61.244 165.534 60.9065C165.999 60.5723 166.373 60.1332 166.693 59.6724C167.325 58.7371 167.661 57.6379 167.732 56.5544C167.777 56.0106 167.72 55.4698 167.627 54.9457C167.516 54.4241 167.335 53.9232 167.117 53.4467C166.662 52.5017 166.038 51.6655 165.316 50.9673C164.6 50.2604 163.796 49.6818 162.972 49.1969C162.146 48.7136 161.295 48.3183 160.44 48.0318C159.584 47.7473 158.71 47.5872 157.868 47.6155C157.025 47.6347 156.223 47.9068 155.606 48.3815L155.565 48.4131L155.537 48.3699C154.949 47.4708 154.184 46.7637 153.376 46.2415C152.562 45.7255 151.704 45.3864 150.874 45.2203C150.044 45.0429 149.245 45.0465 148.529 45.1377C147.812 45.2352 147.176 45.432 146.63 45.6618C145.535 46.1262 144.813 46.7221 144.367 47.1471C144.145 47.3641 143.984 47.5367 143.883 47.6595C143.78 47.7802 143.725 47.8396 143.725 47.8396Z" fill="#263238"/>
<path d="M160.461 56.2577C160.461 56.3744 155.662 56.4686 149.742 56.4686C143.82 56.4686 139.021 56.3741 139.021 56.2577C139.021 56.1414 143.82 56.0469 149.742 56.0469C155.662 56.0469 160.461 56.1414 160.461 56.2577Z" fill="#455A64"/>
<path d="M160.461 58.5781C160.461 58.6947 155.662 58.7889 149.742 58.7889C143.82 58.7889 139.021 58.6944 139.021 58.5781C139.021 58.4617 143.82 58.3672 149.742 58.3672C155.662 58.3672 160.461 58.4614 160.461 58.5781Z" fill="#455A64"/>
<path d="M160.461 60.8984C160.461 61.015 155.662 61.1092 149.742 61.1092C143.82 61.1092 139.021 61.0147 139.021 60.8984C139.021 60.782 143.82 60.6875 149.742 60.6875C155.662 60.6875 160.461 60.782 160.461 60.8984Z" fill="#455A64"/>
<path d="M160.461 63.2187C160.461 63.3351 155.662 63.4296 149.742 63.4296C143.82 63.4296 139.021 63.3351 139.021 63.2187C139.021 63.1023 143.82 63.0078 149.742 63.0078C155.662 63.0078 160.461 63.1023 160.461 63.2187Z" fill="#455A64"/>
</svg>
