<svg width="146" height="135" viewBox="0 0 146 135" fill="none" xmlns="http://www.w3.org/2000/svg">
<g clip-path="url(#clip0_2595_9116)">
<path d="M82.3282 129.389C46.6605 139.402 19.6238 124.779 15.6772 102.629C11.7306 80.4796 30.8088 68.4969 29.6393 36.7381C28.4697 4.9794 77.154 -25.7978 113.789 31.1881C150.425 88.174 115.383 120.111 82.3282 129.389Z" fill="#F2F5F4"/>
<path d="M93.7144 97.2891H77.8047C81.1435 102.317 80.2671 116.897 80.2671 116.897H96.1768C96.1768 116.897 97.1616 100.755 93.7144 97.2891Z" fill="white"/>
<path d="M90.5991 96.7617H74.6895C78.0282 101.79 77.1518 116.37 77.1518 116.37H93.0615C93.0615 116.37 94.0467 100.228 90.5991 96.7617Z" fill="#E3E9E7"/>
<path d="M89.4722 97.4688H73.5625C76.9013 102.497 76.0249 117.077 76.0249 117.077H91.9346C91.9346 117.077 92.9194 100.935 89.4722 97.4688Z" fill="#F2F5F4"/>
<path d="M87.2222 96.2891H71.3125C74.6513 101.317 73.7749 115.897 73.7749 115.897H89.6846C89.6846 115.897 90.6694 99.7553 87.2222 96.2891Z" fill="white"/>
<path d="M85.4898 95.9102H69.5801C72.9188 100.938 72.0425 115.519 72.0425 115.519H87.9522C87.9522 115.519 88.937 99.3767 85.4898 95.9102Z" fill="#E3E9E7"/>
<path d="M80.6323 96.918H64.7227C68.0614 101.946 67.185 116.526 67.185 116.526H83.0947C83.0947 116.526 84.0799 100.384 80.6323 96.918Z" fill="white"/>
<path d="M77.5171 96.3906H61.6074C64.9462 101.419 64.0698 115.999 64.0698 115.999H79.9795C79.9795 115.999 80.9643 99.8569 77.5171 96.3906Z" fill="#E3E9E7"/>
<path d="M76.3902 97.0977H60.4805C63.8192 102.126 62.9429 116.706 62.9429 116.706H78.8526C78.8526 116.706 79.8377 100.564 76.3902 97.0977Z" fill="#F2F5F4"/>
<path d="M74.1402 95.918H58.2305C61.5692 100.946 60.6929 115.526 60.6929 115.526H76.6025C76.6025 115.526 77.5874 99.3842 74.1402 95.918Z" fill="white"/>
<path d="M72.4077 95.5391H56.498C59.8368 100.567 58.9604 115.147 58.9604 115.147H74.8701C74.8701 115.147 75.8553 99.0053 72.4077 95.5391Z" fill="#E3E9E7"/>
<path d="M73.6559 116.683H57.7442C57.7442 116.683 58.3094 107.261 56.7988 100.954L61.3678 97.0742H71.1921C74.6411 100.54 73.6559 116.683 73.6559 116.683Z" fill="white"/>
<path d="M86.4977 100.281V134.235H68.4629V110.545C73.6843 110.545 77.9175 106.289 77.9175 101.038V100.281H86.4977Z" fill="#B22900"/>
<path d="M96.1872 100.281H86.498V134.235H96.1872V100.281Z" fill="#C43F00"/>
<path d="M95.6122 100.809H87.0723V133.709H95.6122V100.809Z" stroke="#B22900" stroke-miterlimit="10"/>
<path d="M94.6812 107.691C95.1145 105.836 93.9699 103.978 92.1248 103.543C90.2797 103.107 88.4326 104.258 87.9994 106.113C87.5661 107.969 88.7106 109.826 90.5558 110.262C92.4009 110.697 94.2479 109.546 94.6812 107.691Z" fill="white"/>
<path d="M93.988 107.517C94.3311 106.049 93.4258 104.58 91.9659 104.235C90.506 103.89 89.0444 104.8 88.7013 106.268C88.3582 107.736 89.2635 109.205 90.7234 109.55C92.1833 109.895 93.6449 108.985 93.988 107.517Z" fill="#311116"/>
<path d="M94.0572 113.074H88.627V129.383H94.0572V113.074Z" fill="white"/>
<path d="M93.1856 114.027H89.5V115.723H93.1856V114.027Z" fill="#A0A6A7"/>
<path d="M89.7969 116.676V128.193" stroke="#E3E9E7" stroke-width="2" stroke-miterlimit="10"/>
<path d="M90.8262 116.676V128.193" stroke="#E3E9E7" stroke-width="2" stroke-miterlimit="10"/>
<path d="M91.8574 116.676V128.193" stroke="#E3E9E7" stroke-width="2" stroke-miterlimit="10"/>
<path d="M92.8867 116.676V128.193" stroke="#E3E9E7" stroke-width="2" stroke-miterlimit="10"/>
<path d="M74.7656 100.281V134.235H56.7305V110.545C61.9519 110.545 66.185 106.289 66.185 101.038V100.281H74.7656Z" fill="#FF2661"/>
<path d="M84.4548 100.281H74.7656V134.235H84.4548V100.281Z" fill="#FF4C7D"/>
<path d="M83.8798 100.809H75.3398V133.709H83.8798V100.809Z" stroke="#FF2661" stroke-miterlimit="10"/>
<path d="M83.0008 107.449C83.3033 105.567 82.0318 103.796 80.1608 103.491C78.2899 103.187 76.528 104.466 76.2255 106.347C75.923 108.229 77.1944 110 79.0654 110.305C80.9363 110.609 82.6983 109.33 83.0008 107.449Z" fill="white"/>
<path d="M80.6609 109.423C82.045 108.842 82.6991 107.244 82.122 105.852C81.5448 104.46 79.9548 103.802 78.5706 104.383C77.1865 104.963 76.5324 106.562 77.1096 107.954C77.6868 109.345 79.2767 110.003 80.6609 109.423Z" fill="#311116"/>
<path d="M82.3267 113.078H76.8965V129.387H82.3267V113.078Z" fill="white"/>
<path d="M81.4551 114.031H77.7695V115.727H81.4551V114.031Z" fill="#A0A6A7"/>
<path d="M78.0664 116.68V128.197" stroke="#E3E9E7" stroke-width="2" stroke-miterlimit="10"/>
<path d="M79.0957 116.68V128.197" stroke="#E3E9E7" stroke-width="2" stroke-miterlimit="10"/>
<path d="M80.127 116.68V128.197" stroke="#E3E9E7" stroke-width="2" stroke-miterlimit="10"/>
<path d="M81.1543 116.68V128.197" stroke="#E3E9E7" stroke-width="2" stroke-miterlimit="10"/>
<path d="M77.3188 17.6035C79.5212 15.389 79.5212 11.7985 77.3188 9.58397C75.1164 7.36942 71.5456 7.36942 69.3433 9.58396C67.1409 11.7985 67.1409 15.389 69.3433 17.6035C71.5456 19.8181 75.1164 19.8181 77.3188 17.6035Z" fill="#C43F00"/>
<path d="M73.3301 10.9883V16.1995" stroke="white" stroke-width="2" stroke-miterlimit="10"/>
<path d="M70.7402 13.5938H75.9228" stroke="white" stroke-width="2" stroke-miterlimit="10"/>
<path d="M133.522 44.0532L129.021 48.5788C128.247 49.3577 126.922 48.806 126.922 47.7046V38.6531C126.922 37.5514 128.246 36.9997 129.021 37.7788L133.522 42.3045C134.002 42.7874 134.002 43.5703 133.522 44.0532Z" fill="#D7E0DD"/>
<path d="M12.5555 42.3043L17.0563 37.7786C17.8309 36.9998 19.1556 37.5515 19.1556 38.6529V47.7044C19.1556 48.8061 17.8312 49.3575 17.0563 48.5786L12.5555 44.053C12.0753 43.5701 12.0753 42.7872 12.5555 42.3043Z" fill="#D7E0DD"/>
<path d="M85.5219 32.4531H60.5541C58.8297 32.4531 57.4316 33.8589 57.4316 35.5928V82.5512C57.4316 84.285 58.8294 85.6908 60.5541 85.6908H85.5219C87.2462 85.6908 88.6443 84.2853 88.6443 82.5512V35.5925C88.6443 33.8586 87.2462 32.4531 85.5219 32.4531Z" fill="white"/>
<path d="M62.3953 83.3248C62.2025 83.3248 62.0424 83.3029 61.9151 83.2592C61.7878 83.2155 61.6909 83.1484 61.6245 83.0577C61.5581 82.9656 61.5155 82.8591 61.4966 82.7381C61.4871 82.6746 61.4824 82.6046 61.4824 82.5282C61.4824 82.4567 61.4865 82.3795 61.4943 82.2969L61.5013 82.2255H62.324C62.3112 82.3112 62.3052 82.3844 62.3052 82.4448C62.3052 82.4876 62.3083 82.525 62.3147 82.5567C62.3307 82.6267 62.3835 82.6623 62.4736 82.6641C62.5685 82.6641 62.6302 82.6218 62.6587 82.5378C62.6871 82.4535 62.7187 82.25 62.7535 81.9275C62.7549 81.9114 62.7567 81.8998 62.7581 81.8916L62.7889 81.6009C62.7445 81.6644 62.6798 81.7137 62.5943 81.7487C62.509 81.7837 62.4148 81.8027 62.3121 81.8059C62.2993 81.8059 62.2869 81.8059 62.2741 81.8059C62.1683 81.8044 62.0743 81.786 61.992 81.7511C61.9003 81.7096 61.8264 81.6522 61.7704 81.5781C61.7141 81.5044 61.6689 81.4163 61.6341 81.3145C61.5993 81.2128 61.5804 81.1031 61.5773 80.9856C61.5758 80.957 61.5749 80.9276 61.5749 80.8975C61.5749 80.8069 61.579 80.7132 61.5868 80.6161C61.6326 80.1694 61.7533 79.8303 61.9485 79.5982C62.1436 79.3661 62.4357 79.25 62.8245 79.25C63.2088 79.2515 63.4797 79.3605 63.638 79.5766C63.7612 79.7466 63.823 79.9723 63.823 80.2537C63.823 80.3301 63.8184 80.4103 63.8088 80.4946L63.6522 82.0012C63.6348 82.1648 63.6099 82.3103 63.5777 82.4375C63.5452 82.5646 63.4973 82.6853 63.4341 82.7999C63.3709 82.9142 63.2943 83.009 63.2042 83.0837C63.114 83.1583 63.0009 83.2172 62.8651 83.2601C62.7288 83.3032 62.5725 83.3248 62.3953 83.3248ZM62.6395 81.1314C62.7248 81.1314 62.7953 81.0862 62.8506 80.9955L62.9194 80.3423C62.9272 80.2406 62.9313 80.1636 62.9313 80.1111C62.9313 80.049 62.9179 79.9974 62.891 79.9563C62.8625 79.9134 62.8182 79.8918 62.7581 79.8918C62.728 79.8918 62.7016 79.8971 62.6787 79.9073C62.6558 79.9175 62.6357 79.9361 62.6183 79.9632C62.6009 79.9904 62.5864 80.0184 62.5746 80.0478C62.5627 80.0773 62.5516 80.1204 62.5415 80.1779C62.5311 80.235 62.5229 80.2893 62.5166 80.34C62.5102 80.3907 62.5023 80.4598 62.4928 80.5473C62.4786 80.692 62.4713 80.8039 62.4713 80.8835C62.4713 80.9311 62.4736 80.9678 62.4786 80.9932C62.4974 81.085 62.5511 81.1314 62.6395 81.1314Z" fill="#E3E9E7"/>
<path d="M64.9106 83.3447C64.7398 83.3447 64.5921 83.3246 64.4672 83.2841C64.3422 83.2435 64.2424 83.1855 64.1673 83.11C64.0922 83.0344 64.0333 82.9432 63.9907 82.8359C63.9481 82.7286 63.9234 82.609 63.9173 82.4772C63.9156 82.4407 63.9156 82.4025 63.9173 82.3629C63.9173 82.2629 63.922 82.1579 63.9315 82.0482L63.9481 81.9077H64.8302C64.8302 81.9092 64.8273 81.9348 64.8218 81.9841C64.8163 82.0334 64.8134 82.0588 64.8134 82.0605C64.8038 82.148 64.7992 82.2241 64.7992 82.2894C64.7992 82.3737 64.807 82.4381 64.823 82.4824C64.85 82.5588 64.91 82.597 65.0034 82.597C65.0904 82.597 65.1524 82.5618 65.1895 82.4909C65.2267 82.4203 65.2548 82.2967 65.2737 82.1203C65.2815 82.052 65.2855 81.9899 65.2855 81.9342C65.2855 81.8228 65.2705 81.7371 65.2406 81.6768C65.1962 81.5878 65.0967 81.5432 64.9419 81.5432H64.7783L64.8401 80.9711H64.9871C65.1484 80.9711 65.2606 80.9271 65.3238 80.8387C65.387 80.7503 65.4297 80.6031 65.4517 80.3963C65.4581 80.3406 65.4613 80.2908 65.4613 80.2462C65.4613 80.1668 65.4517 80.1039 65.4329 80.0578C65.4044 79.9863 65.3453 79.9505 65.2551 79.9505C65.1698 79.9505 65.1081 79.9881 65.0701 80.0636C65.0321 80.1391 65.0045 80.2517 64.9871 80.401C64.9712 80.5567 64.9633 80.6355 64.9633 80.6372H64.0812L64.1073 80.3701C64.1453 80.0094 64.272 79.7312 64.4877 79.5355C64.7035 79.3399 64.9822 79.2422 65.3235 79.2422C65.6759 79.2422 65.9409 79.3343 66.1178 79.5186C66.2649 79.6711 66.3382 79.8834 66.3382 80.1552C66.3382 80.2109 66.3351 80.2689 66.3287 80.3293C66.3049 80.5518 66.2402 80.7436 66.1341 80.9052C66.0282 81.0664 65.9087 81.1638 65.7759 81.1974C65.9151 81.2531 66.0178 81.3493 66.0842 81.4858C66.1315 81.5843 66.1552 81.7155 66.1552 81.8791C66.1552 81.9444 66.1512 82.015 66.1434 82.0914C66.1245 82.2789 66.0868 82.4472 66.0308 82.5956C65.9749 82.7443 65.8986 82.8758 65.802 82.9901C65.7055 83.1047 65.5819 83.1925 65.4308 83.2537C65.28 83.3141 65.1066 83.3447 64.9106 83.3447Z" fill="#E3E9E7"/>
<path d="M67.3799 81.5927C67.0354 81.5927 66.7981 81.5061 66.6685 81.3329C66.5705 81.2008 66.5215 81.0095 66.5215 80.7582C66.5215 80.6818 66.5261 80.5992 66.5357 80.5103L66.5499 80.3648C66.5911 79.9834 66.6911 79.7119 66.8498 79.5506C67.0087 79.3894 67.2645 79.3086 67.6168 79.3086C67.9677 79.3072 68.2081 79.3874 68.3378 79.5495C68.4358 79.6734 68.4857 79.8609 68.4871 80.1123C68.4871 80.1887 68.4825 80.2712 68.4729 80.3601L68.4564 80.5103C68.4184 80.8853 68.316 81.1597 68.1493 81.3329C67.9828 81.5061 67.7261 81.5927 67.3799 81.5927ZM67.4344 81.0565C67.4849 81.0565 67.5278 81.0477 67.5623 81.0302C67.5971 81.0127 67.6252 80.9911 67.6464 80.9658C67.6679 80.9404 67.6858 80.8999 67.7009 80.8442C67.716 80.7885 67.727 80.7354 67.7343 80.6844C67.7415 80.6336 67.7496 80.5619 67.7592 80.4698L67.7688 80.3983C67.7862 80.2616 67.7949 80.1537 67.7949 80.0741C67.7949 79.9945 67.7775 79.9373 67.7427 79.9023C67.7079 79.8673 67.6478 79.8498 67.5626 79.8498C67.5104 79.8498 67.4675 79.8571 67.4332 79.8714C67.3993 79.8857 67.3715 79.9035 67.3503 79.9251C67.3291 79.9466 67.3112 79.9834 67.2969 80.0359C67.2827 80.0884 67.2726 80.1376 67.2662 80.1837C67.2598 80.2298 67.252 80.2998 67.2424 80.3937L67.2329 80.4701C67.2169 80.6083 67.2091 80.7188 67.2091 80.8013C67.2091 80.8856 67.2265 80.9492 67.2613 80.992C67.2961 81.0349 67.3538 81.0565 67.4344 81.0565ZM67.6858 83.2642L69.3362 79.3109H69.775L68.1246 83.2642H67.6858ZM69.8484 83.2665C69.5053 83.268 69.2689 83.1814 69.1393 83.0067C69.0413 82.8731 68.9914 82.681 68.99 82.4296C68.99 82.3532 68.9946 82.2707 69.0042 82.1817L69.0184 82.0386C69.0596 81.6572 69.1593 81.3857 69.3182 81.2244C69.4772 81.0632 69.7329 80.9824 70.0853 80.9824C70.4376 80.9809 70.6789 81.0611 70.8086 81.2233C70.9066 81.3472 70.9556 81.5347 70.9556 81.786C70.9556 81.8624 70.9509 81.945 70.9414 82.0339L70.9248 82.1841C70.8869 82.5591 70.7845 82.8335 70.6177 83.0067C70.451 83.1799 70.1946 83.2665 69.8484 83.2665ZM69.9029 82.7303C69.9441 82.7303 69.98 82.7256 70.0108 82.716C70.0415 82.7063 70.0682 82.6894 70.0902 82.6646C70.1123 82.6399 70.1305 82.6139 70.1447 82.5859C70.159 82.5579 70.1711 82.5188 70.1816 82.4678C70.1917 82.4171 70.2001 82.3693 70.2065 82.3249C70.2129 82.2803 70.2199 82.22 70.228 82.1438L70.2375 82.0724C70.2532 81.9324 70.2613 81.8245 70.2613 81.7481C70.2628 81.6685 70.2462 81.6114 70.2114 81.5764C70.1766 81.5414 70.1166 81.5239 70.0314 81.5239C69.9983 81.5239 69.969 81.5259 69.9438 81.5297C69.9185 81.5338 69.8959 81.542 69.8762 81.5548C69.8565 81.5676 69.84 81.5796 69.8263 81.5907C69.813 81.6018 69.8002 81.6213 69.7883 81.649C69.7764 81.6767 69.7675 81.7012 69.7611 81.7216C69.7547 81.7423 69.7483 81.7744 69.7422 81.8181C69.7358 81.8619 69.7309 81.8992 69.7269 81.9301C69.7228 81.961 69.7179 82.0068 69.7115 82.0672L69.7019 82.1436C69.686 82.2818 69.6781 82.3923 69.6781 82.4751C69.6781 82.5594 69.6955 82.6229 69.7303 82.6658C69.7646 82.7087 69.8223 82.7303 69.9029 82.7303Z" fill="#E3E9E7"/>
<path d="M62.8379 64.7539H83.2382" stroke="#E3E9E7" stroke-width="5" stroke-miterlimit="10" stroke-linecap="round" stroke-linejoin="round"/>
<path d="M62.8379 68.1406H83.2382" stroke="#E3E9E7" stroke-width="5" stroke-miterlimit="10" stroke-linecap="round" stroke-linejoin="round"/>
<path d="M62.8379 71.5234H83.2382" stroke="#E3E9E7" stroke-width="5" stroke-miterlimit="10" stroke-linecap="round" stroke-linejoin="round"/>
<path d="M68.0664 74.8516H78.0122" stroke="#E3E9E7" stroke-width="5" stroke-miterlimit="10" stroke-linecap="round" stroke-linejoin="round"/>
<path d="M62.8379 35.4141H83.2382" stroke="#E3E9E7" stroke-width="5" stroke-miterlimit="10" stroke-linecap="round" stroke-linejoin="round"/>
<path d="M84.48 79.082H81.0527V83.2461L82.7663 82.341L84.48 83.2461V79.082Z" fill="#FF4C7D"/>
<path d="M85.7515 77.3477H60.3223" stroke="#F2F5F4" stroke-miterlimit="10"/>
<path d="M84.7619 50.0094C85.3289 44.208 81.1114 39.0429 75.3418 38.4727C69.5722 37.9026 64.4354 42.1434 63.8684 47.9448C63.3014 53.7462 67.519 58.9114 73.2885 59.4815C79.0581 60.0516 84.1949 55.8108 84.7619 50.0094Z" fill="#E3E9E7"/>
<mask id="mask0_2595_9116" style="mask-type:luminance" maskUnits="userSpaceOnUse" x="63" y="38" width="22" height="22">
<path d="M84.762 50.0094C85.329 44.2079 81.1115 39.0427 75.3419 38.4726C69.5722 37.9025 64.4354 42.1433 63.8684 47.9448C63.3014 53.7462 67.519 58.9114 73.2886 59.4815C79.0582 60.0516 84.1951 55.8108 84.762 50.0094Z" fill="white"/>
</mask>
<g mask="url(#mask0_2595_9116)">
<path d="M74.5273 55.1475C74.8318 51.5399 75.1363 47.9322 75.4405 44.3242L77.6414 44.6738C77.5515 45.6638 77.6675 46.6719 77.9792 47.6152C78.2156 48.3293 78.5607 49.0012 78.8733 49.6853C79.1859 50.3694 79.4695 51.0771 79.5707 51.823C79.6719 52.5689 79.5768 53.3632 79.1769 53.9995C78.7767 54.6358 78.039 55.0808 77.2939 55.0076" fill="black"/>
</g>
<mask id="mask1_2595_9116" style="mask-type:luminance" maskUnits="userSpaceOnUse" x="63" y="38" width="22" height="22">
<path d="M84.762 50.0094C85.329 44.2079 81.1115 39.0427 75.3419 38.4726C69.5722 37.9025 64.4354 42.1433 63.8684 47.9448C63.3014 53.7462 67.519 58.9114 73.2886 59.4815C79.0582 60.0516 84.1951 55.8108 84.762 50.0094Z" fill="white"/>
</mask>
<g mask="url(#mask1_2595_9116)">
<path d="M78.6052 51.3906C81.5397 52.8565 82.4831 60.3308 82.4831 60.3308L76.9551 61.1636L78.6052 51.3906Z" fill="#FF4C7D"/>
<path d="M78.6049 51.3947L78.4799 53.4554L78.2349 57.4819L78.1995 58.0662L78.0864 59.9179L77.9446 62.2454H70.2538L70.2471 62.1757L69.3821 52.0368L69.3281 51.3947L71.5736 50.7917L76.182 50.4141L77.6021 50.8631C77.6021 50.8649 77.6021 50.8649 77.6021 50.8649L78.6049 51.3947Z" fill="#FF4C7D"/>
<path d="M67.3794 53.5244C67.201 55.1425 66.9322 60.4108 67.3034 64.6697L70.5824 63.3741C73.0413 52.8255 70.5302 51.0703 70.5302 51.0703C70.5302 51.0703 67.6296 51.2534 67.3794 53.5244Z" fill="#FF4C7D"/>
<path d="M70.5312 51.0716L76.1828 50.4141L77.6032 50.8625C77.6032 50.864 77.6032 50.864 77.6032 50.864C77.7552 55.0849 72.242 54.388 70.5312 51.0716Z" fill="#A87259"/>
<path d="M75.0065 51.8118L73.3558 51.8086C72.7515 51.8074 72.2625 51.314 72.2637 50.7063L72.2709 47.418L76.1862 47.4253L76.1793 50.6364C76.1778 51.2866 75.6529 51.813 75.0065 51.8118Z" fill="#A87259"/>
<path d="M75.0682 41.0422C76.9631 40.8445 78.659 42.2288 78.8556 44.1344L78.9731 45.2716C79.1549 47.0326 77.8824 48.6084 76.1311 48.7912L72.9794 49.1201C72.6815 49.1513 72.4147 48.9335 72.384 48.634L71.9934 44.8505C71.7964 42.9449 73.1731 41.2399 75.0682 41.0422Z" fill="#A87259"/>
<path d="M72.3264 46.0082C72.3264 46.0082 76.4157 45.3238 76.4851 40.9308C75.4866 40.7393 74.3022 40.897 74.3022 40.897C74.3022 40.897 71.2416 43.7317 72.3264 46.0082Z" fill="black"/>
<path d="M74.3022 40.8945C71.3941 40.9042 69.5947 41.5258 69.668 46.9251C69.6837 48.0682 69.1602 49.1223 68.3013 49.8714C67.3567 50.6955 66.9757 52.0538 67.4339 53.0508C68.4451 51.2504 73.2637 53.0825 72.9247 50.2249C72.5857 47.3672 72.4932 45.6386 72.4932 45.6386L74.3022 40.8945Z" fill="black"/>
<path d="M73.3437 46.2042C72.5106 44.6252 71.7566 44.5164 71.1479 44.8366C70.0325 45.4233 70.5191 48.0964 72.5842 47.5295L73.3437 46.2042Z" fill="#A87259"/>
<path d="M74.3008 41.0599C74.3008 41.0599 77.8002 40.7411 78.899 44.5696C78.9353 40.8706 76.8032 40.6866 74.3008 41.0599Z" fill="black"/>
</g>
<path d="M60.5141 29.2981H85.5628C87.1315 29.2981 88.4031 28.0194 88.4031 26.4419C88.4031 24.8646 87.1315 23.5859 85.5628 23.5859H60.5141C58.9455 23.5859 57.6738 24.8646 57.6738 26.4419C57.6738 28.0194 58.9455 29.2981 60.5141 29.2981Z" fill="white"/>
<path d="M63.2513 24.8633L63.7605 25.9008L64.8994 26.0673L64.0752 26.8747L64.2698 28.0152L63.2513 27.4769L62.2328 28.0152L62.4274 26.8747L61.6035 26.0673L62.7421 25.9008L63.2513 24.8633Z" fill="#FF4C7D"/>
<path d="M68.1461 24.8633L68.6554 25.9008L69.7939 26.0673L68.97 26.8747L69.1643 28.0152L68.1461 27.4769L67.1276 28.0152L67.3219 26.8747L66.498 26.0673L67.6369 25.9008L68.1461 24.8633Z" fill="#FF4C7D"/>
<path d="M73.0387 24.8633L73.5479 25.9008L74.6865 26.0673L73.8626 26.8747L74.0572 28.0152L73.0387 27.4769L72.0202 28.0152L72.2148 26.8747L71.3906 26.0673L72.5295 25.9008L73.0387 24.8633Z" fill="#FF4C7D"/>
<path d="M77.9329 24.8633L78.4422 25.9008L79.5807 26.0673L78.7568 26.8747L78.9514 28.0152L77.9329 27.4769L76.9145 28.0152L77.109 26.8747L76.2852 26.0673L77.4237 25.9008L77.9329 24.8633Z" fill="#FF4C7D"/>
<path d="M82.8275 24.8633L83.3367 25.9008L84.4755 26.0673L83.6516 26.8747L83.8459 28.0152L82.8275 27.4769L81.8093 28.0152L82.0036 26.8747L81.1797 26.0673L82.3182 25.9008L82.8275 24.8633Z" fill="#E3E9E7"/>
<path d="M82.6233 25.2812V27.5872L81.8102 28.0159L82.005 26.8766L81.1797 26.0683L82.3185 25.9029L82.6233 25.2812Z" fill="#FF4C7D"/>
<path d="M51.0043 21.2344H26.0365C24.3122 21.2344 22.9141 22.6399 22.9141 24.374V63.6196C22.9141 65.3535 24.3122 66.7593 26.0365 66.7593H51.0043C52.7287 66.7593 54.1268 65.3538 54.1268 63.6196V24.3737C54.1268 22.6399 52.7287 21.2344 51.0043 21.2344Z" fill="white"/>
<path d="M28.3203 54.2305H48.7206" stroke="#E3E9E7" stroke-width="5" stroke-miterlimit="10" stroke-linecap="round" stroke-linejoin="round"/>
<path d="M28.3203 57.6172H48.7206" stroke="#E3E9E7" stroke-width="5" stroke-miterlimit="10" stroke-linecap="round" stroke-linejoin="round"/>
<path d="M28.3203 61H48.7206" stroke="#E3E9E7" stroke-width="5" stroke-miterlimit="10" stroke-linecap="round" stroke-linejoin="round"/>
<path d="M33.5488 64.3281H43.4947" stroke="#E3E9E7" stroke-width="5" stroke-miterlimit="10" stroke-linecap="round" stroke-linejoin="round"/>
<path d="M28.3203 24.8906H48.7206" stroke="#E3E9E7" stroke-width="5" stroke-miterlimit="10" stroke-linecap="round" stroke-linejoin="round"/>
<path d="M38.5206 49.3913C44.318 49.3913 49.0177 44.6657 49.0177 38.8363C49.0177 33.0069 44.318 28.2812 38.5206 28.2812C32.7232 28.2812 28.0234 33.0069 28.0234 38.8363C28.0234 44.6657 32.7232 49.3913 38.5206 49.3913Z" fill="#E3E9E7"/>
<mask id="mask2_2595_9116" style="mask-type:luminance" maskUnits="userSpaceOnUse" x="28" y="28" width="22" height="22">
<path d="M38.5206 49.3913C44.318 49.3913 49.0177 44.6657 49.0177 38.8363C49.0177 33.0069 44.318 28.2812 38.5206 28.2812C32.7232 28.2812 28.0234 33.0069 28.0234 38.8363C28.0234 44.6657 32.7232 49.3913 38.5206 49.3913Z" fill="white"/>
</mask>
<g mask="url(#mask2_2595_9116)">
<path d="M41.0694 37.2822C41.6903 36.9098 42.5066 36.6791 43.1159 37.0705C43.7583 37.4828 43.8647 38.3649 43.9163 39.1294C43.9679 39.894 44.1036 40.7805 44.7672 41.1578C45.2071 41.408 45.7485 41.3488 46.2467 41.4348C47.6654 41.6804 48.6474 43.2381 48.4626 44.6736C48.2779 46.1092 47.1014 47.3007 45.7242 47.7226C44.347 48.1445 42.8245 47.8754 41.5395 47.2228C40.2545 46.5702 39.1812 45.5613 38.2297 44.4751C37.3777 43.5026 36.5967 42.4376 36.1614 41.2176C35.8091 40.2302 35.2787 37.9429 36.9433 38.0613C37.6552 38.1121 38.2616 38.5113 38.9956 38.3923C39.7885 38.2634 40.4024 37.6822 41.0694 37.2822Z" fill="#A0A6A7"/>
<path d="M42.8083 41.2539C45.7428 42.7198 46.6862 50.1941 46.6862 50.1941L41.1582 51.0269L42.8083 41.2539Z" fill="#D9D8D4"/>
<path d="M32.843 36.2641C32.3935 36.4604 31.953 36.7937 31.8457 37.2745C31.661 38.1027 32.5333 38.8798 32.3894 39.7161C32.2836 40.3311 31.6508 40.725 31.038 40.823C30.425 40.921 29.7994 40.8055 29.1791 40.8218C28.5588 40.8382 27.8814 41.0303 27.5488 41.5575C27.1616 42.1711 27.3861 42.9817 27.701 43.6358C28.0159 44.2898 28.4222 44.955 28.3692 45.6796C28.3094 46.494 27.6743 47.1837 27.6323 47.9993C27.5795 49.0207 28.4695 49.8492 29.3905 50.2828C30.61 50.857 32.0179 51.0173 33.3343 50.7313C34.6506 50.4455 35.8671 49.7153 36.7423 48.6863C37.8388 47.3968 38.3707 45.6997 38.5322 44.0111C38.6937 42.3224 38.5119 40.6218 38.3301 38.9352C38.2315 38.0204 38.1329 37.1057 38.0343 36.1909C37.9522 35.4304 38.0302 34.341 37.6245 33.6709C36.9059 32.4844 35.2042 33.9103 35.2042 33.9103C35.5246 35.9579 33.7362 35.8743 32.843 36.2641Z" fill="#A0A6A7"/>
<path d="M42.8064 41.2561L42.6814 43.3168L42.4364 47.3433L42.401 47.9276L42.2879 49.7793L42.1458 52.1068H34.455L34.4483 52.0371L33.5832 41.8982L33.5293 41.2561L35.7748 40.6531L39.6828 39.6016L41.8033 40.7245C41.8033 40.7263 41.8033 40.7263 41.8033 40.7263L42.8064 41.2561Z" fill="#D9D8D4"/>
<path d="M35.7773 40.6525L39.6854 39.6016L41.8059 40.7239C41.8059 40.7254 41.8059 40.7254 41.8059 40.7254C41.9578 44.9463 37.4883 43.9689 35.7773 40.6525Z" fill="white"/>
<path d="M39.2096 41.6751L37.5589 41.6719C36.9546 41.6707 36.4656 41.1773 36.4668 40.5696L36.4738 37.2812L40.389 37.2885L40.3821 40.4996C40.3812 41.1499 39.8563 41.676 39.2096 41.6751Z" fill="white"/>
<path d="M40.3852 39.6934L40.3847 40.2786C38.7209 40.4515 36.8858 39.3359 37.3979 36.6797L40.3902 36.6846L40.3852 39.6934Z" fill="white"/>
<path d="M39.2714 30.9016C41.1665 30.7039 42.8621 32.0881 43.0588 33.9937L43.1762 35.131C43.358 36.892 42.0858 38.4678 40.3342 38.6506L37.1825 38.9795C36.8847 39.0107 36.6179 38.7929 36.5871 38.4934L36.1965 34.7099C35.9996 32.8046 37.3762 31.0996 39.2714 30.9016Z" fill="white"/>
<path d="M36.7288 35.7476C36.7288 35.7476 38.7989 33.9794 39.7611 30.8864C34.3941 30.4569 34.3363 35.2858 36.7288 35.7476Z" fill="#A0A6A7"/>
<path d="M37.5488 36.0675C36.7156 34.4882 35.9616 34.3798 35.3529 34.6999C34.2376 35.2866 34.7242 37.9597 36.7893 37.3929L37.5488 36.0675Z" fill="white"/>
<path d="M38.5195 30.8831C38.5195 30.8831 42.0042 30.6031 43.103 34.4315C43.1349 31.1636 41.0263 30.5092 38.5195 30.8831Z" fill="#A0A6A7"/>
<path d="M31.5826 43.388C31.4043 45.0061 31.1351 50.2744 31.5066 54.5332L34.7857 53.2374C37.2446 42.6887 34.7332 40.9336 34.7332 40.9336C34.7332 40.9336 31.8329 41.1167 31.5826 43.388Z" fill="#D9D8D4"/>
</g>
<path d="M25.9965 19.3059H51.0453C52.6139 19.3059 53.8855 18.0272 53.8855 16.4497C53.8855 14.8724 52.6139 13.5938 51.0453 13.5938H25.9965C24.4279 13.5938 23.1562 14.8724 23.1562 16.4497C23.1562 18.0272 24.4279 19.3059 25.9965 19.3059Z" fill="white"/>
<path d="M28.7337 14.8711L29.243 15.9086L30.3818 16.0751L29.5579 16.8825L29.7522 18.023L28.7337 17.4844L27.7152 18.023L27.9098 16.8825L27.0859 16.0751L28.2245 15.9086L28.7337 14.8711Z" fill="#FF4C7D"/>
<path d="M33.6285 14.8711L34.1378 15.9086L35.2763 16.0751L34.4524 16.8825L34.6467 18.023L33.6285 17.4844L32.6101 18.023L32.8044 16.8825L31.9805 16.0751L33.1193 15.9086L33.6285 14.8711Z" fill="#FF4C7D"/>
<path d="M38.5211 14.8711L39.0304 15.9086L40.1689 16.0751L39.345 16.8825L39.5396 18.023L38.5211 17.4844L37.5026 18.023L37.6972 16.8825L36.873 16.0751L38.0119 15.9086L38.5211 14.8711Z" fill="#E3E9E7"/>
<path d="M43.4154 14.8711L43.9246 15.9086L45.0634 16.0751L44.2393 16.8825L44.4338 18.023L43.4154 17.4844L42.3969 18.023L42.5915 16.8825L41.7676 16.0751L42.9061 15.9086L43.4154 14.8711Z" fill="#E3E9E7"/>
<path d="M48.3099 14.8711L48.8191 15.9086L49.958 16.0751L49.1341 16.8825L49.3284 18.023L48.3099 17.4844L47.2917 18.023L47.486 16.8825L46.6621 16.0751L47.8006 15.9086L48.3099 14.8711Z" fill="#E3E9E7"/>
<path d="M121.28 21.2344H96.3119C94.5875 21.2344 93.1895 22.6399 93.1895 24.374V63.6196C93.1895 65.3535 94.5873 66.7593 96.3119 66.7593H121.28C123.004 66.7593 124.402 65.3538 124.402 63.6196V24.3737C124.402 22.6399 123.004 21.2344 121.28 21.2344Z" fill="white"/>
<path d="M98.5957 54.2305H118.996" stroke="#E3E9E7" stroke-width="5" stroke-miterlimit="10" stroke-linecap="round" stroke-linejoin="round"/>
<path d="M98.5957 57.6172H118.996" stroke="#E3E9E7" stroke-width="5" stroke-miterlimit="10" stroke-linecap="round" stroke-linejoin="round"/>
<path d="M98.5957 61H118.996" stroke="#E3E9E7" stroke-width="5" stroke-miterlimit="10" stroke-linecap="round" stroke-linejoin="round"/>
<path d="M103.824 64.3281H113.77" stroke="#E3E9E7" stroke-width="5" stroke-miterlimit="10" stroke-linecap="round" stroke-linejoin="round"/>
<path d="M98.5957 24.8906H118.996" stroke="#E3E9E7" stroke-width="5" stroke-miterlimit="10" stroke-linecap="round" stroke-linejoin="round"/>
<path d="M119.156 40.5388C120.09 34.7857 116.209 29.3607 110.488 28.4216C104.766 27.4824 99.3711 31.3849 98.4372 37.1379C97.5032 42.8909 101.384 48.316 107.106 49.2551C112.827 50.1942 118.222 46.2918 119.156 40.5388Z" fill="#E3E9E7"/>
<mask id="mask3_2595_9116" style="mask-type:luminance" maskUnits="userSpaceOnUse" x="98" y="28" width="22" height="22">
<path d="M119.156 40.5348C120.09 34.7818 116.209 29.3568 110.488 28.4177C104.766 27.4785 99.3711 31.381 98.4372 37.134C97.5032 42.887 101.384 48.3121 107.106 49.2512C112.827 50.1903 118.222 46.2879 119.156 40.5348Z" fill="white"/>
</mask>
<g mask="url(#mask3_2595_9116)">
<path d="M106.2 42.9798L108.529 43.7102C108.525 43.7796 108.487 44.4696 108.379 45.4196C108.22 46.8166 107.913 48.7707 107.354 50.1388C107.227 50.4453 106.969 50.8538 106.604 51.3009L102.928 48.0717C103.397 47.3278 104.04 45.9938 104.272 44.9282C104.357 44.5352 104.715 43.9531 105.219 43.5178C105.468 43.2999 105.754 43.1189 106.06 43.0168C106.072 43.011 106.087 43.0051 106.099 43.0034C106.129 42.9955 106.158 42.9859 106.187 42.9766L106.2 42.9798Z" fill="#A0A6A7"/>
<path d="M115.201 45.7075C115.201 45.7191 115.199 45.7305 115.197 45.7401C115.075 46.619 114.896 47.5034 114.672 48.359C114.274 49.8736 113.724 51.3036 113.06 52.4694C112.8 52.926 112.522 53.3442 112.229 53.7104C112.183 53.7664 112.137 53.8221 112.091 53.8761L111.838 53.5967L111.78 53.5331L106.416 54.5812L105.556 46.6826L105.203 46.2953C105.054 45.7442 104.962 45.3144 104.914 44.9656C104.853 44.4915 104.977 44.029 105.238 43.6631C105.318 43.5493 105.412 43.4435 105.518 43.3508C105.531 43.3391 105.546 43.3257 105.56 43.314C105.74 43.1636 105.953 43.0481 106.188 42.9787C106.194 42.9766 106.198 42.9766 106.204 42.9749C108.034 42.4354 111.273 41.8764 112.394 41.6954C112.454 41.6857 112.505 41.6761 112.553 41.6685C112.697 41.6455 112.781 41.6318 112.789 41.6318C113.477 41.5682 113.996 41.6703 114.379 41.9094C114.925 42.2465 115.194 42.8574 115.28 43.6418C115.347 44.2428 115.307 44.9461 115.201 45.7075Z" fill="#A0A6A7"/>
<path d="M104.087 36.0207C103.107 33.9302 104.49 30.7675 108.842 32.6653L104.087 36.0207Z" fill="#A0A6A7"/>
<path d="M106.379 43.019C106.566 45.4591 111.137 44.4467 111.604 41.9258L109.053 41.9287L106.379 43.019Z" fill="white"/>
<path d="M109.149 38.57C109.942 40.7086 112.263 39.6355 112.264 36.0669C112.265 32.7814 109.741 31.1155 104.869 34.4319L109.149 38.57Z" fill="#A0A6A7"/>
<path d="M107.072 43.3958L111.201 42.5729L110.211 37.0234L106.082 37.8463L107.072 43.3958Z" fill="white"/>
<path d="M106.88 42.3242L107.834 42.1522C108.705 41.995 109.285 41.1575 109.129 40.2815L108.613 37.3906L106.082 37.847L106.88 42.3242Z" fill="white"/>
<path d="M110.568 36.6187V41.0259H106.346C104.97 41.0259 103.831 40.0199 103.616 38.6981C103.591 38.5496 103.578 38.3974 103.578 38.2432V36.6187C103.578 36.4492 103.59 36.2833 103.615 36.1215C103.661 35.7882 103.754 35.4721 103.891 35.1752C104.437 33.9555 105.656 33.1055 107.074 33.1055C107.162 33.1055 107.252 33.1093 107.337 33.1151C108.64 33.2134 109.744 34.0304 110.259 35.175C110.39 35.4718 110.484 35.7879 110.53 36.1212C110.556 36.2833 110.568 36.4492 110.568 36.6187Z" fill="white"/>
<path d="M106.082 32.625C106.467 35.0047 109.541 34.6172 109.541 34.6172C109.541 34.6172 109.074 36.3893 109.852 37.5294L111.604 36.4832L110.64 33.6578L106.082 32.625Z" fill="#A0A6A7"/>
<path d="M109.379 37.6111C110.312 36.1666 111.046 36.1269 111.603 36.4864C112.295 36.9335 112.208 38.3288 111.332 38.8989C110.567 39.3972 109.542 38.8548 109.423 37.9459L109.379 37.6111Z" fill="white"/>
<path d="M117.673 47.5818L113.574 48.4186C111.878 43.2043 113.397 41.6133 113.397 41.6133C113.397 41.6133 114.22 41.6949 114.803 42.0393C115.749 42.596 116.197 43.3136 116.855 44.9874C117.117 45.6543 117.389 46.4987 117.673 47.5818Z" fill="#A0A6A7"/>
</g>
<path d="M96.2722 19.3059H121.321C122.89 19.3059 124.161 18.0272 124.161 16.4497C124.161 14.8724 122.89 13.5938 121.321 13.5938H96.2722C94.7036 13.5938 93.4316 14.8724 93.4316 16.4497C93.4316 18.0272 94.7033 19.3059 96.2722 19.3059Z" fill="white"/>
<path d="M99.0094 14.8711L99.5186 15.9086L100.657 16.0751L99.8333 16.8825L100.028 18.023L99.0094 17.4844L97.9909 18.023L98.1852 16.8825L97.3613 16.0751L98.5002 15.9086L99.0094 14.8711Z" fill="#FF4C7D"/>
<path d="M103.904 14.8711L104.413 15.9086L105.551 16.0751L104.728 16.8825L104.922 18.023L103.904 17.4844L102.885 18.023L103.08 16.8825L102.256 16.0751L103.394 15.9086L103.904 14.8711Z" fill="#FF4C7D"/>
<path d="M108.798 14.8711L109.307 15.9086L110.446 16.0751L109.622 16.8825L109.817 18.023L108.798 17.4844L107.78 18.023L107.974 16.8825L107.15 16.0751L108.289 15.9086L108.798 14.8711Z" fill="#FF4C7D"/>
<path d="M113.691 14.8711L114.2 15.9086L115.339 16.0751L114.515 16.8825L114.709 18.023L113.691 17.4844L112.672 18.023L112.867 16.8825L112.043 16.0751L113.182 15.9086L113.691 14.8711Z" fill="#E3E9E7"/>
<path d="M118.586 14.8711L119.095 15.9086L120.233 16.0751L119.409 16.8825L119.604 18.023L118.586 17.4844L117.567 18.023L117.762 16.8825L116.938 16.0751L118.076 15.9086L118.586 14.8711Z" fill="#E3E9E7"/>
<path d="M106.832 71.4343C107.832 71.4973 108.721 70.9788 109.206 70.1816C109.462 69.7605 109.605 69.2616 109.59 68.7294C109.558 67.531 108.735 66.5497 107.65 66.2573C107.365 66.1806 107.063 66.1511 106.751 66.1774L95.4928 67.1312L95.4774 67.1318L95.4043 68.9222C95.4043 68.9222 100.23 71.0197 106.832 71.4343Z" fill="#E2A8A1"/>
<path d="M93.0957 68.4962C94.1365 67.3132 95.1912 67.0143 96.5885 67.7386C96.5885 67.7386 94.7913 67.1213 93.0957 68.4962Z" fill="#E2A8A1"/>
<path d="M90.3945 70.4608L88.0527 64.2695L93.4914 68.7074L91.6426 71.6406L90.3945 70.4608Z" fill="#EDC9C2"/>
<path d="M91.1478 67.33L88.053 64.2734L88.0831 64.1402C88.2023 63.6167 88.0866 63.0682 87.7664 62.6399C87.7157 62.5705 87.7166 62.4775 87.765 62.411C87.7725 62.4005 87.7821 62.3914 87.7914 62.3821C88.0489 62.1453 88.4299 62.1305 88.7008 62.3296C88.746 62.3629 88.7861 62.4028 88.8252 62.448L88.9839 62.6664L88.9995 62.6889C89.2718 63.0659 89.3423 63.5517 89.1886 63.9909L91.0855 67.2256L91.1478 67.33Z" fill="#EDC9C2"/>
<path d="M89.7401 66.5619L88.5247 64.8858C88.7756 64.0393 88.5752 63.5054 88.2547 63.0773C88.204 63.0079 88.2048 62.9149 88.2533 62.8484C88.2608 62.8379 88.2704 62.8285 88.2797 62.8195C88.4763 62.637 88.7471 62.5871 88.9823 62.6632L88.998 62.6857C89.2703 63.0627 89.3408 63.5485 89.1871 63.9877L88.9728 64.9464L89.7401 66.5619Z" fill="#E2A8A1"/>
<path d="M88.9749 64.9515L89.0051 64.8188C89.1243 64.2966 89.0086 63.7478 88.6887 63.3191C88.6295 63.2398 88.64 63.1284 88.7125 63.0613C89.0132 62.784 89.483 62.8135 89.7472 63.1261L89.9209 63.3672C90.1926 63.7443 90.2634 64.231 90.1106 64.6704L92.0698 68.0092L88.9749 64.9515Z" fill="#EDC9C2"/>
<path d="M84.4306 58.2501L83.5371 59.1484L88.4831 64.1218L89.3766 63.2234L84.4306 58.2501Z" fill="#5E2222"/>
<path d="M99.9825 74.5159L99.7148 74.785C98.8877 75.6167 97.5471 75.6167 96.72 74.785L87.5383 65.5527C86.7112 64.721 86.7112 63.373 87.5383 62.5413L87.8059 62.2722C88.633 61.4405 89.9737 61.4405 90.8008 62.2722L99.9825 71.5045C100.809 72.3362 100.809 73.6845 99.9825 74.5159Z" fill="#412328"/>
<path d="M64.3129 38.9185C58.7863 44.4756 58.7863 53.4877 64.3129 59.0448C69.8414 64.6038 78.8021 64.6018 84.3287 59.0448C89.8572 53.4857 89.8572 44.4776 84.3287 38.9185C78.8021 33.3615 69.8414 33.3595 64.3129 38.9185ZM83.5065 58.2178C78.4356 63.3167 70.2106 63.3167 65.1376 58.2155C60.0667 53.1165 60.0667 44.8462 65.1376 39.7473C70.2106 34.6463 78.4359 34.6463 83.5065 39.7449C88.5795 44.8462 88.5795 53.1168 83.5065 58.2178Z" fill="#FF4C7D"/>
<path opacity="0.5" d="M83.5061 39.7458C88.579 44.8468 88.579 53.1174 83.5061 58.2184C78.4351 63.3173 70.2102 63.3173 65.1372 58.216C60.0662 53.1171 60.0662 44.8468 65.1372 39.7478C70.2102 34.6469 78.4351 34.6469 83.5061 39.7458Z" fill="white"/>
<path d="M121.894 124.598C121.894 124.598 125.439 128.863 125.774 131.847C125.978 133.657 123.401 133.566 120.408 133.544L113.74 133.495C112.986 133.489 112.69 132.504 113.318 132.084C113.589 131.903 113.981 131.775 114.549 131.764C114.549 131.764 116.013 130.399 119.483 129.004C119.483 129.004 119.808 124.925 118.356 122.383L121.894 124.598Z" fill="#E2A8A1"/>
<path d="M125.034 129.468L116.659 107.156H110.02L119.484 129.001L125.034 129.468Z" fill="#E2A8A1"/>
<path d="M103.713 92.9336L101.512 107.559H107.088L111.353 92.9336H103.713Z" fill="#EDC9C2"/>
<path d="M93.38 132.315C92.9094 132.752 93.2559 133.55 93.8965 133.545C95.3477 133.534 98.2622 133.512 100.339 133.495C101.205 133.489 102.033 133.487 102.762 133.443C102.964 133.431 103.16 133.415 103.344 133.394C104.712 133.247 105.593 132.856 105.457 131.79C105.329 130.797 105.35 129.908 105.432 129.173C105.447 129.022 105.466 128.876 105.488 128.74C105.657 127.624 106.458 117.406 106.458 117.406L101.053 122.962L100.661 128.418C97.3554 129.805 94.6995 131.874 94.6995 131.874C94.0436 131.897 93.6338 132.079 93.38 132.315Z" fill="#EDC9C2"/>
<path d="M100.626 128.673L100.477 107.799L106.045 107.5L105.43 129.171L100.626 128.673Z" fill="#EDC9C2"/>
<path d="M104.803 58.2612L106.447 66.5073L110.928 64.4262L110.096 56.8137L110.077 56.4375L104.803 58.2612Z" fill="#E2A8A1"/>
<path d="M114.761 66.5685C114.685 66.9975 114.584 67.4197 114.467 67.8329C114.021 69.4181 113.32 70.8825 112.657 72.0547C111.712 73.7127 110.834 74.7867 110.834 74.7867L111.93 76.1461C112.656 77.0484 112.505 78.376 111.595 79.0907L104.212 79.1257L102.582 79.1321C101.653 78.7096 101.211 77.6391 101.568 76.6798L102.336 74.6021L102.358 71.5082C102.256 71.4575 102.162 71.4036 102.07 71.34C100.465 70.2917 100.279 67.9315 101.795 66.6578L105.927 63.3828H106.572L114.23 63.3892L114.868 63.3828C115.013 64.4498 114.953 65.5267 114.761 66.5685Z" fill="#FF4C7D"/>
<path d="M108.985 68.53C108.618 69.7658 108.085 71.3445 107.396 72.9772C106.651 74.7338 105.583 77.0719 104.215 79.127L102.585 79.1335C101.656 78.7109 101.214 77.6405 101.571 76.6811L102.338 74.6035L102.36 71.5096C102.259 71.4588 102.165 71.4049 102.073 71.3413L102.727 70.1819L104.108 68.0124C104.433 67.2341 105.265 66.5465 106.03 66.3558C106.469 66.2479 106.791 66.716 107.256 66.8589C108.601 67.2782 109.386 67.1671 108.985 68.53Z" fill="#FF2661"/>
<path d="M99.1429 74.1338L92.222 70.1719L90.3672 70.4119C90.3672 70.4119 92.9073 75.9558 97.092 78.882C99.9697 80.8937 102.931 76.6221 99.1429 74.1338Z" fill="#EDC9C2"/>
<path d="M93.0412 68.1895L92.7529 70.8028L91.1495 70.4745L90.2734 68.8059L92.0668 67.5955C92.2335 67.4829 92.4441 67.4573 92.6329 67.5267C92.9043 67.6267 93.0731 67.9002 93.0412 68.1895Z" fill="#EDC9C2"/>
<path d="M109.289 68.5672C108.638 69.6809 107.747 71.0861 106.688 72.5035C105.276 74.3954 103.163 77.0318 100.797 78.8319C99.1136 80.1132 97.882 80.0379 97.0102 79.4865C95.5828 78.5837 95.401 76.5513 96.5601 75.3195L102.82 68.6684L105.011 65.7101C105.514 65.0336 106.288 64.668 107.076 64.668C107.528 64.668 107.985 64.789 108.4 65.0383C109.608 65.7696 110.003 67.3425 109.289 68.5672Z" fill="#FF4C7D"/>
<path d="M114.762 66.5688C113.489 66.9564 112.143 67.0993 110.819 66.9692C109.561 66.8456 105.519 64.8711 106.121 63.7482C106.207 63.5893 114.231 63.3892 114.231 63.3892L114.869 63.3828C115.014 64.4501 114.955 65.5269 114.762 66.5688Z" fill="#FF2661"/>
<path d="M111.851 53.1944L111.365 55.1898L111.142 56.0993L110.546 58.5408C110.225 59.8589 109.247 60.9156 107.963 61.3332L105.966 61.9826C104.235 62.5454 102.443 61.3475 102.268 59.527C102.14 58.1912 102.129 56.6314 102.624 54.9708C103.198 53.0416 104.723 51.5267 106.545 50.9129L106.552 50.9105L106.872 50.812L106.906 50.8029C107.066 50.7598 107.231 50.7239 107.395 50.6956C107.785 50.623 108.189 50.5901 108.597 50.5991L109.892 50.6274C111.212 50.6563 112.165 51.9058 111.851 53.1944Z" fill="#EDC9C2"/>
<path d="M102.504 55.7244C102.329 56.6762 101.77 56.9847 101.357 57.0801C101.091 57.141 100.916 57.3953 100.952 57.6668C100.998 58.0249 101.251 58.322 101.595 58.4244L102.814 58.7868C103.47 58.8612 104.047 58.3515 104.059 57.6875L104.097 55.4375L102.504 55.7244Z" fill="#EDC9C2"/>
<path d="M102.79 56.6333C102.778 57.1156 102.946 57.511 103.165 57.5163C103.383 57.5215 103.57 57.1348 103.582 56.6525C103.593 56.1702 103.425 55.7748 103.207 55.7696C102.988 55.7646 102.801 56.1513 102.79 56.6333Z" fill="#212121"/>
<path d="M103.472 54.3966C104.296 54.8337 104.554 54.3088 103.974 53.8787C103.349 53.4159 102.447 53.8524 103.472 54.3966Z" fill="black"/>
<path d="M104.711 59.1392C104.711 59.1392 103.155 59.0016 102.944 59.3174C102.733 59.6335 104.259 60.7118 104.711 59.1392Z" fill="white"/>
<path d="M106.161 58.0976C104.367 56.8787 103.471 54.3961 104.286 52.1038C104.413 51.7477 106.195 50.7747 108.395 50.4382C110.323 50.1434 112.618 50.3708 113.783 51.4725C115.772 53.355 113.387 58.3507 113.387 58.3507L106.161 58.0976Z" fill="black"/>
<path d="M106.756 59.5369C106.439 62.1453 105.299 63.377 105.299 63.377C109.268 66.5615 115.757 64.0249 116.094 61.7566C115.799 58.5116 115.66 55.2851 114.333 52.293L106.947 57.5152L106.756 59.5369Z" fill="black"/>
<path d="M105.559 57.5739C106.929 55.4353 108.422 56.9595 107.961 58.903C107.5 60.8465 105.845 59.9709 105.845 59.9709L105.559 57.5739Z" fill="#EDC9C2"/>
<path d="M106.143 59.2496L106.77 58.1914" stroke="#E2A8A1" stroke-miterlimit="10"/>
<path d="M116.508 90.3072L116.66 107.156L123.232 124.664L116.884 125.542L110.02 108.448L106.457 89.2734L116.508 90.3072Z" fill="#311116"/>
<path d="M112.025 90.5078L114.496 107.425L121.336 125.024" stroke="#412328" stroke-miterlimit="10"/>
<path d="M116.51 90.3062L101.68 93.6244L102.468 81.7233L102.502 81.2118L102.584 79.1313L110.482 79.093L111.597 79.0898C111.597 79.0898 112.659 80.3446 113.793 82.1616C114.7 83.626 115.657 85.4526 116.137 87.2759C116.283 87.8317 116.406 88.9182 116.51 90.3062Z" fill="#412328"/>
<path d="M113.791 82.1642L102.467 81.7247L102.501 81.2136L102.585 79.1318L110.483 79.0948L111.598 79.0898C111.598 79.0898 112.659 80.3466 113.791 82.1642Z" fill="#311116"/>
<path d="M106.816 83.1242L111.374 82.7812L112.472 86.9672L110.568 88.6127L107.377 87.4017L106.816 83.1242Z" stroke="#5A4045" stroke-miterlimit="10"/>
<path d="M93.6855 66.0276C94.3679 67.3797 96.4872 67.7684 97.874 67.2097C97.4596 66.0792 96.0659 65.5024 93.7609 65.2461L93.6855 66.0276Z" fill="#E2A8A1"/>
<path d="M101.78 92.0798L99.873 105.97L99.8086 125.578H106.177L107.087 107.562L112.978 89.2734L101.78 92.0798Z" fill="#412328"/>
<path d="M104.864 79.0898L104.095 92.08L102.174 105.748L102.31 125.578" stroke="#5A4045" stroke-miterlimit="10"/>
<path d="M110.625 79.2891C113.624 83.3196 115.395 86.7499 114.95 90.6559" stroke="#5A4045" stroke-miterlimit="10"/>
<path d="M92.7528 68.5483L92.671 68.5824C92.4184 68.688 92.1287 68.5676 92.0237 68.3136L91.415 66.8404C91.31 66.5864 91.4298 66.2951 91.6824 66.1896L91.7642 66.1554C92.0167 66.0499 92.3067 66.1703 92.4114 66.4243L93.0204 67.8972C93.1251 68.1512 93.0054 68.4427 92.7528 68.5483Z" fill="#EDC9C2"/>
<path d="M96.0053 66.3471L95.9719 66.4296C95.8687 66.6844 95.5798 66.8066 95.3264 66.7031L92.6329 65.6006C92.3794 65.4968 92.2579 65.2063 92.3608 64.9515L92.3942 64.8689C92.4974 64.6141 92.7863 64.4919 93.0397 64.5954L95.7332 65.6982C95.9864 65.8018 96.1082 66.0922 96.0053 66.3471Z" fill="#E2A8A1"/>
<path d="M105.952 133.548C106.113 130.649 105.43 129.176 105.43 129.176C103.903 129.176 102.785 130.171 102.032 131.212H98.2371C98.1379 130.517 98.1579 129.842 98.4804 129.467C98.4804 129.467 93.1603 131.126 92.5742 133.548V134.24H105.977V133.548H105.952Z" fill="#5E2222"/>
<path d="M126.219 133.548H126.222C126.222 130.904 124.925 129.176 124.925 129.176C123.399 129.176 122.457 130.171 121.888 131.212H118.439C118.217 130.517 118.118 129.842 118.373 129.467C118.373 129.467 112.59 131.126 112.434 133.548L112.442 134.24H126.227L126.219 133.548Z" fill="#5E2222"/>
<path d="M24.207 128.937L30.9832 129.244L32.153 119.98L25.3885 120.39L24.207 128.937Z" fill="white"/>
<path d="M22.8848 134.503H38.2742L38.1391 133.121C38.0935 132.671 37.9769 132.252 37.7977 131.874C37.4184 131.07 36.7546 130.45 35.8872 130.12L35.4989 129.973C35.1181 129.828 34.7713 129.637 34.4604 129.407C34.193 129.208 33.9529 128.983 33.7458 128.728C33.2926 128.181 32.9817 127.51 32.8448 126.754H24.1979L23.3511 131.874L22.8848 134.503Z" fill="black"/>
<path d="M30.127 127.625H33.167" stroke="white" stroke-miterlimit="10"/>
<path d="M30.7031 128.691H33.7432" stroke="white" stroke-miterlimit="10"/>
<path d="M26.4939 130.78C26.4472 130.988 26.5771 131.157 26.7845 131.157C26.9918 131.157 27.1977 130.988 27.2444 130.78C27.2911 130.571 27.1612 130.402 26.9538 130.402C26.7465 130.403 26.5406 130.571 26.4939 130.78Z" stroke="white" stroke-miterlimit="10"/>
<path d="M28.3298 130.78C28.2831 130.988 28.413 131.157 28.6201 131.157C28.8272 131.157 29.0331 130.988 29.08 130.78C29.1267 130.571 28.9968 130.402 28.7895 130.402C28.5821 130.402 28.3765 130.571 28.3298 130.78Z" stroke="white" stroke-miterlimit="10"/>
<path d="M22.8848 134.503H38.2742L38.1391 133.122C38.0935 132.672 37.9769 132.253 37.7977 131.875H23.3514L22.8848 134.503Z" fill="white"/>
<path d="M32.8458 133.188H23.168" stroke="#D7E0DD" stroke-width="2" stroke-miterlimit="10"/>
<path d="M29.6367 134.502H38.2738L38.1386 133.121C38.0931 132.67 37.9765 132.252 37.7973 131.874C37.418 131.069 36.7542 130.45 35.8868 130.12L35.4985 129.972C35.1177 129.827 34.7709 129.637 34.46 129.406C32.2769 130.337 30.4171 132.239 29.6367 134.502Z" fill="white"/>
<path d="M32.845 126.754L33.1913 125.984C33.4352 125.442 33.1411 124.926 32.5884 124.926H31.8176C31.2089 124.926 30.572 125.237 30.1269 125.751L29.2598 126.754H32.845Z" fill="black"/>
<path d="M42.529 82.7757H26.2724C22.6593 82.4066 23.3687 78.4061 27.4382 76.504C27.5357 76.4559 27.6366 76.411 27.7393 76.3675L40.9664 75.8555C41.1947 75.9817 41.4345 76.1249 41.6758 76.2844C41.6891 76.2929 41.7007 76.301 41.7138 76.3095C44.1843 77.9471 46.9474 81.141 42.529 82.7757Z" fill="#5E2222"/>
<path d="M25.3203 87.491H44.2037C42.9877 81.0781 40.6021 77.6632 40.6021 77.6632L29.0694 76.9727C26.3324 79.6848 25.5413 84.4948 25.3203 87.491Z" fill="black"/>
<path d="M24.0684 124.416H32.6483L34.0525 105.912L34.7636 85.957L25.3217 87.4946L25.5668 95.6545L26.2001 105.785L24.0684 124.416Z" fill="black"/>
<path d="M25.4922 124.412L27.5689 107.153L28.7915 106.483L27.7287 105.519L27.0118 91.2828C26.8648 88.668 27.0794 86.0454 27.6495 83.4898L28.2417 80.8359" stroke="#2D2D2D" stroke-miterlimit="10"/>
<path d="M54.9861 64.1953C57.9014 68.5941 51.5826 74.3567 47.9863 67.7727L54.9861 64.1953Z" fill="#450000"/>
<path d="M47.3681 66.5285C45.4773 61.5961 52.8944 57.3585 54.9754 64.5727L47.3681 66.5285Z" fill="#450000"/>
<path d="M53.2478 63.2037L52.3601 69.6787C50.1323 69.4227 40.2648 66.5119 36.9019 64.117C35.4626 63.0915 35.0442 61.1235 35.951 59.6007C36.3277 58.9694 36.8834 58.4996 37.5193 58.2261C38.2118 57.9281 38.9957 57.8602 39.7573 58.0736L53.2478 63.2037Z" fill="#450000"/>
<path d="M56.6818 54.939L56.351 55.437C56.0525 55.8864 55.4482 56.0074 55.0016 55.7073L54.6945 55.5009C54.2476 55.2008 54.1272 54.5931 54.4256 54.1441L54.7565 53.646C55.0549 53.1967 55.659 53.0756 56.1059 53.376L56.413 53.5824C56.8602 53.8822 56.9805 54.4896 56.6818 54.939Z" fill="black"/>
<path d="M58.9316 52.7734C57.4488 54.7621 58.4238 62.5155 55.529 67.0942C55.366 67.3508 55.1796 67.5771 54.9763 67.7742C54.9136 67.8343 54.849 67.8914 54.7831 67.9457C52.3332 69.9606 48.8869 67.0429 50.3096 64.2001L51.1561 62.5091L55.5525 53.7241L58.9316 52.7734Z" fill="#C3826C"/>
<path d="M54.9756 67.7768C54.9156 67.8343 54.8541 67.8888 54.7912 67.941C52.3436 69.9676 48.8844 67.0487 50.3098 64.2013L51.1554 62.5117C50.6021 66.9315 52.6901 69.2386 54.9739 67.7754C54.9747 67.776 54.9744 67.7757 54.9756 67.7768Z" fill="#A35D54"/>
<path d="M55.5526 53.7247L55.5039 55.8402C59.351 56.2082 61.0879 53.8098 62.4372 53.0456L59.0808 49.9141L55.5526 53.7247Z" fill="#C3826C"/>
<path d="M60.9071 51.2069C60.8529 51.2801 60.8106 51.3644 60.7865 51.4577C60.7801 51.4834 60.7749 51.5073 60.7714 51.5324C60.7285 51.7936 60.8309 52.0523 61.0257 52.2135C61.0997 52.2765 61.1873 52.3246 61.2838 52.3538L61.8925 52.5398L62.7527 52.8005C62.8762 52.8376 63.0003 52.8396 63.1161 52.8125C63.2793 52.7755 63.424 52.6819 63.5252 52.5454C63.5795 52.4722 63.6204 52.3865 63.6444 52.2934C63.7317 51.952 63.556 51.6026 63.2408 51.4647L63.239 51.4635C63.2222 51.456 63.2039 51.4498 63.1857 51.4437L61.7299 50.9486C61.7162 50.9433 61.7011 50.9398 61.6864 50.936C61.3877 50.8544 61.082 50.9716 60.9071 51.2069Z" fill="#C3826C"/>
<path d="M64.6896 47.775C64.6194 47.4228 64.263 47.2079 63.9211 47.3111L60.9733 48.2017L58.4668 50.0988L59.866 52.3494L62.2725 49.3214L64.3291 48.4571C64.5954 48.3454 64.7465 48.0599 64.6896 47.775Z" fill="#C3826C"/>
<path d="M58.4668 50.0979L58.9801 49.7092L61.3082 49.2578L61.9216 49.7617L59.7335 52.4068L58.4668 50.0979Z" fill="#A35D54"/>
<path d="M63.5291 53.6838C63.463 53.929 63.2698 54.1302 63.0062 54.1944L61.5095 54.5475C61.125 54.6376 60.7349 54.4041 60.6326 54.02C60.6039 53.9098 60.6033 53.7984 60.6227 53.692C60.6253 53.671 60.63 53.6538 60.6346 53.6363C60.6384 53.622 60.6433 53.6045 60.65 53.5908C60.7306 53.3496 60.9333 53.1572 61.1998 53.1061L62.7052 52.8017C62.9195 52.7612 63.1347 52.8198 63.2927 52.9528C63.3154 52.9714 63.3374 52.9927 63.3592 53.0143C63.4369 53.0913 63.4963 53.191 63.5271 53.3047C63.5622 53.4357 63.561 53.5654 63.5291 53.6838Z" fill="#C3826C"/>
<path d="M63.2922 52.953C63.2234 53.0705 63.1199 53.1691 62.9859 53.2318L61.5977 53.8902C61.2511 54.0558 60.7312 53.9899 60.5508 53.5033C60.6314 53.2621 60.933 53.1574 61.1995 53.1061L62.7049 52.8017C62.9189 52.7611 63.1341 52.82 63.2922 52.953Z" fill="#A35D54"/>
<path d="M62.5627 52.4518C62.5255 52.6486 62.4066 52.8297 62.2199 52.937L61.2916 53.4479C60.9485 53.647 60.51 53.533 60.3044 53.1956C60.2148 53.0446 60.1823 52.8804 60.2035 52.72C60.2032 52.7049 60.2067 52.6871 60.2093 52.6725C60.2496 52.4582 60.3795 52.2669 60.5849 52.157L61.5358 51.6869C61.697 51.602 61.8788 51.5851 62.043 51.6286C62.2135 51.6703 62.3657 51.7782 62.4658 51.9374C62.5661 52.0966 62.5954 52.2786 62.5627 52.4518Z" fill="#A35D54"/>
<path d="M60.5242 52.7308C60.5207 52.7457 60.5158 52.7626 60.5138 52.7786C60.5094 52.7982 60.508 52.8171 60.5048 52.8349L60.5062 52.8361C60.4877 52.9763 60.5103 53.1221 60.5793 53.2598C60.7574 53.6132 61.1863 53.7605 61.5444 53.5893L62.9344 52.9323C63.0017 52.8994 63.062 52.8585 63.1139 52.809C63.2116 52.718 63.2809 52.6005 63.3146 52.4739C63.3604 52.3036 63.3453 52.1205 63.258 51.9534C63.207 51.8595 63.1412 51.7822 63.0614 51.7201C62.9999 51.6741 62.9315 51.6379 62.8587 51.6137C62.6992 51.5574 62.5168 51.5595 62.35 51.6318L61.0236 52.2097L60.9383 52.2468C60.7255 52.3407 60.5816 52.5212 60.5242 52.7308Z" fill="#C3826C"/>
<path d="M61.0341 52.1997L60.9489 52.2367C60.7363 52.33 60.5925 52.5105 60.5351 52.7202C60.5316 52.735 60.5266 52.752 60.5246 52.768C60.5203 52.7875 60.5188 52.8065 60.5156 52.8243L60.5174 52.8254C60.7607 53.0331 61.1232 53.0596 61.3995 52.8701L61.9012 52.5257L62.9885 51.7783C63.0186 51.7579 63.0485 51.7349 63.072 51.7095C63.152 51.6354 63.2097 51.5474 63.2492 51.4505L63.2474 51.4494C63.2306 51.4418 63.2123 51.4357 63.1941 51.4295L61.7383 50.9344C61.7246 50.9292 61.7096 50.9257 61.6948 50.9219L60.7801 51.5179C60.7372 51.7795 60.8396 52.0384 61.0341 52.1997Z" fill="#A35D54"/>
<path d="M60.4461 50.2271C60.3701 50.3294 60.3203 50.4513 60.3052 50.5866C60.262 50.9841 60.5415 51.3428 60.9327 51.3984L61.424 51.4684L62.4544 51.6116C62.6089 51.6338 62.76 51.6032 62.8868 51.5337C62.9793 51.4868 63.0584 51.4174 63.1214 51.3328C63.1974 51.2305 63.2458 51.1074 63.258 50.9724C63.2925 50.6038 63.0379 50.2688 62.6756 50.2046L62.1853 50.1201L61.665 50.0282L61.1613 49.9413C60.8771 49.8903 60.6065 50.011 60.4461 50.2271Z" fill="#C3826C"/>
<path d="M62.2063 51.311C62.1997 51.511 62.1098 51.7084 61.9416 51.8435L61.102 52.4914C60.7932 52.741 60.3428 52.6958 60.0882 52.3943C59.9768 52.259 59.9194 52.1015 59.9159 51.94C59.9136 51.9248 59.9139 51.907 59.9145 51.8922C59.9217 51.674 60.0209 51.465 60.2071 51.325L61.0751 50.7138C61.2215 50.605 61.3984 50.5604 61.5675 50.5779C61.7423 50.5928 61.9091 50.6762 62.0323 50.8179C62.1556 50.9596 62.2121 51.1349 62.2063 51.311Z" fill="#A35D54"/>
<path d="M62.961 51.2069C62.9389 51.4058 62.834 51.5956 62.6559 51.7169L61.3813 52.5809C61.0542 52.8058 60.6085 52.7256 60.3779 52.4048C60.2773 52.261 60.2324 52.0998 60.2414 51.9382C60.2402 51.9231 60.2419 51.9053 60.2437 51.8904C60.2678 51.6735 60.3829 51.4731 60.5792 51.3478L61.8793 50.5225C62.0336 50.4257 62.2136 50.3948 62.3807 50.4254C62.5538 50.454 62.7136 50.5502 62.8256 50.701C62.9375 50.8523 62.9804 51.0317 62.961 51.2069Z" fill="#C3826C"/>
<path d="M56.4902 53.7631L58.9694 50.6999L61.3327 50.2969L60.9786 51.6989L60.1065 52.1366C60.1065 52.1366 59.7687 55.3497 56.4902 53.7631Z" fill="#A35D54"/>
<path d="M61.3309 50.2969L62.3262 51.2731C62.5426 51.4854 62.5495 51.8327 62.3419 52.0535C62.1574 52.2497 61.8596 52.2844 61.6354 52.1357L60.9766 51.6989L61.3309 50.2969Z" fill="#A35D54"/>
<path d="M55.5527 53.7251L58.4667 50.0988L61.2547 49.6133L60.8423 51.2699L59.8149 51.7901C59.8149 51.7901 59.4295 55.5844 55.5527 53.7251Z" fill="#C3826C"/>
<path d="M61.6655 50.0312L61.1348 51.1909L61.4245 51.4715L61.8061 51.8386C61.8264 51.8587 61.8479 51.8774 61.8688 51.8931C62.0967 52.064 62.4099 52.0687 62.6439 51.8954C62.7689 51.8048 62.8513 51.6767 62.8872 51.5368C62.9371 51.3542 62.9081 51.1527 62.7918 50.9874L62.1857 50.1231L61.6655 50.0312Z" fill="#A35D54"/>
<path d="M61.2542 49.6133L62.433 50.7616C62.6891 51.0112 62.699 51.4212 62.4548 51.6828C62.2379 51.9152 61.8864 51.9572 61.6213 51.7828L60.8418 51.2699L61.2542 49.6133Z" fill="#C3826C"/>
<path d="M55.454 53.6719L58.3708 55.7554L58.1283 56.9247L54.7539 54.8671L55.454 53.6719Z" fill="black"/>
<path d="M42.9178 81.1528L30.4263 81.1744L25.8887 81.1826C25.8887 81.1826 26.7155 79.1673 27.4364 76.5053C28.0416 74.269 28.5723 71.5787 28.4766 69.2442C28.4204 67.8492 28.2385 66.3827 28.2403 64.8795C28.242 63.9251 27.448 57.3247 28.2403 56.7173C30.0664 55.3174 35.316 55.0943 35.0002 55.3938L39.1127 57.7449C39.3426 58.5381 41.5698 61.6425 41.9289 63.4416C41.9587 63.5763 41.9834 63.7178 42.0066 63.8557C42.0776 64.3263 42.124 64.8069 42.1191 65.2991C42.1208 65.4356 42.1174 65.5802 42.0994 65.7249C42.091 65.9328 42.0681 66.1488 42.0333 66.3585C41.8332 67.6022 41.2578 68.8377 40.0523 69.9219L40.0705 70.005L40.0737 70.0233L40.8724 73.1458L41.6745 76.2866L41.696 76.3697L42.9178 81.1528Z" fill="#5E2222"/>
<mask id="mask4_2595_9116" style="mask-type:luminance" maskUnits="userSpaceOnUse" x="28" y="55" width="15" height="25">
<path d="M41.871 79.6243L28.6058 79.3849C28.6058 79.3849 28.687 74.3527 28.4759 69.239C28.3854 66.9586 27.9548 64.4862 28.5481 61.9767C30.1167 55.3778 35.3153 55.0888 34.9995 55.3883L39.1131 57.7406C39.3422 58.5332 41.5688 61.6375 41.929 63.4367C41.9583 63.5708 41.9835 63.7123 42.0056 63.8502C42.0772 64.3211 42.1233 64.8026 42.1193 65.2933C42.1195 65.4304 42.1164 65.5747 42.0987 65.7188C42.0903 65.9278 42.0671 66.1439 42.0337 66.3527C41.8324 67.5972 41.2577 68.8328 40.0513 69.9163L40.071 69.9997L40.0742 70.0178L41.871 79.6243Z" fill="white"/>
</mask>
<g mask="url(#mask4_2595_9116)">
<path d="M35.1827 66.5181L32.8404 70.1966L30.498 66.5181L32.8404 62.8398L35.1827 66.5181Z" stroke="#FF2661" stroke-miterlimit="10"/>
<path d="M39.8406 66.5181L37.4986 70.1966L35.1562 66.5181L37.4986 62.8398L39.8406 66.5181Z" stroke="#FF2661" stroke-miterlimit="10"/>
<path d="M44.5008 66.5181L42.1584 70.1966L39.8164 66.5181L42.1584 62.8398L44.5008 66.5181Z" stroke="#FF2661" stroke-miterlimit="10"/>
</g>
<path opacity="0.4" d="M30.8792 79.6246L30.4262 81.1692L30.1136 82.2318L29.2784 82.7721H26.2705C22.6574 82.403 23.3667 78.4025 27.4363 76.5004C28.0415 74.2641 28.5722 71.5738 28.4765 69.2393C28.4203 67.8443 28.2384 66.3778 28.2402 64.8746L32.3602 60.5898L32.2572 70.697H40.4033L40.872 73.1403L30.8792 79.6246Z" fill="#450000"/>
<path d="M44.8853 45.7752C45.2342 44.2958 44.3243 42.8121 42.853 42.4614C41.3817 42.1106 39.9063 43.0255 39.5574 44.5049C39.2086 45.9843 40.1185 47.4679 41.5897 47.8187C43.061 48.1695 44.5365 47.2545 44.8853 45.7752Z" fill="black"/>
<path d="M39.4332 44.7755C40.9453 44.7755 42.1711 43.543 42.1711 42.0225C42.1711 40.5021 40.9453 39.2695 39.4332 39.2695C37.9211 39.2695 36.6953 40.5021 36.6953 42.0225C36.6953 43.543 37.9211 44.7755 39.4332 44.7755Z" fill="black"/>
<path d="M38.5196 43.65C38.8656 42.1699 37.9527 40.688 36.4807 40.3401C35.0087 39.9922 33.5349 40.9101 33.1889 42.3903C32.843 43.8704 33.7558 45.3523 35.2278 45.7002C36.6999 46.0481 38.1736 45.1302 38.5196 43.65Z" fill="black"/>
<path d="M32.4186 44.7039C31.3129 47.5517 31.7041 49.3648 33.4902 50.5485L35.182 48.6921L34.1702 44.2266L32.4186 44.7039Z" fill="black"/>
<path d="M33.375 48.6953L34.0182 55.6304L39.155 59.1212L39.2281 50.5715L33.375 48.6953Z" fill="#C3826C"/>
<path d="M32.5352 50.6289L33.7526 52.7672L34.5141 51.1375L32.5352 50.6289Z" fill="black"/>
<path d="M39.1784 56.1981C39.1784 56.1981 36.0099 55.6234 35.918 52.0273L39.2263 53.1106L39.1784 56.1981Z" fill="#A35D54"/>
<path d="M41.2979 43.6445C42.8299 45.5332 43.0312 48.0214 43.0312 48.0214L41.3698 48.2853L40.1074 44.284L41.2979 43.6445Z" fill="black"/>
<path d="M33.8951 45.8592L34.3892 47.8266L34.6157 48.7233L35.2218 51.1307C35.5489 52.4304 36.5222 53.467 37.7935 53.8703L39.7702 54.4972C41.4838 55.0408 43.2458 53.8446 43.4053 52.0449C43.5222 50.7245 43.5216 49.1837 43.0217 47.547C42.4399 45.6457 40.9238 44.1603 39.1197 43.5672L39.1125 43.5649L38.7958 43.4698L38.7616 43.4611C38.6035 43.4197 38.4405 43.3855 38.2781 43.3587C37.8921 43.2899 37.4928 43.2602 37.09 43.2721L35.8111 43.3097C34.5084 43.3476 33.5758 44.5887 33.8951 45.8592Z" fill="#C3826C"/>
<path d="M42.8957 50.5681C43.8153 50.5681 44.5608 49.737 44.5608 48.7118C44.5608 47.6866 43.8153 46.8555 42.8957 46.8555C41.976 46.8555 41.2305 47.6866 41.2305 48.7118C41.2305 49.737 41.976 50.5681 42.8957 50.5681Z" stroke="white" stroke-miterlimit="10"/>
<path d="M42.2673 49.0983C42.3126 49.5698 42.1757 49.9687 41.9619 49.9894C41.7482 50.0101 41.5383 49.6447 41.493 49.1732C41.4478 48.7017 41.5847 48.3028 41.7984 48.2821C42.0121 48.2614 42.2221 48.6268 42.2673 49.0983Z" fill="black"/>
<path d="M40.9123 48.3984C41.3412 49.4362 42.05 49.65 42.5421 49.657C42.8582 49.6616 43.1178 49.9075 43.1433 50.2241C43.1766 50.642 42.9623 51.0406 42.5958 51.241L41.2998 51.9498C40.573 52.1942 39.795 51.7565 39.6218 51.0059L39.0352 48.4617L40.9123 48.3984Z" fill="#C3826C"/>
<path d="M41.7807 51.7836L41.7018 51.6375L42.5585 51.1689C42.8957 50.9846 43.0938 50.6166 43.0631 50.2317C43.041 49.9558 42.8174 49.745 42.5431 49.7409C42.0089 49.733 41.2796 49.4998 40.8379 48.431L40.9907 48.3672C41.3979 49.3522 42.0608 49.5674 42.5454 49.5747C42.9053 49.58 43.1988 49.8567 43.2278 50.2186C43.2637 50.6691 43.0317 51.0995 42.6373 51.315L41.7807 51.7836Z" fill="#A35D54"/>
<path d="M39.4236 49.5241C39.4688 49.9953 39.3319 50.3945 39.1182 50.4152C38.9045 50.4359 38.6945 50.0705 38.6493 49.599C38.604 49.1275 38.7409 48.7286 38.9546 48.7079C39.1684 48.6872 39.3783 49.0525 39.4236 49.5241Z" fill="black"/>
<path d="M38.2166 47.6553C37.1509 48.1023 36.858 47.5521 37.6224 47.0864C38.4448 46.5854 39.5425 47.0992 38.2166 47.6553Z" fill="black"/>
<path d="M41.2874 47.1506C40.456 47.015 40.6868 46.4887 41.3823 46.4805C42.1305 46.4721 42.3219 47.3195 41.2874 47.1506Z" fill="black"/>
<path d="M41.3031 52.1292L39.3848 51.9805C39.3848 51.9805 39.6005 53.0947 40.1573 53.2151C40.7626 53.346 41.3031 52.1292 41.3031 52.1292Z" fill="white"/>
<path d="M38.6811 51.4197C39.6009 51.4197 40.3466 50.5886 40.3466 49.5634C40.3466 48.5381 39.6009 47.707 38.6811 47.707C37.7613 47.707 37.0156 48.5381 37.0156 49.5634C37.0156 50.5886 37.7613 51.4197 38.6811 51.4197Z" stroke="white" stroke-miterlimit="10"/>
<path d="M37.0175 49.2179L35.1543 48.6875" stroke="white" stroke-miterlimit="10"/>
<path d="M36.6596 43.2844C37.6659 45.6749 35.7714 48.9449 31.7984 48.7067C30.1253 45.3087 30.1967 42.2696 36.6596 43.2844Z" fill="black"/>
<path d="M35.2973 48.9724C31.3075 43.4605 29.2351 52.1887 35.0992 51.7309L35.2973 48.9724Z" fill="#C3826C"/>
<path d="M35.2543 45.4453L35.3288 50.075L34.9428 50.334L33.4902 45.8827L35.2543 45.4453Z" fill="black"/>
<path d="M35.4746 43.7861C38.6643 45.0424 41.5704 44.004 41.5704 44.004C41.5704 44.004 40.511 41.4396 35.4746 43.7861Z" fill="black"/>
<path d="M31.4415 44.3111C31.4415 42.6813 29.6516 43.4625 30.8804 44.5178C28.7248 44.2251 30.3566 46.913 31.349 45.9729" fill="black"/>
<path d="M39.3518 59.2078C40.0437 55.4257 36.5051 54.6244 33.8316 53.5195L32.3613 55.4213L39.3518 59.2078Z" fill="white"/>
<path d="M26.7622 70.0496C29.5863 69.5005 32.1847 70.2963 30.7953 73.1018L26.498 73.356L26.7622 70.0496Z" fill="#5E2222"/>
<path d="M26.1305 78.1729C18.5044 80.1555 19.7375 71.9315 24.2771 70.6992L26.1305 78.1729Z" fill="#5E2222"/>
<path d="M26.4733 76.099L21.9331 76.7708C21.1211 70.302 23.0281 63.2476 27.2992 57.5564C28.2965 56.2276 30.1433 55.8943 31.5376 56.7924C32.7396 57.5666 33.2779 59.0541 32.8516 60.424L26.4733 76.099Z" fill="#5E2222"/>
<path d="M38.5461 72.9079L43.8354 67.5664L36.1353 69.6581L35.9727 72.4154L38.5461 72.9079Z" fill="#C3826C"/>
<path d="M36.8043 69.8135L35.6747 69.8686C35.3409 69.885 35.0817 69.5802 35.1495 69.2513L35.1704 69.1498C35.2986 68.5273 35.9314 68.1505 36.536 68.3369C36.9414 68.462 37.2358 68.8154 37.2868 69.2385C37.3228 69.5347 37.1009 69.7992 36.8043 69.8135Z" fill="#C3826C"/>
<path d="M39.2109 69.3036L43.837 67.5706L43.8672 67.4181C43.9846 66.8185 44.3579 66.3024 44.8883 66.0067C44.9729 65.9583 45.015 65.8612 44.9953 65.7697C44.9921 65.7554 44.9869 65.7414 44.9814 65.7274C44.823 65.3611 44.4338 65.1681 44.0603 65.2486C43.998 65.262 43.9379 65.285 43.8762 65.3133L43.6108 65.4661L43.5841 65.4818C43.1271 65.7466 42.8298 66.2187 42.7872 66.7465L39.324 69.2234L39.2109 69.3036Z" fill="#C3826C"/>
<path d="M41.0254 69.1632L43.0618 67.9881C43.1914 66.9914 43.6461 66.5301 44.1765 66.2344C44.2612 66.186 44.3033 66.0886 44.2838 65.9973C44.2806 65.9827 44.2751 65.969 44.2699 65.955C44.1498 65.6736 43.8915 65.4952 43.6119 65.4648L43.5852 65.4806C43.1282 65.7454 42.8309 66.2175 42.7883 66.7453L42.5688 67.8417L41.0254 69.1632Z" fill="#A35D54"/>
<path d="M42.567 67.8421L42.5966 67.6902C42.7137 67.0918 43.0869 66.5757 43.6171 66.2791C43.7151 66.2243 43.7557 66.1036 43.711 66C43.5263 65.5717 43.0249 65.3833 42.6058 65.5848L42.3138 65.7542C41.8576 66.0193 41.5595 66.4923 41.5157 67.0201L37.9395 69.5762L42.567 67.8421Z" fill="#C3826C"/>
<path d="M26.8153 71.8924L36.6379 71.0234L38.5455 72.9113C38.5455 72.9113 32.5883 77.5005 26.3345 78.2732C23.6296 78.6074 22.0346 75.3126 23.9686 73.3825L24.2726 73.0792C24.9564 72.3975 25.856 71.9773 26.8153 71.8924Z" fill="#C3826C"/>
<path d="M25.7031 83.5924L36.9577 85.1618L37.5731 81.1809L26.5618 81.1797L25.7031 83.5924Z" fill="white"/>
<path d="M38.4453 81.1836L39.1587 85.1645L43.2364 83.5951L42.3783 81.1836H38.4453Z" fill="white"/>
<path d="M44.5669 128.766H51.2549L50.1842 119.977L43.5586 120.486L44.5669 128.766Z" fill="white"/>
<path d="M44.046 134.253H59.2194L58.8226 132.891C58.6919 132.447 58.497 132.034 58.2484 131.661C57.7209 130.868 56.9484 130.257 56.0302 129.932L55.6193 129.786C55.2162 129.644 54.838 129.456 54.4874 129.228C54.1858 129.033 53.906 128.81 53.6537 128.559C53.1024 128.02 52.6683 127.359 52.389 126.613H43.8633L44.0048 131.661L44.046 134.253Z" fill="black"/>
<path d="M49.873 127.473H52.8702" stroke="white" stroke-miterlimit="10"/>
<path d="M50.6484 128.523H53.6459" stroke="white" stroke-miterlimit="10"/>
<path d="M46.8947 130.583C46.8883 130.788 47.0487 130.955 47.2532 130.955C47.4573 130.955 47.6284 130.788 47.6348 130.583C47.6412 130.377 47.4808 130.211 47.2764 130.211C47.0719 130.211 46.9011 130.378 46.8947 130.583Z" stroke="white" stroke-miterlimit="10"/>
<path d="M48.7053 130.583C48.6989 130.788 48.8592 130.955 49.0637 130.955C49.2679 130.955 49.4387 130.788 49.4453 130.583C49.4517 130.377 49.2914 130.211 49.0869 130.211C48.8825 130.211 48.7116 130.378 48.7053 130.583Z" stroke="white" stroke-miterlimit="10"/>
<path d="M44.0451 134.256H59.2185L58.8217 132.894C58.691 132.45 58.4961 132.037 58.2475 131.664H44.0039L44.0451 134.256Z" fill="white"/>
<path d="M43.9648 132.957H53.5067" stroke="#D7E0DD" stroke-width="2" stroke-miterlimit="10"/>
<path d="M50.7051 134.255H59.2206L58.8239 132.893C58.6931 132.449 58.4983 132.037 58.2497 131.664C57.7222 130.87 56.9496 130.26 56.0315 129.934L55.6206 129.789C55.2175 129.646 54.8393 129.458 54.4887 129.23C52.5138 130.148 51.0429 132.023 50.7051 134.255Z" fill="white"/>
<path d="M52.3886 126.615L52.5832 125.856C52.7204 125.321 52.3321 124.812 51.7872 124.812H51.0271C50.4268 124.812 49.8581 125.119 49.5173 125.626L48.8535 126.615H52.3886Z" fill="black"/>
<path d="M35.1367 85.9531L41.6487 106.131L42.5781 124.692L51.1778 124.531L49.443 105.322C49.443 105.322 48.0063 100.517 46.4444 94.9006C45.7522 92.4138 45.0895 90.1084 44.6101 88.4606C44.1635 86.9198 43.8764 85.9531 43.8764 85.9531H35.1367Z" fill="black"/>
<path d="M44.5401 124.655L43.5944 105.901L38.2912 87.4648L35.9297 87.4931" stroke="#2D2D2D" stroke-miterlimit="10"/>
<path d="M52.2912 77.5C52.1207 77.6012 51.9595 77.7082 51.8066 77.8208" stroke="#FF2661" stroke-miterlimit="10"/>
<path d="M51.3866 78.1641C48.3477 80.901 49.5814 86.0705 52.6203 87.7382" stroke="#FF2661" stroke-miterlimit="10" stroke-dasharray="3.72 1.86"/>
<path d="M52.8574 87.8555C53.032 87.9383 53.2121 88.0097 53.3971 88.0686" stroke="#FF2661" stroke-miterlimit="10"/>
<path d="M53.0326 87.1445C53.5468 86.953 54.1178 87.2166 54.3086 87.7333C54.4991 88.2503 54.237 88.8244 53.7231 89.0163C53.2089 89.2079 52.6379 88.9443 52.4471 88.4276C52.2563 87.9106 52.5184 87.3361 53.0326 87.1445Z" fill="#FF2661"/>
<path d="M85.4902 89.4453C85.6439 89.5704 85.8002 89.685 85.9586 89.7894" stroke="#AABC95" stroke-miterlimit="10"/>
<path d="M86.4238 90.063C90.0372 91.9677 94.4214 88.9966 94.9118 85.5508" stroke="#AABC95" stroke-miterlimit="10" stroke-dasharray="3.72 1.86"/>
<path d="M94.9434 85.286C94.9593 85.0927 94.9628 84.8982 94.9532 84.7031" stroke="#AABC95" stroke-miterlimit="10"/>
<path d="M94.2161 85.3695C93.8577 84.9525 93.9035 84.322 94.3182 83.9616C94.7332 83.6012 95.3599 83.6473 95.7183 84.0643C96.0768 84.4815 96.031 85.1117 95.6163 85.4721C95.2013 85.8325 94.5746 85.7865 94.2161 85.3695Z" fill="#AABC95"/>
<path d="M63.2113 9.21256C63.1367 9.02826 63.055 8.85214 62.9668 8.68359" stroke="#D7E0DD" stroke-miterlimit="10"/>
<path d="M62.6917 8.21407C60.443 4.79097 55.1769 5.26278 53.0918 8.04173" stroke="#D7E0DD" stroke-miterlimit="10" stroke-dasharray="3.72 1.86"/>
<path d="M52.937 8.26172C52.83 8.42327 52.7334 8.59181 52.6484 8.76735" stroke="#D7E0DD" stroke-miterlimit="10"/>
<path d="M53.6164 8.53799C53.7298 9.07716 53.387 9.60699 52.8505 9.72101C52.3143 9.83503 51.7874 9.49035 51.674 8.95089C51.5606 8.41143 51.9034 7.88189 52.4399 7.76787C52.9761 7.65386 53.503 7.99882 53.6164 8.53799Z" fill="#D7E0DD"/>
<path d="M19.309 87.0848C19.309 87.5522 18.932 87.9313 18.4669 87.9313C18.0017 87.9313 17.625 87.5522 17.625 87.0848C17.625 86.6174 18.002 86.2383 18.4669 86.2383C18.9317 86.2383 19.309 86.6174 19.309 87.0848Z" fill="#AABC95"/>
<path d="M86.201 14.4426C86.6669 14.4426 87.0446 14.0628 87.0446 13.5944C87.0446 13.1259 86.6669 12.7461 86.201 12.7461C85.7351 12.7461 85.3574 13.1259 85.3574 13.5944C85.3574 14.0628 85.7351 14.4426 86.201 14.4426Z" fill="#AABC95"/>
<path d="M136.804 22.0853C136.804 21.6152 136.425 21.2344 135.958 21.2344C135.49 21.2344 135.111 21.6155 135.111 22.0853C135.111 22.5553 135.49 22.9362 135.958 22.9362C136.425 22.9362 136.804 22.555 136.804 22.0853Z" fill="#AABC95"/>
<path d="M8.92458 67.4183C9.64772 67.4183 10.2339 66.8289 10.2339 66.1017C10.2339 65.3746 9.64772 64.7852 8.92458 64.7852C8.20145 64.7852 7.61523 65.3746 7.61523 66.1017C7.61523 66.8289 8.20145 67.4183 8.92458 67.4183Z" fill="#AABC95"/>
<path d="M120.11 75.6315C120.11 76.0363 119.784 76.3646 119.381 76.3646C118.979 76.3646 118.652 76.0365 118.652 75.6315C118.652 75.2268 118.979 74.8984 119.381 74.8984C119.784 74.8984 120.11 75.2265 120.11 75.6315Z" fill="#AABC95"/>
<path d="M136.607 66.0089C136.607 66.8399 135.936 67.5138 135.11 67.5138C134.283 67.5138 133.613 66.8399 133.613 66.0089C133.613 65.1778 134.283 64.5039 135.11 64.5039C135.936 64.5039 136.607 65.1778 136.607 66.0089Z" fill="#D7E0DD"/>
<path d="M115.148 5.7991C115.148 5.25643 114.71 4.81641 114.171 4.81641C113.631 4.81641 113.193 5.25643 113.193 5.7991C113.193 6.34177 113.631 6.7815 114.171 6.7815C114.71 6.7815 115.148 6.34177 115.148 5.7991Z" fill="#D7E0DD"/>
<path d="M17.0419 22.0861C17.0419 22.8455 16.4297 23.4613 15.6743 23.4613C14.9191 23.4613 14.3066 22.8457 14.3066 22.0861C14.3066 21.3268 14.9188 20.7109 15.6743 20.7109C16.4297 20.7109 17.0419 21.3265 17.0419 22.0861Z" fill="#D7E0DD"/>
<path d="M62.4543 92.2905C62.4543 91.8149 62.071 91.4297 61.5983 91.4297C61.1256 91.4297 60.7422 91.8152 60.7422 92.2905C60.7422 92.7658 61.1256 93.1513 61.5983 93.1513C62.0713 93.1516 62.4543 92.7661 62.4543 92.2905Z" fill="#D7E0DD"/>
<path d="M26.768 43.4567V45.9336L28.9906 48.5971H19.6531C16.8297 48.5971 14.541 46.2957 14.541 43.4567C14.541 40.6177 16.8297 38.3164 19.6531 38.3164H21.6559C24.4793 38.3164 26.768 40.618 26.768 43.4567Z" fill="#FF4C7D"/>
<path d="M22.8281 44.6089C22.8281 45.1134 23.235 45.5225 23.7367 45.5225C24.2384 45.5225 24.6453 45.1134 24.6453 44.6089C24.6453 44.1044 24.2384 43.6953 23.7367 43.6953C23.235 43.6953 22.8281 44.1044 22.8281 44.6089Z" fill="white"/>
<path d="M19.7402 44.6089C19.7402 45.1134 20.1471 45.5225 20.6488 45.5225C21.1505 45.5225 21.5574 45.1134 21.5574 44.6089C21.5574 44.1044 21.1505 43.6953 20.6488 43.6953C20.1471 43.6953 19.7402 44.1044 19.7402 44.6089Z" fill="white"/>
<path d="M16.6523 44.6089C16.6523 45.1134 17.0592 45.5225 17.5609 45.5225C18.0626 45.5225 18.4695 45.1134 18.4695 44.6089C18.4695 44.1044 18.0626 43.6953 17.5609 43.6953C17.0592 43.6953 16.6523 44.1044 16.6523 44.6089Z" fill="white"/>
<path d="M119.16 53.7341V56.2109L116.938 58.8744H126.275C129.098 58.8744 131.387 56.5731 131.387 53.7341C131.387 50.8951 129.098 48.5938 126.275 48.5938H124.272C121.449 48.5935 119.16 50.8951 119.16 53.7341Z" fill="#FF4C7D"/>
<path d="M123.098 54.8862C123.098 55.3907 122.692 55.7998 122.19 55.7998C121.688 55.7998 121.281 55.3907 121.281 54.8862C121.281 54.3818 121.688 53.9727 122.19 53.9727C122.692 53.9727 123.098 54.3818 123.098 54.8862Z" fill="white"/>
<path d="M126.186 54.8862C126.186 55.3907 125.779 55.7998 125.278 55.7998C124.776 55.7998 124.369 55.3907 124.369 54.8862C124.369 54.3818 124.776 53.9727 125.278 53.9727C125.78 53.9727 126.186 54.3818 126.186 54.8862Z" fill="white"/>
<path d="M129.274 54.8862C129.274 55.3907 128.867 55.7998 128.366 55.7998C127.864 55.7998 127.457 55.3907 127.457 54.8862C127.457 54.3818 127.864 53.9727 128.366 53.9727C128.868 53.9727 129.274 54.3818 129.274 54.8862Z" fill="white"/>
<path d="M61.3678 97.0781L56.7988 100.96C58.1032 100.632 60.2745 101.111 61.0424 101.643L61.3678 97.0781Z" fill="#F2F5F4"/>
<path d="M14.8711 134.5H135.343" stroke="#A0A6A7" stroke-miterlimit="10"/>
<path d="M10.6543 134.5H14.3315" stroke="#A0A6A7" stroke-miterlimit="10"/>
</g>
<defs>
<clipPath id="clip0_2595_9116">
<rect width="145" height="135" fill="white" transform="translate(0.5)"/>
</clipPath>
</defs>
</svg>
