<svg width="212" height="135" viewBox="0 0 212 135" fill="none" xmlns="http://www.w3.org/2000/svg">
<g clip-path="url(#clip0_2601_11023)">
<path d="M15.0039 123.512H203.67" stroke="black" stroke-width="0.9702" stroke-miterlimit="10" stroke-linecap="round"/>
<path d="M89.4885 9.94361C89.4282 13.9431 102.086 19.1628 111.045 21.6774C120.003 24.1917 128.961 28.3822 131.76 20.0012C134.56 11.6198 89.635 0.236316 89.4885 9.94361Z" fill="#F0F0FF"/>
<path d="M31.1064 119.372C31.1064 119.372 16.8536 102.625 25.5891 93.9073C34.3247 85.1896 41.4511 93.678 48.1177 85.4189C54.7844 77.1601 28.1179 33.8013 51.5661 23.4776C75.0143 13.1541 116.853 32.4248 145.359 28.5246C173.865 24.6245 193.175 21.6421 194.784 42.5186C196.393 63.3951 178.233 70.048 181.451 80.8304C184.669 91.6127 194.324 101.248 180.991 114.095L31.1064 119.372Z" fill="#F0F0FF"/>
<path d="M75.8519 1.83594H7.5293V30.5111H75.8519V1.83594Z" fill="white"/>
<path d="M75.6895 1.99771V30.3509H7.68946V1.99771H75.6895ZM76.012 1.67578H75.6898H7.68946H7.36719V1.99739V30.3506V30.6722H7.68946H75.6895H76.0117V30.3506V1.99771V1.67578H76.012Z" fill="#DADAFB"/>
<path d="M18.8519 17.9947L15.5199 16.7277V15.8177L18.8519 14.5507V15.4257L15.8489 16.5177V16.0277L18.8519 17.1197V17.9947ZM22.2234 18.8067C21.836 18.8067 21.479 18.746 21.1524 18.6247C20.8304 18.4987 20.548 18.3213 20.3054 18.0927C20.0674 17.864 19.8807 17.5957 19.7454 17.2877C19.6147 16.9797 19.5494 16.6413 19.5494 16.2727C19.5494 15.904 19.6147 15.5657 19.7454 15.2577C19.8807 14.9497 20.0697 14.6813 20.3124 14.4527C20.555 14.224 20.8397 14.049 21.1664 13.9277C21.493 13.8017 21.8524 13.7387 22.2444 13.7387C22.6784 13.7387 23.068 13.811 23.4134 13.9557C23.7634 14.1003 24.0574 14.3103 24.2954 14.5857L23.5674 15.2577C23.39 15.071 23.1964 14.9333 22.9864 14.8447C22.7764 14.7513 22.5477 14.7047 22.3004 14.7047C22.0624 14.7047 21.8454 14.742 21.6494 14.8167C21.4534 14.8913 21.283 14.9987 21.1384 15.1387C20.9984 15.2787 20.8887 15.4443 20.8094 15.6357C20.7347 15.827 20.6974 16.0393 20.6974 16.2727C20.6974 16.5013 20.7347 16.7113 20.8094 16.9027C20.8887 17.094 20.9984 17.262 21.1384 17.4067C21.283 17.5467 21.451 17.654 21.6424 17.7287C21.8384 17.8033 22.053 17.8407 22.2864 17.8407C22.5104 17.8407 22.7274 17.8057 22.9374 17.7357C23.152 17.661 23.3597 17.5373 23.5604 17.3647L24.2044 18.1837C23.9384 18.3843 23.628 18.5383 23.2734 18.6457C22.9234 18.753 22.5734 18.8067 22.2234 18.8067ZM23.1684 18.0367V16.1957H24.2044V18.1837L23.1684 18.0367ZM25.2578 18.7227V13.8227H27.3788C27.8174 13.8227 28.1954 13.895 28.5128 14.0397C28.8301 14.1797 29.0751 14.3827 29.2478 14.6487C29.4204 14.9147 29.5068 15.232 29.5068 15.6007C29.5068 15.9647 29.4204 16.2797 29.2478 16.5457C29.0751 16.807 28.8301 17.0077 28.5128 17.1477C28.1954 17.2877 27.8174 17.3577 27.3788 17.3577H25.8878L26.3918 16.8607V18.7227H25.2578ZM28.3728 18.7227L27.1478 16.9447H28.3588L29.5978 18.7227H28.3728ZM26.3918 16.9867L25.8878 16.4547H27.3158C27.6658 16.4547 27.9271 16.38 28.0998 16.2307C28.2724 16.0767 28.3588 15.8667 28.3588 15.6007C28.3588 15.33 28.2724 15.12 28.0998 14.9707C27.9271 14.8213 27.6658 14.7467 27.3158 14.7467H25.8878L26.3918 14.2077V16.9867ZM31.4482 15.7967H33.8072V16.6787H31.4482V15.7967ZM31.5322 17.8127H34.1992V18.7227H30.4052V13.8227H34.1082V14.7327H31.5322V17.8127ZM34.4575 18.7227L36.6415 13.8227H37.7615L39.9525 18.7227H38.7625L36.9705 14.3967H37.4185L35.6195 18.7227H34.4575ZM35.5495 17.6727L35.8505 16.8117H38.3705L38.6785 17.6727H35.5495ZM41.2298 18.7227V14.7467H39.6618V13.8227H43.9318V14.7467H42.3638V18.7227H41.2298ZM47.4274 18.8067C47.096 18.8067 46.7904 18.746 46.5104 18.6247C46.235 18.4987 46.0087 18.3213 45.8314 18.0927L46.4614 17.3367C46.5967 17.514 46.739 17.6493 46.8884 17.7427C47.0377 17.8313 47.1987 17.8757 47.3714 17.8757C47.8334 17.8757 48.0644 17.605 48.0644 17.0637V14.7327H46.3424V13.8227H49.1914V17.0007C49.1914 17.6073 49.042 18.06 48.7434 18.3587C48.4447 18.6573 48.006 18.8067 47.4274 18.8067ZM52.6915 18.8067C52.3041 18.8067 51.9448 18.7437 51.6135 18.6177C51.2868 18.4917 51.0021 18.3143 50.7595 18.0857C50.5215 17.857 50.3348 17.5887 50.1995 17.2807C50.0688 16.9727 50.0035 16.6367 50.0035 16.2727C50.0035 15.9087 50.0688 15.5727 50.1995 15.2647C50.3348 14.9567 50.5238 14.6883 50.7665 14.4597C51.0091 14.231 51.2938 14.0537 51.6205 13.9277C51.9471 13.8017 52.3018 13.7387 52.6845 13.7387C53.0718 13.7387 53.4265 13.8017 53.7485 13.9277C54.0751 14.0537 54.3575 14.231 54.5955 14.4597C54.8381 14.6883 55.0271 14.9567 55.1625 15.2647C55.2978 15.568 55.3655 15.904 55.3655 16.2727C55.3655 16.6367 55.2978 16.975 55.1625 17.2877C55.0271 17.5957 54.8381 17.864 54.5955 18.0927C54.3575 18.3167 54.0751 18.4917 53.7485 18.6177C53.4265 18.7437 53.0741 18.8067 52.6915 18.8067ZM52.6845 17.8407C52.9038 17.8407 53.1045 17.8033 53.2865 17.7287C53.4731 17.654 53.6365 17.5467 53.7765 17.4067C53.9165 17.2667 54.0238 17.101 54.0985 16.9097C54.1778 16.7183 54.2175 16.506 54.2175 16.2727C54.2175 16.0393 54.1778 15.827 54.0985 15.6357C54.0238 15.4443 53.9165 15.2787 53.7765 15.1387C53.6411 14.9987 53.4801 14.8913 53.2935 14.8167C53.1068 14.742 52.9038 14.7047 52.6845 14.7047C52.4651 14.7047 52.2621 14.742 52.0755 14.8167C51.8935 14.8913 51.7325 14.9987 51.5925 15.1387C51.4525 15.2787 51.3428 15.4443 51.2635 15.6357C51.1888 15.827 51.1515 16.0393 51.1515 16.2727C51.1515 16.5013 51.1888 16.7137 51.2635 16.9097C51.3428 17.101 51.4501 17.2667 51.5855 17.4067C51.7255 17.5467 51.8888 17.654 52.0755 17.7287C52.2621 17.8033 52.4651 17.8407 52.6845 17.8407ZM56.2177 18.7227V13.8227H58.6117C59.2277 13.8227 59.6897 13.9393 59.9977 14.1727C60.3104 14.406 60.4667 14.714 60.4667 15.0967C60.4667 15.3533 60.4037 15.5773 60.2777 15.7687C60.1517 15.9553 59.9791 16.1 59.7597 16.2027C59.5404 16.3053 59.2884 16.3567 59.0037 16.3567L59.1367 16.0697C59.4447 16.0697 59.7177 16.121 59.9557 16.2237C60.1937 16.3217 60.3781 16.4687 60.5087 16.6647C60.6441 16.8607 60.7117 17.101 60.7117 17.3857C60.7117 17.8057 60.5461 18.1347 60.2147 18.3727C59.8834 18.606 59.3957 18.7227 58.7517 18.7227H56.2177ZM57.3447 17.8687H58.6677C58.9617 17.8687 59.1834 17.822 59.3327 17.7287C59.4867 17.6307 59.5637 17.4767 59.5637 17.2667C59.5637 17.0613 59.4867 16.9097 59.3327 16.8117C59.1834 16.709 58.9617 16.6577 58.6677 16.6577H57.2607V15.8317H58.4717C58.7471 15.8317 58.9571 15.785 59.1017 15.6917C59.2511 15.5937 59.3257 15.4467 59.3257 15.2507C59.3257 15.0593 59.2511 14.917 59.1017 14.8237C58.9571 14.7257 58.7471 14.6767 58.4717 14.6767H57.3447V17.8687ZM61.5703 17.0217L61.3533 13.8227H62.6553L62.4383 17.0217H61.5703ZM62.0043 18.7787C61.8083 18.7787 61.6473 18.7157 61.5213 18.5897C61.3953 18.4637 61.3323 18.3143 61.3323 18.1417C61.3323 17.9643 61.3953 17.8173 61.5213 17.7007C61.6473 17.5793 61.8083 17.5187 62.0043 17.5187C62.2049 17.5187 62.3659 17.5793 62.4873 17.7007C62.6133 17.8173 62.6763 17.9643 62.6763 18.1417C62.6763 18.3143 62.6133 18.4637 62.4873 18.5897C62.3659 18.7157 62.2049 18.7787 62.0043 18.7787ZM63.4467 17.9947V17.1197L66.4497 16.0277V16.5177L63.4467 15.4257V14.5507L66.7787 15.8177V16.7277L63.4467 17.9947Z" fill="#FFB4C9"/>
<path d="M7.61914 7.02344H75.5378" stroke="#DADAFB" stroke-width="1.0104" stroke-miterlimit="10"/>
<path d="M11.701 4.29752C11.701 4.88693 11.2224 5.36458 10.6317 5.36458C10.0411 5.36458 9.5625 4.88693 9.5625 4.29752C9.5625 3.70811 10.0411 3.23047 10.6317 3.23047C11.2224 3.23047 11.701 3.70811 11.701 4.29752Z" fill="#E6A2C1"/>
<path d="M15.4647 4.29752C15.4647 4.88693 14.986 5.36458 14.3954 5.36458C13.8048 5.36458 13.3262 4.88693 13.3262 4.29752C13.3262 3.70811 13.8048 3.23047 14.3954 3.23047C14.986 3.23047 15.4647 3.70811 15.4647 4.29752Z" fill="#F7C945"/>
<path d="M19.2283 4.29752C19.2283 4.88693 18.7497 5.36458 18.1591 5.36458C17.5685 5.36458 17.0898 4.88693 17.0898 4.29752C17.0898 3.70811 17.5685 3.23047 18.1591 3.23047C18.7497 3.23047 19.2283 3.70811 19.2283 4.29752Z" fill="#5AC6B6"/>
<path d="M185.723 98.4558H180.035C178.672 98.4558 177.566 97.3528 177.566 95.9918V91.8984H188.192V95.9918C188.192 97.3525 187.086 98.4558 185.723 98.4558Z" fill="#F7C744"/>
<path d="M187.821 114.877H177.936L180.439 96.5039H185.317L187.821 114.877Z" fill="#F7C744"/>
<path d="M192.271 114.023H173.484V120.812H192.271V114.023Z" fill="#F7C744"/>
<path d="M169.853 60.1559C169.853 60.1559 163.423 55.2059 159.198 59.056C154.973 62.9058 163.423 81.7886 173.16 83.6218" stroke="#F7C744" stroke-width="6.8444" stroke-miterlimit="10"/>
<path d="M182.878 94.3815C175.939 94.3815 170.315 88.7686 170.315 81.8444L168.336 51.707H197.419L195.441 81.8444C195.441 88.7683 189.816 94.3815 182.878 94.3815Z" fill="#F7C744"/>
<path d="M191.713 90.6317C172.961 87.2774 175.84 58.2737 176.74 51.707H168.336L170.315 81.8444C170.315 88.7686 175.939 94.3815 182.878 94.3815C186.376 94.3815 189.539 92.9534 191.817 90.6508C191.782 90.6445 191.748 90.6378 191.713 90.6317Z" fill="#F7BE44"/>
<path d="M197.204 52.5676H168.55C167.271 52.5676 166.234 51.5327 166.234 50.2565C166.234 48.9799 167.271 47.9453 168.55 47.9453H197.204C198.484 47.9453 199.52 48.9802 199.52 50.2565C199.521 51.5327 198.484 52.5676 197.204 52.5676Z" fill="#F7BE44"/>
<path d="M196 60.1559C196 60.1559 202.43 55.2059 206.655 59.056C210.88 62.9058 202.43 81.7886 192.693 83.6218" stroke="#F7C744" stroke-width="6.8444" stroke-miterlimit="10"/>
<path d="M193.205 50.8267L193.918 48.3242L194.632 50.8267L197.139 51.5384L194.632 52.2501L193.918 54.7527L193.205 52.2501L190.697 51.5384L193.205 50.8267Z" fill="white"/>
<path d="M186.898 26.1696C188.531 14.9757 180.762 4.57987 169.545 2.94988C158.328 1.31989 147.911 9.07296 146.278 20.2668C144.644 31.4607 152.413 41.8565 163.63 43.4865C174.847 45.1165 185.264 37.3634 186.898 26.1696Z" fill="white"/>
<path d="M166.58 3.57354C177.453 3.57354 186.268 12.3701 186.268 23.2212C186.268 34.0723 177.453 42.8689 166.58 42.8689C155.706 42.8689 146.892 34.0723 146.892 23.2212C146.891 12.3701 155.706 3.57354 166.58 3.57354ZM166.58 1.90625C154.802 1.90625 145.221 11.4683 145.221 23.2215C145.221 34.9747 154.802 44.5368 166.58 44.5368C178.357 44.5368 187.939 34.9747 187.939 23.2215C187.939 11.4683 178.357 1.90625 166.58 1.90625Z" fill="#FFB4C9"/>
<path d="M153.646 17.3789L166.581 23.2262L176.009 18.7806" fill="white"/>
<path d="M153.646 17.3789L166.581 23.2262L176.009 18.7806" stroke="#FFB4C9" stroke-width="2.6184" stroke-miterlimit="10" stroke-linecap="round" stroke-linejoin="round"/>
<path d="M110.206 134.793C160.301 134.793 200.91 133.252 200.91 131.35C200.91 129.448 160.301 127.906 110.206 127.906C60.1115 127.906 19.502 129.448 19.502 131.35C19.502 133.252 60.1115 134.793 110.206 134.793Z" fill="#F0F0FF"/>
<path d="M177.044 127.922H43.7754V48.0977C43.7754 45.7009 45.7224 43.7578 48.1242 43.7578H172.695C175.097 43.7578 177.044 45.7009 177.044 48.0977V127.922Z" fill="#FF2661"/>
<path d="M46.5645 125.139V48.0991C46.5645 47.241 47.2639 46.543 48.1238 46.543H172.695C173.554 46.543 174.254 47.241 174.254 48.0991V125.139H46.5645Z" fill="black"/>
<path d="M165.831 33.1836H54.9844V122.439H165.831V33.1836Z" fill="white"/>
<path d="M160.76 34.4023H60.0566V122.985H160.76V34.4023Z" stroke="#DADAFB" stroke-width="1.0104" stroke-miterlimit="10"/>
<path d="M165.783 36.5029H54.9043V31.6803C54.9043 30.6789 55.7176 29.8672 56.7212 29.8672H163.967C164.97 29.8672 165.783 30.6789 165.783 31.6803V36.5029Z" fill="#FF2661"/>
<path d="M60.8593 33.1866C60.8593 33.9432 60.2448 34.5568 59.4863 34.5568C58.7282 34.5568 58.1133 33.9432 58.1133 33.1866C58.1133 32.43 58.7278 31.8164 59.4863 31.8164C60.2448 31.8164 60.8593 32.4297 60.8593 33.1866Z" fill="#E6A2C1"/>
<path d="M65.6933 33.1866C65.6933 33.9432 65.0787 34.5568 64.3203 34.5568C63.5621 34.5568 62.9473 33.9432 62.9473 33.1866C62.9473 32.43 63.5618 31.8164 64.3203 31.8164C65.0784 31.8164 65.6933 32.4297 65.6933 33.1866Z" fill="#F7C945"/>
<path d="M70.5253 33.1866C70.5253 33.9432 69.9105 34.5568 69.1523 34.5568C68.3942 34.5568 67.7793 33.9432 67.7793 33.1866C67.7793 32.43 68.3938 31.8164 69.1523 31.8164C69.9108 31.8164 70.5253 32.4297 70.5253 33.1866Z" fill="#5AC6B6"/>
<path d="M82.4768 52.4633C81.9888 52.4633 81.536 52.3869 81.1186 52.234C80.707 52.0752 80.3483 51.8518 80.0425 51.5637C79.7426 51.2756 79.5074 50.9375 79.3369 50.5494C79.1664 50.1554 79.0811 49.7232 79.0811 49.2528C79.0811 48.7824 79.1664 48.3532 79.3369 47.9651C79.5074 47.5712 79.7426 47.2301 80.0425 46.942C80.3483 46.6539 80.707 46.4334 81.1186 46.2805C81.536 46.1217 81.9888 46.0424 82.4768 46.0424C83.0472 46.0424 83.5558 46.1423 84.0027 46.3422C84.4554 46.5422 84.8318 46.8303 85.1317 47.2066L84.0203 48.2121C83.8204 47.9769 83.5999 47.7975 83.3588 47.6741C83.1236 47.5506 82.859 47.4888 82.565 47.4888C82.3122 47.4888 82.0799 47.53 81.8683 47.6123C81.6566 47.6946 81.4743 47.8152 81.3214 47.9739C81.1744 48.1268 81.0568 48.312 80.9686 48.5296C80.8863 48.7472 80.8451 48.9882 80.8451 49.2528C80.8451 49.5174 80.8863 49.7585 80.9686 49.9761C81.0568 50.1936 81.1744 50.3818 81.3214 50.5406C81.4743 50.6934 81.6566 50.811 81.8683 50.8934C82.0799 50.9757 82.3122 51.0168 82.565 51.0168C82.859 51.0168 83.1236 50.9551 83.3588 50.8316C83.5999 50.7081 83.8204 50.5288 84.0203 50.2936L85.1317 51.2991C84.8318 51.6695 84.4554 51.9576 84.0027 52.1634C83.5558 52.3634 83.0472 52.4633 82.4768 52.4633ZM87.5155 48.5561H90.382V49.8614H87.5155V48.5561ZM87.639 50.9904H90.8671V52.3398H85.9103V46.1658H90.7525V47.5153H87.639V50.9904ZM91.8362 52.3398V46.1658H94.6586C95.2231 46.1658 95.7082 46.257 96.1139 46.4393C96.5255 46.6215 96.843 46.8861 97.0665 47.2331C97.2899 47.5741 97.4016 47.9798 97.4016 48.4502C97.4016 48.9147 97.2899 49.3175 97.0665 49.6586C96.843 49.9937 96.5255 50.2524 96.1139 50.4347C95.7082 50.6111 95.2231 50.6993 94.6586 50.6993H92.8064L93.5826 49.9673V52.3398H91.8362ZM95.6553 52.3398L94.1206 50.0907H95.9816L97.5251 52.3398H95.6553ZM93.5826 50.1525L92.8064 49.3499H94.5528C94.9173 49.3499 95.1878 49.2705 95.3642 49.1117C95.5465 48.953 95.6376 48.7325 95.6376 48.4502C95.6376 48.1621 95.5465 47.9387 95.3642 47.7799C95.1878 47.6211 94.9173 47.5418 94.5528 47.5418H92.8064L93.5826 46.7391V50.1525ZM99.5931 52.3398V47.5506H97.6968V46.1658H103.227V47.5506H101.34V52.3398H99.5931ZM103.878 52.3398V46.1658H105.624V52.3398H103.878ZM108.489 48.8736H111.338V50.223H108.489V48.8736ZM108.613 52.3398H106.866V46.1658H111.709V47.5153H108.613V52.3398ZM112.525 52.3398V46.1658H114.272V52.3398H112.525ZM118.592 52.4633C118.104 52.4633 117.652 52.3869 117.234 52.234C116.822 52.0752 116.464 51.8518 116.158 51.5637C115.858 51.2756 115.623 50.9375 115.452 50.5494C115.282 50.1554 115.197 49.7232 115.197 49.2528C115.197 48.7824 115.282 48.3532 115.452 47.9651C115.623 47.5712 115.858 47.2301 116.158 46.942C116.464 46.6539 116.822 46.4334 117.234 46.2805C117.652 46.1217 118.104 46.0424 118.592 46.0424C119.163 46.0424 119.671 46.1423 120.118 46.3422C120.571 46.5422 120.947 46.8303 121.247 47.2066L120.136 48.2121C119.936 47.9769 119.715 47.7975 119.474 47.6741C119.239 47.5506 118.975 47.4888 118.681 47.4888C118.428 47.4888 118.195 47.53 117.984 47.6123C117.772 47.6946 117.59 47.8152 117.437 47.9739C117.29 48.1268 117.172 48.312 117.084 48.5296C117.002 48.7472 116.961 48.9882 116.961 49.2528C116.961 49.5174 117.002 49.7585 117.084 49.9761C117.172 50.1936 117.29 50.3818 117.437 50.5406C117.59 50.6934 117.772 50.811 117.984 50.8934C118.195 50.9757 118.428 51.0168 118.681 51.0168C118.975 51.0168 119.239 50.9551 119.474 50.8316C119.715 50.7081 119.936 50.5288 120.136 50.2936L121.247 51.2991C120.947 51.6695 120.571 51.9576 120.118 52.1634C119.671 52.3634 119.163 52.4633 118.592 52.4633ZM121.182 52.3398L123.907 46.1658H125.627L128.361 52.3398H126.544L124.41 47.0214H125.098L122.963 52.3398H121.182ZM122.672 51.1403L123.122 49.8526H126.138L126.588 51.1403H122.672ZM129.86 52.3398V47.5506H127.964V46.1658H133.494V47.5506H131.607V52.3398H129.86ZM135.75 48.5561H138.616V49.8614H135.75V48.5561ZM135.873 50.9904H139.102V52.3398H134.145V46.1658H138.987V47.5153H135.873V50.9904Z" fill="#FF2661"/>
<path d="M73.8529 49.8455C73.8529 50.6014 73.2389 51.2144 72.4811 51.2144C71.7236 51.2144 71.1094 50.6014 71.1094 49.8455C71.1094 49.0895 71.7233 48.4766 72.4811 48.4766C73.2389 48.4766 73.8529 49.0895 73.8529 49.8455Z" fill="#FFB4C9"/>
<path d="M149.976 49.8455C149.976 50.6014 149.362 51.2144 148.604 51.2144C147.847 51.2144 147.232 50.6014 147.232 49.8455C147.232 49.0895 147.846 48.4766 148.604 48.4766C149.362 48.4766 149.976 49.0895 149.976 49.8455Z" fill="#FFB4C9"/>
<path d="M143.671 67.75H77.1445V71.538H143.671V67.75Z" fill="#DADAFB"/>
<path d="M140.584 73.8945H80.2324V76.3862H140.584V73.8945Z" fill="#F0F0FF"/>
<path d="M148.746 80.6406H72.0723V83.9153H148.746V80.6406Z" fill="#EFA3BF"/>
<path d="M140.584 85.2734H80.2324V87.5951H140.584V85.2734Z" fill="#FADCE7"/>
<path d="M94.3759 61.9928L93.4368 62.4854C93.1468 62.6376 92.8076 62.3918 92.8628 62.0692L93.0421 61.0257C93.0641 60.8977 93.0217 60.7672 92.9285 60.6764L92.1688 59.9373C91.9339 59.709 92.0635 59.311 92.388 59.2642L93.4378 59.112C93.5667 59.0932 93.678 59.0126 93.7355 58.8961L94.2052 57.9465C94.3503 57.6532 94.7696 57.6532 94.9145 57.9465L95.3839 58.8961C95.4416 59.0126 95.553 59.0932 95.6816 59.112L96.7314 59.2642C97.0559 59.3113 97.1854 59.709 96.9506 59.9373L96.1908 60.6764C96.0977 60.7672 96.0549 60.8977 96.0769 61.0257L96.2562 62.0692C96.3118 62.3918 95.9726 62.6376 95.6822 62.4854L94.7431 61.9928C94.6289 61.9323 94.4911 61.9323 94.3759 61.9928Z" fill="#F7C744"/>
<path d="M102.3 61.9928L101.361 62.4854C101.071 62.6376 100.731 62.3918 100.787 62.0692L100.966 61.0257C100.988 60.8977 100.946 60.7672 100.852 60.6764L100.093 59.9373C99.8578 59.709 99.9873 59.311 100.312 59.2642L101.362 59.112C101.491 59.0932 101.602 59.0126 101.659 58.8961L102.129 57.9465C102.274 57.6532 102.693 57.6532 102.838 57.9465L103.308 58.8961C103.366 59.0126 103.477 59.0932 103.606 59.112L104.655 59.2642C104.98 59.3113 105.11 59.709 104.875 59.9373L104.115 60.6764C104.022 60.7672 103.979 60.8977 104.001 61.0257L104.18 62.0692C104.236 62.3918 103.897 62.6376 103.606 62.4854L102.667 61.9928C102.553 61.9323 102.415 61.9323 102.3 61.9928Z" fill="#F7C744"/>
<path d="M110.225 61.9928L109.286 62.4854C108.996 62.6376 108.657 62.3918 108.712 62.0692L108.892 61.0257C108.914 60.8977 108.871 60.7672 108.778 60.6764L108.018 59.9373C107.784 59.709 107.913 59.311 108.238 59.2642L109.287 59.112C109.416 59.0932 109.528 59.0126 109.585 58.8961L110.054 57.9465C110.2 57.6532 110.619 57.6532 110.764 57.9465L111.233 58.8961C111.291 59.0126 111.403 59.0932 111.531 59.112L112.581 59.2642C112.905 59.3113 113.035 59.709 112.8 59.9373L112.04 60.6764C111.947 60.7672 111.904 60.8977 111.927 61.0257L112.106 62.0692C112.161 62.3918 111.822 62.6376 111.532 62.4854L110.593 61.9928C110.478 61.9323 110.341 61.9323 110.225 61.9928Z" fill="#F7C744"/>
<path d="M118.15 61.9928L117.211 62.4854C116.921 62.6376 116.581 62.3918 116.637 62.0692L116.816 61.0257C116.838 60.8977 116.795 60.7672 116.702 60.6764L115.942 59.9373C115.707 59.709 115.837 59.311 116.161 59.2642L117.211 59.112C117.34 59.0932 117.451 59.0126 117.509 58.8961L117.978 57.9465C118.123 57.6532 118.542 57.6532 118.688 57.9465L119.157 58.8961C119.215 59.0126 119.326 59.0932 119.455 59.112L120.505 59.2642C120.829 59.3113 120.959 59.709 120.724 59.9373L119.964 60.6764C119.871 60.7672 119.828 60.8977 119.85 61.0257L120.03 62.0692C120.085 62.3918 119.746 62.6376 119.456 62.4854L118.517 61.9928C118.402 61.9323 118.265 61.9323 118.15 61.9928Z" fill="#F7C744"/>
<path d="M126.073 61.9928L125.134 62.4854C124.844 62.6376 124.505 62.3918 124.56 62.0692L124.74 61.0257C124.762 60.8977 124.719 60.7672 124.626 60.6764L123.866 59.9373C123.631 59.709 123.761 59.311 124.085 59.2642L125.135 59.112C125.264 59.0932 125.376 59.0126 125.433 58.8961L125.903 57.9465C126.048 57.6532 126.467 57.6532 126.612 57.9465L127.081 58.8961C127.139 59.0126 127.251 59.0932 127.379 59.112L128.429 59.2642C128.753 59.3113 128.883 59.709 128.648 59.9373L127.888 60.6764C127.795 60.7672 127.753 60.8977 127.774 61.0257L127.954 62.0692C128.009 62.3918 127.67 62.6376 127.38 62.4854L126.441 61.9928C126.326 61.9323 126.189 61.9323 126.073 61.9928Z" fill="#F7C744"/>
<path d="M101.981 107.352L96.3516 114.351L101.535 114.026L103.705 118.965L108.627 109.27L101.981 107.352Z" fill="#FF2661"/>
<path d="M115.531 107.352L121.16 114.351L115.977 114.026L113.807 118.965L108.885 109.27L115.531 107.352Z" fill="#FF2661"/>
<path d="M110.67 91.2914C110.86 91.7534 111.488 91.8193 111.77 91.4067C112.086 90.9433 112.806 91.0962 112.906 91.6477C112.995 92.139 113.596 92.3339 113.958 91.9887C114.363 91.6012 115.036 91.8999 115.019 92.4603C115.004 92.9593 115.551 93.2746 115.976 93.0119C116.454 92.717 117.049 93.1488 116.916 93.6933C116.797 94.1783 117.267 94.6002 117.738 94.4314C118.266 94.2419 118.759 94.7881 118.515 95.2928C118.298 95.7424 118.669 96.2525 119.165 96.1853C119.721 96.1098 120.089 96.7461 119.745 97.1893C119.439 97.5842 119.696 98.1602 120.195 98.1971C120.755 98.2385 120.983 98.9375 120.554 99.2995C120.172 99.6221 120.303 100.239 120.784 100.379C121.323 100.536 121.4 101.266 120.905 101.532C120.465 101.768 120.465 102.399 120.905 102.635C121.4 102.9 121.323 103.631 120.784 103.788C120.303 103.928 120.172 104.544 120.554 104.867C120.983 105.229 120.755 105.928 120.195 105.969C119.696 106.006 119.439 106.583 119.745 106.977C120.089 107.42 119.721 108.057 119.165 107.981C118.669 107.914 118.297 108.424 118.515 108.874C118.759 109.379 118.266 109.925 117.738 109.735C117.267 109.566 116.797 109.989 116.916 110.473C117.049 111.018 116.454 111.449 115.976 111.155C115.551 110.892 115.004 111.207 115.019 111.706C115.036 112.266 114.363 112.565 113.958 112.178C113.596 111.833 112.995 112.027 112.906 112.519C112.806 113.07 112.086 113.223 111.77 112.76C111.488 112.347 110.86 112.413 110.67 112.875C110.458 113.394 109.721 113.394 109.509 112.875C109.319 112.413 108.691 112.347 108.409 112.76C108.093 113.223 107.373 113.07 107.273 112.519C107.184 112.027 106.583 111.833 106.222 112.178C105.816 112.565 105.143 112.267 105.16 111.706C105.176 111.207 104.628 110.892 104.203 111.155C103.725 111.449 103.13 111.018 103.263 110.473C103.382 109.988 102.913 109.566 102.442 109.735C101.913 109.925 101.42 109.378 101.665 108.874C101.882 108.424 101.51 107.914 101.015 107.981C100.458 108.057 100.09 107.42 100.434 106.977C100.74 106.582 100.483 106.006 99.9842 105.969C99.4242 105.928 99.1967 105.229 99.6253 104.867C100.007 104.544 99.8757 103.928 99.3955 103.788C98.8563 103.631 98.7794 102.9 99.2739 102.635C99.7146 102.399 99.7146 101.768 99.2739 101.532C98.779 101.266 98.8563 100.536 99.3955 100.379C99.8757 100.239 100.007 99.6221 99.6253 99.2995C99.1964 98.9375 99.4239 98.2385 99.9842 98.1971C100.483 98.1602 100.74 97.5839 100.434 97.1893C100.09 96.7461 100.458 96.1098 101.015 96.1853C101.51 96.2525 101.882 95.7424 101.665 95.2928C101.42 94.7877 101.913 94.2419 102.442 94.4314C102.912 94.6002 103.382 94.1779 103.263 93.6933C103.13 93.1488 103.725 92.717 104.203 93.0119C104.628 93.2746 105.176 92.9593 105.16 92.4603C105.143 91.9002 105.816 91.6012 106.222 91.9887C106.583 92.3339 107.184 92.139 107.273 91.6477C107.373 91.0962 108.093 90.9433 108.409 91.4067C108.691 91.8193 109.319 91.7534 109.509 91.2914C109.721 90.7727 110.458 90.7727 110.67 91.2914Z" fill="#F7C744"/>
<path d="M109.723 105.964L107.854 106.944C107.277 107.248 106.602 106.758 106.712 106.116L107.069 104.039C107.113 103.785 107.028 103.525 106.842 103.344L105.33 101.873C104.863 101.419 105.121 100.627 105.767 100.533L107.856 100.23C108.113 100.193 108.334 100.032 108.449 99.8002L109.384 97.9107C109.672 97.3267 110.507 97.3267 110.796 97.9107L111.73 99.8002C111.845 100.032 112.067 100.193 112.323 100.23L114.413 100.533C115.059 100.627 115.316 101.419 114.849 101.873L113.337 103.344C113.151 103.525 113.067 103.784 113.11 104.039L113.467 106.116C113.578 106.758 112.903 107.247 112.325 106.944L110.456 105.964C110.227 105.844 109.953 105.844 109.723 105.964Z" fill="#F7E4AF"/>
<path d="M110.09 110.89C114.963 110.89 118.914 106.947 118.914 102.083C118.914 97.22 114.963 93.2773 110.09 93.2773C105.216 93.2773 101.266 97.22 101.266 102.083C101.266 106.947 105.216 110.89 110.09 110.89Z" stroke="#FFF6DE" stroke-width="0.3959" stroke-miterlimit="10"/>
<path d="M194.937 118.32V124.759C194.937 125.638 194.752 126.469 194.42 127.224C193.472 129.392 191.303 130.908 188.776 130.908H30.6088C27.2073 130.908 24.4473 128.157 24.4473 124.759V118.32H90.3604C90.4115 119.54 91.4134 120.511 92.6483 120.511H126.736C127.371 120.511 127.942 120.256 128.36 119.839C128.753 119.448 129.002 118.913 129.024 118.32H194.937Z" fill="#FF2661"/>
<path opacity="0.33" d="M194.42 127.224C193.472 129.392 191.303 130.908 188.775 130.908H30.6088C27.2073 130.908 24.4473 128.157 24.4473 124.759V118.32H78.7968C86.8119 127.68 107.403 125.466 143.418 124.097C170.202 123.081 185.588 124.813 194.42 127.224Z" fill="#3A274A"/>
<path d="M30.8792 91.8182C21.5645 91.8182 12.8768 87.6532 7.04363 80.3914C2.72547 75.0164 0.347656 68.2549 0.347656 61.352C0.347656 44.5514 14.044 30.8828 30.8792 30.8828C47.7128 30.8828 61.4079 44.551 61.4079 61.352C61.4079 70.7644 57.1478 79.503 49.7202 85.3274C44.2973 89.5736 37.7823 91.8182 30.8792 91.8182Z" fill="white"/>
<path d="M30.8795 31.206C47.5609 31.206 61.0856 44.7033 61.0856 61.3533C61.0856 70.9797 56.5623 79.5543 49.5211 85.0755C44.3851 89.0973 37.9144 91.4976 30.8795 91.4976C21.3396 91.4976 12.8312 87.0832 7.29572 80.1915C3.14954 75.0307 0.670259 68.48 0.670259 61.3533C0.670259 44.7033 14.1953 31.206 30.8795 31.206ZM30.8795 30.5625C13.8666 30.5625 0.0253906 44.3753 0.0253906 61.3533C0.0253906 68.3291 2.42873 75.1619 6.79252 80.594C12.687 87.9322 21.4662 92.1412 30.8795 92.1412C37.8557 92.1412 44.4393 89.873 49.919 85.5818C57.4254 79.696 61.7305 70.8654 61.7305 61.3536C61.7308 44.3753 47.8912 30.5625 30.8795 30.5625Z" fill="#DADAFB"/>
<path d="M29.52 39.4814C29.52 39.4814 21.9753 37.568 17.1064 42.1632C12.2375 46.7585 15.0199 50.3962 15.0199 50.3962C15.0199 50.3962 7.86569 53.5553 8.5613 58.5336C9.2569 63.5116 15.5167 65.9049 15.5167 65.9049C15.5167 65.9049 13.2314 71.3619 19.392 73.7552C25.5525 76.1485 28.8317 70.5002 28.8317 70.5002C28.8317 70.5002 33.2038 77.5843 38.7683 74.6168C44.3328 71.6491 41.5504 65.235 41.5504 65.235C41.5504 65.235 45.5249 68.7772 47.9098 63.8947C50.2946 59.0122 46.1175 55.7703 46.1175 55.7703C46.1175 55.7703 50.7914 50.492 48.5061 45.2268C46.2202 39.9613 37.5686 32.3015 29.52 39.4814Z" fill="#0C0D17"/>
<path d="M49.5203 85.0758C44.3843 89.0975 37.9136 91.4978 30.8787 91.4978C21.3388 91.4978 12.8304 87.0835 7.29492 80.1917C12.0633 74.1043 21.4453 73.3516 21.4453 73.3516L31.9202 73.6155C40.1995 73.9467 48.1051 78.1582 49.5203 85.0758Z" fill="#E9735B"/>
<path d="M22.0957 54.5013C22.0957 54.5013 20.3273 52.5143 18.5526 53.1728C16.7778 53.8313 17.0602 60.9415 21.2558 59.1895L22.0957 54.5013Z" fill="#BD7862"/>
<path d="M20.2112 58.573C20.2112 58.8854 19.9575 59.1382 19.6445 59.1382C19.3318 59.1382 19.0781 58.8851 19.0781 58.573C19.0781 58.261 19.3318 58.0078 19.6445 58.0078C19.9575 58.0075 20.2112 58.2606 20.2112 58.573Z" fill="white"/>
<path d="M18.4336 55.1592C18.4336 55.1592 19.7013 53.7762 20.8806 55.6887" stroke="#0C0D17" stroke-width="1.1353" stroke-miterlimit="10" stroke-linecap="round"/>
<path d="M19.1127 56.4542C19.1127 56.4542 18.9653 54.8652 19.9972 54.8359" stroke="#0C0D17" stroke-width="1.1353" stroke-miterlimit="10" stroke-linecap="round"/>
<path d="M43.7852 55.806C43.7852 55.806 45.5535 53.819 47.3283 54.4775C49.103 55.136 48.976 62.8264 44.3059 60.4942L43.7852 55.806Z" fill="#BD7862"/>
<path d="M46.9628 59.6863C46.9628 59.9987 46.7092 60.2515 46.3965 60.2515C46.0837 60.2515 45.8301 59.9984 45.8301 59.6863C45.8301 59.3742 46.0837 59.1211 46.3965 59.1211C46.7092 59.1208 46.9628 59.3739 46.9628 59.6863Z" fill="white"/>
<path d="M47.4471 56.4638C47.4471 56.4638 46.1793 55.0809 45 56.9934" stroke="#0C0D17" stroke-width="1.1353" stroke-miterlimit="10" stroke-linecap="round"/>
<path d="M46.7693 57.7589C46.7693 57.7589 46.9167 56.1699 45.8848 56.1406" stroke="#0C0D17" stroke-width="1.1353" stroke-miterlimit="10" stroke-linecap="round"/>
<path d="M44.7351 58.1656C44.7041 58.5124 44.6706 58.8591 44.6314 59.1973C44.6119 59.3932 44.5892 59.5833 44.564 59.7734C44.4157 60.9506 44.2111 62.0664 43.9814 63.0869C43.8748 63.5566 43.7599 64.004 43.6368 64.4262C43.3145 65.5532 42.953 66.5094 42.5774 67.2281C41.1064 70.0357 39.0525 71.4785 37.1498 72.1914C34.4401 73.2066 32.0333 72.7703 32.0333 72.7703L32.0192 75.6365C29.4468 78.2594 21.8982 76.4418 21.604 76.3746C21.6181 76.2266 21.604 75.0799 21.335 68.1646C21.223 65.399 20.8925 61.6352 20.8867 57.7427C20.8925 48.7468 22.6688 38.9711 33.0224 38.7418C40.616 38.574 43.7711 44.449 44.6173 51.0373C44.9255 53.4061 44.9284 55.864 44.7351 58.1656Z" fill="#BD7862"/>
<path d="M30.5131 61.6919C30.5572 63.2127 28.9949 64.4919 27.0233 64.5489C25.0517 64.6055 23.418 63.4188 23.374 61.898C23.3299 60.3771 24.8922 59.098 26.8638 59.041C28.8351 58.9843 30.4691 60.1711 30.5131 61.6919Z" fill="#AD5F45"/>
<path d="M44.6328 59.1998C44.6133 59.3956 44.5907 59.5857 44.5655 59.7758C44.4171 60.953 44.2125 62.0688 43.9828 63.0894C43.8762 63.559 43.7614 64.0064 43.6382 64.4287C43.4952 64.4481 43.3469 64.4596 43.1982 64.465C41.2285 64.521 39.5948 63.3381 39.5498 61.8169C39.5048 60.2987 41.0686 59.0151 43.0383 58.959C43.6098 58.9425 44.1506 59.0294 44.6328 59.1998Z" fill="#AD5F45"/>
<path d="M32.0014 72.989C30.8469 72.8454 28.1376 72.1656 26.1797 70.4219C26.1797 70.4219 28.659 74.3484 32.0135 75.1397L32.0014 72.989Z" fill="#AD5F45"/>
<path d="M25.3535 69.6211C25.3535 69.6211 27.9499 72.5662 32.0023 72.9882" stroke="#0C0D17" stroke-width="1.1353" stroke-miterlimit="10" stroke-linecap="round"/>
<path d="M35.2002 56.625L36.0914 59.3412C36.2324 59.7711 35.988 60.2322 35.5525 60.3579L34.3125 60.7155" stroke="#0C0D17" stroke-width="1.6098" stroke-miterlimit="10" stroke-linecap="round" stroke-linejoin="round"/>
<path d="M27.791 56.0226C27.791 56.0226 28.7684 54.2467 31.1966 54.2461" stroke="#0C0D17" stroke-width="2.4903" stroke-miterlimit="10" stroke-linecap="round" stroke-linejoin="round"/>
<path d="M38.0254 54.0137C38.0254 54.0137 39.729 53.6637 41.2319 55.1135" stroke="#0C0D17" stroke-width="2.4903" stroke-miterlimit="10" stroke-linecap="round" stroke-linejoin="round"/>
<path d="M36.5603 62.4694L32.0762 62.0898C32.0762 62.0898 32.4176 64.5462 34.1984 64.5927C35.9795 64.6392 36.5603 62.4694 36.5603 62.4694Z" fill="white"/>
<path d="M32.9733 58.2962C32.9733 58.2962 32.7225 56.4716 31.0799 56.4688C29.4372 56.4659 29.166 58.2962 29.166 58.2962" stroke="#0C0D17" stroke-width="1.6098" stroke-miterlimit="10" stroke-linecap="round"/>
<path d="M28.1797 57.2539C28.1797 57.2539 28.6424 57.9621 29.2904 57.6851" stroke="#0C0D17" stroke-width="1.6098" stroke-miterlimit="10" stroke-linecap="round" stroke-linejoin="round"/>
<path d="M40.9311 58.2961C40.9311 58.2961 40.9369 56.4798 39.2942 56.4766C37.6516 56.4737 37.3887 58.2961 37.3887 58.2961" stroke="#0C0D17" stroke-width="1.6098" stroke-miterlimit="10" stroke-linecap="round"/>
<path d="M41.6552 57.3711C41.6552 57.3711 41.6552 57.9936 40.9746 57.9089" stroke="#0C0D17" stroke-width="1.4068" stroke-miterlimit="10" stroke-linecap="round" stroke-linejoin="round"/>
<path d="M44.9052 51.0023C43.8657 42.9075 39.7572 38.4492 33.3369 38.4492C33.2303 38.4492 33.1234 38.4505 33.0149 38.453C25.1083 38.6282 21.0591 44.2141 20.636 55.5304L20.6348 55.5635L20.6411 55.596C20.8473 56.6668 21.4379 57.2569 22.3039 57.2569C23.8259 57.2569 24.5911 53.8857 24.9197 51.7904C25.2988 52.726 26.0155 53.7771 27.3209 53.7771C27.5844 53.7771 27.8633 53.7316 28.1492 53.6421C30.0245 53.0555 30.8783 50.9278 31.2497 49.4716C31.6696 50.823 32.6062 52.6505 34.5976 52.6505C34.6681 52.6505 34.7396 52.6483 34.8126 52.6432C36.9492 52.5012 38.485 50.325 39.2897 48.8415C39.2718 50.425 39.4559 52.7947 40.6349 53.5672C40.9473 53.772 41.2667 53.8758 41.5845 53.8758C42.2932 53.8758 42.8452 53.3641 43.2186 52.8552C43.2482 54.2719 43.4135 56.5726 44.1506 57.3298C44.3354 57.5196 44.5578 57.6199 44.7939 57.6199H44.7952L45.0686 57.6196L45.0855 57.347C45.2237 55.1167 45.1631 52.9823 44.9052 51.0023Z" fill="#0C0D17"/>
<path d="M37.7764 27.7891L39.7221 37.0846C39.7221 37.0846 26.0685 42.8536 15.6016 39.9782L14.3945 29.7993L37.7764 27.7891Z" fill="#FF2661"/>
<path d="M15.6013 39.9785C18.7044 40.8309 22.0876 40.9236 25.3123 40.6319C32.0271 35.3266 37.776 27.7891 37.776 27.7891L14.3945 29.7996L15.6013 39.9785Z" fill="#FF2661"/>
<path d="M46.5029 24.931L26.228 35.0216L5.86914 30.4239L23.8779 20.2383L46.5029 24.931Z" fill="#FF2661"/>
<path d="M18.2683 27.9106C15.0704 28.5851 12.6942 30.202 11.1387 31.6136L13.7408 32.2011C16.1298 29.6875 24.6449 27.3645 24.6449 27.3645C24.6449 27.3645 23.9477 26.7127 18.2683 27.9106Z" fill="#FF2661"/>
<path d="M35.44 30.1211L26.0911 34.7959L12.9062 31.7559" stroke="#0C0D17" stroke-width="1.315" stroke-miterlimit="10" stroke-linecap="round" stroke-linejoin="round"/>
<path d="M6.4707 40.1214C6.4707 40.1214 8.19057 26.4022 25.3777 27.4256" stroke="#F7C945" stroke-width="1.9725" stroke-miterlimit="10" stroke-linecap="round"/>
<path d="M6.79567 38.7852C8.01904 39.1268 9.00342 44.9983 9.00342 44.9983L4.08984 45.1515C4.08984 45.1515 4.47338 39.1319 6.79567 38.7852Z" fill="#F7C945"/>
<path opacity="0.5" d="M16.758 96.935H41.5696C46.1465 96.935 49.8569 93.2323 49.8569 88.6648C49.8569 84.0972 46.1465 80.3945 41.5696 80.3945H16.758C12.181 80.3945 8.4707 84.0972 8.4707 88.6648C8.4707 93.2323 12.181 96.935 16.758 96.935Z" fill="#3A274A"/>
<path d="M44.9336 90.4714C45.8965 87.1767 44.0008 83.7268 40.6993 82.7659C37.3978 81.8049 33.9408 83.6968 32.9779 86.9915C32.015 90.2862 33.9108 93.736 37.2122 94.697C40.5137 95.6579 43.9707 93.7661 44.9336 90.4714Z" fill="#FF2661"/>
<path d="M36.7535 85.136L35.4941 85.7334C35.3766 85.7891 35.3055 85.911 35.3154 86.0403C35.361 86.6437 35.6277 88.3967 37.1686 89.9837C38.9721 91.8411 40.9386 92.2643 41.5997 92.357C41.7357 92.3761 41.8678 92.3057 41.9274 92.1825L42.5774 90.8381C42.6249 90.7397 42.5937 90.6212 42.5034 90.5595L41.0975 89.5911C41.0129 89.5332 40.8997 89.5402 40.8234 89.6083L40.0525 90.2955C40.0525 90.2955 39.0072 90.1035 38.2021 89.2883C37.3971 88.4728 37.421 87.4656 37.421 87.4656L37.9711 86.952C38.0834 86.8469 38.1035 86.6762 38.0183 86.5482L37.1517 85.2462C37.0643 85.1156 36.8948 85.0688 36.7535 85.136Z" fill="#FCFCFC"/>
<path d="M21.7174 94.4806C24.9016 93.1843 26.4299 89.5575 25.131 86.3798C23.8321 83.2022 20.1978 81.677 17.0136 82.9732C13.8294 84.2695 12.301 87.8963 13.6 91.074C14.8989 94.2516 18.5332 95.7768 21.7174 94.4806Z" fill="#FF2661"/>
<path d="M20.881 86.4648H15.8711V91.1486H20.881V86.4648Z" fill="#FCFCFC"/>
<path d="M20.8809 89.9669L22.9192 91.1486V86.4648L20.8809 87.6465V89.9669Z" fill="#FCFCFC"/>
</g>
<defs>
<clipPath id="clip0_2601_11023">
<rect width="211" height="135" fill="white" transform="translate(0.5)"/>
</clipPath>
</defs>
</svg>
