<svg width="22" height="28" viewBox="0 0 22 28" fill="none" xmlns="http://www.w3.org/2000/svg">
<g clip-path="url(#clip0_1616_8509)">
<path fill-rule="evenodd" clip-rule="evenodd" d="M14.0842 13.7914L8.36257 13.8425L6.36173 9.4816C5.2613 7.08312 4.3599 5.10095 4.35862 5.0768C4.35737 5.05269 7.71783 6.92944 11.8264 9.24731C15.9349 11.5652 19.411 13.5244 19.5511 13.601L19.8058 13.7402L14.0842 13.7914ZM12.1702 18.701C7.97758 21.1787 4.5401 23.1988 4.5314 23.1902C4.52269 23.1816 5.38332 21.1774 6.44389 18.7364L8.37217 14.2983L14.0827 14.2473L19.7932 14.1962L12.1702 18.701Z" fill="#FFAB00"/>
</g>
<defs>
<clipPath id="clip0_1616_8509">
<rect width="22" height="22" fill="white" transform="matrix(-1 0 0 1 22 2.99881)"/>
</clipPath>
</defs>
</svg>
