<svg width="72" height="72" viewBox="0 0 72 72" fill="none" xmlns="http://www.w3.org/2000/svg">
<g opacity="0.92">
<rect width="72" height="72" rx="14" fill="#FF4C00" fill-opacity="0.1"/>
<g clip-path="url(#clip0_725_3073)">
<path d="M50.5257 21.4526H37.4525C37.4525 20.6504 36.8021 20 35.9999 20C35.1977 20 34.5473 20.6504 34.5473 21.4526H21.4741C20.6719 21.4526 20.0215 22.103 20.0215 22.9052V24.3578C20.0215 25.16 20.6719 25.8104 21.4741 25.8104V43.2414C21.4741 44.0436 22.1245 44.694 22.9267 44.694H35.2736V46.575L31.1265 50.7222C30.8218 50.9831 30.7863 51.4416 31.0472 51.7462C31.3081 52.0509 31.7667 52.0864 32.0713 51.8254C32.0997 51.8011 32.1262 51.7746 32.1505 51.7462L35.9999 47.8969L39.8419 51.7389C40.1028 52.0436 40.5613 52.0791 40.866 51.8181C41.1706 51.5572 41.2061 51.0987 40.9452 50.7941C40.9208 50.7657 40.8944 50.7391 40.866 50.7149L36.7261 46.575V44.694H49.073C49.8753 44.694 50.5256 44.0436 50.5256 43.2414V25.8103C51.3279 25.8103 51.9782 25.16 51.9782 24.3577V22.9051C51.9782 22.1029 51.3279 21.4526 50.5257 21.4526ZM49.0731 43.2413H22.9267V25.8103H49.0731V43.2413ZM50.5257 24.3577H21.4741V22.9051H50.5257V24.3577Z" fill="#FF4C00"/>
</g>
</g>
<defs>
<clipPath id="clip0_725_3073">
<rect width="32" height="32" fill="white" transform="translate(20 20)"/>
</clipPath>
</defs>
</svg>
