<svg width="72" height="72" viewBox="0 0 72 72" fill="none" xmlns="http://www.w3.org/2000/svg">
<g opacity="0.92">
<rect width="72" height="72" rx="14" fill="#FF4C00" fill-opacity="0.1"/>
<path d="M47.3333 52.0002H31.3333C30.4496 51.9991 29.6024 51.6476 28.9775 51.0227C28.3526 50.3978 28.0011 49.5506 28 48.6668V28.6668C28 26.8282 29.496 25.3335 31.3333 25.3335H47.3333C49.1707 25.3335 50.6667 26.8282 50.6667 28.6668V48.6668C50.6667 50.5055 49.1707 52.0002 47.3333 52.0002ZM31.3333 26.6668C30.2307 26.6668 29.3333 27.5642 29.3333 28.6668V48.6668C29.3333 49.7695 30.2307 50.6668 31.3333 50.6668H47.3333C48.436 50.6668 49.3333 49.7695 49.3333 48.6668V28.6668C49.3333 27.5642 48.436 26.6668 47.3333 26.6668H31.3333Z" fill="#FF4C00"/>
<path d="M25.9997 48H24.6663C23.7826 47.9989 22.9354 47.6474 22.3105 47.0225C21.6856 46.3976 21.3341 45.5504 21.333 44.6667V23.3333C21.333 21.4947 22.829 20 24.6663 20H40.6663C42.5037 20 43.9997 21.4947 43.9997 23.3333C43.9997 23.5101 43.9294 23.6797 43.8044 23.8047C43.6794 23.9298 43.5098 24 43.333 24C43.1562 24 42.9866 23.9298 42.8616 23.8047C42.7366 23.6797 42.6663 23.5101 42.6663 23.3333C42.6663 22.2307 41.769 21.3333 40.6663 21.3333H24.6663C23.5637 21.3333 22.6663 22.2307 22.6663 23.3333V44.6667C22.6663 45.7693 23.5637 46.6667 24.6663 46.6667H25.9997C26.1765 46.6667 26.3461 46.7369 26.4711 46.8619C26.5961 46.987 26.6663 47.1565 26.6663 47.3333C26.6663 47.5101 26.5961 47.6797 26.4711 47.8047C26.3461 47.9298 26.1765 48 25.9997 48ZM44.6663 42.6667H33.9997C33.8229 42.6667 33.6533 42.5964 33.5283 42.4714C33.4032 42.3464 33.333 42.1768 33.333 42C33.333 41.8232 33.4032 41.6536 33.5283 41.5286C33.6533 41.4036 33.8229 41.3333 33.9997 41.3333H44.6663C44.8432 41.3333 45.0127 41.4036 45.1377 41.5286C45.2628 41.6536 45.333 41.8232 45.333 42C45.333 42.1768 45.2628 42.3464 45.1377 42.4714C45.0127 42.5964 44.8432 42.6667 44.6663 42.6667ZM44.6663 48H33.9997C33.8229 48 33.6533 47.9298 33.5283 47.8047C33.4032 47.6797 33.333 47.5101 33.333 47.3333C33.333 47.1565 33.4032 46.987 33.5283 46.8619C33.6533 46.7369 33.8229 46.6667 33.9997 46.6667H44.6663C44.8432 46.6667 45.0127 46.7369 45.1377 46.8619C45.2628 46.987 45.333 47.1565 45.333 47.3333C45.333 47.5101 45.2628 47.6797 45.1377 47.8047C45.0127 47.9298 44.8432 48 44.6663 48Z" fill="#FF4C00"/>
<path d="M44.6663 37.3332H33.9997C33.8229 37.3332 33.6533 37.2629 33.5283 37.1379C33.4032 37.0129 33.333 36.8433 33.333 36.6665C33.333 36.4897 33.4032 36.3201 33.5283 36.1951C33.6533 36.0701 33.8229 35.9998 33.9997 35.9998H44.6663C44.8432 35.9998 45.0127 36.0701 45.1377 36.1951C45.2628 36.3201 45.333 36.4897 45.333 36.6665C45.333 36.8433 45.2628 37.0129 45.1377 37.1379C45.0127 37.2629 44.8432 37.3332 44.6663 37.3332ZM44.6663 31.9998H33.9997C33.8229 31.9998 33.6533 31.9296 33.5283 31.8046C33.4032 31.6796 33.333 31.51 33.333 31.3332C33.333 31.1564 33.4032 30.9868 33.5283 30.8618C33.6533 30.7367 33.8229 30.6665 33.9997 30.6665H44.6663C44.8432 30.6665 45.0127 30.7367 45.1377 30.8618C45.2628 30.9868 45.333 31.1564 45.333 31.3332C45.333 31.51 45.2628 31.6796 45.1377 31.8046C45.0127 31.9296 44.8432 31.9998 44.6663 31.9998Z" fill="#FF4C00"/>
</g>
</svg>
