<svg width="72" height="72" viewBox="0 0 72 72" fill="none" xmlns="http://www.w3.org/2000/svg">
<g opacity="0.92">
<rect width="72" height="72" rx="14" fill="#FF4C00" fill-opacity="0.1"/>
<g clip-path="url(#clip0_725_3115)">
<path d="M51.4667 20.2979H20.5333C20.3919 20.2979 20.2562 20.354 20.1562 20.4541C20.0562 20.5541 20 20.6897 20 20.8312V42.1645C20 42.306 20.0562 42.4416 20.1562 42.5416C20.2562 42.6417 20.3919 42.6979 20.5333 42.6979H30.1637C30.1797 42.8755 30.2059 43.0504 30.2373 43.2237L27.312 46.7101C27.2535 46.7798 27.2138 46.8632 27.1966 46.9526C27.1795 47.0419 27.1854 47.1341 27.214 47.2205C27.2425 47.3069 27.2927 47.3845 27.3597 47.446C27.4267 47.5076 27.5083 47.5509 27.5968 47.572L30.8171 48.3411L32.1339 51.3811C32.17 51.4645 32.2269 51.5373 32.2991 51.5926C32.3713 51.6479 32.4565 51.6838 32.5465 51.6969C32.6365 51.71 32.7283 51.6998 32.8133 51.6674C32.8983 51.635 32.9736 51.5814 33.032 51.5117L35.9525 48.0312H36.0475L38.968 51.5117C39.0264 51.5814 39.1017 51.635 39.1867 51.6674C39.2717 51.6998 39.3635 51.71 39.4535 51.6969C39.5435 51.6838 39.6287 51.6479 39.7009 51.5926C39.7731 51.5373 39.83 51.4645 39.8661 51.3811L41.1829 48.3411L44.4032 47.572C44.4917 47.5509 44.5733 47.5076 44.6403 47.446C44.7073 47.3845 44.7575 47.3069 44.786 47.2205C44.8146 47.1341 44.8206 47.0419 44.8034 46.9526C44.7862 46.8632 44.7465 46.7798 44.688 46.7101L41.7627 43.2237C41.7941 43.0504 41.8203 42.8755 41.8363 42.6979H51.4667C51.6081 42.6979 51.7438 42.6417 51.8438 42.5416C51.9438 42.4416 52 42.306 52 42.1645V20.8312C52 20.6897 51.9438 20.5541 51.8438 20.4541C51.7438 20.354 51.6081 20.2979 51.4667 20.2979ZM32.7696 50.1645L31.6896 47.6739C31.6567 47.5979 31.6065 47.5306 31.5431 47.4774C31.4797 47.4242 31.4048 47.3864 31.3243 47.3672L28.6843 46.7363L30.5989 44.4541C30.6091 44.4776 30.6224 44.4989 30.6325 44.5224C30.7019 44.6824 30.7771 44.8344 30.8603 44.9853C30.8947 45.048 30.9302 45.1101 30.9669 45.1715C31.0403 45.2936 31.1179 45.4131 31.1995 45.5299C31.2565 45.6115 31.3163 45.6899 31.3776 45.7699C31.5262 45.9591 31.6862 46.1391 31.8565 46.3091C31.9221 46.3747 31.9899 46.4381 32.0592 46.5005C32.1168 46.5539 32.1685 46.6099 32.2288 46.6605C32.2891 46.7112 32.3456 46.7453 32.4032 46.7901C32.4293 46.8104 32.4517 46.8339 32.4784 46.8536C32.5264 46.8899 32.5771 46.9213 32.6261 46.956C32.7029 47.0093 32.7787 47.0669 32.8581 47.116C33.0091 47.2123 33.1647 47.3013 33.3243 47.3827C33.3851 47.4136 33.4469 47.4419 33.5088 47.4707C33.6495 47.5369 33.7928 47.5977 33.9381 47.6531C33.9797 47.6685 34.0208 47.6861 34.0624 47.7005C34.2644 47.7715 34.4703 47.8312 34.6789 47.8792L34.6848 47.8808L32.7696 50.1645ZM37.0016 46.8515C36.757 46.9031 36.5088 46.9358 36.2592 46.9491H36.2523C36.168 46.9533 36.0837 46.9592 35.9989 46.9592C35.9141 46.9592 35.8299 46.9533 35.7456 46.9491H35.7387C35.4896 46.9357 35.242 46.9033 34.9979 46.852L34.9531 46.8429C34.8581 46.8221 34.7643 46.7965 34.6715 46.7699C34.6325 46.7587 34.5931 46.7485 34.5547 46.7363C34.488 46.7155 34.4224 46.6909 34.3568 46.6675C34.2926 46.6449 34.2289 46.6207 34.1659 46.5949C34.1267 46.5783 34.0881 46.5606 34.0501 46.5416C33.9627 46.5021 33.8757 46.4621 33.7909 46.4179L33.7483 46.3944C33.5284 46.2768 33.318 46.1423 33.1189 45.9923C33.008 45.9096 32.9056 45.8184 32.8048 45.7283C32.6856 45.6219 32.5718 45.5096 32.464 45.3917C32.4213 45.3459 32.3755 45.3021 32.3349 45.2547C32.186 45.0795 32.0502 44.8935 31.9285 44.6984C31.9104 44.6696 31.8949 44.6392 31.8752 44.6093C31.7618 44.4198 31.662 44.2225 31.5765 44.0189C31.5691 44.0008 31.5605 43.9827 31.5536 43.9656C31.4591 43.7323 31.3831 43.4919 31.3264 43.2467C31.3264 43.2371 31.3189 43.2296 31.3163 43.22C31.2388 42.8735 31.1998 42.5195 31.2 42.1645C31.1984 39.5135 33.3461 37.3633 35.9971 37.3616C38.6481 37.36 40.7983 39.5077 40.8 42.1587C40.8002 42.5177 40.7601 42.8757 40.6805 43.2258C40.6779 43.2349 40.6725 43.2429 40.6704 43.2519C40.6137 43.4969 40.5379 43.7371 40.4437 43.9703C40.4363 43.989 40.4277 44.0077 40.4197 44.0237C40.3345 44.226 40.2351 44.422 40.1221 44.6103C40.1045 44.6402 40.0885 44.6717 40.0688 44.7015C39.9472 44.8964 39.8115 45.0821 39.6629 45.2573C39.6229 45.3042 39.5776 45.3469 39.5355 45.3927C39.4262 45.5117 39.311 45.625 39.1904 45.7325C39.0891 45.8226 38.9883 45.9138 38.8779 45.9959C38.775 46.0732 38.6693 46.1467 38.5611 46.2162L38.5547 46.2199C38.4584 46.2808 38.3599 46.3379 38.2592 46.3911C38.2395 46.4018 38.2203 46.413 38.2005 46.4231C38.12 46.4653 38.0405 46.5031 37.9557 46.5399C37.9131 46.5591 37.8709 46.5789 37.8277 46.5965C37.768 46.6215 37.7072 46.6434 37.6464 46.6653C37.5856 46.6871 37.5104 46.7154 37.4411 46.7367C37.4043 46.7485 37.3669 46.7586 37.3296 46.7693C37.2352 46.7959 37.1403 46.8226 37.0443 46.8429L37.0016 46.8515ZM43.3157 46.7347L40.6757 47.3656C40.5952 47.3848 40.5203 47.4226 40.4569 47.4758C40.3935 47.529 40.3433 47.5963 40.3104 47.6723L39.2304 50.1645L37.3152 47.8824H37.32C37.5295 47.8345 37.736 47.7747 37.9387 47.7032C37.9787 47.6893 38.0171 47.6728 38.0571 47.6584C38.2061 47.6021 38.3527 47.5396 38.4965 47.4712C38.5552 47.444 38.6139 47.4179 38.6715 47.388C38.8315 47.3048 38.9915 47.2147 39.1451 47.116C39.2192 47.0691 39.2901 47.0163 39.3621 46.9656C39.4155 46.9288 39.4688 46.8952 39.5221 46.8563C39.5504 46.8349 39.5755 46.8099 39.6032 46.788C39.6565 46.7443 39.7184 46.7075 39.7728 46.6616C39.8272 46.6157 39.8827 46.5549 39.9392 46.5048C40.0096 46.4412 40.0786 46.3761 40.1461 46.3096C40.3158 46.1399 40.4754 45.9604 40.624 45.772C40.6853 45.6936 40.7451 45.612 40.8021 45.532C40.8842 45.416 40.9616 45.2968 41.0341 45.1747C41.0716 45.1132 41.1072 45.0506 41.1408 44.9869C41.2235 44.8368 41.2992 44.6828 41.3675 44.5256C41.3771 44.4984 41.3909 44.4765 41.4011 44.4525L43.3157 46.7347ZM50.9333 41.6312H41.8395C41.5501 38.4059 38.7007 36.0258 35.4754 36.3153C32.6511 36.5687 30.4129 38.8069 30.1595 41.6312H21.0667V21.3645H50.9333V41.6312Z" fill="#FF4C00"/>
<path d="M29.6004 26.1646H42.4004V27.2312H29.6004V26.1646ZM26.4004 29.3646H45.6004V30.4312H26.4004V29.3646ZM36.0004 38.4312C33.9385 38.4312 32.2671 40.1027 32.2671 42.1645C32.2694 44.2254 33.9395 45.8956 36.0004 45.8979C38.0623 45.8979 39.7337 44.2264 39.7337 42.1645C39.7337 40.1027 38.0623 38.4312 36.0004 38.4312ZM36.0004 44.8312C34.5277 44.8312 33.3337 43.6373 33.3337 42.1645C33.3355 40.6925 34.5284 39.4996 36.0004 39.4979C37.4731 39.4979 38.6671 40.6918 38.6671 42.1645C38.6671 43.6373 37.4731 44.8312 36.0004 44.8312Z" fill="#FF4C00"/>
</g>
</g>
<defs>
<clipPath id="clip0_725_3115">
<rect width="32" height="32" fill="white" transform="translate(20 20)"/>
</clipPath>
</defs>
</svg>
