<svg width="42" height="42" viewBox="0 0 42 42" fill="none" xmlns="http://www.w3.org/2000/svg">
<g opacity="0.92">
<rect width="42" height="42" rx="21" fill="#2D2D2D" fill-opacity="0.1"/>
<g clip-path="url(#clip0_3144_10925)">
<path d="M30.9179 12.6077H24.8004L24.5286 11.0328C24.5165 10.9629 24.4801 10.8996 24.4259 10.8539C24.3717 10.8083 24.303 10.7832 24.2321 10.7832H17.7717C17.7008 10.7832 17.6322 10.8082 17.5779 10.8539C17.5237 10.8995 17.4873 10.9629 17.4752 11.0328L17.2035 12.6077H11.0859C11.0062 12.6077 10.9297 12.6394 10.8733 12.6958C10.8169 12.7522 10.7852 12.8287 10.7852 12.9084V14.2776C10.7856 14.5102 10.8679 14.7352 11.0177 14.9131C11.1675 15.091 11.3752 15.2104 11.6043 15.2504V26.9109C11.6044 26.9907 11.6361 27.0672 11.6925 27.1236C11.7489 27.1799 11.8253 27.2117 11.9051 27.2117H20.7011V29.1348C20.456 29.2071 20.2451 29.3654 20.1071 29.5805C19.9691 29.7957 19.9133 30.0534 19.9498 30.3064C19.9863 30.5594 20.1128 30.7907 20.306 30.958C20.4993 31.1254 20.7463 31.2175 21.0019 31.2175C21.2575 31.2175 21.5046 31.1254 21.6978 30.958C21.891 30.7907 22.0175 30.5594 22.0541 30.3064C22.0906 30.0534 22.0347 29.7957 21.8968 29.5805C21.7588 29.3654 21.5479 29.2071 21.3027 29.1348V27.2117H30.0988C30.1785 27.2117 30.255 27.1799 30.3114 27.1236C30.3678 27.0672 30.3995 26.9907 30.3995 26.9109V15.2504C30.6286 15.2104 30.8363 15.091 30.9861 14.9131C31.1359 14.7352 31.2183 14.5102 31.2187 14.2776V12.9084C31.2186 12.8287 31.1869 12.7522 31.1305 12.6958C31.0741 12.6394 30.9977 12.6077 30.9179 12.6077ZM21.4634 30.1537C21.4634 30.245 21.4364 30.3342 21.3857 30.4101C21.335 30.486 21.263 30.5452 21.1786 30.5802C21.0943 30.6151 21.0015 30.6243 20.912 30.6065C20.8225 30.5887 20.7402 30.5448 20.6757 30.4802C20.6111 30.4157 20.5671 30.3335 20.5493 30.2439C20.5315 30.1544 20.5406 30.0616 20.5755 29.9773C20.6105 29.893 20.6696 29.8209 20.7455 29.7702C20.8214 29.7194 20.9106 29.6924 21.0019 29.6924C21.1242 29.6925 21.2415 29.7411 21.328 29.8276C21.4145 29.9141 21.4632 30.0314 21.4634 30.1537ZM18.0249 11.3848H23.979L24.1904 12.6077H17.8138L18.0249 11.3848ZM12.2059 26.6101V15.2664H29.798V26.6101H12.2059ZM30.6171 14.2776C30.617 14.3801 30.5763 14.4784 30.5038 14.5509C30.4313 14.6234 30.3329 14.6642 30.2304 14.6643H11.7734C11.6709 14.6642 11.5726 14.6234 11.5001 14.5509C11.4276 14.4784 11.3868 14.3801 11.3867 14.2776V13.2092H30.6171V14.2776Z" fill="#2D2D2D"/>
<path d="M24.1274 16.7578C23.302 16.7574 22.4951 17.0014 21.8082 17.4591C21.1214 17.9167 20.5855 18.5676 20.2682 19.3295C19.9509 20.0914 19.8663 20.9302 20.0252 21.7401C20.184 22.55 20.5792 23.2947 21.1608 23.8803C21.1648 23.8846 21.1677 23.8896 21.1718 23.8937C21.176 23.8978 21.1811 23.9009 21.1854 23.9049C21.6729 24.3884 22.2721 24.7443 22.9299 24.9412C23.5877 25.1381 24.2838 25.17 24.9568 25.0339C25.6299 24.8978 26.259 24.598 26.7886 24.1609C27.3182 23.7239 27.7319 23.1631 27.9933 22.5282C28.2547 21.8933 28.3556 21.2037 28.2871 20.5205C28.2186 19.8373 27.9829 19.1815 27.6007 18.611C27.2185 18.0406 26.7017 17.5731 26.0959 17.2499C25.4901 16.9266 24.814 16.7576 24.1274 16.7578ZM27.691 20.6375H24.4282V17.3747C25.2694 17.4466 26.0582 17.8135 26.6552 18.4105C27.2522 19.0075 27.6191 19.7963 27.691 20.6375ZM23.8266 17.3747V20.8137L21.3954 23.2449C20.9711 22.744 20.6929 22.1359 20.5914 21.4873C20.49 20.8387 20.5692 20.1747 20.8204 19.5682C21.0716 18.9617 21.4851 18.4361 22.0154 18.0491C22.5457 17.6622 23.1724 17.4288 23.8266 17.3747ZM24.1274 24.5171C23.2824 24.5174 22.4649 24.2172 21.8208 23.6703L24.252 21.2391H27.691C27.615 22.1323 27.2068 22.9646 26.547 23.5715C25.8872 24.1784 25.0238 24.5158 24.1274 24.5171ZM18.1358 23.0378H14C13.9202 23.0378 13.8437 23.0695 13.7873 23.1259C13.7309 23.1823 13.6992 23.2588 13.6992 23.3386C13.6992 23.4183 13.7309 23.4948 13.7873 23.5512C13.8437 23.6077 13.9202 23.6393 14 23.6393H18.1358C18.2156 23.6393 18.2921 23.6077 18.3485 23.5512C18.4049 23.4948 18.4366 23.4183 18.4366 23.3386C18.4366 23.2588 18.4049 23.1823 18.3485 23.1259C18.2921 23.0695 18.2156 23.0378 18.1358 23.0378ZM18.1358 16.7578H14C13.9202 16.7578 13.8437 16.7895 13.7873 16.8459C13.7309 16.9023 13.6992 16.9788 13.6992 17.0586C13.6992 17.1384 13.7309 17.2149 13.7873 17.2713C13.8437 17.3277 13.9202 17.3594 14 17.3594H18.1358C18.2156 17.3594 18.2921 17.3277 18.3485 17.2713C18.4049 17.2149 18.4366 17.1384 18.4366 17.0586C18.4366 16.9788 18.4049 16.9023 18.3485 16.8459C18.2921 16.7895 18.2156 16.7578 18.1358 16.7578ZM18.1358 18.8518H14C13.9202 18.8518 13.8437 18.8835 13.7873 18.9399C13.7309 18.9963 13.6992 19.0728 13.6992 19.1525C13.6992 19.2323 13.7309 19.3088 13.7873 19.3652C13.8437 19.4216 13.9202 19.4533 14 19.4533H18.1358C18.2156 19.4533 18.2921 19.4216 18.3485 19.3652C18.4049 19.3088 18.4366 19.2323 18.4366 19.1525C18.4366 19.0728 18.4049 18.9963 18.3485 18.9399C18.2921 18.8835 18.2156 18.8518 18.1358 18.8518ZM18.1358 20.9445H14C13.9202 20.9445 13.8437 20.9762 13.7873 21.0326C13.7309 21.089 13.6992 21.1655 13.6992 21.2453C13.6992 21.3251 13.7309 21.4016 13.7873 21.458C13.8437 21.5144 13.9202 21.5461 14 21.5461H18.1358C18.2156 21.5461 18.2921 21.5144 18.3485 21.458C18.4049 21.4016 18.4366 21.3251 18.4366 21.2453C18.4366 21.1655 18.4049 21.089 18.3485 21.0326C18.2921 20.9762 18.2156 20.9445 18.1358 20.9445Z" fill="#2D2D2D"/>
</g>
</g>
<defs>
<clipPath id="clip0_3144_10925">
<rect width="22" height="22" fill="white" transform="translate(10 10)"/>
</clipPath>
</defs>
</svg>
