<svg width="42" height="42" viewBox="0 0 42 42" fill="none" xmlns="http://www.w3.org/2000/svg">
<g opacity="0.92">
<rect width="42" height="42" rx="21" fill="#FF2661" fill-opacity="0.1"/>
<g clip-path="url(#clip0_3144_11038)">
<path d="M21.0134 25.0521C19.9208 25.0521 18.8935 24.6248 18.1208 23.8487C17.3477 23.0723 16.922 22.04 16.922 20.9418C16.922 20.8563 16.888 20.7743 16.8276 20.7139C16.7672 20.6535 16.6852 20.6195 16.5997 20.6195H10.5314C10.4608 20.6193 10.3908 20.6333 10.3257 20.6606C10.2607 20.688 10.2017 20.7282 10.1525 20.7788C10.1026 20.8293 10.0635 20.8893 10.0373 20.9553C10.0111 21.0213 9.99849 21.0919 10.0001 21.1629C10.0542 23.8955 11.1066 26.4984 12.9633 28.4922C13.0219 28.5532 13.1022 28.5887 13.1867 28.591C13.2713 28.5933 13.3534 28.5623 13.4153 28.5047C13.4772 28.447 13.514 28.3673 13.5177 28.2828C13.5213 28.1983 13.4916 28.1157 13.4349 28.0529C11.7123 26.2031 10.7249 23.7962 10.6474 21.264H16.2881C16.3642 22.4125 16.846 23.4819 17.6641 24.3035C18.4822 25.1252 19.5472 25.6092 20.6912 25.6859V31.3535C18.2981 31.279 15.9956 30.3719 14.1963 28.7923C14.1318 28.7374 14.0484 28.7101 13.9639 28.7162C13.8795 28.7223 13.8008 28.7614 13.745 28.825C13.6891 28.8887 13.6606 28.9717 13.6654 29.0562C13.6703 29.1407 13.7082 29.2199 13.771 29.2767C15.7133 30.9817 18.2071 31.9492 20.7931 32.0008L20.804 32.0009C20.944 32.0009 21.0756 31.9472 21.1759 31.8489C21.2267 31.7994 21.267 31.7403 21.2944 31.675C21.3218 31.6097 21.3358 31.5395 21.3356 31.4686V25.3744C21.3356 25.3321 21.3273 25.2902 21.3111 25.2511C21.2949 25.212 21.2712 25.1764 21.2413 25.1465C21.2113 25.1166 21.1758 25.0929 21.1367 25.0767C21.0976 25.0605 21.0557 25.0521 21.0134 25.0521ZM19.9139 21.2488C19.736 21.2488 19.5917 21.393 19.5917 21.5711C19.5917 21.7491 19.736 21.8933 19.9139 21.8933H22.086C22.264 21.8933 22.4083 21.7491 22.4083 21.5711C22.4083 21.393 22.264 21.2488 22.086 21.2488H19.9139ZM23.2019 20.3125C23.2019 20.1345 23.0577 19.9902 22.8796 19.9902H19.1203C18.9423 19.9902 18.798 20.1345 18.798 20.3125C18.798 20.4905 18.9423 20.6348 19.1203 20.6348H22.8796C23.0576 20.6348 23.2019 20.4906 23.2019 20.3125Z" fill="#FF2661"/>
<path d="M16.4787 25.3039C16.4787 25.2184 16.4448 25.1364 16.3844 25.076C16.3239 25.0156 16.2419 24.9816 16.1565 24.9816H14.0679C13.9825 24.9816 13.9005 25.0156 13.8401 25.076C13.7796 25.1364 13.7457 25.2184 13.7457 25.3039C13.7457 25.3894 13.7796 25.4713 13.8401 25.5318C13.9005 25.5922 13.9825 25.6261 14.0679 25.6261H16.1565C16.2419 25.6261 16.3239 25.5922 16.3844 25.5318C16.4448 25.4713 16.4787 25.3894 16.4787 25.3039ZM11.614 20.1804C11.6989 20.1901 11.7842 20.1656 11.8511 20.1124C11.918 20.0592 11.961 19.9816 11.9706 19.8967C12.1939 17.9338 13.0164 16.147 14.3542 14.7083L17.4473 17.8146C16.9683 18.3654 16.6208 19.0204 16.4357 19.7265C16.4141 19.8092 16.4261 19.8971 16.4692 19.9709C16.5124 20.0447 16.5831 20.0983 16.6657 20.12C16.7484 20.1417 16.8363 20.1296 16.9101 20.0865C16.9839 20.0434 17.0375 19.9727 17.0592 19.89C17.2426 19.1905 17.6104 18.5487 18.1227 18.0342C18.7807 17.3734 19.6158 16.9669 20.5377 16.8587C20.6226 16.8488 20.7 16.8055 20.753 16.7384C20.806 16.6713 20.8302 16.586 20.8202 16.5011C20.8103 16.4162 20.767 16.3387 20.6999 16.2858C20.6328 16.2328 20.5475 16.2086 20.4626 16.2186C19.5022 16.3313 18.6239 16.7241 17.9026 17.3584L14.8091 14.2516C16.5502 12.6186 18.8085 11.7507 21.2037 11.7988C21.3807 11.802 21.5289 11.6613 21.5326 11.4833C21.5334 11.441 21.526 11.3989 21.5106 11.3595C21.4952 11.3201 21.4722 11.2841 21.4429 11.2535C21.4136 11.223 21.3786 11.1985 21.3398 11.1815C21.3011 11.1645 21.2593 11.1554 21.217 11.1545C19.9163 11.1275 18.6467 11.3553 17.4418 11.8312C16.1947 12.3237 15.0781 13.0598 14.1229 14.0187L14.1226 14.0189L14.1224 14.0191L14.1216 14.0199C12.5476 15.6006 11.5823 17.6076 11.3302 19.8238C11.3205 19.9087 11.345 19.994 11.3982 20.0609C11.4515 20.1277 11.5291 20.1707 11.614 20.1804ZM30.4372 20.3254C30.394 20.3254 30.3513 20.3341 30.3115 20.3509C30.2718 20.3677 30.2358 20.3923 30.2057 20.4233C30.1757 20.4543 30.1521 20.491 30.1365 20.5313C30.1209 20.5715 30.1136 20.6145 30.1149 20.6576C30.1899 23.099 29.3256 25.4 27.6763 27.1739L24.583 24.0674C25.1992 23.3611 25.5878 22.5025 25.7107 21.5647C25.7218 21.48 25.6988 21.3943 25.6467 21.3265C25.5947 21.2587 25.5178 21.2144 25.433 21.2033C25.3483 21.1922 25.2626 21.2152 25.1948 21.2673C25.1271 21.3193 25.0827 21.3962 25.0716 21.481C24.9533 22.3839 24.5509 23.2025 23.908 23.8481C23.3552 24.4033 22.6615 24.7859 21.9021 24.9544C21.8608 24.9636 21.8217 24.9808 21.787 25.0051C21.7524 25.0294 21.7228 25.0602 21.7001 25.0959C21.6774 25.1316 21.6619 25.1715 21.6546 25.2131C21.6472 25.2548 21.6482 25.2975 21.6573 25.3389C21.6732 25.4104 21.713 25.4744 21.7702 25.5203C21.8273 25.5662 21.8984 25.5913 21.9717 25.5914C21.9948 25.5914 22.0183 25.5889 22.0418 25.5837C22.8165 25.4117 23.5317 25.0475 24.1284 24.5243L27.2217 27.6309C25.8519 28.9156 24.1557 29.7312 22.2959 29.995C22.2538 30.0008 22.2132 30.0147 22.1765 30.0362C22.1398 30.0576 22.1078 30.0861 22.0821 30.12C22.0565 30.1539 22.0378 30.1925 22.0272 30.2336C22.0165 30.2748 22.0141 30.3176 22.0201 30.3596C22.0261 30.4017 22.0403 30.4422 22.062 30.4787C22.0836 30.5153 22.1123 30.5472 22.1464 30.5726C22.1804 30.598 22.2191 30.6165 22.2603 30.6269C22.3015 30.6372 22.3444 30.6394 22.3864 30.6332C24.4913 30.3345 26.4005 29.3768 27.9078 27.8635L27.908 27.8633L27.9081 27.8632L27.909 27.8624C28.8769 26.8903 29.6163 25.7527 30.1066 24.4809C30.5801 23.2527 30.7997 21.9597 30.7591 20.6378C30.7565 20.5541 30.7215 20.4747 30.6614 20.4164C30.6013 20.3581 30.5209 20.3255 30.4372 20.3254ZM14.068 26.24C13.9825 26.24 13.9005 26.274 13.8401 26.3344C13.7797 26.3949 13.7457 26.4768 13.7457 26.5623C13.7457 26.6478 13.7796 26.7297 13.8401 26.7902C13.9005 26.8506 13.9825 26.8846 14.0679 26.8846H15.3211C15.4991 26.8846 15.6434 26.7403 15.6434 26.5623C15.6434 26.3843 15.4991 26.24 15.3211 26.24H14.068ZM27.8522 14.9138H25.7637C25.5857 14.9138 25.4414 15.0581 25.4414 15.2361C25.4414 15.4141 25.5857 15.5584 25.7637 15.5584H27.8522C28.0302 15.5584 28.1744 15.4141 28.1744 15.2361C28.1744 15.0581 28.0302 14.9138 27.8522 14.9138ZM27.8522 16.1723H26.5991C26.4211 16.1723 26.2768 16.3165 26.2768 16.4945C26.2768 16.6725 26.4211 16.8168 26.5991 16.8168H27.8522C28.0302 16.8168 28.1744 16.6725 28.1744 16.4945C28.1744 16.3165 28.0302 16.1723 27.8522 16.1723Z" fill="#FF2661"/>
<path d="M31.9942 19.1824C31.6757 17.1816 30.8118 15.3065 29.4957 13.7597C29.4401 13.6953 29.3613 13.6556 29.2765 13.6491C29.1917 13.6426 29.1078 13.6699 29.0431 13.725C28.9783 13.7801 28.9379 13.8585 28.9308 13.9433C28.9236 14.028 28.9502 14.1121 29.0048 14.1773C30.2197 15.6052 31.0254 17.33 31.3392 19.172L25.652 19.9752C25.4661 19.066 25.0246 18.243 24.3637 17.5792C23.7235 16.9364 22.931 16.4988 22.0566 16.3022L22.8025 10.6614C24.8289 10.9936 26.6938 11.9161 28.202 13.3337C28.2643 13.3923 28.3473 13.4237 28.4327 13.421C28.5182 13.4184 28.599 13.3819 28.6576 13.3196C28.7161 13.2573 28.7475 13.1744 28.7449 13.0889C28.7422 13.0035 28.7058 12.9226 28.6435 12.8641C27.0116 11.3302 24.9863 10.342 22.7864 10.0063C22.7165 9.9954 22.645 9.99867 22.5764 10.0159C22.5077 10.0332 22.4432 10.064 22.3867 10.1067C22.33 10.1491 22.2823 10.2024 22.2466 10.2635C22.2109 10.3246 22.1878 10.3922 22.1787 10.4624L21.3778 16.5194C21.3668 16.6028 21.3888 16.6873 21.4392 16.7547C21.4896 16.8221 21.5643 16.8671 21.6474 16.8801C22.508 17.0148 23.2894 17.4138 23.907 18.034C24.5447 18.6743 24.946 19.4861 25.0677 20.3815C25.0734 20.4236 25.0874 20.4641 25.1088 20.5008C25.1302 20.5374 25.1587 20.5695 25.1926 20.5951C25.2264 20.6208 25.265 20.6394 25.3061 20.6501C25.3472 20.6608 25.39 20.6632 25.4321 20.6572L31.5438 19.794C31.6136 19.7844 31.6808 19.7608 31.7414 19.7247C31.802 19.6886 31.8547 19.6407 31.8964 19.5838C31.9387 19.5269 31.9692 19.462 31.986 19.393C32.0028 19.324 32.0055 19.2524 31.9942 19.1824Z" fill="#FF2661"/>
</g>
</g>
<defs>
<clipPath id="clip0_3144_11038">
<rect width="22" height="22" fill="white" transform="translate(10 10)"/>
</clipPath>
</defs>
</svg>
