<svg width="72" height="72" viewBox="0 0 72 72" fill="none" xmlns="http://www.w3.org/2000/svg">
<g opacity="0.92">
<rect width="72" height="72" rx="14" fill="url(#paint0_linear_2508_10754)" fill-opacity="0.6"/>
<path d="M35.7968 46.0265H26.4918C26.0936 46.0261 25.7119 45.8678 25.4303 45.5863C25.1487 45.3048 24.9903 44.9231 24.9898 44.525V24.503C24.9902 24.1049 25.1485 23.7231 25.43 23.4415C25.7115 23.16 26.0931 23.0015 26.4913 23.001H42.5093C42.9074 23.0015 43.2891 23.16 43.5706 23.4415C43.8521 23.7231 44.0104 24.1049 44.0108 24.503V37.8125C44.0108 37.9452 44.0635 38.0725 44.1574 38.1664C44.2512 38.2603 44.3785 38.313 44.5113 38.313C44.644 38.313 44.7713 38.2603 44.8652 38.1664C44.9591 38.0725 45.0118 37.9452 45.0118 37.8125V24.5025C45.011 23.839 44.7471 23.203 44.2779 22.7338C43.8088 22.2647 43.1727 22.0008 42.5093 22H26.4908C25.8272 22.0008 25.1911 22.2648 24.7219 22.734C24.2528 23.2033 23.9889 23.8395 23.9883 24.503V44.525C23.9891 45.1885 24.2531 45.8247 24.7223 46.2938C25.1915 46.763 25.8277 47.0268 26.4913 47.0275H35.7963C35.929 47.0275 36.0563 46.9748 36.1502 46.8809C36.244 46.787 36.2968 46.6597 36.2968 46.527C36.2968 46.3943 36.244 46.267 36.1502 46.1731C36.0563 46.0792 35.9295 46.0265 35.7968 46.0265Z" fill="#FF2661"/>
<path d="M40.5084 28.0059H28.4929C28.3601 28.0059 28.2328 28.0586 28.1389 28.1525C28.0449 28.2464 27.9922 28.3738 27.9922 28.5066C27.9922 28.6394 28.0449 28.7668 28.1389 28.8607C28.2328 28.9546 28.3601 29.0074 28.4929 29.0074H40.5084C40.6412 29.0074 40.7685 28.9546 40.8623 28.8608C40.9562 28.7669 41.0089 28.6396 41.0089 28.5069C41.0089 28.3741 40.9562 28.2468 40.8623 28.153C40.7685 28.0591 40.6412 28.0059 40.5084 28.0059ZM28.4929 34.0139C28.3602 34.0139 28.2329 34.0666 28.139 34.1605C28.0452 34.2543 27.9924 34.3816 27.9924 34.5144C27.9924 34.6471 28.0452 34.7744 28.139 34.8683C28.2329 34.9621 28.3602 35.0149 28.4929 35.0149H40.5084C40.6412 35.0149 40.7685 34.9621 40.8623 34.8683C40.9562 34.7744 41.0089 34.6471 41.0089 34.5144C41.0089 34.3816 40.9562 34.2543 40.8623 34.1605C40.7685 34.0666 40.6412 34.0139 40.5084 34.0139H28.4929ZM37.2694 40.5209C37.2694 40.4551 37.2565 40.39 37.2313 40.3293C37.2061 40.2686 37.1692 40.2134 37.1226 40.167C37.0761 40.1205 37.0209 40.0837 36.9601 40.0586C36.8993 40.0336 36.8342 40.0207 36.7684 40.0209H28.4944C28.3617 40.0209 28.2344 40.0736 28.1405 40.1675C28.0467 40.2613 27.9939 40.3886 27.9939 40.5214C27.9939 40.6541 28.0467 40.7814 28.1405 40.8753C28.2344 40.9691 28.3617 41.0219 28.4944 41.0219H36.7684C36.8342 41.022 36.8994 41.0091 36.9602 40.984C37.021 40.9589 37.0763 40.9221 37.1228 40.8756C37.1694 40.8291 37.2063 40.7739 37.2314 40.7131C37.2566 40.6523 37.2695 40.5866 37.2694 40.5209ZM44.9299 44.0264H43.0114V42.1084C43.0114 41.9756 42.9587 41.8483 42.8648 41.7545C42.771 41.6606 42.6437 41.6079 42.5109 41.6079C42.3782 41.6079 42.2509 41.6606 42.157 41.7545C42.0632 41.8483 42.0104 41.9756 42.0104 42.1084V44.0264H40.0914C39.9586 44.0264 39.8313 44.0791 39.7374 44.173C39.6434 44.2669 39.5907 44.3943 39.5907 44.5271C39.5907 44.6599 39.6434 44.7873 39.7374 44.8812C39.8313 44.9751 39.9586 45.0279 40.0914 45.0279H42.0099V46.9459C42.0099 47.0786 42.0627 47.2059 42.1565 47.2998C42.2504 47.3936 42.3777 47.4464 42.5104 47.4464C42.6432 47.4464 42.7705 47.3936 42.8643 47.2998C42.9582 47.2059 43.0109 47.0786 43.0109 46.9459V45.0279H44.9294C45.0622 45.0279 45.1896 44.9751 45.2835 44.8812C45.3774 44.7873 45.4302 44.6599 45.4302 44.5271C45.4302 44.3943 45.3774 44.2669 45.2835 44.173C45.1896 44.0791 45.0627 44.0264 44.9299 44.0264Z" fill="#FF2661"/>
<path d="M42.5103 39.0234C41.0514 39.025 39.6528 39.6053 38.6212 40.6368C37.5896 41.6684 37.0094 43.0671 37.0078 44.5259C37.3103 51.8254 47.7118 51.8229 48.0128 44.5259C48.0112 43.0671 47.431 41.6684 46.3994 40.6368C45.3678 39.6053 43.9692 39.025 42.5103 39.0234ZM42.5103 49.0269C41.317 49.0256 40.1729 48.551 39.3291 47.7072C38.4853 46.8633 38.0106 45.7193 38.0093 44.5259C38.2453 38.5584 46.7763 38.5609 47.0118 44.5259C47.0104 45.7193 46.5356 46.8634 45.6917 47.7072C44.8478 48.551 43.7037 49.0256 42.5103 49.0269Z" fill="#FF2661"/>
</g>
<defs>
<linearGradient id="paint0_linear_2508_10754" x1="72" y1="5" x2="4" y2="72" gradientUnits="userSpaceOnUse">
<stop stop-color="#C3F9FA"/>
<stop offset="1" stop-color="#FACAF3"/>
</linearGradient>
</defs>
</svg>
