<svg width="72" height="72" viewBox="0 0 72 72" fill="none" xmlns="http://www.w3.org/2000/svg">
<g opacity="0.92">
<rect width="72" height="72" rx="14" fill="url(#paint0_linear_2508_10767)" fill-opacity="0.6"/>
<g clip-path="url(#clip0_2508_10767)">
<path d="M51.4667 20.2969H20.5333C20.3919 20.2969 20.2562 20.3531 20.1562 20.4531C20.0562 20.5531 20 20.6888 20 20.8302V42.1635C20 42.305 20.0562 42.4406 20.1562 42.5407C20.2562 42.6407 20.3919 42.6969 20.5333 42.6969H30.1637C30.1797 42.8745 30.2059 43.0494 30.2373 43.2227L27.312 46.7091C27.2535 46.7788 27.2138 46.8623 27.1966 46.9516C27.1795 47.0409 27.1854 47.1332 27.214 47.2195C27.2425 47.3059 27.2927 47.3835 27.3597 47.4451C27.4267 47.5066 27.5083 47.5499 27.5968 47.571L30.8171 48.3401L32.1339 51.3801C32.17 51.4635 32.2269 51.5364 32.2991 51.5916C32.3713 51.6469 32.4565 51.6828 32.5465 51.6959C32.6365 51.709 32.7283 51.6989 32.8133 51.6664C32.8983 51.634 32.9736 51.5804 33.032 51.5107L35.9525 48.0302H36.0475L38.968 51.5107C39.0264 51.5804 39.1017 51.634 39.1867 51.6664C39.2717 51.6989 39.3635 51.709 39.4535 51.6959C39.5435 51.6828 39.6287 51.6469 39.7009 51.5916C39.7731 51.5364 39.83 51.4635 39.8661 51.3801L41.1829 48.3401L44.4032 47.571C44.4917 47.5499 44.5733 47.5066 44.6403 47.4451C44.7073 47.3835 44.7575 47.3059 44.786 47.2195C44.8146 47.1332 44.8206 47.0409 44.8034 46.9516C44.7862 46.8623 44.7465 46.7788 44.688 46.7091L41.7627 43.2227C41.7941 43.0494 41.8203 42.8745 41.8363 42.6969H51.4667C51.6081 42.6969 51.7438 42.6407 51.8438 42.5407C51.9438 42.4406 52 42.305 52 42.1635V20.8302C52 20.6888 51.9438 20.5531 51.8438 20.4531C51.7438 20.3531 51.6081 20.2969 51.4667 20.2969ZM32.7696 50.1635L31.6896 47.6729C31.6567 47.5969 31.6065 47.5297 31.5431 47.4764C31.4797 47.4232 31.4048 47.3855 31.3243 47.3662L28.6843 46.7353L30.5989 44.4531C30.6091 44.4766 30.6224 44.4979 30.6325 44.5214C30.7019 44.6814 30.7771 44.8334 30.8603 44.9843C30.8947 45.047 30.9302 45.1091 30.9669 45.1705C31.0403 45.2926 31.1179 45.4121 31.1995 45.5289C31.2565 45.6105 31.3163 45.6889 31.3776 45.7689C31.5262 45.9581 31.6862 46.1381 31.8565 46.3081C31.9221 46.3737 31.9899 46.4371 32.0592 46.4995C32.1168 46.5529 32.1685 46.6089 32.2288 46.6595C32.2891 46.7102 32.3456 46.7443 32.4032 46.7891C32.4293 46.8094 32.4517 46.8329 32.4784 46.8526C32.5264 46.8889 32.5771 46.9203 32.6261 46.955C32.7029 47.0083 32.7787 47.0659 32.8581 47.115C33.0091 47.2114 33.1647 47.3004 33.3243 47.3817C33.3851 47.4126 33.4469 47.4409 33.5088 47.4697C33.6495 47.5359 33.7928 47.5968 33.9381 47.6521C33.9797 47.6675 34.0208 47.6851 34.0624 47.6995C34.2644 47.7706 34.4703 47.8302 34.6789 47.8782L34.6848 47.8798L32.7696 50.1635ZM37.0016 46.8505C36.757 46.9022 36.5088 46.9348 36.2592 46.9481H36.2523C36.168 46.9523 36.0837 46.9582 35.9989 46.9582C35.9141 46.9582 35.8299 46.9523 35.7456 46.9481H35.7387C35.4896 46.9347 35.242 46.9023 34.9979 46.851L34.9531 46.8419C34.8581 46.8211 34.7643 46.7955 34.6715 46.7689C34.6325 46.7577 34.5931 46.7475 34.5547 46.7353C34.488 46.7145 34.4224 46.6899 34.3568 46.6665C34.2926 46.6439 34.2289 46.6197 34.1659 46.5939C34.1267 46.5774 34.0881 46.5596 34.0501 46.5406C33.9627 46.5011 33.8757 46.4611 33.7909 46.4169L33.7483 46.3934C33.5284 46.2758 33.318 46.1414 33.1189 45.9913C33.008 45.9086 32.9056 45.8174 32.8048 45.7273C32.6856 45.6209 32.5718 45.5086 32.464 45.3907C32.4213 45.3449 32.3755 45.3011 32.3349 45.2537C32.186 45.0785 32.0502 44.8926 31.9285 44.6974C31.9104 44.6686 31.8949 44.6382 31.8752 44.6083C31.7618 44.4189 31.662 44.2216 31.5765 44.0179C31.5691 43.9998 31.5605 43.9817 31.5536 43.9646C31.4591 43.7313 31.3831 43.4909 31.3264 43.2457C31.3264 43.2361 31.3189 43.2286 31.3163 43.219C31.2388 42.8725 31.1998 42.5186 31.2 42.1635C31.1984 39.5125 33.3461 37.3623 35.9971 37.3606C38.6481 37.359 40.7983 39.5067 40.8 42.1577C40.8002 42.5167 40.7601 42.8747 40.6805 43.2248C40.6779 43.2339 40.6725 43.2419 40.6704 43.2509C40.6137 43.496 40.5379 43.7362 40.4437 43.9693C40.4363 43.988 40.4277 44.0067 40.4197 44.0227C40.3345 44.225 40.2351 44.4211 40.1221 44.6093C40.1045 44.6392 40.0885 44.6707 40.0688 44.7005C39.9472 44.8954 39.8115 45.0811 39.6629 45.2563C39.6229 45.3032 39.5776 45.3459 39.5355 45.3917C39.4262 45.5107 39.311 45.6241 39.1904 45.7315C39.0891 45.8216 38.9883 45.9128 38.8779 45.9949C38.775 46.0722 38.6693 46.1457 38.5611 46.2152L38.5547 46.2189C38.4584 46.2798 38.3599 46.3369 38.2592 46.3901C38.2395 46.4008 38.2203 46.412 38.2005 46.4221C38.12 46.4643 38.0405 46.5021 37.9557 46.5389C37.9131 46.5581 37.8709 46.5779 37.8277 46.5955C37.768 46.6205 37.7072 46.6424 37.6464 46.6643C37.5856 46.6861 37.5104 46.7144 37.4411 46.7357C37.4043 46.7475 37.3669 46.7576 37.3296 46.7683C37.2352 46.7949 37.1403 46.8216 37.0443 46.8419L37.0016 46.8505ZM43.3157 46.7337L40.6757 47.3646C40.5952 47.3839 40.5203 47.4216 40.4569 47.4748C40.3935 47.5281 40.3433 47.5953 40.3104 47.6713L39.2304 50.1635L37.3152 47.8814H37.32C37.5295 47.8336 37.736 47.7737 37.9387 47.7022C37.9787 47.6883 38.0171 47.6718 38.0571 47.6574C38.2061 47.6011 38.3527 47.5386 38.4965 47.4702C38.5552 47.443 38.6139 47.4169 38.6715 47.387C38.8315 47.3038 38.9915 47.2137 39.1451 47.115C39.2192 47.0681 39.2901 47.0153 39.3621 46.9646C39.4155 46.9278 39.4688 46.8942 39.5221 46.8553C39.5504 46.8339 39.5755 46.8089 39.6032 46.787C39.6565 46.7433 39.7184 46.7065 39.7728 46.6606C39.8272 46.6147 39.8827 46.5539 39.9392 46.5038C40.0096 46.4403 40.0786 46.3752 40.1461 46.3086C40.3158 46.139 40.4754 45.9594 40.624 45.771C40.6853 45.6926 40.7451 45.611 40.8021 45.531C40.8842 45.4151 40.9616 45.2958 41.0341 45.1737C41.0716 45.1122 41.1072 45.0496 41.1408 44.9859C41.2235 44.8358 41.2992 44.6818 41.3675 44.5246C41.3771 44.4974 41.3909 44.4755 41.4011 44.4515L43.3157 46.7337ZM50.9333 41.6302H41.8395C41.5501 38.4049 38.7007 36.0248 35.4754 36.3143C32.6511 36.5677 30.4129 38.8059 30.1595 41.6302H21.0667V21.3635H50.9333V41.6302Z" fill="#FF2661"/>
<path d="M29.5984 26.1641H42.3984V27.2307H29.5984V26.1641ZM26.3984 29.3641H45.5984V30.4307H26.3984V29.3641ZM35.9984 38.4307C33.9366 38.4307 32.2651 40.1022 32.2651 42.1641C32.2674 44.2249 33.9376 45.8951 35.9984 45.8974C38.0603 45.8974 39.7318 44.2259 39.7318 42.1641C39.7318 40.1022 38.0603 38.4307 35.9984 38.4307ZM35.9984 44.8307C34.5257 44.8307 33.3318 43.6368 33.3318 42.1641C33.3335 40.6921 34.5264 39.4991 35.9984 39.4974C37.4712 39.4974 38.6651 40.6913 38.6651 42.1641C38.6651 43.6368 37.4712 44.8307 35.9984 44.8307Z" fill="#FF2661"/>
</g>
</g>
<defs>
<linearGradient id="paint0_linear_2508_10767" x1="72" y1="5" x2="4" y2="72" gradientUnits="userSpaceOnUse">
<stop stop-color="#C3F9FA"/>
<stop offset="1" stop-color="#FACAF3"/>
</linearGradient>
<clipPath id="clip0_2508_10767">
<rect width="32" height="32" fill="white" transform="translate(20 20)"/>
</clipPath>
</defs>
</svg>
