<svg width="72" height="72" viewBox="0 0 72 72" fill="none" xmlns="http://www.w3.org/2000/svg">
<g opacity="0.92">
<rect width="72" height="72" rx="14" fill="url(#paint0_linear_2508_10701)" fill-opacity="0.6"/>
<path fill-rule="evenodd" clip-rule="evenodd" d="M46.0185 50.2222V51.4074C46.0185 51.5646 45.9561 51.7153 45.8449 51.8264C45.7338 51.9376 45.5831 52 45.4259 52H24.0926C23.9354 52 23.7847 51.9376 23.6736 51.8264C23.5624 51.7153 23.5 51.5646 23.5 51.4074V22.963C23.5 22.8058 23.5624 22.6551 23.6736 22.5439C23.7847 22.4328 23.9354 22.3704 24.0926 22.3704H25.2778V20.5926C25.2778 20.4354 25.3402 20.2847 25.4513 20.1736C25.5625 20.0624 25.7132 20 25.8704 20H47.7963C47.8742 19.9998 47.9513 20.0149 48.0233 20.0446C48.0954 20.0743 48.1608 20.118 48.2158 20.173C48.2709 20.2281 48.3146 20.2935 48.3443 20.3655C48.374 20.4375 48.3891 20.5147 48.3889 20.5926V30.6667C48.3889 30.8238 48.3265 30.9746 48.2153 31.0857C48.1042 31.1968 47.9535 31.2593 47.7963 31.2593C47.6391 31.2593 47.4884 31.1968 47.3773 31.0857C47.2661 30.9746 47.2037 30.8238 47.2037 30.6667V21.1852H26.463V22.3704H45.4259C45.5831 22.3704 45.7338 22.4328 45.8449 22.5439C45.9561 22.6551 46.0185 22.8058 46.0185 22.963V49.037H47.2037V33.037C47.2037 32.8799 47.2661 32.7291 47.3773 32.618C47.4884 32.5069 47.6391 32.4444 47.7963 32.4444C47.9535 32.4444 48.1042 32.5069 48.2153 32.618C48.3265 32.7291 48.3889 32.8799 48.3889 33.037V49.6296C48.3889 49.7868 48.3265 49.9375 48.2153 50.0487C48.1042 50.1598 47.9535 50.2222 47.7963 50.2222H46.0185ZM44.8333 23.5556H24.6852V50.8148H44.8333V23.5556ZM27.0556 27.1111C26.8984 27.1111 26.7477 27.0487 26.6365 26.9375C26.5254 26.8264 26.463 26.6757 26.463 26.5185C26.463 26.3614 26.5254 26.2106 26.6365 26.0995C26.7477 25.9884 26.8984 25.9259 27.0556 25.9259H42.463C42.6201 25.9259 42.7709 25.9884 42.882 26.0995C42.9931 26.2106 43.0556 26.3614 43.0556 26.5185C43.0556 26.6757 42.9931 26.8264 42.882 26.9375C42.7709 27.0487 42.6201 27.1111 42.463 27.1111H27.0556ZM39.2079 38.9849C39.1209 38.8539 39.0896 38.6937 39.1208 38.5396C39.152 38.3856 39.2431 38.2502 39.3741 38.1633C39.5051 38.0763 39.6652 38.045 39.8193 38.0762C39.9734 38.1074 40.1088 38.1985 40.1957 38.3295C40.9029 39.3955 41.2794 40.6467 41.2778 41.9259C41.2778 45.5236 38.3569 48.4444 34.7593 48.4444C31.1616 48.4444 28.2407 45.5236 28.2407 41.9259C28.2407 38.3283 31.1616 35.4074 34.7593 35.4074C36.0879 35.4074 37.3246 35.8062 38.3557 36.4895C38.4867 36.5764 38.5778 36.7118 38.609 36.8659C38.6402 37.02 38.6088 37.1801 38.5219 37.3111C38.435 37.4421 38.2996 37.5332 38.1455 37.5644C37.9915 37.5956 37.8313 37.5642 37.7003 37.4773C36.8286 36.899 35.8054 36.5912 34.7593 36.5926C31.8159 36.5926 29.4259 38.9825 29.4259 41.9259C29.4259 44.8693 31.8159 47.2593 34.7593 47.2593C37.7027 47.2593 40.0926 44.8693 40.0926 41.9259C40.0926 40.8391 39.7667 39.8281 39.2079 38.9849ZM27.0556 30.6667C26.8984 30.6667 26.7477 30.6042 26.6365 30.4931C26.5254 30.382 26.463 30.2312 26.463 30.0741C26.463 29.9169 26.5254 29.7662 26.6365 29.655C26.7477 29.5439 26.8984 29.4815 27.0556 29.4815H42.463C42.6201 29.4815 42.7709 29.5439 42.882 29.655C42.9931 29.7662 43.0556 29.9169 43.0556 30.0741C43.0556 30.2312 42.9931 30.382 42.882 30.4931C42.7709 30.6042 42.6201 30.6667 42.463 30.6667H27.0556ZM27.0556 34.2222C26.8984 34.2222 26.7477 34.1598 26.6365 34.0487C26.5254 33.9375 26.463 33.7868 26.463 33.6296C26.463 33.4725 26.5254 33.3217 26.6365 33.2106C26.7477 33.0995 26.8984 33.037 27.0556 33.037H42.463C42.6201 33.037 42.7709 33.0995 42.882 33.2106C42.9931 33.3217 43.0556 33.4725 43.0556 33.6296C43.0556 33.7868 42.9931 33.9375 42.882 34.0487C42.7709 34.1598 42.6201 34.2222 42.463 34.2222H27.0556ZM31.9699 42.6412C31.862 42.5294 31.8022 42.3797 31.8036 42.2244C31.8049 42.069 31.8673 41.9203 31.9771 41.8105C32.087 41.7006 32.2356 41.6383 32.391 41.6369C32.5464 41.6356 32.6961 41.6953 32.8079 41.8033L34.0908 43.0862L36.6473 39.5076C36.7386 39.3796 36.877 39.2932 37.032 39.2673C37.1088 39.2545 37.1873 39.2569 37.2631 39.2744C37.3389 39.292 37.4106 39.3243 37.4739 39.3695C37.5373 39.4147 37.5911 39.4719 37.6323 39.538C37.6735 39.604 37.7013 39.6775 37.7142 39.7542C37.727 39.831 37.7246 39.9095 37.707 39.9853C37.6895 40.0612 37.6572 40.1328 37.612 40.1961L34.649 44.3443C34.599 44.4144 34.5343 44.4727 34.4595 44.5152C34.3847 44.5577 34.3015 44.5834 34.2157 44.5905C34.1299 44.5976 34.0436 44.586 33.9628 44.5563C33.882 44.5267 33.8086 44.4798 33.7477 44.419L31.9699 42.6412Z" fill="#FF2661"/>
</g>
<defs>
<linearGradient id="paint0_linear_2508_10701" x1="72" y1="5" x2="4" y2="72" gradientUnits="userSpaceOnUse">
<stop stop-color="#C3F9FA"/>
<stop offset="1" stop-color="#FACAF3"/>
</linearGradient>
</defs>
</svg>
