<svg width="72" height="72" viewBox="0 0 72 72" fill="none" xmlns="http://www.w3.org/2000/svg">
<g opacity="0.92">
<rect width="72" height="72" rx="14" fill="url(#paint0_linear_2508_10622)" fill-opacity="0.6"/>
<path d="M48.7903 51.9994H26.72C24.9445 51.9994 23.5 50.5549 23.5 48.7794V48.7141C23.5 46.9387 24.9445 45.4941 26.72 45.4941H48.7903C49.0759 45.4941 49.3064 45.7247 49.3064 46.0103V51.4833C49.3064 51.7689 49.0759 51.9994 48.7903 51.9994ZM26.72 46.5264C25.5134 46.5264 24.5323 47.5075 24.5323 48.7141V48.7794C24.5323 49.9861 25.5134 50.9672 26.72 50.9672H48.2742V46.5264H26.72Z" fill="#FF2661"/>
<path d="M24.0161 49.2308C23.7314 49.2308 23.5 49.0003 23.5 48.7147V23.2525C23.5 21.4592 24.9932 20 26.8286 20H48.7903C49.0759 20 49.3064 20.2306 49.3064 20.5161V46.0108C49.3064 46.2964 49.0759 46.527 48.7903 46.527H26.72C26.4352 46.527 26.2039 46.2964 26.2039 46.0108C26.2039 45.7253 26.4352 45.4947 26.72 45.4947H48.2742V21.0323H26.8286C25.5625 21.0323 24.5323 22.0285 24.5323 23.2525V48.7147C24.5323 49.0003 24.3009 49.2308 24.0161 49.2308Z" fill="#FF2661"/>
<path d="M44.9175 49.2997H28.2778C28.141 49.2997 28.0097 49.2453 27.9129 49.1485C27.8161 49.0517 27.7617 48.9204 27.7617 48.7835C27.7617 48.498 27.9931 48.2674 28.2778 48.2674H44.9175C45.2028 48.2674 45.4336 48.498 45.4336 48.7835C45.4336 49.0688 45.2028 49.2997 44.9175 49.2997ZM44.6692 28.1782C44.5744 28.1781 44.4814 28.152 44.4003 28.1028L42.2604 26.7989L40.1206 28.1028C40.0423 28.1505 39.9528 28.1765 39.8612 28.1782C39.7696 28.1799 39.6792 28.1572 39.5993 28.1124C39.5193 28.0675 39.4528 28.0023 39.4064 27.9232C39.3601 27.8442 39.3356 27.7542 39.3355 27.6626V20.5161C39.3355 20.2306 39.5661 20 39.8517 20C40.1369 20 40.3678 20.2306 40.3678 20.5161V26.7427L41.9915 25.7533C42.0725 25.704 42.1654 25.6779 42.2602 25.6779C42.3549 25.6779 42.4479 25.704 42.5288 25.7533L44.1526 26.7427V20.5161C44.1526 20.2306 44.3832 20 44.6687 20C44.954 20 45.1848 20.2306 45.1848 20.5161V27.6621C45.1848 27.7537 45.1603 27.8437 45.1139 27.9228C45.0675 28.0018 45.0009 28.0671 44.9209 28.1119C44.8442 28.1553 44.7574 28.1782 44.6692 28.1782Z" fill="#FF2661"/>
</g>
<defs>
<linearGradient id="paint0_linear_2508_10622" x1="72" y1="5" x2="4" y2="72" gradientUnits="userSpaceOnUse">
<stop stop-color="#C3F9FA"/>
<stop offset="1" stop-color="#FACAF3"/>
</linearGradient>
</defs>
</svg>
