<svg width="72" height="72" viewBox="0 0 72 72" fill="none" xmlns="http://www.w3.org/2000/svg">
<g opacity="0.92">
<rect width="72" height="72" rx="14" fill="url(#paint0_linear_2508_10635)" fill-opacity="0.6"/>
<g clip-path="url(#clip0_2508_10635)">
<path d="M44.7846 20H27.2154C23.2367 20 20 23.2367 20 27.2154V44.7846C20 48.7633 23.2367 52 27.2154 52H44.7846C48.7633 52 52 48.7633 52 44.7846V27.2154C52 23.2367 48.7633 20 44.7846 20ZM50.8148 44.7846C50.8148 48.1096 48.1096 50.8148 44.7846 50.8148H27.2154C23.8904 50.8148 21.1852 48.1096 21.1852 44.7846V27.2154C21.1852 23.8904 23.8904 21.1852 27.2154 21.1852H44.7846C48.1096 21.1852 50.8148 23.8904 50.8148 27.2154V44.7846Z" fill="#FF2661"/>
<path d="M31.758 27.112L26.875 43.7046H28.7239L30.2883 38.3476H35.2187L36.8543 43.7046H38.7743L33.7254 27.112H31.758ZM30.7387 36.5935L32.7298 29.8617L34.792 36.5935H30.7387ZM41.8433 26.875C41.5826 26.875 41.3532 26.974 41.1559 27.1713C40.958 27.3692 40.8596 27.5944 40.8596 27.8474C40.8596 28.1005 40.958 28.3257 41.1559 28.523C41.3532 28.7209 41.5826 28.8193 41.8433 28.8193C42.104 28.8193 42.3292 28.7245 42.5189 28.5354C42.7085 28.3458 42.8033 28.1165 42.8033 27.848C42.8033 27.5796 42.7091 27.3491 42.5194 27.1594C42.3298 26.9698 42.1046 26.875 41.8433 26.875ZM40.9544 31.8291H42.6611V43.7046H40.9544V31.8291Z" fill="#FF2661"/>
</g>
</g>
<defs>
<linearGradient id="paint0_linear_2508_10635" x1="72" y1="5" x2="4" y2="72" gradientUnits="userSpaceOnUse">
<stop stop-color="#C3F9FA"/>
<stop offset="1" stop-color="#FACAF3"/>
</linearGradient>
<clipPath id="clip0_2508_10635">
<rect width="32" height="32" fill="white" transform="translate(20 20)"/>
</clipPath>
</defs>
</svg>
