<svg width="72" height="72" viewBox="0 0 72 72" fill="none" xmlns="http://www.w3.org/2000/svg">
<g opacity="0.92">
<rect width="72" height="72" rx="14" fill="url(#paint0_linear_2508_10690)" fill-opacity="0.6"/>
<path fill-rule="evenodd" clip-rule="evenodd" d="M42.6257 20.9234C42.3582 20.6323 42.0332 20.4 41.6712 20.241C41.3092 20.0821 40.9182 20 40.5229 20H26.3571C25.5994 20 24.8727 20.301 24.3368 20.8368C23.801 21.3727 23.5 22.0994 23.5 22.8571V49.1429C23.5 49.9006 23.801 50.6273 24.3368 51.1632C24.8727 51.699 25.5994 52 26.3571 52H45.7857C46.5435 52 47.2702 51.699 47.806 51.1632C48.3418 50.6273 48.6429 49.9006 48.6429 49.1429V28.5829C48.6429 27.8674 48.3743 27.1771 47.8897 26.6491L42.6257 20.9234ZM40.6429 21.1429C40.6029 21.1406 26.3571 21.1429 26.3571 21.1429C25.9025 21.1429 25.4665 21.3235 25.145 21.645C24.8235 21.9665 24.6429 22.4025 24.6429 22.8571V49.1429C24.6429 49.5975 24.8235 50.0336 25.145 50.355C25.4665 50.6765 25.9025 50.8571 26.3571 50.8571H45.7857C46.2404 50.8571 46.6764 50.6765 46.9979 50.355C47.3194 50.0336 47.5 49.5975 47.5 49.1429V29.1429H43.5C42.7422 29.1429 42.0155 28.8418 41.4797 28.306C40.9439 27.7702 40.6429 27.0435 40.6429 26.2857V21.1429ZM40.2829 43.5223L43.1126 46.1337C43.2238 46.2365 43.3713 46.2908 43.5226 46.2848C43.6739 46.2788 43.8167 46.213 43.9194 46.1017C44.0222 45.9905 44.0765 45.843 44.0705 45.6917C44.0645 45.5403 43.9987 45.3976 43.8874 45.2949L41.0577 42.6823C41.9021 41.5861 42.3591 40.2408 42.3571 38.8571C42.3571 35.3874 39.5411 32.5714 36.0714 32.5714C32.6017 32.5714 29.7857 35.3874 29.7857 38.8571C29.7857 42.3269 32.6017 45.1429 36.0714 45.1429C37.6278 45.1447 39.1292 44.567 40.2829 43.5223ZM39.8566 42.3371C40.7309 41.3893 41.2157 40.1467 41.2143 38.8571C41.2143 36.0183 38.9103 33.7143 36.0714 33.7143C33.2326 33.7143 30.9286 36.0183 30.9286 38.8571C30.9286 41.696 33.2326 44 36.0714 44C36.7801 44.0006 37.4811 43.8543 38.1304 43.5705C38.7797 43.2867 39.3632 42.8714 39.844 42.3509L39.8566 42.3371ZM41.7857 21.6983V26.2857C41.7857 26.7404 41.9663 27.1764 42.2878 27.4979C42.6093 27.8194 43.0453 28 43.5 28H47.3983C47.3202 27.7865 47.201 27.5904 47.0474 27.4229L41.7857 21.6983Z" fill="#FF2661"/>
</g>
<defs>
<linearGradient id="paint0_linear_2508_10690" x1="72" y1="5" x2="4" y2="72" gradientUnits="userSpaceOnUse">
<stop stop-color="#C3F9FA"/>
<stop offset="1" stop-color="#FACAF3"/>
</linearGradient>
</defs>
</svg>
