<svg width="72" height="72" viewBox="0 0 72 72" fill="none" xmlns="http://www.w3.org/2000/svg">
<g opacity="0.92">
<rect width="72" height="72" rx="14" fill="url(#paint0_linear_2508_10611)" fill-opacity="0.6"/>
<path d="M47.5665 33.2277H47.4873V31.2871C47.4873 25.0534 42.4339 20 36.2001 20C29.9664 20 24.913 25.0534 24.913 31.2871V33.2277H24.4378C22.6952 33.2277 21.3487 34.7722 21.3487 36.5545V41.505C21.3048 43.2323 22.6696 44.6682 24.3969 44.7121C24.4106 44.7125 24.4241 44.7127 24.4378 44.7128H27.3685C27.7836 44.6934 28.1043 44.3409 28.0847 43.9258C28.0841 43.9109 28.0829 43.896 28.0813 43.8811V34.1782C28.0813 33.7029 27.8041 33.2276 27.3685 33.2276H26.4972V31.2871C26.4972 25.9283 30.8414 21.5841 36.2001 21.5841C41.5589 21.5841 45.9031 25.9283 45.9031 31.2871V33.2276H45.0318C44.5962 33.2276 44.3189 33.7029 44.3189 34.1782V43.8811C44.2747 44.2943 44.5739 44.6652 44.9871 44.7094C45.0019 44.711 45.0169 44.7121 45.0318 44.7128H45.9427L45.8635 44.8316C45.2774 45.6105 44.5174 46.2417 43.6442 46.6749C42.7709 47.108 41.8085 47.3312 40.8338 47.3266C40.4011 45.2049 38.3302 43.8356 36.2085 44.2684C34.3942 44.6384 33.086 46.2274 33.0714 48.0791C33.0931 50.2509 34.8599 52 37.0318 51.9998C38.1069 51.9824 39.1317 51.5412 39.8832 50.7721C40.3903 50.2529 40.7226 49.5883 40.8338 48.8711C42.0545 48.8757 43.2594 48.5953 44.3526 48.0521C45.4458 47.509 46.3971 46.7181 47.1308 45.7424L47.8833 44.6335C49.5862 44.5147 50.6555 43.4454 50.6555 41.9008V36.9503C50.6556 35.2475 49.3883 33.2277 47.5665 33.2277ZM26.4972 43.1287H24.4378C23.585 43.1079 22.9105 42.3998 22.9313 41.547C22.9316 41.533 22.9322 41.519 22.9328 41.5049V36.5544C22.9328 35.6435 23.5665 34.8118 24.4378 34.8118H26.4972V43.1287ZM38.7348 49.6633C38.5177 49.8988 38.2545 50.0871 37.9615 50.2165C37.6686 50.346 37.3521 50.4138 37.0319 50.4158C35.7433 50.3954 34.6977 49.3672 34.6556 48.0792C34.6551 46.7887 35.7008 45.7421 36.9913 45.7416C38.2818 45.7411 39.3284 46.7868 39.3289 48.0773V48.0792C39.3452 48.37 39.3008 48.661 39.1985 48.9338C39.0962 49.2065 38.9383 49.4549 38.7348 49.6633ZM49.0714 41.901C49.0714 42.9703 48.0417 43.1287 47.5665 43.1287H45.9031V34.8119H47.5665C48.4378 34.8119 49.0714 36.0396 49.0714 36.9505V41.901Z" fill="#FF2661"/>
</g>
<defs>
<linearGradient id="paint0_linear_2508_10611" x1="72" y1="5" x2="4" y2="72" gradientUnits="userSpaceOnUse">
<stop stop-color="#C3F9FA"/>
<stop offset="1" stop-color="#FACAF3"/>
</linearGradient>
</defs>
</svg>
