<svg width="72" height="72" viewBox="0 0 72 72" fill="none" xmlns="http://www.w3.org/2000/svg">
<g opacity="0.92">
<rect width="72" height="72" rx="14" fill="url(#paint0_linear_2508_10673)" fill-opacity="0.6"/>
<g clip-path="url(#clip0_2508_10673)">
<path d="M32.2838 51.962H23.832C22.825 51.962 21.8593 51.562 21.1472 50.85C20.4352 50.1379 20.0352 49.1722 20.0352 48.1652V23.7969C20.0352 22.7899 20.4352 21.8241 21.1472 21.1121C21.8593 20.4 22.825 20 23.832 20H41.4115C42.4185 20 43.3843 20.4 44.0963 21.1121C44.8084 21.8241 45.2084 22.7899 45.2084 23.7969V33.3498C45.2196 33.4687 45.2059 33.5887 45.1681 33.7021C45.1302 33.8154 45.0691 33.9196 44.9887 34.008C44.9083 34.0963 44.8103 34.1669 44.701 34.2152C44.5917 34.2636 44.4736 34.2885 44.3541 34.2885C44.2346 34.2885 44.1164 34.2636 44.0072 34.2152C43.8979 34.1669 43.7999 34.0963 43.7195 34.008C43.639 33.9196 43.578 33.8154 43.5401 33.7021C43.5023 33.5887 43.4886 33.4687 43.4998 33.3498V23.7969C43.4998 23.526 43.4463 23.2578 43.3424 23.0076C43.2385 22.7574 43.0863 22.5302 42.8944 22.339C42.7025 22.1478 42.4747 21.9964 42.2242 21.8934C41.9736 21.7905 41.7052 21.738 41.4343 21.739H23.832C23.5599 21.736 23.2898 21.787 23.0375 21.889C22.7852 21.9911 22.5556 22.1422 22.3621 22.3336C22.1686 22.525 22.015 22.7529 21.9101 23.004C21.8053 23.2552 21.7513 23.5247 21.7513 23.7969V48.1879C21.7513 48.4601 21.8053 48.7296 21.9101 48.9808C22.015 49.2319 22.1686 49.4598 22.3621 49.6512C22.5556 49.8426 22.7852 49.9937 23.0375 50.0958C23.2898 50.1979 23.5599 50.2489 23.832 50.2458H32.2838C32.5114 50.2458 32.7297 50.3363 32.8906 50.4972C33.0515 50.6581 33.1419 50.8764 33.1419 51.1039C33.1419 51.3315 33.0515 51.5498 32.8906 51.7107C32.7297 51.8716 32.5114 51.962 32.2838 51.962Z" fill="#FF2661"/>
<path d="M39.816 29.1733H25.3879C25.269 29.1846 25.149 29.1708 25.0357 29.133C24.9223 29.0952 24.8181 29.0341 24.7298 28.9537C24.6414 28.8732 24.5708 28.7752 24.5225 28.666C24.4742 28.5567 24.4492 28.4385 24.4492 28.319C24.4492 28.1995 24.4742 28.0814 24.5225 27.9721C24.5708 27.8628 24.6414 27.7648 24.7298 27.6844C24.8181 27.604 24.9223 27.5429 25.0357 27.5051C25.149 27.4672 25.269 27.4535 25.3879 27.4647H39.816C40.0287 27.4848 40.2263 27.5835 40.37 27.7415C40.5138 27.8995 40.5935 28.1054 40.5935 28.319C40.5935 28.5327 40.5138 28.7386 40.37 28.8966C40.2263 29.0546 40.0287 29.1533 39.816 29.1733Z" fill="#FF2661"/>
<path d="M33.3482 35.8412H25.4128C25.1852 35.8412 24.9669 35.7508 24.806 35.5899C24.6451 35.4289 24.5547 35.2107 24.5547 34.9831C24.5547 34.7555 24.6451 34.5373 24.806 34.3763C24.9669 34.2154 25.1852 34.125 25.4128 34.125H33.3482C33.5758 34.125 33.7941 34.2154 33.955 34.3763C34.1159 34.5373 34.2063 34.7555 34.2063 34.9831C34.2063 35.2107 34.1159 35.4289 33.955 35.5899C33.7941 35.7508 33.5758 35.8412 33.3482 35.8412Z" fill="#FF2661"/>
<path d="M49.1633 43.1377C49.0376 43.1379 48.9132 43.1132 48.7972 43.0649C48.6812 43.0167 48.5759 42.9459 48.4874 42.8567L45.0323 39.3939C44.854 39.2157 44.7539 38.974 44.7539 38.7219C44.7539 38.4698 44.854 38.2281 45.0323 38.0499C45.2105 37.8716 45.4523 37.7715 45.7043 37.7715C45.9564 37.7715 46.1981 37.8716 46.3764 38.0499L49.8391 41.5126C50.014 41.6926 50.1118 41.9337 50.1118 42.1846C50.1118 42.4356 50.014 42.6767 49.8391 42.8567C49.7507 42.9459 49.6454 43.0167 49.5294 43.0649C49.4133 43.1132 49.2889 43.1379 49.1633 43.1377Z" fill="#FF2661"/>
<path d="M35.8906 51.9992L36.855 46.2279L46.4763 36.6067C46.9147 36.1694 47.5087 35.9238 48.1279 35.9238C48.7472 35.9238 49.3411 36.1694 49.7796 36.6067L51.2983 38.1254C51.7356 38.5639 51.9812 39.1578 51.9812 39.7771C51.9812 40.3963 51.7356 40.9903 51.2983 41.4287L41.6619 51.0348L35.8906 51.9992ZM38.632 47.1088L38.2143 49.6451L40.7506 49.2199L49.9466 40.0315C50.0269 39.9492 50.0718 39.8388 50.0718 39.7239C50.0718 39.609 50.0269 39.4986 49.9466 39.4164L48.4279 37.8976C48.3456 37.8174 48.2353 37.7725 48.1203 37.7725C48.0054 37.7725 47.8951 37.8174 47.8128 37.8976L38.632 47.1088Z" fill="#FF2661"/>
</g>
</g>
<defs>
<linearGradient id="paint0_linear_2508_10673" x1="72" y1="5" x2="4" y2="72" gradientUnits="userSpaceOnUse">
<stop stop-color="#C3F9FA"/>
<stop offset="1" stop-color="#FACAF3"/>
</linearGradient>
<clipPath id="clip0_2508_10673">
<rect width="32" height="32" fill="white" transform="translate(20 20)"/>
</clipPath>
</defs>
</svg>
