<svg width="205" height="181" viewBox="0 0 205 181" fill="none" xmlns="http://www.w3.org/2000/svg">
<g opacity="0.04">
<path d="M85.4311 166.865C104.367 166.878 122.754 160.605 137.62 149.062L149.804 161.053C149.99 164.275 151.371 167.319 153.686 169.606L180.76 196.251C182.009 197.524 183.502 198.539 185.154 199.237C186.806 199.935 188.582 200.303 190.379 200.318C192.177 200.333 193.96 199.996 195.623 199.326C197.287 198.657 198.798 197.667 200.069 196.416C201.34 195.166 202.346 193.678 203.026 192.041C203.707 190.403 204.049 188.649 204.034 186.88C204.018 185.111 203.645 183.363 202.935 181.737C202.226 180.112 201.195 178.642 199.902 177.413L172.827 150.767C170.522 148.572 167.488 147.27 164.285 147.1L151.949 134.96C176.235 104.444 175.897 61.4681 151.134 31.3254C126.371 1.18258 83.7389 -8.14336 48.3358 8.84317C12.9326 25.8197 -5.87055 64.6123 2.99293 102.376C11.8598 140.149 46.0446 166.888 85.4311 166.865ZM195.13 182.139C196.399 183.388 197.111 185.082 197.111 186.849C197.111 188.615 196.399 190.309 195.13 191.558C193.841 192.77 192.127 193.446 190.344 193.446C188.562 193.446 186.848 192.77 185.559 191.558L158.485 164.913C157.838 164.298 157.322 163.563 156.968 162.751C156.613 161.938 156.426 161.064 156.418 160.179C156.411 159.295 156.582 158.418 156.922 157.599C157.263 156.78 157.765 156.036 158.401 155.411C159.036 154.786 159.792 154.291 160.624 153.956C161.456 153.621 162.347 153.452 163.246 153.46C164.144 153.468 165.032 153.652 165.858 154.001C166.684 154.35 167.431 154.857 168.055 155.494L195.13 182.139ZM156.44 148.799C155.439 149.34 154.517 150.013 153.699 150.797C152.911 151.597 152.227 152.496 151.669 153.462L142.795 144.735C144.443 143.237 146.027 141.675 147.553 140.052L156.44 148.799ZM85.4311 6.99131C128.422 6.99131 163.27 41.2875 163.27 83.5972C163.27 125.907 128.422 160.203 85.4311 160.203C42.4403 160.203 7.59219 125.907 7.59219 83.5972C7.63957 41.3074 42.4606 7.03794 85.4311 6.99131Z" fill="#0063CB"/>
<path d="M85.4306 153.541C124.682 153.541 156.501 122.226 156.501 83.5969C156.501 44.9675 124.682 13.6523 85.4306 13.6523C46.1795 13.6523 14.3604 44.9675 14.3604 83.5969C14.4043 122.206 46.1998 153.498 85.4306 153.541ZM85.4306 20.3137C120.942 20.3137 149.732 48.6479 149.732 83.5969C149.732 118.546 120.942 146.88 85.4306 146.88C49.9192 146.88 21.1289 118.546 21.1289 83.5969C21.1696 48.6613 49.9327 20.3537 85.4306 20.3137Z" fill="#0063CB"/>
<path fill-rule="evenodd" clip-rule="evenodd" d="M51.587 116.903H122.657C123.555 116.903 124.416 116.552 125.05 115.927C125.685 115.303 126.042 114.456 126.042 113.572C126.042 112.689 125.685 111.842 125.05 111.217C124.416 110.592 123.555 110.242 122.657 110.242H51.587V53.6198C51.587 52.7364 51.2304 51.8892 50.5957 51.2646C49.961 50.64 49.1002 50.2891 48.2027 50.2891C47.3051 50.2891 46.4443 50.64 45.8096 51.2646C45.1749 51.8892 44.8184 52.7364 44.8184 53.6198V110.242C44.8184 112.008 45.5315 113.703 46.8008 114.952C48.0702 116.201 49.7918 116.903 51.587 116.903Z" fill="#0063CB"/>
<path fill-rule="evenodd" clip-rule="evenodd" d="M61.7407 103.581C62.6383 103.581 63.4991 103.23 64.1338 102.606C64.7685 101.981 65.125 101.134 65.125 100.25V86.9276C65.125 86.0443 64.7685 85.1971 64.1338 84.5725C63.4991 83.9478 62.6383 83.5969 61.7407 83.5969C60.8432 83.5969 59.9824 83.9478 59.3477 84.5725C58.713 85.1971 58.3564 86.0443 58.3564 86.9276V100.25C58.3564 101.134 58.713 101.981 59.3477 102.606C59.9824 103.23 60.8432 103.581 61.7407 103.581ZM71.8936 80.2662V93.589C71.8936 94.4724 72.2502 95.3195 72.8849 95.9442C73.5196 96.5688 74.3804 96.9197 75.2779 96.9197C76.1755 96.9197 77.0363 96.5688 77.671 95.9442C78.3057 95.3195 78.6622 94.4724 78.6622 93.589V80.2662C78.6622 79.3829 78.3057 78.5357 77.671 77.9111C77.0363 77.2865 76.1755 76.9355 75.2779 76.9355C74.3804 76.9355 73.5196 77.2865 72.8849 77.9111C72.2502 78.5357 71.8936 79.3829 71.8936 80.2662ZM85.4308 86.9276V100.25C85.4308 101.134 85.7874 101.981 86.4221 102.606C87.0567 103.23 87.9176 103.581 88.8151 103.581C89.7127 103.581 90.5735 103.23 91.2082 102.606C91.8429 101.981 92.1994 101.134 92.1994 100.25V86.9276C92.1994 86.0443 91.8429 85.1971 91.2082 84.5725C90.5735 83.9478 89.7127 83.5969 88.8151 83.5969C87.9176 83.5969 87.0567 83.9478 86.4221 84.5725C85.7874 85.1971 85.4308 86.0443 85.4308 86.9276ZM98.968 80.2662V93.589C98.968 94.4724 99.3246 95.3195 99.9593 95.9442C100.594 96.5688 101.455 96.9197 102.352 96.9197C103.25 96.9197 104.111 96.5688 104.745 95.9442C105.38 95.3195 105.737 94.4724 105.737 93.589V80.2662C105.737 79.3829 105.38 78.5357 104.745 77.9111C104.111 77.2865 103.25 76.9355 102.352 76.9355C101.455 76.9355 100.594 77.2865 99.9593 77.9111C99.3246 78.5357 98.968 79.3829 98.968 80.2662ZM112.505 86.9276V100.25C112.505 101.134 112.862 101.981 113.496 102.606C114.131 103.23 114.992 103.581 115.89 103.581C116.787 103.581 117.648 103.23 118.283 102.606C118.917 101.981 119.274 101.134 119.274 100.25V86.9276C119.274 86.0443 118.917 85.1971 118.283 84.5725C117.648 83.9478 116.787 83.5969 115.89 83.5969C114.992 83.5969 114.131 83.9478 113.496 84.5725C112.862 85.1971 112.505 86.0443 112.505 86.9276Z" fill="#0063CB"/>
<path fill-rule="evenodd" clip-rule="evenodd" d="M61.7407 76.9361C62.4718 76.9361 63.1858 76.703 63.7713 76.27L75.2779 67.7767L85.1127 75.0343C87.1602 76.5564 89.9083 76.7996 92.1994 75.6638L102.352 70.6678L112.194 75.5106C113.465 76.136 114.903 76.3519 116.306 76.1277C117.708 75.9035 119.004 75.2507 120.008 74.2616L125.051 69.2989C125.667 68.6707 126.008 67.8293 126.001 66.9561C125.993 66.0828 125.637 65.2474 125.01 64.6298C124.382 64.0123 123.533 63.662 122.646 63.6544C121.759 63.6468 120.904 63.9826 120.265 64.5893L115.223 69.552L105.398 64.7092C104.457 64.2491 103.42 64.0096 102.369 64.0096C101.318 64.0096 100.282 64.2491 99.3403 64.7092L89.1874 69.7052L79.3391 62.451C78.1653 61.5913 76.7411 61.127 75.2779 61.127C73.8148 61.127 72.3906 61.5913 71.2168 62.451L59.7102 70.9409C59.1419 71.3603 58.7222 71.9451 58.5104 72.6123C58.2986 73.2796 58.3055 73.9955 58.5301 74.6587C58.7547 75.3219 59.1857 75.8987 59.7619 76.3075C60.3381 76.7162 61.0304 76.9361 61.7407 76.9361Z" fill="#0063CB"/>
</g>
</svg>
