<svg width="42" height="42" viewBox="0 0 42 42" fill="none" xmlns="http://www.w3.org/2000/svg">
<path d="M33.3019 16.0052C33.2142 9.60175 27.9779 4.41919 21.554 4.41919C18.6964 4.41919 15.9434 5.45869 13.8022 7.34622C11.8912 9.03073 10.584 11.2818 10.0663 13.7533C10.0285 13.7529 9.99098 13.7526 9.95357 13.7526C4.46528 13.7526 0 18.2178 0 23.7062C0 29.1945 4.46528 33.6597 9.95365 33.6597H16.9052C17.3998 33.6597 17.8009 33.2588 17.8009 32.764C17.8009 32.2693 17.3998 31.8684 16.9052 31.8684H9.95365C5.45293 31.8684 1.79139 28.2068 1.79139 23.7062C1.79139 19.2055 5.45293 15.544 9.95365 15.544C10.1934 15.544 10.4469 15.5569 10.7287 15.5834C11.2063 15.6281 11.635 15.2884 11.7001 14.8126C12.0226 12.4485 13.1899 10.2741 14.9868 8.68997C16.8006 7.09102 19.1328 6.2105 21.5539 6.2105C27.0447 6.2105 31.5116 10.6775 31.5116 16.1682C31.5116 16.3659 31.4969 16.5696 31.4814 16.7854L31.4748 16.8771C31.4655 17.0073 31.4849 17.1379 31.5315 17.2598C31.5781 17.3817 31.6507 17.492 31.7444 17.5829C31.838 17.6738 31.9504 17.7432 32.0736 17.7861C32.1968 17.829 32.328 17.8445 32.4578 17.8314C32.6952 17.8075 32.9336 17.7954 33.1721 17.7953C37.052 17.7953 40.2086 20.9519 40.2086 24.8318C40.2086 28.7116 37.052 31.8682 33.1721 31.8682H25.8623C25.3677 31.8682 24.9666 32.2692 24.9666 32.7639C24.9666 33.2586 25.3677 33.6596 25.8623 33.6596H33.1721C38.0398 33.6596 42 29.6995 42 24.8318C41.9999 20.0078 38.11 16.0748 33.3019 16.0052Z" fill="#616D80"/>
<path d="M21.554 8.62891C17.8086 8.62891 14.6025 11.4279 14.0962 15.1395C14.0294 15.6296 14.3726 16.0812 14.8626 16.1481C14.9037 16.1536 14.9445 16.1564 14.9848 16.1564C15.4257 16.1564 15.8099 15.8308 15.871 15.3817C16.2568 12.5533 18.7 10.4203 21.5539 10.4203C22.0487 10.4203 22.4496 10.0193 22.4496 9.52461C22.4497 9.02996 22.0487 8.62891 21.554 8.62891ZM25.6273 26.2541L22.3691 23.3437C21.8075 22.8416 20.9601 22.8417 20.3982 23.3436L17.1401 26.2542C16.7711 26.5837 16.7393 27.15 17.0688 27.519C17.3983 27.8878 17.9645 27.9199 18.3335 27.5903L20.488 25.6656V36.685C20.488 37.1797 20.889 37.5807 21.3837 37.5807C21.8784 37.5807 22.2794 37.1797 22.2794 36.685V25.6655L24.434 27.5902C24.5978 27.7371 24.8102 27.8182 25.0303 27.8179C25.1565 27.8181 25.2814 27.7916 25.3966 27.74C25.5118 27.6885 25.6147 27.6131 25.6987 27.5189C26.0281 27.1499 25.9962 26.5837 25.6273 26.2541Z" fill="#616D80"/>
</svg>
