<svg width="14" height="15" viewBox="0 0 14 15" fill="none" xmlns="http://www.w3.org/2000/svg">
<path d="M6.2877 0.348689C5.531 0.420737 4.66994 0.663083 3.97195 1.0004C3.2544 1.34754 2.71297 1.72089 2.15849 2.2547C1.55183 2.83109 1.11804 3.42712 0.729907 4.20983C-0.578 6.84288 -0.0985424 10.0163 1.93018 12.1515C3.99804 14.3359 7.27923 14.9418 9.97332 13.6351C10.6909 13.2879 11.2323 12.9146 11.7868 12.3808C12.3934 11.8044 12.8272 11.2084 13.2154 10.4257C13.8514 9.14188 14.0797 7.70091 13.8677 6.27304C13.8122 5.88332 13.7437 5.7294 13.5741 5.58858C13.2251 5.30038 12.7098 5.40846 12.4913 5.81455C12.4228 5.94227 12.4163 5.98812 12.4326 6.20427C12.4424 6.33854 12.4652 6.55141 12.4815 6.67913C12.5304 7.00662 12.5239 7.63868 12.4717 8.03823C12.1032 10.8088 9.75153 12.8851 6.97264 12.8851C5.12656 12.8851 3.40443 11.9583 2.36724 10.4126C1.11804 8.54584 1.11804 6.08964 2.36724 4.22293C3.89041 1.95341 6.78998 1.12485 9.27207 2.2547C9.51017 2.3595 9.60476 2.3857 9.76131 2.3857C10.0059 2.38897 10.2049 2.28417 10.3484 2.0844C10.4365 1.95341 10.4463 1.91738 10.4463 1.68486C10.4463 1.45234 10.4365 1.41632 10.3484 1.28532C10.2701 1.1707 10.1886 1.11175 9.91461 0.977476C8.89699 0.463312 7.54016 0.230791 6.2877 0.348689Z" fill="#00A31A"/>
<path d="M12.7291 2.24485C10.9972 3.23387 9.25873 4.78619 8.00953 6.44986C7.70947 6.85267 7.23001 7.56988 7.02127 7.93013C6.93646 8.08077 6.85819 8.20194 6.84514 8.20194C6.83535 8.20194 6.34937 7.72053 5.76554 7.13432C4.6566 6.01757 4.52613 5.90949 4.2652 5.90949C3.93904 5.90949 3.64876 6.12236 3.56069 6.42038C3.51829 6.56775 3.51829 6.62998 3.54765 6.7839L3.58679 6.97385L5.1067 8.50651C6.77991 10.1898 6.73751 10.1538 7.10281 10.1276C7.37026 10.108 7.53334 9.99006 7.68337 9.70841C8.50856 8.1561 9.09239 7.29806 10.0611 6.22389C10.9091 5.28398 12.0996 4.3015 13.1825 3.64979C13.7043 3.3354 13.7793 3.27645 13.8543 3.1258C13.9946 2.85071 13.9685 2.55269 13.7826 2.32672C13.6391 2.15315 13.4727 2.07782 13.2249 2.07782C13.0389 2.07782 12.9933 2.09092 12.7291 2.24485Z" fill="#00A31A"/>
</svg>
