<svg width="22" height="22" viewBox="0 0 22 22" fill="none" xmlns="http://www.w3.org/2000/svg">
<g clip-path="url(#clip0_5624_9120)">
<path d="M11 22C17.0824 22 22 17.0824 22 11C22 4.91765 17.0824 0 11 0C4.91765 0 0 4.91765 0 11C0 17.0824 4.91765 22 11 22Z" fill="#316FF6"/>
<path d="M8.34766 9.12353H9.51236V8.02353C9.51236 7.50588 9.51236 6.79412 9.9006 6.34118C10.2241 5.82353 10.7418 5.5 11.6477 5.5C13.0712 5.5 13.7182 5.69412 13.7182 5.69412L13.4594 7.37647C13.4594 7.37647 13.0065 7.24706 12.5535 7.24706C12.1006 7.24706 11.7124 7.37647 11.7124 7.82941V9.12353H13.5241L13.3947 10.7412H11.6477V16.4353H9.51236V10.7412H8.34766V9.12353V9.12353Z" fill="white"/>
</g>
<defs>
<clipPath id="clip0_5624_9120">
<rect width="22" height="22" fill="white"/>
</clipPath>
</defs>
</svg>
