<svg width="36" height="41" viewBox="0 0 36 41" fill="none" xmlns="http://www.w3.org/2000/svg">
<path d="M16.3825 0.318604H0V20.7118C0 31.5403 8.79297 40.3179 19.6175 40.3179H36V19.9239C36 9.09612 27.2181 0.318604 16.3825 0.318604ZM19.6175 34.1006C12.2352 34.1006 6.22086 28.0905 6.22086 20.7118V6.53582H16.3825C23.7751 6.53582 29.7791 12.546 29.7791 19.9239V34.0999H19.6175V34.1006Z" fill="url(#paint0_linear_534_8183)"/>
<path d="M36 19.9247V40.3186L29.7791 34.1014V19.9254C29.7791 12.5474 23.7758 6.53729 16.3825 6.53729H6.22086L0 0.320069H16.3825C27.2181 0.318595 36 9.09612 36 19.9247Z" fill="url(#paint1_linear_534_8183)"/>
<path d="M17.805 20.2366C17.805 21.1233 17.7093 21.8933 17.518 22.5466C17.3267 23.1999 17.063 23.7413 16.727 24.1706C16.391 24.5953 15.992 24.9126 15.53 25.1226C15.0727 25.3279 14.578 25.4306 14.046 25.4306C13.514 25.4306 13.0193 25.3279 12.562 25.1226C12.1047 24.9126 11.7103 24.5953 11.379 24.1706C11.0477 23.7413 10.7863 23.1999 10.595 22.5466C10.4083 21.8933 10.315 21.1233 10.315 20.2366C10.315 19.3499 10.4083 18.5823 10.595 17.9336C10.7863 17.2803 11.0477 16.7413 11.379 16.3166C11.7103 15.8873 12.1047 15.5699 12.562 15.3646C13.0193 15.1546 13.514 15.0496 14.046 15.0496C14.578 15.0496 15.0727 15.1546 15.53 15.3646C15.992 15.5699 16.391 15.8873 16.727 16.3166C17.063 16.7413 17.3267 17.2803 17.518 17.9336C17.7093 18.5823 17.805 19.3499 17.805 20.2366ZM15.81 20.2366C15.81 19.5179 15.7587 18.9253 15.656 18.4586C15.558 17.9919 15.4273 17.6233 15.264 17.3526C15.1007 17.0819 14.9117 16.8929 14.697 16.7856C14.487 16.6783 14.27 16.6246 14.046 16.6246C13.822 16.6246 13.605 16.6783 13.395 16.7856C13.1897 16.8929 13.0053 17.0819 12.842 17.3526C12.6833 17.6233 12.555 17.9919 12.457 18.4586C12.359 18.9253 12.31 19.5179 12.31 20.2366C12.31 20.9599 12.359 21.5549 12.457 22.0216C12.555 22.4883 12.6833 22.8569 12.842 23.1276C13.0053 23.3983 13.1897 23.5873 13.395 23.6946C13.605 23.8019 13.822 23.8556 14.046 23.8556C14.27 23.8556 14.487 23.8019 14.697 23.6946C14.9117 23.5873 15.1007 23.3983 15.264 23.1276C15.4273 22.8569 15.558 22.4883 15.656 22.0216C15.7587 21.5549 15.81 20.9599 15.81 20.2366ZM18.8141 18.0246C18.8888 17.5299 19.0288 17.0959 19.2341 16.7226C19.4394 16.3493 19.6961 16.0389 20.0041 15.7916C20.3121 15.5443 20.6621 15.3599 21.0541 15.2386C21.4508 15.1126 21.8778 15.0496 22.3351 15.0496C22.8204 15.0496 23.2544 15.1196 23.6371 15.2596C24.0244 15.3949 24.3511 15.5816 24.6171 15.8196C24.8831 16.0576 25.0861 16.3353 25.2261 16.6526C25.3708 16.9699 25.4431 17.3106 25.4431 17.6746C25.4431 17.9966 25.4081 18.2813 25.3381 18.5286C25.2728 18.7713 25.1724 18.9836 25.0371 19.1656C24.9064 19.3476 24.7431 19.5016 24.5471 19.6276C24.3558 19.7536 24.1341 19.8586 23.8821 19.9426C25.0488 20.3253 25.6321 21.1023 25.6321 22.2736C25.6321 22.7916 25.5364 23.2489 25.3451 23.6456C25.1538 24.0376 24.8971 24.3666 24.5751 24.6326C24.2531 24.8986 23.8774 25.0993 23.4481 25.2346C23.0234 25.3653 22.5778 25.4306 22.1111 25.4306C21.6164 25.4306 21.1801 25.3746 20.8021 25.2626C20.4241 25.1506 20.0904 24.9826 19.8011 24.7586C19.5164 24.5346 19.2714 24.2546 19.0661 23.9186C18.8608 23.5779 18.6811 23.1813 18.5271 22.7286L19.3811 22.3786C19.6051 22.2853 19.8128 22.2596 20.0041 22.3016C20.2001 22.3436 20.3401 22.4463 20.4241 22.6096C20.5174 22.7869 20.6154 22.9503 20.7181 23.0996C20.8254 23.2489 20.9444 23.3796 21.0751 23.4916C21.2058 23.5989 21.3528 23.6829 21.5161 23.7436C21.6841 23.8043 21.8754 23.8346 22.0901 23.8346C22.3608 23.8346 22.5964 23.7903 22.7971 23.7016C22.9978 23.6129 23.1658 23.4986 23.3011 23.3586C23.4364 23.2139 23.5368 23.0529 23.6021 22.8756C23.6721 22.6936 23.7071 22.5139 23.7071 22.3366C23.7071 22.1033 23.6861 21.8933 23.6441 21.7066C23.6021 21.5153 23.5041 21.3543 23.3501 21.2236C23.2008 21.0883 22.9768 20.9856 22.6781 20.9156C22.3841 20.8409 21.9828 20.8036 21.4741 20.8036V19.4456C21.8988 19.4456 22.2464 19.4106 22.5171 19.3406C22.7878 19.2706 23.0001 19.1726 23.1541 19.0466C23.3081 18.9206 23.4131 18.7689 23.4691 18.5916C23.5298 18.4143 23.5601 18.2206 23.5601 18.0106C23.5601 17.5673 23.4434 17.2289 23.2101 16.9956C22.9814 16.7623 22.6548 16.6456 22.2301 16.6456C22.0434 16.6456 21.8708 16.6736 21.7121 16.7296C21.5581 16.7809 21.4181 16.8533 21.2921 16.9466C21.1708 17.0399 21.0658 17.1496 20.9771 17.2756C20.8884 17.4016 20.8231 17.5393 20.7811 17.6886C20.6924 17.9219 20.5781 18.0783 20.4381 18.1576C20.2981 18.2323 20.0951 18.2486 19.8291 18.2066L18.8141 18.0246Z" fill="#FF1C68"/>
<defs>
<linearGradient id="paint0_linear_534_8183" x1="4.74189" y1="33.5692" x2="31.2449" y2="7.05078" gradientUnits="userSpaceOnUse">
<stop stop-color="#FF0055"/>
<stop offset="1" stop-color="#FF5990"/>
</linearGradient>
<linearGradient id="paint1_linear_534_8183" x1="16.9944" y1="21.3238" x2="31.2521" y2="7.05791" gradientUnits="userSpaceOnUse">
<stop stop-color="#FF0055"/>
<stop offset="1" stop-color="#FF5990"/>
</linearGradient>
</defs>
</svg>
