<svg width="22" height="22" viewBox="0 0 22 22" fill="none" xmlns="http://www.w3.org/2000/svg">
<circle cx="11" cy="11" r="11" fill="#0C64C5"/>
<path d="M7.2 8.402C7.86667 8.402 8.4 7.85988 8.4 7.201C8.4 6.54212 7.85833 6 7.2 6C6.54167 6 6 6.54212 6 7.201C6 7.85988 6.54167 8.402 7.2 8.402ZM9.54167 9.31109V16H11.6083V12.6972C11.6083 11.8215 11.775 10.9791 12.85 10.9791C13.925 10.9791 13.925 11.98 13.925 12.7473V16H16V12.3303C16 10.5288 15.6167 9.14429 13.5167 9.14429C12.5083 9.14429 11.8333 9.69475 11.5583 10.2202H11.5333V9.30275H9.55L9.54167 9.31109ZM6.16667 9.31109H8.24167V16H6.16667V9.31109Z" fill="white"/>
</svg>
