<svg width="24" height="20" viewBox="0 0 24 20" fill="none" xmlns="http://www.w3.org/2000/svg">
<path d="M1.76401 14.4649C1.46405 14.6664 1.45468 14.6992 1.45468 16.0021V17.1879H0.953188C0.395458 17.1879 0.264227 17.2348 0.0908152 17.4972C-0.0310418 17.6847 -0.0310418 18.0878 0.095502 18.2893C0.292348 18.608 0.0814416 18.594 4.31363 18.608C7.5944 18.6221 8.19431 18.6361 8.55988 18.7018C9.40819 18.8564 10.0034 19.0908 10.6033 19.5126C11.1189 19.8781 11.4657 20 11.9953 20C12.5343 20 12.8343 19.8969 13.4107 19.5079C14.0716 19.058 14.5871 18.8564 15.4401 18.7018C15.8057 18.6361 16.4056 18.6221 19.6864 18.608C23.9186 18.594 23.7077 18.608 23.9045 18.2893C24.031 18.0878 24.031 17.6847 23.9092 17.4972C23.7358 17.2348 23.6045 17.1879 23.0515 17.1879H22.5453V16.0021C22.5453 14.6992 22.536 14.6664 22.236 14.4649C22.1048 14.3805 21.9407 14.3758 18.2053 14.3758C14.4746 14.3758 14.2965 14.3805 13.9403 14.4696C13.3545 14.6149 12.8436 14.8961 12.3937 15.3272L12 15.6975L11.6063 15.3272C11.1564 14.8961 10.6455 14.6149 10.0597 14.4696C9.70346 14.3805 9.52536 14.3758 5.79466 14.3758C2.05928 14.3758 1.89524 14.3805 1.76401 14.4649ZM9.41757 15.8287C10.13 15.9225 10.7721 16.3865 11.0626 17.0145C11.1939 17.2863 11.3485 18.0925 11.2829 18.1534C11.2735 18.1675 11.1376 18.1018 10.983 18.0081C10.6221 17.7925 10.0081 17.5488 9.52536 17.4223C8.66299 17.2067 8.38647 17.1879 5.54626 17.1879H2.86072V16.4849V15.7819H5.96808C7.68345 15.7819 9.22541 15.8053 9.41757 15.8287ZM21.1393 16.4849V17.1879H18.4584C15.6135 17.1879 15.337 17.2067 14.4746 17.4223C13.9919 17.5488 13.3779 17.7925 13.017 18.0081C12.8624 18.1018 12.7265 18.1675 12.7171 18.1534C12.6515 18.0925 12.8061 17.2863 12.9374 17.0145C13.2186 16.4052 13.8794 15.9178 14.5403 15.8334C14.6996 15.81 16.2556 15.7912 17.9897 15.7866L21.1393 15.7819V16.4849Z" fill="#616D80"/>
<path d="M6.79411 1.90533C4.07107 2.68334 1.80265 3.34887 1.74641 3.37699C1.45114 3.53165 1.35741 4.10344 1.56831 4.41746C1.63393 4.5112 1.74173 4.60962 1.81672 4.63774C1.88702 4.66586 3.06809 5.008 4.43196 5.397C5.8005 5.78601 6.95346 6.11408 7.00033 6.12814C7.07532 6.15158 7.08 6.28281 7.08 8.00756C7.08 9.80261 7.08469 9.86822 7.17843 10.0182C7.26279 10.1541 7.52525 10.3041 9.08596 11.0915C10.1264 11.6117 10.9982 12.0804 11.1341 12.1929C11.6075 12.5725 11.7715 12.6616 12.0012 12.6616C12.2308 12.6616 12.3948 12.5725 12.8682 12.1929C13.0041 12.0804 13.8759 11.6117 14.9164 11.0915C16.4771 10.3041 16.7395 10.1541 16.8239 10.0182C16.9176 9.86822 16.9223 9.80261 16.9223 8.00756V6.14689L17.0535 6.11877C17.1238 6.10002 17.4425 6.01097 17.7659 5.91724L18.3518 5.74851L18.3377 8.4903C18.3237 11.0071 18.3284 11.2461 18.4033 11.3867C18.5205 11.6117 18.7361 11.7242 19.0361 11.7242C19.3173 11.7242 19.5001 11.6305 19.6453 11.4149C19.7297 11.2836 19.7344 11.1383 19.7344 8.31689V5.35482L19.9828 5.28452C20.114 5.24702 20.6483 5.09705 21.1639 4.95176C21.6794 4.80178 22.1668 4.64711 22.2418 4.60024C22.4481 4.4737 22.5465 4.27217 22.5465 3.99096C22.5465 3.70975 22.4481 3.50822 22.2418 3.38167C22.1668 3.33481 19.875 2.66459 17.1566 1.88658C13.4353 0.827361 12.1558 0.47585 11.9777 0.480537C11.8231 0.485224 10.0796 0.963279 6.79411 1.90533ZM15.5959 2.96455C17.5363 3.51759 19.1251 3.9769 19.1251 3.99096C19.1251 4.00502 17.5269 4.46901 15.5678 5.02674L12.0152 6.04378L8.4673 5.03143C6.51759 4.47839 4.92407 4.00971 4.92407 3.99096C4.92407 3.95346 11.9496 1.93345 12.0246 1.94751C12.0527 1.95688 13.6603 2.4115 15.5959 2.96455ZM10.1733 7.03739C11.1013 7.30453 11.898 7.50607 12.0105 7.50607C12.123 7.50607 12.9245 7.30453 13.8524 7.03739C14.7523 6.77961 15.4975 6.56871 15.5022 6.56871C15.5116 6.56871 15.5163 7.14987 15.5163 7.85758V9.14645L14.0587 9.87759C13.2525 10.276 12.4651 10.6931 12.3011 10.7962L12.0012 10.9837L11.7012 10.7962C11.5372 10.6931 10.7498 10.276 9.94365 9.87759L8.48605 9.14645V7.85758C8.48605 7.14987 8.49542 6.56871 8.50948 6.56871C8.52354 6.56871 9.27343 6.77961 10.1733 7.03739Z" fill="#616D80"/>
</svg>
