<svg width="36" height="36" viewBox="0 0 36 36" fill="none" xmlns="http://www.w3.org/2000/svg">
<rect width="36" height="36" rx="18" fill="white"/>
<path fill-rule="evenodd" clip-rule="evenodd" d="M25.6651 12.3349C25.8795 12.5494 26 12.8403 26 13.1436C26 13.4469 25.8795 13.7378 25.6651 13.9524L16.5141 23.1034C16.2995 23.3178 16.0087 23.4383 15.7053 23.4383C15.402 23.4383 15.1111 23.3178 14.8966 23.1034L10.3211 18.5279C10.1127 18.3121 9.99744 18.0232 10 17.7233C10.0026 17.4233 10.1229 17.1364 10.335 16.9244C10.5471 16.7123 10.834 16.592 11.1339 16.5894C11.4339 16.5868 11.7228 16.7021 11.9385 16.9104L15.7053 20.6772L24.0476 12.3349C24.2622 12.1205 24.5531 12 24.8564 12C25.1597 12 25.4506 12.1205 25.6651 12.3349Z" fill="#0063CB"/>
</svg>
