<svg width="92" height="93" viewBox="0 0 92 93" fill="none" xmlns="http://www.w3.org/2000/svg">
<g opacity="0.92">
<rect y="0.318359" width="92" height="92" rx="46" fill="#FF2661" fill-opacity="0.1"/>
<path d="M34.8358 63.984C34.9957 64.5092 35.3198 64.9692 35.7606 65.2966C36.2013 65.6239 36.7354 65.8013 37.2844 65.8026C37.5331 65.8028 37.7806 65.7674 38.0194 65.6976L54.6598 60.687L57.6544 60.2964C57.9873 60.2534 58.3086 60.1452 58.5997 59.9779C58.8908 59.8106 59.1461 59.5876 59.3509 59.3215C59.5557 59.0554 59.706 58.7516 59.7933 58.4274C59.8805 58.1032 59.903 57.7649 59.8593 57.432L58.2801 45.378L63.2529 37.7508L64.4794 35.8986L65.0673 34.9788C65.4801 34.3472 65.625 33.5776 65.4702 32.8391C65.3154 32.1007 64.8736 31.454 64.2421 31.0413C63.6105 30.6286 62.8408 30.4837 62.1024 30.6385C61.364 30.7932 60.7173 31.235 60.3046 31.8666L59.6998 32.7948L58.4902 34.6428L57.1336 36.7176L56.1213 29.0106C56.0779 28.678 55.9693 28.3572 55.8018 28.0666C55.6342 27.7759 55.4111 27.5211 55.1451 27.3168C54.8791 27.1124 54.5754 26.9624 54.2515 26.8754C53.9275 26.7884 53.5896 26.7661 53.257 26.8098L35.5834 29.1324C34.9404 29.2154 34.3534 29.5407 33.942 30.0418C33.5307 30.5428 33.3261 31.182 33.37 31.8288L28.288 33.3576C27.6398 33.5528 27.0957 33.9973 26.7752 34.5935C26.4546 35.1897 26.3839 35.8887 26.5786 36.537L34.8358 63.984ZM60.4095 34.0086L61.7368 34.8738L63.0597 35.739L62.5389 36.537L59.8887 34.8066L60.4095 34.0086ZM61.3587 32.5512C61.5888 32.1992 61.9492 31.953 62.3608 31.8668C62.7723 31.7805 63.2013 31.8613 63.5532 32.0913C63.9052 32.3213 64.1514 32.6818 64.2377 33.0933C64.3239 33.5049 64.2432 33.9338 64.0131 34.2858L63.7527 34.6848L61.1194 32.9502L61.3587 32.5512ZM59.2 35.8608L60.5271 36.726L61.8501 37.5912L53.7652 49.9728L52.438 49.1076L51.115 48.2424L59.2 35.8608ZM49.54 52.791L49.792 51.9846C50.2143 52.0938 50.5892 52.3388 50.8588 52.6818L50.2204 53.2362C50.1515 53.2988 50.0638 53.3367 49.9711 53.3441C49.8783 53.3514 49.7858 53.3278 49.7079 53.2768C49.6301 53.2259 49.5713 53.1506 49.5409 53.0626C49.5105 52.9747 49.5102 52.8792 49.54 52.791ZM51.808 51.8544C51.385 51.3328 50.8092 50.9567 50.1616 50.7792L50.5816 49.4058L52.8874 50.9136L51.808 51.8544ZM34.8862 30.8754C34.9901 30.7403 35.1196 30.627 35.2674 30.542C35.4151 30.4569 35.5781 30.4018 35.7472 30.3798L53.4207 28.0614C53.4781 28.0572 53.5356 28.0572 53.593 28.0614C53.9028 28.0677 54.2001 28.1846 54.4312 28.3911C54.6623 28.5975 54.8119 28.8799 54.853 29.187L56.0793 38.3388L52.8622 43.257L46.537 44.097C46.4542 44.1022 46.3733 44.1237 46.2989 44.1602C46.2245 44.1967 46.158 44.2475 46.1032 44.3097C45.9925 44.4354 45.9363 44.5998 45.9469 44.7669C45.9574 44.934 46.034 45.09 46.1596 45.2007C46.2852 45.3114 46.4497 45.3676 46.6168 45.357H46.7008L51.955 44.6388L49.7164 48.0702C49.7156 48.0842 49.7156 48.0982 49.7164 48.1122C49.7003 48.1385 49.6876 48.1667 49.6786 48.1962L49.288 49.4562L40.3336 50.6616C40.1665 50.6727 40.0106 50.7498 39.9004 50.8758C39.7901 51.0019 39.7344 51.1665 39.7456 51.3336C39.7567 51.5007 39.8337 51.6565 39.9598 51.7668C40.0858 51.8771 40.2505 51.9327 40.4176 51.9216H40.4974L48.8428 50.8296L48.3472 52.434C48.2392 52.7825 48.2477 53.1566 48.3712 53.4998C48.4947 53.8431 48.7265 54.1368 49.0318 54.3366C49.3048 54.5166 49.6245 54.6129 49.9516 54.6138C50.357 54.6112 50.7479 54.462 51.052 54.1938L54.3616 51.3294L54.3951 51.2916C54.4208 51.2679 54.4434 51.2411 54.4624 51.2118L57.2007 47.0118L58.5993 57.5958C58.6219 57.7644 58.6109 57.9359 58.567 58.1002C58.523 58.2646 58.4469 58.4186 58.3431 58.5534C58.2427 58.6869 58.1167 58.7991 57.9725 58.8835C57.8283 58.9678 57.6688 59.0227 57.5031 59.0448L39.8128 61.3674C39.6442 61.3892 39.4731 61.3776 39.3091 61.3333C39.1451 61.2889 38.9914 61.2127 38.8568 61.109C38.7223 61.0052 38.6095 60.876 38.5249 60.7286C38.4403 60.5813 38.3855 60.4187 38.3638 60.2502L34.63 31.833C34.5853 31.4925 34.6774 31.1481 34.8862 30.8754ZM28.6534 34.5588L33.5254 33.093L37.1122 60.414C37.1933 61.0261 37.4931 61.5883 37.9562 61.9966C38.4194 62.405 39.0147 62.632 39.6322 62.6358C39.7446 62.6358 39.8569 62.6273 39.9682 62.6106L46.8898 61.7034L37.6498 64.4838C37.3228 64.5819 36.9703 64.5463 36.6696 64.3849C36.3689 64.2235 36.1444 63.9494 36.0454 63.6228L27.784 36.1758C27.7348 36.0125 27.7183 35.8412 27.7354 35.6716C27.7525 35.5019 27.8029 35.3373 27.8836 35.1872C27.9644 35.037 28.0739 34.9042 28.206 34.7964C28.338 34.6886 28.4901 34.6079 28.6534 34.5588ZM41.3542 33.8868C41.3327 33.7214 41.3777 33.5543 41.4792 33.422C41.5808 33.2898 41.7306 33.2032 41.896 33.1812L51.976 31.854C52.143 31.8323 52.3119 31.8778 52.4454 31.9806C52.5789 32.0834 52.6661 32.235 52.6879 32.4021C52.7096 32.5692 52.664 32.7381 52.5612 32.8716C52.4585 33.0051 52.3068 33.0923 52.1398 33.114L42.0598 34.437H41.98C41.8268 34.4363 41.679 34.3802 41.564 34.2791C41.449 34.178 41.3744 34.0386 41.3542 33.8868ZM38.305 40.044C38.2944 39.9612 38.3004 39.8771 38.3227 39.7966C38.3449 39.7161 38.3829 39.6409 38.4345 39.5752C38.4861 39.5096 38.5502 39.4548 38.6232 39.4142C38.6961 39.3735 38.7764 39.3478 38.8594 39.3384L52.7194 37.4988C52.8864 37.4771 53.0553 37.5226 53.1888 37.6254C53.3223 37.7282 53.4095 37.8798 53.4312 38.0469C53.453 38.214 53.4074 38.3829 53.3046 38.5164C53.2019 38.6499 53.0502 38.7371 52.8832 38.7588L39.0106 40.59H38.9308C38.7782 40.5895 38.631 40.534 38.516 40.4337C38.4011 40.3334 38.3262 40.1951 38.305 40.044ZM43.0132 45.1848C43.025 45.2673 43.0203 45.3514 42.9994 45.4321C42.9785 45.5128 42.9418 45.5886 42.8914 45.655C42.841 45.7214 42.7779 45.7771 42.7058 45.819C42.6337 45.8608 42.554 45.888 42.4714 45.8988L39.754 46.2558H39.6742C39.5071 46.2669 39.3424 46.2113 39.2164 46.101C39.0903 45.9907 39.0133 45.8349 39.0022 45.6678C38.991 45.5007 39.0467 45.3361 39.157 45.21C39.2672 45.084 39.4231 45.0069 39.5902 44.9958L42.3076 44.6388C42.3898 44.6282 42.4732 44.6339 42.5532 44.6557C42.6332 44.6774 42.7081 44.7147 42.7737 44.7654C42.8392 44.8161 42.8941 44.8793 42.9352 44.9512C42.9763 45.0232 43.0028 45.1026 43.0132 45.1848ZM40.5394 57.0288C40.5179 56.8634 40.5629 56.6963 40.6644 56.564C40.766 56.4318 40.9158 56.3452 41.0812 56.3232L45.9154 55.689C45.9981 55.678 46.0822 55.6833 46.1628 55.7048C46.2435 55.7263 46.3191 55.7634 46.3854 55.8141C46.4517 55.8648 46.5074 55.9281 46.5493 56.0003C46.5911 56.0725 46.6183 56.1523 46.6294 56.235C46.6404 56.3177 46.635 56.4018 46.6135 56.4825C46.5921 56.5631 46.5549 56.6388 46.5042 56.7051C46.4535 56.7714 46.3903 56.8271 46.318 56.8689C46.2458 56.9108 46.1661 56.938 46.0834 56.949L41.2408 57.5706H41.161C41.0095 57.5701 40.8634 57.515 40.7492 57.4155C40.635 57.316 40.5606 57.1787 40.5394 57.0288Z" fill="#FF2661"/>
</g>
</svg>
