<svg width="36" height="41" viewBox="0 0 36 41" fill="none" xmlns="http://www.w3.org/2000/svg">
<path d="M16.3825 0.318604H0V20.7125C0 31.5411 8.79297 40.3186 19.6175 40.3186H36V19.924C36 9.09539 27.2181 0.318604 16.3825 0.318604ZM19.6183 34.1006C12.236 34.1006 6.22159 28.0905 6.22159 20.7125V6.53583H16.3825C23.7751 6.53583 29.7791 12.546 29.7791 19.924V34.0999L19.6183 34.1006Z" fill="url(#paint0_linear_534_8177)"/>
<path d="M36.0002 19.924V40.3179L29.7794 34.1006V19.924C29.7794 12.546 23.7761 6.53583 16.3827 6.53583H6.22183L0.000976562 0.318604H16.3834C27.2183 0.318604 36.0002 9.09539 36.0002 19.924Z" fill="url(#paint1_linear_534_8177)"/>
<path d="M17.805 20.2366C17.805 21.1233 17.7093 21.8933 17.518 22.5466C17.3267 23.1999 17.063 23.7413 16.727 24.1706C16.391 24.5953 15.992 24.9126 15.53 25.1226C15.0727 25.3279 14.578 25.4306 14.046 25.4306C13.514 25.4306 13.0193 25.3279 12.562 25.1226C12.1047 24.9126 11.7103 24.5953 11.379 24.1706C11.0477 23.7413 10.7863 23.1999 10.595 22.5466C10.4083 21.8933 10.315 21.1233 10.315 20.2366C10.315 19.3499 10.4083 18.5823 10.595 17.9336C10.7863 17.2803 11.0477 16.7413 11.379 16.3166C11.7103 15.8873 12.1047 15.5699 12.562 15.3646C13.0193 15.1546 13.514 15.0496 14.046 15.0496C14.578 15.0496 15.0727 15.1546 15.53 15.3646C15.992 15.5699 16.391 15.8873 16.727 16.3166C17.063 16.7413 17.3267 17.2803 17.518 17.9336C17.7093 18.5823 17.805 19.3499 17.805 20.2366ZM15.81 20.2366C15.81 19.5179 15.7587 18.9253 15.656 18.4586C15.558 17.9919 15.4273 17.6233 15.264 17.3526C15.1007 17.0819 14.9117 16.8929 14.697 16.7856C14.487 16.6783 14.27 16.6246 14.046 16.6246C13.822 16.6246 13.605 16.6783 13.395 16.7856C13.1897 16.8929 13.0053 17.0819 12.842 17.3526C12.6833 17.6233 12.555 17.9919 12.457 18.4586C12.359 18.9253 12.31 19.5179 12.31 20.2366C12.31 20.9599 12.359 21.5549 12.457 22.0216C12.555 22.4883 12.6833 22.8569 12.842 23.1276C13.0053 23.3983 13.1897 23.5873 13.395 23.6946C13.605 23.8019 13.822 23.8556 14.046 23.8556C14.27 23.8556 14.487 23.8019 14.697 23.6946C14.9117 23.5873 15.1007 23.3983 15.264 23.1276C15.4273 22.8569 15.558 22.4883 15.656 22.0216C15.7587 21.5549 15.81 20.9599 15.81 20.2366ZM24.9741 23.5476C25.1841 23.5476 25.3474 23.6059 25.4641 23.7226C25.5854 23.8393 25.6461 23.9933 25.6461 24.1846V25.3186H18.6041V24.6886C18.6041 24.5673 18.6298 24.4366 18.6811 24.2966C18.7324 24.1519 18.8188 24.0213 18.9401 23.9046L21.9501 20.8876C22.2068 20.6309 22.4331 20.3859 22.6291 20.1526C22.8251 19.9146 22.9884 19.6836 23.1191 19.4596C23.2498 19.2309 23.3478 18.9999 23.4131 18.7666C23.4784 18.5333 23.5111 18.2883 23.5111 18.0316C23.5111 17.5789 23.3944 17.2359 23.1611 17.0026C22.9278 16.7646 22.5988 16.6456 22.1741 16.6456C21.9874 16.6456 21.8148 16.6736 21.6561 16.7296C21.5021 16.7809 21.3621 16.8533 21.2361 16.9466C21.1148 17.0399 21.0098 17.1496 20.9211 17.2756C20.8324 17.4016 20.7671 17.5393 20.7251 17.6886C20.6411 17.9219 20.5268 18.0783 20.3821 18.1576C20.2421 18.2323 20.0414 18.2486 19.7801 18.2066L18.7581 18.0246C18.8328 17.5299 18.9728 17.0959 19.1781 16.7226C19.3834 16.3493 19.6401 16.0389 19.9481 15.7916C20.2561 15.5443 20.6084 15.3599 21.0051 15.2386C21.4018 15.1126 21.8288 15.0496 22.2861 15.0496C22.7668 15.0496 23.2031 15.1219 23.5951 15.2666C23.9918 15.4066 24.3301 15.6049 24.6101 15.8616C24.8901 16.1136 25.1071 16.4193 25.2611 16.7786C25.4151 17.1379 25.4921 17.5346 25.4921 17.9686C25.4921 18.3419 25.4384 18.6873 25.3311 19.0046C25.2238 19.3219 25.0768 19.6253 24.8901 19.9146C24.7081 20.1993 24.4958 20.4769 24.2531 20.7476C24.0104 21.0183 23.7538 21.2913 23.4831 21.5666L21.3271 23.7716C21.5651 23.7016 21.8008 23.6479 22.0341 23.6106C22.2674 23.5686 22.4868 23.5476 22.6921 23.5476H24.9741Z" fill="#FF8100"/>
<defs>
<linearGradient id="paint0_linear_534_8177" x1="4.74211" y1="33.5686" x2="31.2451" y2="7.05018" gradientUnits="userSpaceOnUse">
<stop stop-color="#FF6F00"/>
<stop offset="1" stop-color="#FFD500"/>
</linearGradient>
<linearGradient id="paint1_linear_534_8177" x1="16.9948" y1="21.3233" x2="31.2525" y2="7.05733" gradientUnits="userSpaceOnUse">
<stop stop-color="#FF6F00"/>
<stop offset="1" stop-color="#FFD500"/>
</linearGradient>
</defs>
</svg>
