<svg width="36" height="41" viewBox="0 0 36 41" fill="none" xmlns="http://www.w3.org/2000/svg">
<path d="M16.3825 0.318604H0V20.7118C0 31.5403 8.79297 40.3179 19.6175 40.3179H36V19.9239C36 9.09612 27.2174 0.318604 16.3825 0.318604ZM19.6175 34.1006C12.2352 34.1006 6.22086 28.0905 6.22086 20.7118V6.53582H16.3825C23.7751 6.53582 29.7791 12.546 29.7791 19.9239V34.0999H19.6175V34.1006Z" fill="url(#paint0_linear_534_8190)"/>
<path d="M36 19.9247V40.3186L29.7791 34.1014V19.9254C29.7791 12.5474 23.7758 6.53729 16.3825 6.53729H6.22086L0 0.320069H16.3825C27.2174 0.318595 36 9.09612 36 19.9247Z" fill="url(#paint1_linear_534_8190)"/>
<path d="M17.805 20.2366C17.805 21.1233 17.7093 21.8933 17.518 22.5466C17.3267 23.1999 17.063 23.7413 16.727 24.1706C16.391 24.5953 15.992 24.9126 15.53 25.1226C15.0727 25.3279 14.578 25.4306 14.046 25.4306C13.514 25.4306 13.0193 25.3279 12.562 25.1226C12.1047 24.9126 11.7103 24.5953 11.379 24.1706C11.0477 23.7413 10.7863 23.1999 10.595 22.5466C10.4083 21.8933 10.315 21.1233 10.315 20.2366C10.315 19.3499 10.4083 18.5823 10.595 17.9336C10.7863 17.2803 11.0477 16.7413 11.379 16.3166C11.7103 15.8873 12.1047 15.5699 12.562 15.3646C13.0193 15.1546 13.514 15.0496 14.046 15.0496C14.578 15.0496 15.0727 15.1546 15.53 15.3646C15.992 15.5699 16.391 15.8873 16.727 16.3166C17.063 16.7413 17.3267 17.2803 17.518 17.9336C17.7093 18.5823 17.805 19.3499 17.805 20.2366ZM15.81 20.2366C15.81 19.5179 15.7587 18.9253 15.656 18.4586C15.558 17.9919 15.4273 17.6233 15.264 17.3526C15.1007 17.0819 14.9117 16.8929 14.697 16.7856C14.487 16.6783 14.27 16.6246 14.046 16.6246C13.822 16.6246 13.605 16.6783 13.395 16.7856C13.1897 16.8929 13.0053 17.0819 12.842 17.3526C12.6833 17.6233 12.555 17.9919 12.457 18.4586C12.359 18.9253 12.31 19.5179 12.31 20.2366C12.31 20.9599 12.359 21.5549 12.457 22.0216C12.555 22.4883 12.6833 22.8569 12.842 23.1276C13.0053 23.3983 13.1897 23.5873 13.395 23.6946C13.605 23.8019 13.822 23.8556 14.046 23.8556C14.27 23.8556 14.487 23.8019 14.697 23.6946C14.9117 23.5873 15.1007 23.3983 15.264 23.1276C15.4273 22.8569 15.558 22.4883 15.656 22.0216C15.7587 21.5549 15.81 20.9599 15.81 20.2366ZM23.0491 21.4406V18.4166C23.0491 18.2579 23.0538 18.0899 23.0631 17.9126C23.0771 17.7306 23.0958 17.5416 23.1191 17.3456L20.1791 21.4406H23.0491ZM25.9051 21.4406V22.5326C25.9051 22.6353 25.8701 22.7239 25.8001 22.7986C25.7348 22.8686 25.6414 22.9036 25.5201 22.9036H24.7291V25.3186H23.0491V22.9036H18.8561C18.7348 22.9036 18.6228 22.8663 18.5201 22.7916C18.4221 22.7169 18.3614 22.6189 18.3381 22.4976L18.1351 21.5316L22.8951 15.1546H24.7291V21.4406H25.9051Z" fill="#178F00"/>
<defs>
<linearGradient id="paint0_linear_534_8190" x1="4.74145" y1="33.5692" x2="31.2445" y2="7.05078" gradientUnits="userSpaceOnUse">
<stop stop-color="#008200"/>
<stop offset="1" stop-color="#77C600"/>
</linearGradient>
<linearGradient id="paint1_linear_534_8190" x1="16.9939" y1="21.3238" x2="31.2516" y2="7.05791" gradientUnits="userSpaceOnUse">
<stop stop-color="#008200"/>
<stop offset="1" stop-color="#77C600"/>
</linearGradient>
</defs>
</svg>
