<svg width="36" height="40" viewBox="0 0 36 40" fill="none" xmlns="http://www.w3.org/2000/svg">
<path d="M16.3825 0H0V20.3932C0 31.2217 8.79297 39.9993 19.6175 39.9993H36V19.6053C36 8.77752 27.2174 0 16.3825 0ZM19.6175 33.782C12.2352 33.782 6.22085 27.7719 6.22085 20.3932V6.21722H16.3825C23.7751 6.21722 29.7791 12.2274 29.7791 19.6053V33.7813H19.6175V33.782Z" fill="url(#paint0_linear_534_7589)"/>
<path d="M36 19.6061V40L29.7791 33.7828V19.6068C29.7791 12.2288 23.7758 6.21868 16.3825 6.21868H6.22085L0 0.00146503H16.3825C27.2174 -8.94605e-06 36 8.77751 36 19.6061Z" fill="url(#paint1_linear_534_7589)"/>
<path d="M17.805 19.918C17.805 20.8047 17.7093 21.5747 17.518 22.228C17.3267 22.8813 17.063 23.4227 16.727 23.852C16.391 24.2767 15.992 24.594 15.53 24.804C15.0727 25.0093 14.578 25.112 14.046 25.112C13.514 25.112 13.0193 25.0093 12.562 24.804C12.1047 24.594 11.7103 24.2767 11.379 23.852C11.0477 23.4227 10.7863 22.8813 10.595 22.228C10.4083 21.5747 10.315 20.8047 10.315 19.918C10.315 19.0313 10.4083 18.2637 10.595 17.615C10.7863 16.9617 11.0477 16.4227 11.379 15.998C11.7103 15.5687 12.1047 15.2513 12.562 15.046C13.0193 14.836 13.514 14.731 14.046 14.731C14.578 14.731 15.0727 14.836 15.53 15.046C15.992 15.2513 16.391 15.5687 16.727 15.998C17.063 16.4227 17.3267 16.9617 17.518 17.615C17.7093 18.2637 17.805 19.0313 17.805 19.918ZM15.81 19.918C15.81 19.1993 15.7587 18.6067 15.656 18.14C15.558 17.6733 15.4273 17.3047 15.264 17.034C15.1007 16.7633 14.9117 16.5743 14.697 16.467C14.487 16.3597 14.27 16.306 14.046 16.306C13.822 16.306 13.605 16.3597 13.395 16.467C13.1897 16.5743 13.0053 16.7633 12.842 17.034C12.6833 17.3047 12.555 17.6733 12.457 18.14C12.359 18.6067 12.31 19.1993 12.31 19.918C12.31 20.6413 12.359 21.2363 12.457 21.703C12.555 22.1697 12.6833 22.5383 12.842 22.809C13.0053 23.0797 13.1897 23.2687 13.395 23.376C13.605 23.4833 13.822 23.537 14.046 23.537C14.27 23.537 14.487 23.4833 14.697 23.376C14.9117 23.2687 15.1007 23.0797 15.264 22.809C15.4273 22.5383 15.558 22.1697 15.656 21.703C15.7587 21.2363 15.81 20.6413 15.81 19.918ZM25.4151 23.579V25H19.7171V23.579H21.7331V18.021C21.7331 17.8997 21.7354 17.776 21.7401 17.65C21.7448 17.524 21.7518 17.3957 21.7611 17.265L20.4311 18.371C20.3378 18.441 20.2468 18.4853 20.1581 18.504C20.0694 18.5227 19.9854 18.525 19.9061 18.511C19.8268 18.4923 19.7568 18.4643 19.6961 18.427C19.6354 18.385 19.5888 18.343 19.5561 18.301L18.9471 17.482L22.0691 14.836H23.6581V23.579H25.4151Z" fill="#004B92"/>
<defs>
<linearGradient id="paint0_linear_534_7589" x1="4.7416" y1="33.2506" x2="31.2446" y2="6.73217" gradientUnits="userSpaceOnUse">
<stop stop-color="#003575"/>
<stop offset="1" stop-color="#007DD4"/>
</linearGradient>
<linearGradient id="paint1_linear_534_7589" x1="16.9941" y1="21.0052" x2="31.2517" y2="6.73931" gradientUnits="userSpaceOnUse">
<stop stop-color="#003575"/>
<stop offset="1" stop-color="#007DD4"/>
</linearGradient>
</defs>
</svg>
