<svg width="72" height="72" viewBox="0 0 72 72" fill="none" xmlns="http://www.w3.org/2000/svg">
<g opacity="0.92">
<rect width="72" height="72" rx="14" fill="#FF4C00" fill-opacity="0.1"/>
<g clip-path="url(#clip0_725_3065)">
<path d="M49.513 32.6072C50.0924 32.0423 50.297 31.2134 50.047 30.4438C49.7969 29.6743 49.1442 29.124 48.3434 29.0077L41.3415 27.9902C41.2738 27.9804 41.2095 27.9542 41.1542 27.914C41.0988 27.8738 41.0541 27.8207 41.0238 27.7593L37.8925 21.4147C37.5344 20.689 36.8093 20.2383 36.0001 20.2383C35.1909 20.2383 34.4658 20.689 34.1077 21.4147L30.9764 27.7594C30.9461 27.8208 30.9014 27.8738 30.846 27.9141C30.7906 27.9543 30.7263 27.9804 30.6586 27.9903L23.6569 29.0077C22.8561 29.124 22.2034 29.6743 21.9533 30.4438C21.7032 31.2134 21.9078 32.0423 22.4873 32.6072L27.5539 37.5458C27.6029 37.5936 27.6395 37.6526 27.6607 37.7177C27.6818 37.7828 27.6868 37.852 27.6752 37.9195L26.4792 44.893C26.3424 45.6905 26.6641 46.4813 27.3187 46.957C27.9733 47.4327 28.8251 47.4942 29.5412 47.1177L35.8037 43.8253C35.8643 43.7934 35.9317 43.7768 36.0002 43.7768C36.0686 43.7768 36.136 43.7934 36.1966 43.8253L42.4592 47.1177C42.7707 47.2815 43.1078 47.3624 43.4432 47.3623C43.8789 47.3623 44.3117 47.2258 44.6815 46.9569C45.3362 46.4812 45.6579 45.6903 45.521 44.8929L44.325 37.9194C44.3134 37.852 44.3185 37.7827 44.3396 37.7176C44.3607 37.6525 44.3974 37.5936 44.4464 37.5458L49.513 32.6072ZM42.6612 38.2049L43.8572 45.1785C43.8972 45.4119 43.7532 45.545 43.6894 45.5913C43.6255 45.6375 43.4544 45.7336 43.2449 45.6233L36.9822 42.3309C36.6794 42.1717 36.3424 42.0884 36.0002 42.0884C35.6581 42.0884 35.3211 42.1716 35.0182 42.3308L28.7557 45.6232C28.5461 45.7334 28.375 45.6375 28.3112 45.5912C28.2474 45.5448 28.1032 45.4118 28.1433 45.1784L29.3394 38.2049C29.3972 37.8677 29.3722 37.5214 29.2665 37.196C29.1608 36.8706 28.9775 36.5758 28.7324 36.337L23.6659 31.3983C23.4963 31.233 23.5347 31.0407 23.5591 30.9657C23.5834 30.8906 23.6655 30.7124 23.8998 30.6784L30.9015 29.661C31.2401 29.6118 31.5617 29.481 31.8385 29.2799C32.1153 29.0788 32.3391 28.8134 32.4905 28.5065L35.6218 22.1618C35.7266 21.9495 35.9214 21.9265 36.0003 21.9265C36.0791 21.9265 36.2739 21.9494 36.3787 22.1618V22.1618L39.51 28.5066C39.6614 28.8134 39.8852 29.0789 40.162 29.28C40.4388 29.4811 40.7603 29.6119 41.0989 29.661L48.1007 30.6785C48.335 30.7125 48.417 30.8907 48.4414 30.9657C48.4658 31.0408 48.5042 31.2332 48.3346 31.3984L43.268 36.3371C43.023 36.5759 42.8397 36.8707 42.734 37.1961C42.6283 37.5215 42.6033 37.8677 42.6612 38.2049ZM45.8614 21.4142C45.4842 21.1402 44.9564 21.2238 44.6824 21.601L43.7863 22.8342C43.5123 23.2113 43.5959 23.7393 43.973 24.0133C44.117 24.1181 44.2905 24.1746 44.4685 24.1745C44.7296 24.1745 44.987 24.0538 45.1521 23.8266L46.0482 22.5933C46.3222 22.2162 46.2386 21.6882 45.8614 21.4142ZM28.21 22.8292L27.3139 21.596C27.04 21.219 26.5121 21.1353 26.1349 21.4092C25.7577 21.6832 25.6741 22.2112 25.9481 22.5883L26.8442 23.8215C26.9225 23.9295 27.0253 24.0174 27.1441 24.0779C27.263 24.1384 27.3945 24.1698 27.5279 24.1696C27.6999 24.1696 27.8736 24.1172 28.0233 24.0083C28.4004 23.7343 28.484 23.2064 28.21 22.8292ZM23.097 39.177C22.9529 38.7337 22.4767 38.491 22.0333 38.635L20.5835 39.1062C20.14 39.2502 19.8975 39.7265 20.0415 40.1698C20.1574 40.5267 20.4884 40.7534 20.8442 40.7534C20.9306 40.7534 21.0185 40.74 21.1052 40.7118L22.555 40.2407C22.9984 40.0966 23.241 39.6204 23.097 39.177ZM36.0003 48.5493C35.5341 48.5493 35.1562 48.9272 35.1562 49.3934V50.9179C35.1562 51.3841 35.5341 51.762 36.0003 51.762C36.4665 51.762 36.8444 51.3841 36.8444 50.9179V49.3934C36.8444 48.9272 36.4665 48.5493 36.0003 48.5493ZM51.4165 39.1073L49.9667 38.6362C49.5234 38.4923 49.047 38.7348 48.903 39.1782C48.7589 39.6217 49.0015 40.0978 49.4449 40.2419L50.8947 40.713C50.979 40.7405 51.0671 40.7545 51.1557 40.7545C51.5116 40.7545 51.8425 40.5277 51.9584 40.171C52.1025 39.7276 51.8599 39.2514 51.4165 39.1073Z" fill="#FF4C00"/>
</g>
</g>
<defs>
<clipPath id="clip0_725_3065">
<rect width="32" height="32" fill="white" transform="translate(20 20)"/>
</clipPath>
</defs>
</svg>
