<svg width="72" height="72" viewBox="0 0 72 72" fill="none" xmlns="http://www.w3.org/2000/svg">
<g opacity="0.92">
<rect width="72" height="72" rx="14" fill="#FF4C00" fill-opacity="0.1"/>
<g clip-path="url(#clip0_725_3081)">
<path d="M48.4342 39.9518C48.1947 39.9524 47.9575 39.9057 47.7361 39.8144C47.5148 39.7231 47.3136 39.589 47.1442 39.4198L32.5742 24.8498C32.232 24.5071 32.0398 24.0426 32.0398 23.5583C32.0398 23.074 32.232 22.6095 32.5742 22.2668L34.3082 20.5338C34.6508 20.192 35.1151 20 35.5992 20C36.0832 20 36.5475 20.192 36.8902 20.5338L51.4592 35.1038C52.1712 35.8158 52.1712 36.9738 51.4592 37.6848L49.7262 39.4188C49.5564 39.5883 49.355 39.7226 49.1333 39.8141C48.9116 39.9055 48.674 39.9523 48.4342 39.9518ZM35.6002 21.5638C35.5658 21.5638 35.5317 21.5706 35.4999 21.5838C35.4682 21.597 35.4394 21.6164 35.4152 21.6408L33.6822 23.3728C33.6332 23.4219 33.6057 23.4885 33.6057 23.5578C33.6057 23.6272 33.6332 23.6937 33.6822 23.7428L48.2512 38.3128C48.3532 38.4148 48.5182 38.4128 48.6212 38.3118L50.3542 36.5788C50.3785 36.5547 50.3978 36.5259 50.411 36.4942C50.4242 36.4626 50.431 36.4286 50.431 36.3943C50.431 36.36 50.4242 36.3261 50.411 36.2944C50.3978 36.2627 50.3785 36.234 50.3542 36.2098L35.7832 21.6398C35.759 21.6157 35.7303 21.5966 35.6987 21.5835C35.6671 21.5705 35.6333 21.5638 35.5992 21.5638H35.6002ZM28.3792 51.9868C27.8912 51.9868 27.4332 51.7968 27.0882 51.4518L20.5402 44.9048C20.1986 44.5622 20.0068 44.0981 20.0068 43.6143C20.0068 43.1305 20.1986 42.6665 20.5402 42.3238L22.2742 40.5898C22.9622 39.9018 24.1662 39.8988 24.8552 40.5898L31.4032 47.1368C31.7472 47.4808 31.9372 47.9388 31.9372 48.4268C31.9372 48.9148 31.7472 49.3738 31.4032 49.7188L29.6702 51.4518C29.501 51.6219 29.2998 51.7568 29.0782 51.8486C28.8566 51.9405 28.619 51.9874 28.3792 51.9868ZM23.5652 41.6198C23.4965 41.62 23.4307 41.6473 23.3822 41.6958L21.6472 43.4298C21.5985 43.4789 21.5712 43.5452 21.5712 43.6143C21.5712 43.6834 21.5985 43.7498 21.6472 43.7988L28.1942 50.3458C28.3282 50.4778 28.4302 50.4778 28.5622 50.3458L30.2972 48.6128C30.3213 48.5887 30.3405 48.56 30.3536 48.5284C30.3667 48.4968 30.3735 48.463 30.3735 48.4288C30.3735 48.3946 30.3667 48.3608 30.3536 48.3292C30.3405 48.2977 30.3213 48.269 30.2972 48.2448L23.7502 41.6958C23.7258 41.6716 23.697 41.6524 23.6652 41.6394C23.6335 41.6264 23.5995 41.6197 23.5652 41.6198Z" fill="#FF4C00"/>
<path d="M31.0535 48.6757C30.846 48.6753 30.6471 48.5926 30.5005 48.4457L23.5475 41.4927C23.4224 41.3676 23.3433 41.2037 23.3234 41.0279C23.3034 40.8521 23.3436 40.6747 23.4375 40.5247L33.3325 24.7467C33.3948 24.6468 33.4788 24.5623 33.5783 24.4995C33.6778 24.4367 33.7902 24.3972 33.9072 24.3839C34.0241 24.3706 34.1425 24.3839 34.2536 24.4229C34.3646 24.4618 34.4655 24.5253 34.5485 24.6087L47.3845 37.4457C47.4674 37.529 47.5304 37.6299 47.569 37.7409C47.6076 37.8518 47.6208 37.9701 47.6075 38.0868C47.5943 38.2036 47.5549 38.3158 47.4925 38.4153C47.43 38.5148 47.3459 38.599 47.2465 38.6617L31.4705 48.5557C31.346 48.6343 31.2008 48.6759 31.0535 48.6757ZM25.0945 40.8277L31.1655 46.8987L45.5835 37.8567L34.1365 26.4097L25.0945 40.8277Z" fill="#FF4C00"/>
<path d="M37.4864 52C37.0855 52.0011 36.6883 51.9226 36.3179 51.7692C35.9474 51.6157 35.6111 51.3903 35.3284 51.106L31.8334 47.61C31.7608 47.5373 31.7032 47.4511 31.6639 47.3561C31.6246 47.2612 31.6044 47.1594 31.6045 47.0567C31.6045 46.9539 31.6248 46.8522 31.6642 46.7573C31.7035 46.6624 31.7612 46.5761 31.8339 46.5035C31.9066 46.4309 31.9929 46.3733 32.0878 46.334C32.1828 46.2948 32.2845 46.2746 32.3873 46.2746C32.49 46.2747 32.5917 46.2949 32.6866 46.3343C32.7816 46.3737 32.8678 46.4313 32.9404 46.504L36.4354 49.999C36.9954 50.56 37.9744 50.562 38.5374 49.999L43.0684 45.468C43.6484 44.888 43.6484 43.944 43.0684 43.365L41.3474 41.645C41.2006 41.4984 41.1181 41.2994 41.118 41.0919C41.1179 40.8844 41.2002 40.6853 41.3469 40.5385C41.4936 40.3917 41.6925 40.3092 41.9001 40.3091C42.1076 40.309 42.3066 40.3914 42.4534 40.538L44.1754 42.258C44.747 42.8308 45.068 43.6069 45.068 44.416C45.068 45.2252 44.747 46.0013 44.1754 46.574L39.6434 51.105C39.361 51.3896 39.0249 51.6152 38.6547 51.7688C38.2844 51.9225 37.8873 52.001 37.4864 52ZM46.8304 25.945C46.6755 25.9452 46.5241 25.8995 46.3952 25.8135C46.2664 25.7275 46.166 25.6052 46.1068 25.4621C46.0475 25.319 46.0321 25.1615 46.0625 25.0096C46.0929 24.8578 46.1677 24.7183 46.2774 24.609L47.8824 23.005C47.955 22.9323 48.0411 22.8745 48.136 22.8351C48.2309 22.7956 48.3326 22.7752 48.4353 22.7751C48.5381 22.775 48.6399 22.7951 48.7348 22.8343C48.8298 22.8734 48.9162 22.931 48.9889 23.0035C49.0617 23.0761 49.1194 23.1622 49.1589 23.2571C49.1983 23.352 49.2187 23.4537 49.2188 23.5565C49.219 23.6592 49.1989 23.761 49.1597 23.856C49.1205 23.9509 49.063 24.0373 48.9904 24.11L47.3854 25.715C47.3129 25.7878 47.2267 25.8454 47.1318 25.8847C47.0369 25.9241 46.9351 25.9442 46.8324 25.944L46.8304 25.945ZM43.4844 23.822C43.3587 23.8223 43.2348 23.7922 43.1231 23.7344C43.0115 23.6766 42.9154 23.5927 42.8431 23.4899C42.7708 23.387 42.7243 23.2683 42.7077 23.1436C42.691 23.019 42.7046 22.8922 42.7474 22.774L43.5164 20.64C43.5948 20.4558 43.7407 20.3086 43.9242 20.2285C44.1077 20.1485 44.3148 20.1416 44.5032 20.2094C44.6916 20.2772 44.8469 20.4144 44.9373 20.593C45.0277 20.7717 45.0463 20.9781 44.9894 21.17L44.2214 23.304C44.1668 23.4557 44.0668 23.5869 43.9349 23.6796C43.8029 23.7723 43.6456 23.8221 43.4844 23.822ZM48.9544 29.291C48.7705 29.2905 48.5926 29.2252 48.4519 29.1067C48.3113 28.9881 48.2169 28.8238 48.1852 28.6426C48.1536 28.4614 48.1868 28.2748 48.279 28.1156C48.3712 27.9564 48.5165 27.8348 48.6894 27.772L50.8234 27.004C50.9201 26.9692 51.0228 26.9538 51.1254 26.9587C51.2281 26.9635 51.3288 26.9886 51.4218 27.0324C51.5148 27.0761 51.5983 27.1378 51.6674 27.2138C51.7366 27.2899 51.7901 27.3788 51.8249 27.4755C51.8597 27.5722 51.8751 27.6749 51.8703 27.7775C51.8654 27.8802 51.8404 27.9809 51.7966 28.0739C51.7528 28.1669 51.6911 28.2504 51.6151 28.3195C51.539 28.3887 51.4501 28.4422 51.3534 28.477L49.2194 29.246C49.1343 29.2762 49.0447 29.2915 48.9544 29.291Z" fill="#FF4C00"/>
</g>
</g>
<defs>
<clipPath id="clip0_725_3081">
<rect width="32" height="32" fill="white" transform="translate(20 20)"/>
</clipPath>
</defs>
</svg>
