<svg width="72" height="72" viewBox="0 0 72 72" fill="none" xmlns="http://www.w3.org/2000/svg">
<g opacity="0.92">
<rect width="72" height="72" rx="14" fill="#FF4C00" fill-opacity="0.1"/>
<g clip-path="url(#clip0_725_3091)">
<path d="M32.2829 51.962H23.831C22.8241 51.962 21.8583 51.562 21.1463 50.85C20.4342 50.1379 20.0342 49.1722 20.0342 48.1652V23.7969C20.0342 22.7899 20.4342 21.8241 21.1463 21.1121C21.8583 20.4 22.8241 20 23.831 20H41.4105C42.4175 20 43.3833 20.4 44.0953 21.1121C44.8074 21.8241 45.2074 22.7899 45.2074 23.7969V33.3498C45.2186 33.4687 45.2049 33.5887 45.1671 33.7021C45.1292 33.8154 45.0682 33.9196 44.9877 34.008C44.9073 34.0963 44.8093 34.1669 44.7001 34.2152C44.5908 34.2636 44.4726 34.2885 44.3531 34.2885C44.2336 34.2885 44.1155 34.2636 44.0062 34.2152C43.8969 34.1669 43.7989 34.0963 43.7185 34.008C43.6381 33.9196 43.577 33.8154 43.5392 33.7021C43.5013 33.5887 43.4876 33.4687 43.4988 33.3498V23.7969C43.4988 23.526 43.4453 23.2578 43.3414 23.0076C43.2376 22.7574 43.0853 22.5302 42.8934 22.339C42.7015 22.1478 42.4737 21.9964 42.2232 21.8934C41.9726 21.7905 41.7042 21.738 41.4333 21.739H23.831C23.5589 21.736 23.2888 21.787 23.0365 21.889C22.7842 21.9911 22.5547 22.1422 22.3611 22.3336C22.1676 22.525 22.014 22.7529 21.9092 23.004C21.8043 23.2552 21.7503 23.5247 21.7504 23.7969V48.1879C21.7503 48.4601 21.8043 48.7296 21.9092 48.9808C22.014 49.2319 22.1676 49.4598 22.3611 49.6512C22.5547 49.8426 22.7842 49.9937 23.0365 50.0958C23.2888 50.1979 23.5589 50.2489 23.831 50.2458H32.2829C32.5105 50.2458 32.7287 50.3363 32.8896 50.4972C33.0506 50.6581 33.141 50.8764 33.141 51.1039C33.141 51.3315 33.0506 51.5498 32.8896 51.7107C32.7287 51.8716 32.5105 51.962 32.2829 51.962Z" fill="#FF4C00"/>
<path d="M39.816 29.1733H25.3879C25.269 29.1846 25.149 29.1708 25.0357 29.133C24.9223 29.0952 24.8181 29.0341 24.7298 28.9537C24.6414 28.8732 24.5708 28.7752 24.5225 28.666C24.4742 28.5567 24.4492 28.4385 24.4492 28.319C24.4492 28.1995 24.4742 28.0814 24.5225 27.9721C24.5708 27.8628 24.6414 27.7648 24.7298 27.6844C24.8181 27.604 24.9223 27.5429 25.0357 27.5051C25.149 27.4672 25.269 27.4535 25.3879 27.4647H39.816C40.0287 27.4848 40.2263 27.5835 40.37 27.7415C40.5138 27.8995 40.5935 28.1054 40.5935 28.319C40.5935 28.5327 40.5138 28.7386 40.37 28.8966C40.2263 29.0546 40.0287 29.1533 39.816 29.1733Z" fill="#FF4C00"/>
<path d="M33.3463 35.8407H25.4108C25.1832 35.8407 24.965 35.7503 24.8041 35.5894C24.6431 35.4284 24.5527 35.2102 24.5527 34.9826C24.5527 34.755 24.6431 34.5368 24.8041 34.3758C24.965 34.2149 25.1832 34.1245 25.4108 34.1245H33.3463C33.5739 34.1245 33.7921 34.2149 33.953 34.3758C34.114 34.5368 34.2044 34.755 34.2044 34.9826C34.2044 35.2102 34.114 35.4284 33.953 35.5894C33.7921 35.7503 33.5739 35.8407 33.3463 35.8407Z" fill="#FF4C00"/>
<path d="M49.1633 43.1381C49.0376 43.1384 48.9132 43.1137 48.7972 43.0654C48.6812 43.0172 48.5759 42.9464 48.4874 42.8572L45.0323 39.3944C44.854 39.2162 44.7539 38.9745 44.7539 38.7224C44.7539 38.4703 44.854 38.2286 45.0323 38.0503C45.2105 37.8721 45.4523 37.772 45.7043 37.772C45.9564 37.772 46.1981 37.8721 46.3764 38.0503L49.8391 41.5131C50.014 41.6931 50.1118 41.9342 50.1118 42.1851C50.1118 42.4361 50.014 42.6772 49.8391 42.8572C49.7507 42.9464 49.6454 43.0172 49.5294 43.0654C49.4133 43.1137 49.2889 43.1384 49.1633 43.1381Z" fill="#FF4C00"/>
<path d="M35.8896 52.0002L36.8541 46.2289L46.4753 36.6077C46.9138 36.1704 47.5077 35.9248 48.127 35.9248C48.7462 35.9248 49.3401 36.1704 49.7786 36.6077L51.2973 38.1264C51.7346 38.5648 51.9802 39.1588 51.9802 39.778C51.9802 40.3973 51.7346 40.9912 51.2973 41.4297L41.6609 51.0357L35.8896 52.0002ZM38.631 47.1098L38.2133 49.6461L40.7496 49.2208L49.9457 40.0324C50.0259 39.9502 50.0708 39.8398 50.0708 39.7249C50.0708 39.61 50.0259 39.4996 49.9457 39.4173L48.4269 37.8986C48.3446 37.8183 48.2343 37.7734 48.1194 37.7734C48.0044 37.7734 47.8941 37.8183 47.8118 37.8986L38.631 47.1098Z" fill="#FF4C00"/>
</g>
</g>
<defs>
<clipPath id="clip0_725_3091">
<rect width="32" height="32" fill="white" transform="translate(20 20)"/>
</clipPath>
</defs>
</svg>
