<svg width="72" height="72" viewBox="0 0 72 72" fill="none" xmlns="http://www.w3.org/2000/svg">
<g opacity="0.92">
<rect width="72" height="72" rx="14" fill="#FF4C00" fill-opacity="0.1"/>
<path d="M48.2903 51.9994H26.22C24.4445 51.9994 23 50.5549 23 48.7794V48.7141C23 46.9387 24.4445 45.4941 26.22 45.4941H48.2903C48.5759 45.4941 48.8064 45.7247 48.8064 46.0103V51.4833C48.8064 51.7689 48.5759 51.9994 48.2903 51.9994ZM26.22 46.5264C25.0134 46.5264 24.0323 47.5075 24.0323 48.7141V48.7794C24.0323 49.9861 25.0134 50.9672 26.22 50.9672H47.7742V46.5264H26.22Z" fill="#FF5A14"/>
<path d="M23.5161 49.2308C23.2314 49.2308 23 49.0003 23 48.7147V23.2525C23 21.4592 24.4932 20 26.3286 20H48.2903C48.5759 20 48.8064 20.2306 48.8064 20.5161V46.0108C48.8064 46.2964 48.5759 46.527 48.2903 46.527H26.22C25.9352 46.527 25.7039 46.2964 25.7039 46.0108C25.7039 45.7253 25.9352 45.4947 26.22 45.4947H47.7742V21.0323H26.3286C25.0625 21.0323 24.0323 22.0285 24.0323 23.2525V48.7147C24.0323 49.0003 23.8009 49.2308 23.5161 49.2308Z" fill="#FF5A14"/>
<path d="M44.4175 49.2997H27.7778C27.641 49.2997 27.5097 49.2453 27.4129 49.1485C27.3161 49.0517 27.2617 48.9204 27.2617 48.7835C27.2617 48.498 27.4931 48.2674 27.7778 48.2674H44.4175C44.7028 48.2674 44.9336 48.498 44.9336 48.7835C44.9336 49.0688 44.7028 49.2997 44.4175 49.2997ZM44.1692 28.1782C44.0744 28.1781 43.9814 28.152 43.9003 28.1028L41.7604 26.7989L39.6206 28.1028C39.5423 28.1505 39.4528 28.1765 39.3612 28.1782C39.2696 28.1799 39.1792 28.1572 39.0993 28.1124C39.0193 28.0675 38.9528 28.0023 38.9064 27.9232C38.8601 27.8442 38.8356 27.7542 38.8355 27.6626V20.5161C38.8355 20.2306 39.0661 20 39.3517 20C39.6369 20 39.8678 20.2306 39.8678 20.5161V26.7427L41.4915 25.7533C41.5725 25.704 41.6654 25.6779 41.7602 25.6779C41.8549 25.6779 41.9479 25.704 42.0288 25.7533L43.6526 26.7427V20.5161C43.6526 20.2306 43.8832 20 44.1687 20C44.454 20 44.6848 20.2306 44.6848 20.5161V27.6621C44.6848 27.7537 44.6603 27.8437 44.6139 27.9228C44.5675 28.0018 44.5009 28.0671 44.4209 28.1119C44.3442 28.1553 44.2574 28.1782 44.1692 28.1782Z" fill="#FF5A14"/>
</g>
</svg>
