<svg width="102" height="103" viewBox="0 0 102 103" fill="none" xmlns="http://www.w3.org/2000/svg">
<rect y="0.318604" width="102" height="102" rx="51" fill="#8932F8" fill-opacity="0.12"/>
<rect x="0.5" y="0.818604" width="101" height="101" rx="50.5" stroke="#8932F8" stroke-opacity="0.12"/>
<path d="M62.1426 26.5566V36.4614C62.1426 37.7749 62.6643 39.0345 63.5931 39.9633C64.5218 40.892 65.7815 41.4138 67.095 41.4138H76.9997" stroke="#8932F8" stroke-width="1.8" stroke-linecap="round" stroke-linejoin="round"/>
<path d="M47 38.3184H58" stroke="#8932F8" stroke-width="1.8" stroke-miterlimit="10" stroke-linecap="round" stroke-linejoin="round"/>
<path d="M46 68.3184H71" stroke="#8932F8" stroke-width="1.8" stroke-miterlimit="10" stroke-linecap="round" stroke-linejoin="round"/>
<path d="M58 47.3184H69" stroke="#8932F8" stroke-width="1.8" stroke-miterlimit="10" stroke-linecap="round" stroke-linejoin="round"/>
<path d="M58 54.3184H69" stroke="#8932F8" stroke-width="1.8" stroke-miterlimit="10" stroke-linecap="round" stroke-linejoin="round"/>
<path d="M58 61.3184H69" stroke="#8932F8" stroke-width="1.8" stroke-miterlimit="10" stroke-linecap="round" stroke-linejoin="round"/>
<path d="M39.0572 74.8424C39.9556 75.6347 41.1107 76.0745 42.3085 76.0805H72.0475C73.361 76.0805 74.6206 75.5587 75.5494 74.6299C76.4781 73.7012 76.9999 72.4415 76.9999 71.1281V38.9376L64.619 26.5566H42.3332C41.0198 26.5566 39.7601 27.0784 38.8314 28.0072C37.9026 28.9359 37.3809 30.1956 37.3809 31.509" stroke="#8932F8" stroke-width="1.8" stroke-linecap="round" stroke-linejoin="round"/>
<path d="M38.929 37.7001H38.2656C37.4657 37.7001 36.6987 38.0178 36.1331 38.5834C35.5676 39.1489 35.2498 39.916 35.2498 40.7158V40.9872C35.2493 41.5161 35.1097 42.0355 34.845 42.4933C34.5804 42.9512 34.2 43.3314 33.742 43.5958L33.0936 43.9728C32.6351 44.2375 32.1151 44.3768 31.5857 44.3768C31.0563 44.3768 30.5363 44.2375 30.0779 43.9728L29.8517 43.8522C29.1597 43.453 28.3375 43.3447 27.5658 43.551C26.794 43.7574 26.1356 44.2616 25.7352 44.9529L25.4035 45.5259C25.0043 46.2179 24.896 47.04 25.1024 47.8118C25.3087 48.5836 25.8129 49.2419 26.5042 49.6424L26.7304 49.7931C27.1862 50.0563 27.5652 50.4341 27.8297 50.8891C28.0942 51.3441 28.2351 51.8604 28.2383 52.3867V53.1557C28.2404 53.6871 28.102 54.2096 27.8372 54.6703C27.5724 55.1311 27.1906 55.5137 26.7304 55.7794L26.5042 55.9151C25.8129 56.3155 25.3087 56.9738 25.1024 57.7456C24.896 58.5174 25.0043 59.3395 25.4035 60.0315L25.7352 60.6045C26.1356 61.2958 26.794 61.8 27.5658 62.0064C28.3375 62.2127 29.1597 62.1045 29.8517 61.7053L30.0779 61.5846C30.5363 61.32 31.0563 61.1806 31.5857 61.1806C32.1151 61.1806 32.6351 61.32 33.0936 61.5846L33.742 61.9616C34.2 62.226 34.5804 62.6062 34.845 63.0641C35.1097 63.522 35.2493 64.0414 35.2498 64.5702V64.8416C35.2498 65.6414 35.5676 66.4085 36.1331 66.9741C36.6987 67.5396 37.4657 67.8574 38.2656 67.8574H38.929C39.7288 67.8574 40.4959 67.5396 41.0615 66.9741C41.627 66.4085 41.9447 65.6414 41.9447 64.8416V64.5702C41.9453 64.0414 42.0849 63.522 42.3495 63.0641C42.6142 62.6062 42.9946 62.226 43.4526 61.9616L44.101 61.5846C44.5594 61.32 45.0795 61.1806 45.6088 61.1806C46.1382 61.1806 46.6583 61.32 47.1167 61.5846L47.3429 61.7053C48.0349 62.1045 48.857 62.2127 49.6288 62.0064C50.4006 61.8 51.0589 61.2958 51.4594 60.6045L51.7911 60.0165C52.1903 59.3244 52.2986 58.5023 52.0922 57.7305C51.8858 56.9588 51.3816 56.3004 50.6903 55.9L50.4642 55.7794C50.004 55.5137 49.6221 55.1311 49.3573 54.6703C49.0925 54.2096 48.9542 53.6871 48.9563 53.1557V52.4017C48.9542 51.8703 49.0925 51.3478 49.3573 50.8871C49.6221 50.4263 50.004 50.0438 50.4642 49.7781L50.6903 49.6424C51.3816 49.2419 51.8858 48.5836 52.0922 47.8118C52.2986 47.04 52.1903 46.2179 51.7911 45.5259L51.4594 44.9529C51.0589 44.2616 50.4006 43.7574 49.6288 43.551C48.857 43.3447 48.0349 43.453 47.3429 43.8522L47.1167 43.9728C46.6583 44.2375 46.1382 44.3768 45.6088 44.3768C45.0795 44.3768 44.5594 44.2375 44.101 43.9728L43.4526 43.5958C42.9946 43.3314 42.6142 42.9512 42.3495 42.4933C42.0849 42.0355 41.9453 41.5161 41.9447 40.9872V40.7158C41.9447 39.916 41.627 39.1489 41.0615 38.5834C40.4959 38.0178 39.7288 37.7001 38.929 37.7001Z" stroke="#8932F8" stroke-width="1.8" stroke-linecap="round" stroke-linejoin="round"/>
<path d="M38.5978 57.2997C41.0961 57.2997 43.1214 55.2745 43.1214 52.7762C43.1214 50.2778 41.0961 48.2526 38.5978 48.2526C36.0995 48.2526 34.0742 50.2778 34.0742 52.7762C34.0742 55.2745 36.0995 57.2997 38.5978 57.2997Z" stroke="#8932F8" stroke-width="1.8" stroke-linecap="round" stroke-linejoin="round"/>
</svg>
