<svg width="102" height="103" viewBox="0 0 102 103" fill="none" xmlns="http://www.w3.org/2000/svg">
<rect y="0.318604" width="102" height="102" rx="51" fill="#0064FB" fill-opacity="0.12"/>
<rect x="0.5" y="0.818604" width="101" height="101" rx="50.5" stroke="#0064FB" stroke-opacity="0.12"/>
<path d="M76.1828 54.5499C75.6861 49.9092 72.4913 46.1741 68.2512 44.8268C69.8884 43.706 70.965 41.8238 70.965 39.6944C70.965 36.2666 68.1763 33.4779 64.7485 33.4779C61.3206 33.4779 58.5319 36.2666 58.5319 39.6944C58.5319 40.2361 58.6019 40.7617 58.7328 41.2629C57.5321 40.407 56.1964 39.7583 54.7813 39.3438C56.8019 38.0791 58.1494 35.8347 58.1494 33.2804C58.1494 29.3382 54.9421 26.1311 51.0001 26.1311C47.058 26.1311 43.8508 29.3382 43.8508 33.2804C43.8508 35.8347 45.1983 38.0791 47.2188 39.3438C45.8037 39.7583 44.4681 40.4069 43.2674 41.2628C43.401 40.7507 43.4684 40.2236 43.4682 39.6944C43.4682 36.2666 40.6795 33.4779 37.2517 33.4779C33.8239 33.4779 31.0352 36.2666 31.0352 39.6944C31.0352 41.8237 32.1119 43.7059 33.7489 44.8267C29.5086 46.174 26.3137 49.9092 25.8171 54.55C25.7926 54.7793 25.8665 55.0082 26.0207 55.1796C26.1748 55.351 26.3945 55.4489 26.625 55.4489L37.6792 55.4488C37.6412 56.0475 37.7606 56.661 38.0485 57.2306L38.9444 59.0031C39.1166 59.3438 39.1733 59.6649 39.128 60.0439L38.8923 62.0161C38.7089 63.5504 39.5402 64.99 40.9607 65.5986L42.1728 66.1176L39.2484 72.399C39.1673 72.5726 39.1354 72.765 39.1564 72.9555C39.1773 73.1459 39.2501 73.3268 39.367 73.4786C39.4833 73.6307 39.6391 73.7479 39.8174 73.8174C39.9958 73.887 40.1898 73.9062 40.3784 73.8729L43.3825 73.348L44.915 75.9855C45.011 76.1511 45.1506 76.2871 45.3186 76.3787C45.4866 76.4703 45.6766 76.514 45.8677 76.5049C46.059 76.4966 46.2444 76.4358 46.4035 76.3292C46.5627 76.2226 46.6894 76.0744 46.77 75.9006L49.598 69.8263L50.4715 69.5624C50.8372 69.4519 51.1632 69.4519 51.5285 69.5624L52.4022 69.8264L55.2302 75.9004C55.3141 76.0817 55.4482 76.2352 55.6167 76.3425C55.7852 76.4499 55.981 76.5066 56.1808 76.506C56.5531 76.506 56.8964 76.3097 57.0856 75.9848L58.6178 73.348L61.6218 73.8728C61.8104 73.9062 62.0045 73.887 62.183 73.8174C62.3614 73.7478 62.5173 73.6305 62.6335 73.4782C62.7503 73.3264 62.8231 73.1455 62.8439 72.9551C62.8648 72.7647 62.8329 72.5723 62.7518 72.3988L59.8274 66.1177L61.0395 65.5985C62.4601 64.9901 63.2913 63.5504 63.1078 62.0161L62.8722 60.0439C62.8269 59.6649 62.8835 59.3438 63.0557 59.0031L63.9517 57.2306C64.2397 56.661 64.359 56.0475 64.321 55.4488H75.375C75.4889 55.4488 75.6017 55.4248 75.7058 55.3784C75.8099 55.332 75.903 55.2642 75.9792 55.1794C76.0554 55.0946 76.1129 54.9948 76.148 54.8863C76.1831 54.7779 76.1949 54.6633 76.1828 54.5499ZM64.7485 35.1029C67.2803 35.1029 69.34 37.1626 69.34 39.6944C69.34 42.2257 67.281 44.2851 64.7498 44.2858H64.7474C62.2161 44.2852 60.1569 42.2257 60.1569 39.6944C60.1569 37.1626 62.2166 35.1029 64.7485 35.1029ZM45.4758 33.2804C45.4758 30.2342 47.9539 27.7561 51.0001 27.7561C54.0462 27.7561 56.5244 30.2342 56.5244 33.2804C56.5244 36.3252 54.0482 38.8027 51.0037 38.8046H50.9965C47.952 38.8025 45.4758 36.3252 45.4758 33.2804ZM51.0001 40.4297L51.0036 40.4296C54.7452 40.4307 58.1845 42.1739 60.3925 45.1391C59.6056 45.4619 58.8571 45.8713 58.1609 46.3598C57.9875 46.3232 57.8115 46.2997 57.6345 46.2894L55.6516 46.1791C55.2705 46.1579 54.964 46.0464 54.6584 45.8176L53.0685 44.6275C51.8314 43.7012 50.1688 43.7013 48.9317 44.6275L47.3417 45.8177C47.0361 46.0464 46.7299 46.1579 46.3486 46.1791L44.3656 46.2894C44.1886 46.2996 44.0126 46.3232 43.8392 46.3598C43.143 45.8713 42.3945 45.4619 41.6077 45.1391C43.8157 42.1739 47.255 40.4307 50.9966 40.4296L51.0001 40.4297ZM32.6602 39.6944C32.6602 37.1626 34.7199 35.1029 37.2517 35.1029C39.7835 35.1029 41.8432 37.1626 41.8432 39.6944C41.8432 42.2258 39.784 44.2853 37.2527 44.2858H37.2502C34.7192 44.2851 32.6602 42.2257 32.6602 39.6944ZM38.7667 53.1568C38.5549 53.3554 38.3686 53.5795 38.2119 53.8239L27.5705 53.824C28.4851 49.2545 32.4977 45.9113 37.2506 45.9109H37.2528C39.0071 45.9111 40.6894 46.3628 42.1812 47.2262C41.7051 47.6779 41.3559 48.2678 41.1964 48.9484L40.7434 50.8824C40.6564 51.254 40.4934 51.5363 40.215 51.7976L38.7667 53.1568ZM45.7636 74.2118L44.5029 72.0421C44.4193 71.8986 44.2938 71.784 44.1432 71.7139C43.9926 71.6438 43.8242 71.6215 43.6605 71.65L41.1884 72.0819L43.5542 67.0005C43.5681 67.0203 43.5823 67.0394 43.596 67.0601L44.683 68.7223C45.3427 69.731 46.4385 70.2986 47.5906 70.2875L45.7636 74.2118ZM58.3395 71.65C58.1758 71.6215 58.0074 71.6438 57.8568 71.7139C57.7062 71.784 57.5807 71.8985 57.4971 72.0421L56.2364 74.2118L54.409 70.2866C54.4203 70.2867 54.4316 70.2878 54.4428 70.2878C55.5828 70.2877 56.6636 69.7212 57.3169 68.7221L58.4042 67.0599C58.4177 67.0392 58.4319 67.0202 58.4458 67.0004L60.8116 72.0818L58.3395 71.65ZM62.5013 56.4976L61.6052 58.2702C61.2887 58.8967 61.1753 59.54 61.2586 60.2368L61.4942 62.2089C61.5928 63.0336 61.1631 63.7778 60.3997 64.1049L58.5739 64.8866C57.9286 65.1631 57.4282 65.583 57.044 66.1705L55.9569 67.8328C55.5023 68.5278 54.6946 68.8217 53.8998 68.5814L51.9985 68.0068C51.3266 67.8039 50.6733 67.8039 50.0014 68.0068L48.1003 68.5814C47.305 68.8221 46.4977 68.528 46.043 67.8327L44.956 66.1705C44.5718 65.5831 44.0713 65.1631 43.4261 64.8867L41.6004 64.1049C40.8368 63.7778 40.4071 63.0336 40.5057 62.2089L40.7414 60.2368C40.8247 59.5399 40.7113 58.8966 40.3946 58.2702L39.4987 56.4976C39.1241 55.7564 39.2731 54.9101 39.8788 54.3415L41.327 52.9823C41.839 52.5018 42.1656 51.936 42.3255 51.2528L42.7786 49.3189C42.968 48.5103 43.6263 47.9579 44.4557 47.9118L46.4387 47.8015C47.1396 47.7624 47.7534 47.5391 48.3154 47.1184L49.9054 45.9282C50.2378 45.6792 50.6189 45.5548 51.0001 45.5548C51.3811 45.5548 51.7622 45.6792 52.0946 45.9282L53.6846 47.1184C54.2465 47.539 54.8604 47.7624 55.5613 47.8015L57.5442 47.9118C58.3736 47.9579 59.0318 48.5103 59.2213 49.3189L59.6744 51.2527C59.8345 51.9361 60.1611 52.5018 60.673 52.9823L62.1212 54.3415C62.7268 54.9101 62.8761 55.7563 62.5013 56.4976ZM63.788 53.8239C63.6314 53.5794 63.445 53.3553 63.2332 53.1568L61.785 51.7976C61.5066 51.5363 61.3436 51.2539 61.2566 50.8822L60.8035 48.9484C60.644 48.2678 60.2949 47.6778 59.8187 47.2262C61.3105 46.3628 62.9929 45.911 64.7473 45.9108H64.7494C69.5021 45.9113 73.5146 49.2544 74.4294 53.8238H63.788V53.8239ZM51 49.3577C46.7255 49.3577 43.248 52.8352 43.248 57.1097C43.248 61.3843 46.7255 64.8618 51 64.8618C55.2744 64.8618 58.7519 61.3843 58.7519 57.1097C58.7519 52.8353 55.2744 49.3577 51 49.3577ZM51 63.2369C47.6215 63.2369 44.873 60.4883 44.873 57.1098C44.873 53.7313 47.6215 50.9828 51 50.9828C54.3784 50.9828 57.1269 53.7313 57.1269 57.1098C57.1269 60.4883 54.3784 63.2369 51 63.2369ZM54.6037 54.966L52.8175 54.9695L52.2688 53.2695C52.1826 53.0008 52.0132 52.7665 51.785 52.6004C51.5568 52.4344 51.2817 52.3452 50.9996 52.3458C50.7175 52.3454 50.4426 52.4346 50.2146 52.6007C49.9867 52.7667 49.8174 53.0009 49.7312 53.2695L49.1825 54.9695L47.396 54.966H47.3937C47.112 54.9655 46.8374 55.0544 46.6096 55.22C46.3817 55.3856 46.2123 55.6192 46.1258 55.8873C46.038 56.1554 46.0378 56.4445 46.1253 56.7128C46.2127 56.981 46.3832 57.2144 46.6122 57.3793L48.0593 58.4266L47.5039 60.1245C47.4158 60.3925 47.4152 60.6817 47.5022 60.9501C47.5892 61.2185 47.7593 61.4523 47.9879 61.6178C48.2155 61.7835 48.4898 61.8729 48.7714 61.873C49.0468 61.873 49.3223 61.7873 49.557 61.6159L51 60.5632L52.4433 61.6159C52.6709 61.7826 52.9456 61.8726 53.2277 61.8729C53.5098 61.8732 53.7847 61.7837 54.0126 61.6173C54.2411 61.452 54.4111 61.2182 54.498 60.9498C54.5849 60.6814 54.5842 60.3923 54.496 60.1244L53.9408 58.4266L55.3879 57.3793C55.6168 57.2144 55.7873 56.981 55.8748 56.7128C55.9622 56.4445 55.9621 56.1554 55.8744 55.8873C55.7878 55.6192 55.6184 55.3855 55.3905 55.2199C55.1625 55.0543 54.8879 54.9654 54.6061 54.966H54.6037ZM52.8156 57.2349C52.5863 57.4001 52.4157 57.634 52.3284 57.9028C52.2411 58.1715 52.2418 58.4611 52.3302 58.7294L52.6708 59.7705L51.7859 59.1251C51.5579 58.9581 51.2827 58.8681 51.0001 58.8679C50.7247 58.8679 50.4493 58.9537 50.2144 59.1251L49.3295 59.7705L49.67 58.7294C49.7584 58.461 49.759 58.1714 49.6716 57.9027C49.5843 57.6339 49.4136 57.4 49.1843 57.2348L48.2971 56.5928L49.3925 56.595H49.3949C49.677 56.5956 49.952 56.5064 50.1801 56.3403C50.4082 56.1743 50.5776 55.94 50.6637 55.6713L51.0002 54.6288L51.3365 55.6709C51.4225 55.9397 51.5919 56.1742 51.82 56.3403C52.0482 56.5065 52.3233 56.5956 52.6056 56.595H52.6079L53.7031 56.5928L52.8156 57.2349Z" fill="#0064FB"/>
</svg>
