<svg width="102" height="103" viewBox="0 0 102 103" fill="none" xmlns="http://www.w3.org/2000/svg">
<rect y="0.318604" width="102" height="102" rx="51" fill="#36CC72" fill-opacity="0.12"/>
<rect x="0.5" y="0.818604" width="101" height="101" rx="50.5" stroke="#36CC72" stroke-opacity="0.12"/>
<path fill-rule="evenodd" clip-rule="evenodd" d="M76.1875 51.3179C76.1875 58.0452 73.5676 64.37 68.8103 69.1273C64.0521 73.8855 57.7273 76.5059 51.0009 76.5059C50.1595 76.5059 49.4774 75.8238 49.4774 74.9825C49.4774 74.1412 50.1595 73.4591 51.0009 73.4591C56.9134 73.4591 62.4732 71.1555 66.6558 66.9729C75.2879 58.3408 75.2879 44.2952 66.6558 35.663C58.0237 27.0309 43.9782 27.0309 35.3459 35.663C35.2796 35.7291 35.2143 35.7964 35.1487 35.8635H37.0699C37.9112 35.8635 38.5933 36.5456 38.5933 37.3869C38.5933 38.2283 37.9112 38.9103 37.0699 38.9103H31.4647C30.6234 38.9103 29.9413 38.2283 29.9413 37.3869V31.7817C29.9413 30.9403 30.6234 30.2582 31.4647 30.2582C32.3061 30.2582 32.9882 30.9403 32.9882 31.7817V33.7152C33.0564 33.6456 33.1243 33.5755 33.1932 33.5067C37.9488 28.7513 44.2736 26.1313 51.001 26.1313C57.7284 26.1313 64.0531 28.7513 68.8104 33.5084C73.5676 38.2657 76.1876 44.5905 76.1876 51.3178L76.1875 51.3179ZM35.1607 51.3179C35.1607 42.5837 42.2665 35.4777 51.0009 35.4777C59.7352 35.4777 66.8411 42.5836 66.8411 51.3179C66.8411 60.0523 59.7352 67.1581 51.0009 67.1581C42.2665 67.1581 35.1607 60.0522 35.1607 51.3179ZM38.2076 51.3179C38.2076 58.3723 43.9465 64.1113 51.0009 64.1113C58.0552 64.1113 63.7942 58.3722 63.7942 51.3179C63.7942 44.2637 58.0552 38.5246 51.0009 38.5246C43.9465 38.5246 38.2076 44.2637 38.2076 51.3179ZM50.239 52.6371L55.3979 55.6168C55.629 55.7508 55.8913 55.8213 56.1584 55.8212C56.6848 55.8212 57.1969 55.548 57.479 55.0595C57.8998 54.3309 57.6504 53.3992 56.9218 52.9784L52.5243 50.4385V43.2801C52.5243 42.4387 51.8422 41.7566 51.0009 41.7566C50.1595 41.7566 49.4774 42.4387 49.4774 43.2801V51.3179C49.4774 51.5853 49.5478 51.848 49.6815 52.0795C49.8152 52.3111 50.0074 52.5034 50.239 52.6371ZM28.8593 51.3179C28.8593 50.4802 28.177 49.795 27.3364 49.795C26.4958 49.795 25.8135 50.4802 25.8135 51.3179C25.8135 52.1556 26.4986 52.841 27.3364 52.841C28.1742 52.841 28.8593 52.1557 28.8593 51.3179ZM45.2691 72.7024C44.4572 72.4865 43.6224 72.9673 43.4036 73.782C43.1877 74.5939 43.6685 75.4288 44.4832 75.6475C45.2951 75.8635 46.1299 75.3827 46.3487 74.5679C46.5646 73.756 46.0838 72.9212 45.2691 72.7024ZM39.9316 70.4914C39.2032 70.0711 38.2704 70.3216 37.8502 71.0499C37.4299 71.7783 37.6774 72.7111 38.4086 73.1313C39.1371 73.5517 40.0669 73.3011 40.4872 72.5728C40.9104 71.8444 40.66 70.9117 39.9316 70.4914ZM33.1921 66.9734C32.5961 67.5694 32.5961 68.5338 33.1921 69.1268C33.7851 69.7228 34.7496 69.7228 35.3455 69.1268C35.9415 68.5338 35.9415 67.5694 35.3455 66.9734C34.7496 66.3775 33.7851 66.3775 33.1921 66.9734ZM29.7461 61.8317C29.0177 62.252 28.7672 63.1819 29.1876 63.9103C29.608 64.6386 30.5407 64.889 31.269 64.4688C31.9974 64.0484 32.2479 63.1156 31.8275 62.3873C31.4071 61.659 30.4744 61.4085 29.7461 61.8317ZM29.6165 57.047C29.3977 56.2352 28.5628 55.7544 27.748 55.9703C26.9361 56.1891 26.4555 57.024 26.6714 57.8358C26.8901 58.6505 27.7251 59.1313 28.5369 58.9154C29.3516 58.6967 29.8324 57.8617 29.6165 57.047ZM27.748 46.6657C28.5628 46.8816 29.3976 46.4008 29.6165 45.589C29.8324 44.7743 29.3516 43.9394 28.5369 43.7206C27.725 43.5046 26.8901 43.9854 26.6714 44.8002C26.4555 45.6121 26.9362 46.4469 27.748 46.6657Z" fill="#36CC72"/>
</svg>
